<?xml version="1.0" encoding="UTF-8" standalone="yes"?><svg xmlns="http://www.w3.org/2000/svg" xmlns:xlink="http://www.w3.org/1999/xlink" width="297.000mm" height="210.000mm" viewBox="0.000000 0.000000 297.000000 210.000000" stroke-linejoin="round" stroke-linecap="round" fill="none" fill-rule="evenodd"><desc>Composer Export</desc><script type="text/ecmascript"><![CDATA[
if(typeof(top) != "undefined")
{
	top.ShowPaper = ShowPaper;
}
function ShowHotSpot(evt,hotspotid)
{
	var svgDocument = evt.target.ownerDocument;
	var strId = "hotspot."+hotspotid;
	var hotspot = svgDocument.getElementById(strId);
	if(hotspot)
		hotspot.setAttribute("opacity",".5");
}
function HideHotSpot(evt,hotspotid)
{
	var svgDocument = evt.target.ownerDocument;
	var strId = "hotspot."+hotspotid;
	var hotspot = svgDocument.getElementById(strId);
	if(hotspot)
		hotspot.setAttribute("opacity","0");

	var toolTip = svgDocument.getElementById('ToolTip');
	if(toolTip)
		toolTip.setAttribute("visibility","hidden");
}
function ShowToolTip(evt,hotspotid,strTooltip)
{
	if(strTooltip=="")
	return;

	// change text
	var svgDocument = evt.target.ownerDocument;
	var tiptext = svgDocument.getElementById('ToolTipText');
	if( !tiptext )
	return;
	tiptext.firstChild.nodeValue = " " + strTooltip + "  " ;

	// show tooltip before, else some refresh issue

	var toolTip = svgDocument.getElementById('ToolTip');
	if(!toolTip)
	return;

	toolTip.setAttribute("visibility","visible");
	toolTip.setAttribute("opacity",".95");

	// move tooltip
	// get viewbox

	var root = svgDocument.documentElement;
	var vbox = (root.getAttribute("viewBox")).split(' ');
	var x0 = parseFloat(vbox[0]);
	var y0 = parseFloat(vbox[1]);
	var vboxW = parseFloat(vbox[2]);
	var vboxH = parseFloat(vbox[3]);

	// get default width of svg

	var strW = root.getAttribute("width");
	var svgW = parseFloat(strW);
	if(strW.indexOf('mm') != -1)
	svgW *= 3.779;

	var strH = root.getAttribute("height");
	var svgH = parseFloat(strH);
	if(strH.indexOf('mm') != -1)
	svgH *= 3.779;  	// 96 dpi  -> 96/25.4 = 3.779

	// update the viewbox / width / height if svg is embedded in html with zoom fit all
	var realx0 = x0;
	var realy0 = y0;
	var realvboxW = vboxW;
	var realvboxH = vboxH;
	var realsvgW = svgW;
	var realsvgH = svgH;

	if ((typeof(top) == "undefined") || (typeof(top.svgctl1) != "undefined")) // embedded in html
	{
		// get window size in pxl

		svgW = window.innerWidth;
		svgH = window.innerHeight;

		// calculate real viewbox

		realsvgW = svgW;
		realsvgH = svgH;
		if((svgW / svgH) > (vboxW / vboxH))
		{
			realvboxW = (vboxH * svgW) / svgH;
			realvboxH = vboxH;
			realx0 = x0 - (realvboxW - vboxW)/2 ;
		}
		else
		{
			realvboxH = (vboxW * svgH) / svgW;
			realvboxW = vboxW;
			realy0 = y0 - (realvboxH - vboxH)/2 ;
		}
	}

	// get user zoom/pan

	var newScale = root.currentScale;
	var translation = root.currentTranslate;

	// transform pxl to user unit

	var xPos = (((evt.clientX+10- translation.x)/newScale) * realvboxW)/realsvgW  + realx0 ;
	var yPos = (((evt.clientY+5- translation.y)/newScale) * realvboxH)/ realsvgH  + realy0 ;
	var scaleForWidth = ( (1 / newScale) * realvboxH) / realsvgH;

	// move tooltip

	toolTip.setAttribute("transform", "translate(" + xPos + "," + yPos + ")" );

	// resize tooltip

	var fontsize = 12;
	tiptext.setAttribute("font-size",fontsize*scaleForWidth);
	tiptext.setAttribute("y", fontsize*scaleForWidth);
	var tipBG = svgDocument.getElementById('ToolTipBG');
	var outline = tiptext.getBBox();
	if(tipBG)
	{
		tipBG.setAttribute("stroke-width", 1*scaleForWidth);
		tipBG.setAttribute("width", Number(outline.width) );
		tipBG.setAttribute("height", Number(outline.height) + fontsize*.5*scaleForWidth );
	}
	var ToolTipShadow = svgDocument.getElementById('ToolTipShadow');
	if(ToolTipShadow)
	{
		ToolTipShadow.setAttribute("width", Number(outline.width) );
		ToolTipShadow.setAttribute("height", Number(outline.height) + fontsize*.5*scaleForWidth );
		ToolTipShadow.setAttribute("x", 3*scaleForWidth);
		ToolTipShadow.setAttribute("y", 3*scaleForWidth);
	}
}
function ShowPaper()
{
  var svgDocument = getDocument();
  var paper = svgDocument.getElementById("paperID");
  if(paper)
  {
    paper.setAttribute("transform","scale(1)");
    paper.setAttribute("opacity","1");
    paper.setAttribute("visibility","visible");
  }
  var svg = svgDocument.getRootElement();
  if(svg)
  {
    svg.setAttribute("width","307.000mm");
    svg.setAttribute("height","220.000mm");
    svg.setAttribute("viewBox","-5.000000 -5.000000 307.000000 220.000000");
  }
}
]]></script><defs><mask id="mask0" x="0" y="0" height="100%" width="100%"><image x="126.411797" y="184.612411" height="21.652370" width="23.743921" xlink:href="BEVEL_files/b82be3a47ebf1bf2_mask_0.jpg"/></mask></defs><g><path style="fill:#000000;fill-opacity:0.098;fill-rule:evenodd" d="M123.77,109.11L119.40,110.80L118.68,110.88L119.38,111.06L119.28,111.21L113.56,112.78L110.79,113.41L123.43,108.77L123.77,108.81zM125.06,105.25L124.43,106.18L123.14,106.97L110.44,112.27L101.50,115.57L100.91,116.01L100.17,116.10L100.89,116.28L94.21,118.19L92.71,118.20L91.85,117.66L92.71,117.43L92.40,117.21L92.44,116.70L92.74,116.61L94.01,117.41L95.52,117.41L108.54,112.45L119.84,107.58L124.25,105.48L125.06,103.84zM119.38,111.06L118.68,110.88L119.40,110.80zM100.89,116.28L100.17,116.10L100.91,116.01zM157.68,47.04L157.68,47.34L156.21,47.50L155.29,49.96L154.79,49.61L154.49,49.12L154.49,47.87L154.96,46.74zM159.23,48.32L159.27,48.66L157.80,49.35L157.37,49.96L155.52,54.68L155.24,54.69L154.74,53.79L154.75,53.10L156.23,48.30L156.48,48.03zM160.79,50.15L160.69,50.92L159.47,51.54L157.81,54.05L155.79,58.81L155.19,59.26L154.51,61.96L154.51,69.18L154.79,72.39L150.74,72.64L150.76,72.07L152.96,71.06L152.96,70.50L151.38,69.96L150.49,69.76L150.49,69.20L152.70,68.19L152.71,67.63L150.56,67.12L150.23,66.89L150.23,66.59L152.71,65.58L152.71,65.29L151.12,64.75L150.22,64.54L150.22,64.26L151.82,63.71L152.70,63.51L152.75,63.18L152.45,62.90L150.21,62.38L151.29,61.87L152.89,61.61L152.98,61.32L152.73,61.07L151.06,60.85L150.78,60.57L151.27,60.30L153.25,60.11L153.25,59.81L151.87,59.55L151.28,59.26L153.51,59.07L153.51,58.77L151.79,58.49L154.76,58.59L156.33,53.35L158.16,49.63zM162.58,52.75L161.81,53.88L160.93,54.57L158.97,57.03L157.14,60.11L155.97,59.86L156.25,58.49L158.67,53.61L159.65,52.24L160.77,52.23zM220.24,53.76L222.30,57.43L222.75,60.57L217.85,61.96L217.58,61.38L217.08,57.44L217.08,54.66L217.53,52.77L218.02,52.46L218.91,52.47zM164.18,55.63L164.21,55.95L163.29,56.66L159.88,60.29L158.84,61.62L157.00,61.35L159.09,57.68L161.30,55.18L162.05,55.08zM166.24,59.28L164.59,60.05L162.61,61.46L160.94,63.44L158.91,63.45L158.32,63.17L160.14,60.81L161.81,59.35L162.75,58.74L164.41,58.75zM208.78,55.70L208.47,57.27L208.47,60.83L208.73,64.04L207.95,64.31L207.68,63.73L207.43,61.61L207.42,57.00L207.95,55.45L209.00,55.34zM167.82,63.19L166.15,63.43L163.81,64.48L162.24,65.78L160.77,65.78L159.61,65.52L161.54,63.78L163.80,62.65L165.22,62.42zM202.22,63.44L202.42,67.87L201.08,67.97L200.83,64.22L201.33,63.14zM187.66,63.42L187.37,66.67L187.08,67.16L187.03,71.01L186.25,71.09L185.79,68.91L185.78,64.03L186.23,63.18L187.40,63.15zM231.32,66.32L231.84,66.02L232.73,66.03L233.24,69.44L233.25,75.00L232.73,76.31L231.87,77.02L231.06,77.00L231.67,75.77L231.94,74.73L231.94,71.00zM168.60,67.10L165.11,67.60L163.56,68.40L162.07,68.39L160.68,68.15L163.09,66.90L164.59,66.57L166.24,66.57zM231.41,68.91L231.67,73.43L231.16,75.78L230.67,76.34L226.11,77.81L225.59,77.79L226.22,76.83L226.46,75.51L226.46,71.78L225.84,67.62L230.03,66.29L230.88,66.30zM188.64,67.89L189.17,68.66L190.53,71.28L190.49,71.59L188.83,72.06L188.15,72.06L187.61,70.23L187.59,67.91L187.81,67.60L188.13,67.56zM209.82,69.68L209.78,70.07L209.44,70.06L209.39,69.44zM142.29,70.31L141.67,71.02L126.03,75.45L124.69,75.53L124.69,73.07L129.94,71.80L141.48,68.47L142.01,68.13zM167.03,70.80L164.85,71.26L163.63,71.26L162.23,71.01L163.81,70.48L165.71,70.48zM217.68,70.39L218.38,74.65L218.38,78.90L217.86,80.73L216.98,81.46L216.46,81.44L217.09,80.22L217.34,78.64L217.34,75.95L216.70,70.45L216.98,70.16L217.58,70.21zM210.20,70.76L211.34,70.46L211.35,71.62L210.99,72.30L210.20,72.40zM201.01,71.16L200.81,70.48L200.91,70.46zM201.69,73.62L202.48,78.56L202.48,82.29L201.88,84.05L201.18,84.65L194.32,86.65L193.27,86.67L194.14,85.69L194.39,84.64L194.66,80.91L194.30,76.48L200.31,74.65L201.38,74.39L201.01,71.16L201.15,71.29zM209.03,72.53L209.52,76.21L209.51,80.21L209.27,81.52L208.65,82.47L207.59,82.56L207.66,82.04L207.97,81.52L208.21,80.21L207.95,75.17L207.57,72.54L207.84,72.26L208.76,72.27zM162.87,74.63L163.10,76.49L163.91,78.31L162.26,78.84L160.44,79.18L160.21,78.86L159.98,77.26L159.98,74.73L160.38,73.53L160.78,73.34L161.05,73.59L161.56,73.71L161.54,72.54zM166.52,74.39L165.20,74.39L163.78,74.13L165.45,74.13zM191.98,76.17L192.83,76.21L193.11,76.71L193.35,78.30L193.34,80.46L192.75,80.66L192.83,82.32L192.51,82.34L192.30,80.91L191.68,80.64L192.07,79.96zM213.44,77.46L213.20,77.89L213.06,77.28zM178.47,80.96L178.76,81.25L184.40,79.59L185.26,79.60L186.05,83.77L186.05,89.07L185.80,90.12L184.92,91.33L180.81,92.46L181.36,98.37L181.36,104.71L181.11,107.07L180.59,108.89L179.57,110.74L173.46,115.10L173.03,115.06L172.73,114.54L172.69,115.59L171.91,115.64L171.70,115.35L171.37,115.54L170.60,115.68L170.15,114.54L169.79,115.06L169.12,115.08L168.59,113.50L168.23,113.72L167.55,113.78L166.77,111.42L165.99,112.04L164.94,109.07L164.58,109.30L164.17,109.35L163.12,106.42L162.88,106.20L162.33,106.21L161.30,103.32L161.01,102.82L160.52,102.53L159.66,100.19L162.09,99.64L162.37,99.92L162.38,100.29L160.75,101.61L160.66,102.11L163.41,101.47L163.65,101.87L162.07,103.16L162.06,103.95L163.30,103.34L164.67,103.03L164.62,103.29L163.10,104.48L163.10,104.99L165.12,104.08L165.74,104.19L164.32,105.42L164.84,105.44L166.19,104.87L166.46,105.42L165.88,105.89L167.02,108.10L167.43,107.20L167.57,107.21L169.62,110.96L170.31,110.09L172.00,113.33L172.68,112.66L173.00,112.70L173.82,114.12L176.46,112.00L176.43,111.66L176.09,111.63L174.83,112.28L174.83,111.79L176.97,109.92L176.94,109.31L176.60,109.27L175.08,109.93L175.10,109.44L177.19,107.32L177.42,106.41L175.27,106.81L175.36,106.03L177.47,103.95L177.45,103.05L175.35,103.42L175.37,102.37L177.20,100.56L177.20,99.40L175.00,99.24L175.11,98.20L176.96,96.38L176.96,95.76L176.66,95.24L174.49,95.08L174.59,93.77L176.16,92.22L176.16,90.80L173.73,90.36L173.53,89.35L175.39,87.52L175.39,86.63L175.10,86.12L172.66,85.70L172.77,84.38L174.35,82.82L174.04,81.45L171.71,80.90L171.34,80.34L176.58,78.56L177.73,78.32zM117.47,79.10L118.29,80.10L118.53,81.43L119.06,81.68L120.11,83.50L120.09,84.90L109.67,90.38L91.32,100.23L90.80,100.21L91.83,98.87L93.50,97.41L112.19,86.38L118.54,82.80L118.58,82.48L118.25,81.93L117.67,81.91L117.14,82.21L101.85,89.86L90.56,95.77L89.51,96.14L89.61,94.82L91.07,92.89L102.81,86.39L111.67,81.69L116.43,79.19L116.40,78.79L116.96,78.78zM150.42,82.64L150.23,81.95L150.33,81.93zM150.69,83.42L150.42,82.64L150.58,82.76zM151.64,86.90L151.66,89.35L150.90,90.42L149.74,90.82L144.52,92.37L144.36,93.79L143.76,94.48L125.05,99.75L125.03,101.23L124.30,102.40L107.58,110.71L95.78,115.86L93.47,115.87L93.16,115.67L93.16,114.51L93.48,114.49L95.07,115.34L95.85,115.15L110.45,108.37L123.99,101.31L124.79,99.39L123.90,98.10L108.91,105.79L96.02,112.49L95.50,112.55L95.50,111.67L110.74,103.44L120.61,97.93L123.24,97.13L123.20,96.11L123.77,95.07L123.64,94.21L144.07,88.46L143.98,87.96L150.54,86.15L150.86,85.94L150.69,83.42L150.82,83.55zM123.21,84.92L124.77,84.10L139.84,79.84L140.43,79.84L140.43,80.72L124.20,85.36L123.20,85.34zM121.67,87.16L121.66,88.81L94.19,103.62L93.66,103.59L120.40,87.26L120.27,85.86L120.92,85.59zM85.21,88.05L84.78,88.28L84.83,87.67L85.16,87.65zM86.18,87.75L86.63,87.15L94.20,84.81L95.08,84.80L88.55,88.02L86.62,89.78L86.21,89.80zM123.26,92.47L122.94,92.96L112.44,98.66L111.91,98.63L122.19,92.37L121.81,91.07L122.61,90.00L122.71,90.03zM87.74,91.16L89.09,88.83L99.94,83.51L113.26,79.59L113.84,79.67L97.33,87.95L88.82,92.20L87.96,92.48zM159.14,95.26L157.29,95.26L158.07,94.98L159.74,94.98zM158.35,97.83L159.38,97.59L161.05,97.60L161.06,98.19L160.68,98.64L158.69,98.63zM59.37,99.38L58.80,99.99L58.30,103.66L58.31,106.79L57.52,107.08L57.00,103.85L57.00,100.28L57.39,99.10L57.69,98.87L58.57,98.87zM111.18,99.41L112.54,99.39L95.07,108.39L94.99,106.97L101.24,103.33L106.80,101.59L111.18,99.12zM49.69,100.27L49.35,102.29L49.70,108.36L48.92,108.64L48.40,105.41L48.40,101.85L48.83,100.19L49.11,99.70L50.01,99.44zM59.88,103.57L60.92,105.15L61.71,107.31L60.59,107.77L59.54,107.85L59.07,106.73L58.73,104.37L59.22,103.31zM89.60,104.11L89.61,107.08L89.01,107.79L82.49,109.60L80.64,109.94L80.67,105.66L88.74,103.30L89.31,103.32zM91.83,104.63L93.77,104.62L92.37,105.44L91.93,105.43zM72.48,107.67L72.32,107.56L72.39,106.69zM73.69,113.23L73.70,118.54L73.43,119.31L72.56,120.53L64.98,122.64L64.47,122.63L65.63,121.15L65.87,119.57L65.87,114.80L65.55,112.17L72.64,110.18L72.48,107.67L72.62,107.79zM93.24,109.05L92.73,109.43L92.59,108.83zM87.26,110.89L86.72,110.90L86.72,110.42L86.99,110.38zM119.38,111.06L119.40,110.80L120.38,110.89zM92.99,112.46L92.66,112.54L92.71,111.92zM94.82,112.73L93.37,112.77L93.39,112.46L94.01,112.42zM64.82,116.17L64.23,116.37L64.02,118.05L63.72,118.06L63.50,116.64L63.15,116.13L63.53,114.61L63.52,112.00L64.30,111.90zM88.83,113.44L88.80,114.40L88.49,114.41L88.57,113.18zM110.66,113.57L110.09,113.50L110.79,113.41zM50.75,114.36L50.40,114.36L50.40,114.01L50.75,114.01zM58.69,114.67L59.35,118.45L59.36,123.75L58.84,125.06L57.96,125.78L57.43,125.76L58.06,124.80L58.31,123.48L58.31,119.23L57.65,114.78L57.95,114.48zM90.38,115.27L90.64,116.72L90.12,116.66L90.14,115.01zM100.89,116.28L100.91,116.01L101.61,116.10zM52.32,115.94L51.96,116.63L51.18,116.72L51.45,115.06L51.98,114.74L52.31,114.78zM49.18,120.01L49.19,125.58L48.42,127.15L44.40,128.34L43.90,128.89L42.85,129.67L42.04,129.66L42.68,128.71L42.93,127.66L42.93,123.14L42.31,118.98L43.88,118.18L47.53,117.14L48.67,117.13zM171.02,113.59L171.22,114.61L170.91,114.33L170.91,113.49z"/><g id="Actor_.0"><g style="stroke:#000000;stroke-width:0.176"><path d="M57.03,104.36L56.91,103.05L56.87,101.88L56.92,100.86L57.06,100.02L57.27,99.39L57.56,98.96L57.91,98.76L58.05,98.74L58.49,98.84L58.98,99.16L59.01,99.19L59.51,99.69L60.07,100.43L60.64,101.37L61.22,102.47L61.79,103.72L62.35,105.09L62.87,106.55L63.35,108.07L63.78,109.63L64.14,111.17L64.44,112.69L64.66,114.11L64.81,115.48L64.87,116.71L64.85,117.78L64.74,118.68L64.56,119.38L64.34,119.80L64.29,119.88L63.96,120.15L63.56,120.21L63.10,120.04L62.60,119.64L62.06,119.04L61.49,118.23L60.92,117.24L60.34,116.09L59.77,114.80L59.23,113.39L58.72,111.91L58.25,110.37L57.84,108.82L57.50,107.27L57.22,105.78L57.03,104.36"/><path d="M59.15,110.14L58.59,107.79L58.27,105.63L58.24,103.89L58.49,102.75L59.00,102.34L59.71,102.71L60.55,103.80L61.43,105.52L62.24,107.66L62.91,109.99L63.35,112.28L63.53,114.26L63.42,115.72L63.03,116.50L62.41,116.52L61.63,115.78L60.89,114.58L60.76,114.36L59.90,112.41L59.15,110.14"/><path d="M58.79,102.51L58.77,102.31L58.83,102.48"/><path d="M59.00,102.34L59.76,101.89L59.70,101.64L59.48,100.97L59.23,100.39L58.97,99.97L58.84,99.83L58.80,100.15L58.74,102.23L58.77,102.53"/><path d="M58.77,102.31L58.74,102.23"/><path d="M59.03,99.21L58.84,99.83"/><path d="M58.90,99.66L59.33,99.54"/><path d="M60.04,97.66L58.83,96.35"/><path d="M60.36,104.24L60.39,104.29L59.87,103.71"/><path d="M59.53,103.59L59.91,103.75"/><path d="M59.76,101.89L59.92,101.79L60.56,101.61L60.60,101.55L60.64,101.37"/><path d="M60.42,101.65L60.24,101.56L59.99,101.24L59.73,100.73L59.49,100.10L59.32,99.50"/><path d="M60.39,104.29L60.97,105.27L61.58,106.62L62.14,108.17L62.60,109.83L62.94,111.45L63.13,112.94L63.15,114.16"/><path d="M60.56,101.61L60.74,101.56"/><path d="M61.33,99.77L62.62,102.53L63.83,105.75"/><path d="M62.41,116.52L63.47,116.52L63.60,116.51L63.65,116.71L63.74,117.35L63.75,117.86L63.67,118.20L62.87,116.91L62.67,116.52"/><path d="M63.01,114.89L63.02,114.85L62.79,115.20"/><path d="M63.02,114.85L63.15,114.11"/><path d="M64.59,119.25L64.54,119.21L64.44,118.93L64.24,118.23L64.11,117.56L64.06,116.98L64.09,116.54L64.11,116.50L64.49,116.39L64.62,116.52L64.87,116.93"/><path d="M64.54,119.21L64.04,118.68L63.72,118.27L64.22,118.13"/><path d="M63.72,118.27L63.67,118.20"/><path d="M64.49,116.39L64.85,116.29"/><path d="M63.60,116.51L64.11,116.50"/><path d="M65.64,122.29L65.05,122.72"/><path d="M65.26,122.57L69.02,121.58"/><path d="M65.66,112.70L64.86,109.22"/><path d="M66.15,120.91L66.32,118.75"/><path d="M72.30,106.46L72.30,106.45"/></g><g style="stroke:#000000;stroke-width:0.529"><path d="M63.52,94.33L57.79,95.93L57.07,96.25L56.95,96.35L56.50,97.09L56.43,97.22L56.14,98.40L56.13,98.54L56.02,100.09L56.08,101.99L56.32,104.16L56.72,106.51L57.12,108.30"/><path d="M72.30,106.46L72.92,108.94L73.40,111.37L73.72,113.64L73.87,115.68L73.85,117.41L73.84,117.54L73.64,118.92L73.27,119.88L73.19,120.02L72.66,120.52L72.54,120.63L72.43,120.68L69.02,121.58L64.85,122.78L64.37,122.74L64.22,122.72L63.43,122.26L63.31,122.18L62.44,121.27L62.36,121.16L61.46,119.84L60.53,118.14L59.62,116.13L58.75,113.88L58.28,112.46"/><path d="M64.74,93.99L65.05,93.91L65.18,93.89L65.33,93.92L66.06,94.13L66.19,94.21L67.02,94.90L67.91,96.03L67.99,96.13L68.91,97.65L69.83,99.51L70.73,101.66L71.56,104.00L72.30,106.45"/></g></g><g id="Actor_.1"><g style="stroke:#000000;stroke-width:0.176"><path d="M218.17,52.45L218.81,52.50L218.78,52.48"/><path d="M220.38,53.95L220.38,53.96L219.55,53.00L218.81,52.50"/><path d="M220.38,53.96L221.26,55.34L222.16,57.08L223.04,59.12L223.86,61.37L224.53,63.54L224.59,63.75L225.21,66.16L225.68,68.52L226.00,70.73L226.15,72.72L226.12,74.39L225.91,75.67L225.54,76.54"/><path d="M225.95,70.37L224.88,67.77L223.82,64.52L222.98,61.18L222.42,58.00L222.39,57.61"/><path d="M221.92,50.20L223.21,49.84L224.25,50.25L225.45,51.55L226.75,53.65L228.04,56.40L229.25,59.63L230.28,63.09L231.08,66.57L231.44,68.92L231.58,69.83L231.75,72.63L231.58,74.80L231.08,76.18L230.28,76.68L229.41,76.93"/><path d="M225.06,76.93L225.05,76.93L225.55,76.52"/></g><g style="stroke:#000000;stroke-width:0.529"><path d="M221.92,50.20L222.33,49.44L222.35,49.42L222.97,49.06L224.31,48.69L224.33,48.68L225.08,48.82L225.94,49.44L226.86,50.52L227.82,52.00L228.79,53.85L229.74,56.00L230.65,58.40L231.47,60.94L232.17,63.54L232.65,65.69L232.75,66.13L233.17,68.60L233.42,70.87L233.49,72.87L233.39,74.53L233.10,75.82L232.65,76.66L232.63,76.68L232.01,77.04L230.67,77.41L230.65,77.42L229.90,77.28L229.41,76.93L225.33,78.08L225.31,78.08L224.58,77.99L223.75,77.41L222.85,76.36L221.92,74.91L221.04,73.23L220.97,73.10L220.05,70.97L219.18,68.63L218.39,66.14L217.72,63.59L217.37,61.93L217.19,61.09L216.82,58.72L216.62,56.57L216.60,54.71L216.75,53.18L217.09,52.10L217.10,52.08L217.59,51.45L217.61,51.43L217.63,51.42L221.92,50.20"/></g></g><g id="Actor_.2"><g style="stroke:#000000;stroke-width:0.176"><path d="M50.96,117.01L51.00,116.96L51.30,116.17L51.35,115.91L51.33,115.54L51.26,115.08L51.15,114.60L50.99,114.12L50.81,113.72L50.08,112.46L49.54,111.18L49.07,109.71L48.75,108.23L48.35,105.19L48.28,102.64L48.54,100.77L49.11,99.70L49.96,99.51L50.11,99.60"/><path d="M48.76,97.31L49.23,97.28"/><path d="M50.45,114.39L50.51,114.70L50.60,115.02L50.71,115.30L50.83,115.52L50.94,115.67L51.04,115.71L51.10,115.64L51.13,115.48L51.13,115.24L51.08,114.95L51.00,114.63L50.90,114.33L50.78,114.07L50.67,113.89L50.56,113.80L50.48,113.81L50.43,113.92L50.42,114.12L50.45,114.39"/><path d="M50.14,97.57L50.90,98.12L52.21,99.86L53.58,102.36L54.91,105.45L55.69,107.69L56.12,108.94L57.14,112.60L57.89,116.21L58.33,119.52L58.43,122.33L58.18,124.45L57.61,125.76L56.74,126.16"/><path d="M54.65,123.34L54.54,123.19L54.42,122.97L54.31,122.69L54.22,122.37L54.16,122.06L54.13,121.79L54.13,121.68L54.14,121.59L54.19,121.48L54.27,121.47L54.38,121.56L54.49,121.74L54.61,122.00L54.71,122.31L54.79,122.62L54.83,122.91L54.84,123.15L54.81,123.31L54.74,123.38L54.65,123.34"/><path d="M57.20,124.17L56.76,124.81L56.35,124.76L55.83,124.21L55.27,123.22L54.57,121.48L54.38,121.15L54.21,120.94L54.07,120.89"/></g><g style="stroke:#000000;stroke-width:0.529"><path d="M50.11,99.60L49.65,100.46L49.39,102.33L49.46,104.88L49.86,107.92L50.19,109.40L50.65,110.87L51.19,112.15L51.92,113.41L52.10,113.81L52.26,114.29L52.38,114.77L52.45,115.23L52.46,115.60L52.42,115.86L52.11,116.65L52.07,116.70L50.96,117.01L50.90,116.99L50.83,116.91L50.76,116.78L50.69,116.61L49.54,113.03L48.62,109.36L47.98,105.84L47.67,102.69L47.69,100.11L48.07,98.28L48.76,97.31L49.23,97.18"/><path d="M57.20,124.17L57.39,123.90L57.71,122.16L57.70,119.73L57.36,116.77L56.72,113.48L55.81,110.11L54.71,106.88L53.48,104.03L52.23,101.75L51.02,100.21L50.11,99.60"/><path d="M57.20,124.17L56.94,123.90L56.39,122.91L55.68,121.17L55.50,120.84L55.32,120.63L55.18,120.58L54.07,120.89L53.97,120.98L53.92,121.23L53.93,121.59L54.08,123.35L54.11,123.53L54.15,123.72L54.22,123.91L54.29,124.08L54.36,124.20L55.63,125.63L56.74,126.16L57.85,125.85L58.72,125.45L59.30,124.14L59.54,122.02L59.44,119.21L59.00,115.90L58.25,112.29L57.24,108.63L56.02,105.14L54.69,102.05L53.33,99.55L52.01,97.82L50.83,96.95L50.44,96.97"/></g></g><g id="Actor_.3"><g style="stroke:#000000;stroke-width:0.176"/><g style="stroke:#000000;stroke-width:0.529"><path d="M123.27,74.37L123.37,74.67L123.65,75.10L123.90,75.36L124.28,75.55L124.72,75.65L125.21,75.66L125.69,75.57L141.26,71.24L141.68,71.07L142.02,70.83L142.23,70.53L142.28,70.22L142.10,67.76L141.99,67.46L141.71,67.03L141.46,66.77L141.09,66.58L140.64,66.48L140.15,66.47L139.67,66.56L124.11,70.90L123.68,71.06L123.34,71.31L123.14,71.60L123.08,71.91L123.27,74.37"/></g></g><g id="Actor_.4"><g style="stroke:#000000;stroke-width:0.176"><path d="M44.05,128.57L44.09,128.49L44.38,127.20L44.48,125.54L44.41,123.54L44.15,121.26L43.73,118.79L43.16,116.21L42.45,113.60L41.63,111.06L40.73,108.67L39.78,106.52L38.81,104.66L37.85,103.18L36.93,102.10L36.56,101.84"/></g><g style="stroke:#000000;stroke-width:0.529"><path d="M44.05,128.57L43.63,129.33L43.62,129.35L42.99,129.71L41.66,130.08L41.64,130.08L40.91,129.95L40.88,129.95L40.86,129.94L40.03,129.33L39.10,128.25L38.14,126.77L37.17,124.92L36.22,122.76L35.32,120.37L34.50,117.83L33.79,115.23L33.22,112.64L32.80,110.17L32.55,107.90L32.47,105.90L32.58,104.21L32.86,102.95L33.32,102.11L33.34,102.09L33.96,101.73L35.29,101.35L35.32,101.35L36.07,101.49L36.56,101.84L38.26,101.36"/><path d="M39.47,101.01L40.63,100.69L40.66,100.68L41.36,100.77L41.38,100.78L41.40,100.79L42.21,101.36L43.10,102.39L44.05,103.86L44.99,105.67L45.20,106.14L45.92,107.80L46.79,110.14L47.57,112.63L48.24,115.18L48.77,117.68L49.15,120.05L49.35,122.20L49.37,124.06L49.21,125.58L48.88,126.67L48.87,126.69L48.37,127.32L48.36,127.34L48.33,127.35L44.05,128.57"/></g></g><g id="Actor_.5"><g style="stroke:#000000;stroke-width:0.176"><path d="M209.94,72.71L209.98,72.66L210.29,71.87L210.33,71.61L210.32,71.24L210.25,70.78L210.13,70.30L209.97,69.82L209.80,69.42L209.06,68.16L208.52,66.88L208.06,65.41L207.73,63.93L207.33,60.89L207.26,58.34L207.52,56.47L208.10,55.40L208.95,55.21L209.09,55.30"/><path d="M207.74,53.01L208.71,52.96L209.88,53.83L211.20,55.56L212.57,58.06L213.90,61.15L215.11,64.64L215.22,65.03L216.12,68.30L216.87,71.91L217.31,75.22L217.41,78.03L217.17,80.15L216.59,81.46L215.72,81.86"/><path d="M209.82,71.23L209.70,71.00L209.59,70.72L209.50,70.40L209.43,70.09L209.41,69.82L209.42,69.62L209.47,69.51L209.55,69.50L209.65,69.59L209.77,69.77L209.89,70.03L209.99,70.34L210.07,70.65L210.11,70.94L210.12,71.18L210.09,71.34L210.02,71.41L209.93,71.37L209.82,71.23"/><path d="M216.18,79.87L215.74,80.51L215.33,80.46L214.82,79.91L214.26,78.92L213.55,77.18L213.37,76.85L213.20,76.64L213.05,76.59"/><path d="M213.63,79.04L213.52,78.90L213.40,78.67L213.29,78.39L213.20,78.07L213.14,77.76L213.11,77.49L213.11,77.38L213.13,77.29L213.17,77.18L213.26,77.17L213.36,77.26L213.48,77.44L213.59,77.70L213.69,78.01L213.77,78.32L213.78,78.38L213.82,78.62L213.83,78.85L213.79,79.01L213.73,79.08L213.63,79.04"/></g><g style="stroke:#000000;stroke-width:0.529"><path d="M216.18,79.87L215.93,79.60L215.37,78.61L214.66,76.87L214.48,76.54L214.31,76.33L214.17,76.28L213.05,76.59L212.95,76.68L212.90,76.93L212.91,77.29L213.07,79.05L213.09,79.23L213.14,79.42L213.20,79.61L213.27,79.78L213.34,79.90L214.62,81.33L215.72,81.86L216.84,81.55L217.70,81.15L218.28,79.84L218.53,77.72L218.43,74.91L217.99,71.60L217.24,67.99L216.22,64.33L215.01,60.84L213.85,58.15L213.68,57.75L212.31,55.25L211.00,53.52L209.82,52.65L208.85,52.70L207.74,53.01L207.05,53.98L206.68,55.82L206.65,58.39L206.97,61.54L207.61,65.06L208.53,68.73L209.67,72.31L209.74,72.48L209.82,72.61L209.89,72.69L209.94,72.71L211.05,72.40L211.09,72.35L211.40,71.56L211.44,71.30L211.43,70.93L211.36,70.47L211.24,69.99L211.09,69.51L210.91,69.11L210.17,67.85L209.63,66.57L209.17,65.10L208.84,63.62L208.44,60.58L208.37,58.03L208.63,56.16L209.09,55.30"/><path d="M216.18,79.87L216.37,79.60L216.69,77.86L216.69,75.43L216.35,72.47L216.28,72.15L215.70,69.19L214.79,65.81L213.69,62.58L212.47,59.73L211.21,57.45L210.01,55.91L209.09,55.30"/></g></g><g id="Actor_.6"><g style="stroke:#000000;stroke-width:0.176"><path d="M82.70,94.81L82.74,95.25L82.75,95.37L82.73,95.45L82.70,95.48L82.65,95.45L82.37,95.14L82.12,94.94"/><path d="M82.67,95.47L82.71,95.47"/><path d="M81.88,91.08L82.16,91.50L82.46,92.03L82.51,92.10L82.56,92.12L82.59,92.09L82.61,92.01L82.64,91.50L82.63,91.31L82.60,91.16L82.55,91.01L82.40,90.63"/><path d="M82.53,92.11L82.58,92.10"/><path d="M82.20,88.30L82.48,88.89L82.77,89.58L82.83,89.69L82.88,89.76L82.94,89.78L82.96,89.74L83.09,89.41L83.10,89.31L83.08,89.18L83.05,89.03L83.01,88.88L82.77,88.15L82.62,87.62"/><path d="M82.56,87.40L83.04,86.86L83.30,87.56L83.55,88.35L83.61,88.49L83.67,88.60L83.72,88.67L83.77,88.68L83.98,88.62L84.01,88.56L84.01,88.46L84.00,88.32L83.79,87.42L83.64,86.69L84.34,86.90L84.68,86.10L85.17,84.83L84.79,84.75"/><path d="M83.04,86.86L83.84,85.12"/><path d="M83.64,86.69L84.42,85.35L84.67,84.94"/><path d="M93.26,111.16L94.67,111.59L95.32,111.84L95.36,112.89L94.11,113.00L93.31,112.98L93.26,111.16L92.98,110.60L92.70,110.11L92.64,110.00L92.59,109.86L92.54,109.70L92.51,109.55L92.44,108.81L92.44,108.69L92.46,108.61L92.50,108.58L92.54,108.61L92.82,108.92L93.07,109.13L92.74,106.91L92.47,106.53L92.21,106.23L92.15,106.16L92.10,106.05L92.04,105.90L92.00,105.75L91.81,104.76L91.81,104.64L91.83,104.56L91.87,104.54L92.10,104.61L92.29,104.58L91.72,102.17L91.48,102.01L91.27,101.95L91.22,101.92L91.16,101.84L91.11,101.73L91.05,101.58L90.81,100.72L90.77,100.56L90.75,100.41L90.75,100.29L90.77,100.22L90.93,100.04L91.05,99.78L90.30,97.42L90.12,97.50L89.97,97.67L89.93,97.69L89.88,97.66L89.83,97.58L89.77,97.46L89.43,96.52L89.38,96.34L89.36,96.19L89.37,96.09L89.44,95.67L89.48,95.20L88.61,93.13L88.50,93.43L88.42,93.88L88.38,93.90L88.33,93.87L88.27,93.78L86.33,90.35L86.27,90.21L86.22,90.06L86.19,89.90L86.08,89.16L85.95,88.43L85.11,87.49L85.18,88.13L85.29,88.96L85.29,89.06L85.27,89.12L85.23,89.14L85.21,89.12L84.95,88.93L84.90,88.87L84.84,88.76L84.78,88.62L84.73,88.46L84.54,87.66L84.34,86.90"/><path d="M85.95,88.43L86.33,87.58L86.88,86.19L86.42,85.69L86.00,86.23L85.11,87.49"/><path d="M85.08,89.02L85.29,88.95"/><path d="M85.17,84.83L91.21,82.92L94.87,81.86"/><path d="M87.31,111.13L87.24,110.94L86.92,110.28L86.86,110.20L86.81,110.16L86.77,110.18L86.75,110.24L86.68,110.63L86.58,110.94"/><path d="M86.09,108.62L86.67,110.67"/><path d="M86.70,90.99L88.10,93.42L88.23,93.69"/><path d="M86.34,90.37L86.39,90.46L86.71,90.91L86.76,90.95L86.79,90.94L86.82,90.88L86.82,90.78L86.80,90.20L86.82,89.70L87.83,88.63L88.31,88.19L88.81,89.06L88.17,90.46L87.72,91.29L87.77,91.92L87.79,92.53L87.81,92.67L87.84,92.83L87.89,92.98L88.10,93.42"/><path d="M86.82,89.70L87.72,91.29"/><path d="M86.88,86.19L92.81,83.71L96.39,82.31L102.39,80.14"/><path d="M86.42,85.69L88.90,84.68L94.73,82.47L97.10,81.63L101.89,80.06"/><path d="M89.08,114.70L89.00,114.16L88.96,114.01L88.91,113.85L88.86,113.71L88.80,113.60L88.51,113.19L88.48,113.15L88.43,113.11L88.39,113.12L88.37,113.18L88.39,113.86L88.37,114.36"/><path d="M88.61,93.13L89.74,92.32L90.27,92.01L90.77,93.15L96.65,89.79L100.18,87.82L102.29,86.68"/><path d="M88.81,89.06L94.70,86.08L96.89,85.00L102.35,82.45"/><path d="M88.31,88.19L90.76,86.97L96.52,84.23L98.84,83.17L102.36,81.66"/><path d="M90.08,116.58L90.01,115.93L89.89,115.10L89.90,115.00L89.92,114.94L89.96,114.93L90.24,115.13L90.29,115.19L90.35,115.30L90.41,115.44L90.46,115.60L90.65,116.41L90.81,117.01"/><path d="M89.97,97.67L89.93,97.69"/><path d="M90.30,97.42L91.54,96.93L92.12,96.76L92.55,98.08L91.66,99.18L91.05,99.78"/><path d="M90.51,97.34L93.32,95.72L90.12,97.50"/><path d="M89.48,95.20L90.00,94.46L90.77,93.15"/><path d="M90.27,92.01L92.73,90.61L98.47,87.44L102.31,85.40"/><path d="M93.37,118.49L91.55,117.37L90.85,117.16"/><path d="M91.55,117.37L91.40,116.64L91.19,115.74L91.18,115.60L91.18,115.50L91.20,115.45L91.42,115.38L91.46,115.39L91.52,115.46L91.58,115.57L91.63,115.71L91.89,116.50L92.14,117.21L92.63,116.66L92.41,115.92L92.18,115.18L92.13,115.03L92.10,114.88L92.09,114.75L92.10,114.65L92.22,114.32L92.26,114.28L92.30,114.30L92.36,114.37L92.42,114.48L92.71,115.18L92.99,115.77L93.82,115.98L95.13,116.22L95.25,115.49L94.62,115.16L93.22,114.52L92.96,113.84L92.69,113.19L92.63,113.05L92.59,112.90L92.56,112.75L92.55,112.57L92.58,112.06L92.59,111.97L92.63,111.94L92.67,111.96L92.73,112.03L93.03,112.57L93.31,112.98"/><path d="M91.32,115.41L91.42,115.38L91.32,115.41L91.39,115.39"/><path d="M91.35,115.40L91.40,115.39"/><path d="M90.81,100.72L91.91,105.29"/><path d="M90.57,83.09L90.79,83.03"/><path d="M125.18,103.45L124.83,104.26L124.27,105.66L117.56,108.72L113.55,110.46L106.81,113.24L104.14,114.29L97.45,116.77L94.58,117.78L94.31,118.12L92.97,117.58L92.14,117.21"/><path d="M91.72,102.17L93.06,102.00L93.67,102.00L94.00,103.35L92.97,104.17L92.29,104.58L99.62,100.45L107.06,96.28L107.02,96.31"/><path d="M92.12,96.76L94.60,95.25L100.40,91.79L102.73,90.42L108.24,87.23L104.97,89.09L97.58,93.26L93.32,95.72"/><path d="M92.63,116.66L93.98,117.42L94.58,117.78"/><path d="M92.99,115.77L93.22,114.52"/><path d="M93.07,109.13L93.82,108.93L94.97,108.45L101.19,104.95L108.57,100.74L115.94,96.63"/><path d="M92.74,106.91L94.13,107.06L94.77,107.19L94.97,108.45"/><path d="M92.55,98.08L102.08,92.34L107.99,88.85L110.38,87.48L116.20,84.18L118.64,82.81L118.14,81.79L112.17,85.03L108.24,87.23L108.63,87.01"/><path d="M94.31,118.12L101.21,115.81L105.33,114.33L112.12,111.72L114.84,110.62L121.46,107.81L124.23,106.56L124.27,105.66"/><path d="M94.00,103.35L100.10,99.69L109.75,93.83L120.54,87.35L120.98,87.50L121.87,87.70"/><path d="M93.67,102.00L102.12,96.85L110.47,91.78L114.05,89.65L120.08,86.11L120.64,85.68"/><path d="M95.25,115.49L98.04,114.26L104.52,111.30L107.11,110.06L113.63,106.84L117.51,104.85L124.01,101.43L124.13,102.60L121.45,104.01L115.04,107.23L112.40,108.51L105.82,111.60L101.83,113.38L95.13,116.22"/><path d="M95.36,112.89L101.85,109.63L105.71,107.61L112.07,104.17L114.63,102.76L123.75,97.62L123.43,97.76L120.83,99.27"/><path d="M95.32,111.84L98.01,110.44L101.43,108.62L104.28,107.10L106.79,105.74L113.10,102.21L116.86,100.07L123.15,96.43L123.16,96.43L123.43,97.76"/><path d="M94.77,107.19L97.38,105.68L103.46,102.12L105.88,100.69L121.81,91.15L122.20,92.50L119.67,94.04L113.64,97.64L104.99,102.74L101.42,104.81"/><path d="M100.06,116.67L103.18,115.80L105.93,114.96L112.86,112.71L116.99,111.28L123.91,108.70L123.72,109.25"/><path d="M101.55,96.30L106.27,93.72L113.79,89.53L120.52,85.75"/><path d="M103.52,84.78L107.99,82.50L110.18,81.44L116.19,78.63L116.68,79.31L114.23,80.51L108.42,83.42L106.04,84.66L103.50,86.03"/><path d="M103.57,81.90L106.50,80.62L112.36,78.19L114.85,77.22L114.42,76.93"/><path d="M113.99,77.09L108.34,79.20L104.77,80.63L103.58,81.14"/><path d="M103.60,79.73L104.80,79.32L110.78,77.45"/><path d="M110.84,99.48L123.01,92.71"/><path d="M123.54,109.32L120.86,110.28L114.07,112.58L111.12,113.51"/><path d="M115.14,77.39L114.97,77.28"/><path d="M114.85,77.22L116.48,78.22"/><path d="M116.04,112.24L122.97,110.27"/><path d="M116.19,78.63L116.81,78.86"/><path d="M117.59,92.62L118.37,92.20L116.60,93.14"/><path d="M116.68,79.31L117.22,79.65L118.36,80.31"/><path d="M118.14,81.79L118.56,81.76"/><path d="M118.37,92.20L119.45,91.62L118.37,92.20"/><path d="M118.64,82.81L119.13,83.07L120.15,83.54"/><path d="M122.28,90.10L119.45,91.62"/><path d="M120.08,86.11L120.54,87.35"/><path d="M122.20,92.50L122.57,92.51L123.36,92.40"/><path d="M121.81,91.15L122.31,90.38L122.65,90.00"/><path d="M122.26,90.11L122.20,90.15"/><path d="M123.75,97.62L123.97,97.48"/><path d="M123.16,96.43L123.64,95.37L123.96,94.80"/><path d="M123.91,108.70L124.96,106.46"/><path d="M124.72,105.79L124.51,106.14L124.23,106.56"/><path d="M124.13,102.60L124.43,102.31L124.56,102.16"/><path d="M124.01,101.43L124.51,100.15L124.83,99.43"/></g><g style="stroke:#000000;stroke-width:0.529"><path d="M102.39,79.89L101.89,80.06L100.99,80.27L94.87,81.86L90.57,83.09L87.32,83.98L84.79,84.75L84.67,84.94L83.84,85.12L83.58,85.46L82.56,87.40L82.62,87.62L82.52,87.76L82.20,88.30L81.97,89.54L82.23,90.23L82.40,90.63L82.23,90.74L81.88,91.08L81.93,92.90L82.21,93.46L82.55,94.07L82.60,94.21L82.64,94.36L82.68,94.58L82.70,94.81L82.52,94.82L82.12,94.94L82.45,97.16L82.53,97.28"/><path d="M103.60,79.51L106.78,78.55L110.78,77.45L113.32,76.72L113.99,77.09L114.42,76.93L116.69,78.35L116.81,78.86L116.97,78.92L117.50,79.15L118.36,80.31L118.52,81.38L118.56,81.76L118.80,81.73L119.25,81.78L120.15,83.54L120.17,84.41L120.17,84.76L120.19,84.90L120.23,85.05L120.31,85.27L120.52,85.75L120.64,85.68L121.03,85.52L121.87,87.70L121.76,88.30L121.71,88.44L121.70,88.51L121.70,88.63L121.72,88.78L121.76,88.93L122.10,89.91L122.16,90.03L122.22,90.10L122.26,90.11L122.55,89.99L122.65,90.00L123.36,92.40L123.12,92.66L123.01,92.72L122.99,92.81L123.00,92.93L123.04,93.15L123.29,94.10L123.35,94.25L123.41,94.36L123.46,94.42L123.84,94.68L123.96,94.80L124.46,97.17L123.97,97.48L124.10,98.20L124.15,98.36L124.21,98.50L124.26,98.60L124.70,99.22L124.83,99.43L125.07,101.55L124.56,102.16L124.60,102.26L125.05,103.16L125.18,103.45L125.14,105.11L124.72,105.79L124.96,106.46L124.65,107.49L123.72,109.25L123.54,109.32L122.97,110.27L122.65,110.41L119.71,111.20L115.87,112.28L111.64,113.38L111.12,113.51L104.27,115.53L100.06,116.67L96.32,117.73L93.37,118.49L92.98,118.40L91.66,117.64L90.85,117.16L90.81,117.01L90.08,116.58L89.24,115.63L89.11,114.91L89.08,114.70L88.37,114.36L87.47,112.77L87.42,112.15L87.40,111.53L87.38,111.40L87.31,111.13L86.58,110.94L85.71,108.86L85.72,108.73"/></g></g><g id="Actor_.7"><g style="stroke:#000000;stroke-width:0.176"><path d="M150.77,90.61L151.08,90.20L151.24,89.37L151.23,88.17L151.04,86.70L150.70,85.09L150.38,84.00L150.23,83.46L149.67,81.95L149.06,80.68L148.46,79.74L148.43,79.72L147.91,79.23L147.46,79.17"/></g><g style="stroke:#000000;stroke-width:0.529"><path d="M144.54,92.32L150.77,90.61L150.98,90.51L151.16,90.34L151.47,89.95L151.57,89.74L151.72,88.95L151.75,88.76L151.74,87.67L151.57,86.34L151.26,84.88L150.83,83.40L150.32,82.03L149.77,80.87L149.22,80.02L149.10,79.86L148.58,79.37L148.38,79.25L148.15,79.20L147.70,79.14L147.46,79.17L140.75,81.05"/></g></g><g id="Actor_.8"><g style="stroke:#000000;stroke-width:0.176"><path d="M77.36,104.98L77.17,104.32L76.84,102.76L76.66,101.34L76.64,100.18L76.79,99.37L77.10,98.98L77.54,99.04L77.58,99.08L78.07,99.54L78.65,100.44L79.23,101.67L79.78,103.13L80.04,104.05L80.23,104.70L80.56,106.26L80.74,107.68L80.76,108.84L80.71,109.10L80.60,109.65L80.30,110.04L79.86,109.98L79.63,109.77L79.33,109.48L78.75,108.58L78.16,107.35L77.62,105.89L77.36,104.98"/><path d="M80.54,110.18L80.86,109.77L81.01,108.94L81.00,107.74L80.81,106.27L80.47,104.66L80.00,103.04L79.44,101.52L78.83,100.25L78.23,99.31L77.98,99.08L77.68,98.80L77.23,98.74"/><path d="M80.00,103.03L79.73,102.31"/></g><g style="stroke:#000000;stroke-width:0.529"><path d="M77.20,104.46L77.16,104.31L76.83,102.74L76.64,101.31L76.63,100.13L76.64,100.09L76.79,99.26L76.82,99.21L77.13,98.81L77.18,98.76L77.23,98.74L86.14,96.28L86.73,96.64L87.41,97.59L88.12,99.02L88.76,100.77L89.28,102.66L89.62,104.49L89.71,105.31L89.74,106.04L89.62,107.16L89.29,107.73L80.54,110.18L80.48,110.18L80.03,110.13L79.97,110.12L79.92,110.08L79.38,109.58L79.35,109.54L78.76,108.62L78.17,107.38L77.62,105.90L77.20,104.46"/></g></g><g id="Actor_.9"><g style="stroke:#000000;stroke-width:0.176"><path d="M149.50,61.75L149.51,61.75"/><path d="M149.41,60.92L150.11,67.00L150.22,68.02"/><path d="M149.26,57.16L149.83,63.59L150.37,69.24L152.62,68.42L152.70,68.38L152.75,68.33L152.80,68.25L152.81,68.17L152.79,67.83L152.77,67.77L152.73,67.70L152.67,67.65L152.59,67.63L152.04,67.52L150.36,67.11L150.19,67.05L149.87,62.80L149.50,57.08"/><path d="M150.18,67.59L149.56,60.86"/><path d="M149.36,53.87L149.58,57.55L149.76,60.41L150.07,64.84L150.20,66.56L152.26,65.93L152.49,65.87L152.57,65.83L152.63,65.79L152.68,65.72L152.70,65.65L152.70,65.34L152.69,65.29L152.65,65.23L152.59,65.19L152.51,65.16L150.16,64.62L150.20,64.18L150.11,62.36L149.91,57.86L149.81,54.82L149.72,51.11"/><path d="M150.70,72.18L152.91,71.22L152.99,71.18L153.04,71.12L153.08,71.04L153.09,70.95L153.04,70.58L153.03,70.51L152.98,70.44L152.92,70.39L152.84,70.36L152.28,70.26L150.43,69.80L150.70,72.18L150.76,72.77"/><path d="M150.43,69.80L150.42,69.80"/><path d="M150.37,69.24L150.39,69.79"/><path d="M150.19,67.05L150.20,66.56"/><path d="M150.12,67.00L150.11,67.00L150.15,67.39L150.11,67.02"/><path d="M149.88,65.04L150.18,67.66"/><path d="M150.20,64.18L152.53,63.62L152.62,63.59L152.68,63.55L152.73,63.50L152.75,63.43L152.77,63.16"/><path d="M150.16,64.62L149.94,60.14L149.76,55.60L149.71,53.78"/><path d="M150.18,51.03L150.17,53.28L150.18,55.85L150.20,57.88L150.30,62.51L150.38,62.13L150.30,58.29L150.27,53.65L150.32,48.94"/><path d="M150.30,62.51L152.60,63.02L152.68,63.04L152.74,63.08L152.77,63.13L152.77,63.17"/><path d="M150.38,62.13L152.83,61.70L152.89,61.67L152.95,61.62L152.98,61.57L153.02,61.36L153.02,61.32L152.99,61.28L152.94,61.25L152.86,61.23L150.62,60.79L150.63,58.80L150.66,56.10L150.71,54.06L150.79,51.52L150.92,48.87"/><path d="M150.62,60.79L150.73,60.48L153.20,60.19L153.33,60.13L153.36,60.10L153.42,59.94L153.43,59.91L153.40,59.88L153.29,59.84L151.10,59.49L151.24,59.29L151.31,57.38L151.46,54.75L151.58,52.83L151.83,49.91L152.06,47.65L152.19,46.51"/><path d="M151.85,78.54L153.97,77.38L154.04,77.33L154.09,77.26L154.12,77.17L154.12,77.06L154.01,76.58L153.96,76.51L153.89,76.45L153.80,76.43L151.49,75.96"/><path d="M150.88,72.79L153.24,73.31L153.32,73.34L153.39,73.40L153.44,73.47L153.53,73.93L153.53,74.03L153.49,74.12L153.44,74.18L153.36,74.23L151.21,75.30"/><path d="M150.73,60.48L150.77,56.60L150.90,51.98L151.15,47.39"/><path d="M151.24,59.29L153.73,59.10L153.87,59.06L153.91,59.04L153.99,58.93L153.99,58.92L153.97,58.90L153.86,58.87L151.74,58.62L151.90,58.49L152.24,54.71L152.76,50.40L153.44,46.30L155.87,46.47L155.85,46.47"/><path d="M151.10,59.49L151.18,57.49L151.31,54.81L151.43,52.81L151.66,49.87L151.91,47.36"/><path d="M152.66,81.89L154.72,80.61L154.79,80.55L154.83,80.49L154.86,80.39L154.85,80.28L154.72,79.79L154.67,79.72L154.59,79.66L154.51,79.64L152.25,79.25"/><path d="M156.42,46.51L156.61,46.53L156.92,46.63L156.83,46.64L154.91,46.62L154.58,46.63L154.85,46.77L154.60,47.72L154.13,49.65L153.61,52.23L153.31,53.96L153.13,55.10L152.94,56.39L152.70,58.19L153.44,58.21L153.75,56.47L154.01,55.22L154.23,54.14L154.63,52.47L155.28,50.09L155.87,48.30L156.11,47.63L156.41,47.91L159.30,48.37L159.47,48.41L159.59,48.48L159.94,48.84L159.96,48.89L159.93,48.93L159.86,48.95L159.34,49.02L157.76,49.29L158.09,49.70L157.71,50.40L157.01,51.85L156.86,52.19L156.19,53.90L155.70,55.33L155.08,57.39L154.67,58.95L155.79,59.05L156.05,58.28L156.80,56.39L157.39,55.07L158.19,53.56L158.34,53.29L159.17,52.02L159.50,51.57L159.84,52.10L159.41,52.65L158.59,53.84L158.42,54.12L157.62,55.56L157.04,56.79L156.29,58.61L155.79,60.01L155.54,59.77L155.79,59.05"/><path d="M152.70,58.19L152.52,58.19L152.53,58.15L152.75,56.31L153.11,53.82L153.41,52.01L153.84,49.80L154.38,47.39L154.58,46.63"/><path d="M151.90,58.49L154.32,58.45L154.53,58.44L154.44,58.80L154.67,58.95"/><path d="M152.52,58.19L152.96,58.25L153.50,58.28L153.43,58.25L153.44,58.21"/><path d="M151.74,58.62L151.89,56.66L152.13,54.05L152.34,52.12L152.71,49.32L153.15,46.52"/><path d="M153.58,85.22L155.59,83.86L155.66,83.80L155.70,83.73L155.72,83.63L155.71,83.53L155.57,83.04L155.51,82.96L155.42,82.91L155.34,82.89L153.15,82.59"/><path d="M156.41,47.91L156.10,48.74L155.51,50.45L155.39,50.85L154.84,52.79L154.44,54.38L154.21,55.44L153.95,56.64L153.63,58.34L154.54,58.39L154.85,57.14L155.47,55.01L155.96,53.50L156.64,51.72L156.77,51.40L157.47,49.85L157.76,49.29"/><path d="M153.63,58.34L153.50,58.28"/><path d="M153.44,46.30L153.31,46.29"/><path d="M154.60,88.49L156.57,87.06L156.63,87.00L156.68,86.93L156.70,86.83L156.68,86.73L156.52,86.25L156.46,86.18L156.38,86.13L156.29,86.11L154.17,85.90"/><path d="M154.38,86.88L155.56,86.04"/><path d="M155.56,59.03L155.25,59.33L154.60,61.16L154.28,63.81L154.30,67.16L154.68,71.08L155.38,75.41L156.38,79.98L157.65,84.59L159.12,89.06L160.74,93.20L162.44,96.84L164.16,99.84L165.82,102.08L167.35,103.45L167.93,103.65"/><path d="M154.53,58.44L154.54,58.39"/><path d="M154.85,46.77L157.84,47.12L158.03,47.18L158.36,47.41L158.38,47.44L158.35,47.46L158.27,47.47L156.44,47.59L156.11,47.63"/><path d="M155.72,91.64L157.64,90.16L157.70,90.10L157.74,90.02L157.76,89.92L157.74,89.83L157.57,89.37L157.50,89.30L157.42,89.26L157.33,89.24L155.25,89.14"/><path d="M157.58,89.38L157.56,89.38L155.68,90.87"/><path d="M155.79,60.01L157.19,60.18L157.32,59.88L158.20,58.27L158.89,57.17L159.81,55.94L159.98,55.73L160.92,54.76L161.30,54.43L162.79,53.87L163.31,53.71L163.37,53.66L163.38,53.60L163.35,53.53L162.97,52.91L162.93,52.85L162.85,52.80L162.77,52.76L159.84,52.10"/><path d="M157.11,95.15L159.63,95.00L159.72,95.00L159.79,95.03L159.86,95.09L159.97,95.32"/><path d="M157.04,94.49L158.77,93.09L158.84,93.02L158.87,92.95L158.89,92.86L158.87,92.76L158.72,92.39L158.69,92.33L158.62,92.27L158.54,92.24L158.45,92.23L158.03,92.23"/><path d="M160.61,63.77L159.98,64.33L159.19,65.19L159.44,65.65L160.21,64.87L161.33,63.95L162.18,63.40L163.30,62.88L163.54,62.79L164.67,62.53L165.26,62.47L164.91,61.64L164.46,61.72L163.32,62.05L163.10,62.14L161.96,62.73L161.10,63.34L160.61,63.77L158.20,63.39L158.88,62.39L159.88,61.15L160.65,60.36L161.67,59.51L161.89,59.36L162.92,58.78L163.46,58.55L163.11,57.80L162.69,58.01L161.65,58.67L161.45,58.82L160.42,59.74L159.64,60.59L158.76,61.75L156.97,61.50L156.71,61.18L157.19,60.18"/><path d="M156.97,61.50L157.57,60.29L158.44,58.75L159.12,57.72L160.03,56.57L160.23,56.35L161.16,55.46L161.65,55.07L161.30,54.43"/><path d="M156.33,48.13L159.06,48.89L159.19,48.62"/><path d="M156.96,47.56L156.17,47.36"/><path d="M156.57,46.53L156.63,46.53"/><path d="M157.82,92.58L158.26,92.23"/><path d="M158.76,61.75L158.65,61.90L157.95,62.99L158.20,63.39"/><path d="M158.09,49.70L161.05,50.28L161.13,50.31L161.24,50.40L161.62,50.90L161.64,50.95L161.62,51.01L161.55,51.04L161.03,51.16L159.50,51.57"/><path d="M158.85,98.89L158.85,98.90"/><path d="M158.33,97.82L160.83,97.51L160.92,97.51L161.00,97.53L161.06,97.58L161.10,97.63L161.25,97.92L161.28,98.00L161.26,98.09L161.23,98.15L161.17,98.21L160.41,98.86"/><path d="M159.06,48.89L159.06,48.89"/><path d="M160.19,101.98L160.22,101.99L160.22,101.96"/><path d="M162.39,106.38L162.36,106.23L162.18,105.61L161.92,104.86L161.65,104.17L160.82,102.19L160.60,101.82L162.37,100.31L162.43,100.25L162.47,100.19L162.48,100.12L162.46,100.05L162.30,99.79L162.26,99.75L162.20,99.72L162.13,99.70L162.04,99.71L159.58,100.18L160.20,101.63L160.38,102.08L160.55,102.56L160.58,102.74L160.58,102.77"/><path d="M159.58,100.18L159.37,99.74"/><path d="M159.90,95.14L159.85,95.08L159.88,95.13"/><path d="M163.00,76.09L163.94,78.33L164.73,80.87L165.30,83.43L165.58,85.73L165.54,87.50L165.18,88.54L164.54,88.73L163.69,88.04L162.74,86.57L161.79,84.47L160.95,81.98L160.31,79.39L159.95,77.00L159.91,75.07L160.20,73.83L160.77,73.42L161.58,73.88L162.30,73.69L161.48,72.43"/><path d="M163.23,66.01L163.28,65.97L162.22,66.57L162.05,66.22L162.01,66.15L161.93,66.09L161.84,66.05L159.44,65.65"/><path d="M162.54,52.89L162.37,53.07L161.06,52.67L159.73,52.25"/><path d="M160.99,102.73L160.60,101.82"/><path d="M160.82,102.19L163.32,101.54L163.39,101.55L163.46,101.57L163.64,101.81L163.66,101.87L163.65,101.94L163.57,102.04L161.81,103.52L162.02,103.81L162.50,104.91L163.07,106.28L163.47,107.28L163.13,106.72"/><path d="M168.32,70.37L167.81,70.19L166.51,69.87L166.26,69.84L164.95,69.76L163.93,69.85L162.60,70.15L161.65,70.51L161.99,70.25L163.34,69.41L163.39,69.36L163.42,69.30L163.42,69.22L163.25,68.81L163.20,68.73L163.12,68.66L163.04,68.62L162.96,68.60L162.73,68.57L160.67,68.23L160.43,67.71L161.31,67.10L162.53,66.45L163.48,66.10L164.71,65.84L164.95,65.81L166.17,65.80L166.66,65.85L166.99,66.75L169.21,67.33L169.64,67.42L169.72,67.45L169.80,67.50L169.86,67.58L169.90,67.67L170.26,68.63L170.28,68.74L170.27,68.85L170.21,68.93L168.61,70.13L168.32,70.37L168.63,71.32L167.97,71.06L166.70,70.68L166.42,70.63L165.13,70.50L164.13,70.53L162.81,70.77L161.88,71.07L163.90,71.39L164.13,71.42L164.20,71.44L164.28,71.48L164.36,71.56L164.41,71.64L164.55,72.02L164.57,72.09L164.57,72.17L164.54,72.24L164.48,72.30L163.15,73.24L162.81,73.54L163.03,74.14L164.02,74.08L165.43,74.19L166.49,74.40L167.85,74.86L168.14,74.98L169.46,75.66L170.15,76.08L169.87,75.09L170.16,74.84L171.75,73.51L171.80,73.42L171.82,73.33L171.80,73.19L171.47,72.18L171.43,72.09L171.37,72.01L171.30,71.96L171.22,71.93L170.80,71.85L168.63,71.32"/><path d="M160.67,68.23L161.53,67.68L162.75,67.10L163.68,66.80L164.90,66.61L165.16,66.59L166.36,66.65L166.99,66.75"/><path d="M161.41,67.04L162.22,66.57"/><path d="M160.68,50.69L160.83,50.46"/><path d="M162.96,106.28L162.26,104.55L161.81,103.52"/><path d="M162.02,103.81L164.47,102.99L164.54,102.99L164.61,103.00L164.78,103.18L164.80,103.22L164.79,103.28L164.70,103.38L162.97,104.79L163.16,105.00L163.74,106.29L164.44,107.91L164.90,109.03L165.41,110.36L165.85,111.68L165.97,112.08"/><path d="M161.58,73.88L161.88,73.80L161.60,73.88"/><path d="M162.30,73.69L162.87,74.57L162.89,74.63L163.00,76.10"/><path d="M161.88,71.07L161.65,70.51"/><path d="M161.65,55.07L164.00,55.65L164.45,55.75L164.54,55.78L164.62,55.82L164.69,55.88L164.82,56.10L165.12,56.68L165.15,56.78L165.13,56.85L165.06,56.90L163.41,57.65L163.11,57.80"/><path d="M164.29,55.86L164.11,55.99L162.82,55.60L161.52,55.18L161.54,55.19"/><path d="M163.47,107.28L163.88,108.42L164.12,109.23L164.20,109.51"/><path d="M164.94,109.14L164.60,108.63L164.17,107.57L163.50,106.00L162.97,104.79"/><path d="M163.16,105.00L165.56,104.03L165.63,104.01L165.72,104.03L165.86,104.12L165.87,104.16L165.86,104.20L165.76,104.30L164.05,105.63L164.22,105.75L164.90,107.19L165.73,109.04L166.29,110.35L166.92,111.91L167.50,113.55L167.67,114.05"/><path d="M163.03,74.14L165.01,74.42L165.23,74.44L165.31,74.46L165.38,74.50L165.46,74.58L165.50,74.67L165.64,75.07L165.66,75.14L165.65,75.23L165.62,75.30L165.57,75.36L164.24,76.41L163.90,76.74L164.12,77.36L166.26,77.86L168.86,79.05L171.36,80.82L171.52,80.94L171.27,79.94L170.72,79.52L169.32,78.59L169.05,78.44L167.61,77.71L166.48,77.28L164.98,76.89L163.90,76.74"/><path d="M162.81,73.54L163.83,73.44L165.25,73.49L166.33,73.66L167.72,74.06L167.98,74.16L169.33,74.79L169.87,75.09"/><path d="M163.10,62.14L164.87,61.21"/><path d="M163.46,58.55L165.78,59.15L166.22,59.25L166.30,59.28L166.39,59.33L166.46,59.40L166.50,59.47L166.88,60.30L166.91,60.41L166.89,60.50L166.83,60.56L165.21,61.46L164.91,61.64"/><path d="M166.04,59.32L165.84,59.39L164.59,59.02L163.32,58.61"/><path d="M163.41,57.65L162.69,58.01"/><path d="M164.60,108.63L164.86,109.34"/><path d="M166.34,110.46L165.99,110.03L165.47,108.78L164.68,106.99L164.05,105.63"/><path d="M164.22,105.75L166.56,104.62L166.69,104.59L166.84,104.63L166.86,104.65L166.74,104.76L165.03,106.01L165.75,107.49L166.67,109.47L167.29,110.86L167.99,112.58L168.43,113.75"/><path d="M169.27,115.39L169.05,114.79L168.32,112.87L167.57,111.10L166.91,109.63L165.95,107.60L165.18,106.04L165.03,106.01"/><path d="M165.18,106.04L167.13,104.95L167.43,104.74L168.17,106.02L169.43,108.29L170.31,109.96L171.57,112.54L172.47,114.55L172.87,115.50L172.02,116.04L171.71,115.29L170.87,113.34L169.70,110.84L168.87,109.19L167.67,106.92L166.73,105.23L166.64,105.40L166.67,105.46L166.02,105.87L166.88,107.51L167.96,109.68L168.71,111.24L169.74,113.58L170.46,115.37L170.73,116.05L171.54,115.60L170.22,112.46L168.39,108.67L166.67,105.46"/><path d="M172.70,85.80L172.54,85.65L170.01,83.39L167.33,81.65L165.10,80.67L164.88,80.03L166.02,80.44L167.57,81.16L168.76,81.85L170.23,82.87L170.51,83.08L171.93,84.28L172.49,84.81L172.70,85.80L174.70,86.07L175.08,86.10L175.15,86.12L175.22,86.17L175.27,86.24L175.30,86.33L175.51,87.35L175.52,87.47L175.49,87.59L175.42,87.71L174.94,88.16L173.52,89.61L173.68,90.58L175.62,90.72L175.99,90.73L176.06,90.74L176.12,90.79L176.17,90.86L176.19,90.94L176.36,91.93L176.36,92.04L176.33,92.16L176.27,92.26L174.33,94.24L174.44,95.17L173.74,94.25L172.36,92.56L172.05,92.21L170.58,90.65L169.41,89.54L168.38,88.65L167.13,89.90L168.34,90.99L169.97,92.58L171.18,93.89L172.67,95.65L172.95,96.00L174.35,97.86L174.90,98.63L174.97,99.49L174.28,98.49L172.93,96.63L172.62,96.24L171.16,94.47L170.00,93.18L168.71,91.87L167.58,92.98L168.79,94.24L170.41,96.06L171.60,97.53L173.07,99.47L173.34,99.85L174.70,101.85L175.22,102.67L175.25,103.46L174.59,102.40L173.27,100.40L172.98,99.98L171.61,98.13L170.41,96.61L168.89,94.85L167.87,95.84L167.94,96.37L170.23,99.23L172.83,102.94L175.27,106.99L175.30,106.29L174.80,105.44L173.49,103.33L173.23,102.93L171.81,100.85L170.64,99.27L169.06,97.25L167.87,95.85"/><path d="M166.57,78.00L166.66,78.31L166.65,78.41L166.62,78.49L166.57,78.55L166.18,78.86L164.88,80.03"/><path d="M165.26,62.47L167.53,63.07L167.96,63.16L168.05,63.20L168.12,63.25L168.19,63.32L168.24,63.40L168.61,64.31L168.63,64.43L168.61,64.53L168.57,64.58L166.95,65.65L166.66,65.85"/><path d="M166.69,111.84L165.99,110.03"/><path d="M170.04,115.01L169.12,112.65L167.49,109.09L165.90,105.95L166.02,105.87"/><path d="M165.90,105.95L166.66,105.43"/><path d="M166.73,105.23L167.13,104.95"/><path d="M174.33,94.24L173.77,93.54L172.34,91.87L172.06,91.56L170.55,90.01L169.35,88.90L167.73,87.56L166.54,86.70L166.67,87.30L167.82,88.18L168.38,88.65"/><path d="M173.68,90.58L172.97,89.76L171.58,88.28L171.27,87.98L169.80,86.65L168.64,85.74L167.97,85.28L166.88,86.29L166.54,86.70"/><path d="M167.97,85.28L167.07,84.66L165.94,84.00L165.77,83.36L167.07,82.12L167.49,81.76"/><path d="M165.77,83.36L166.94,84.02L168.54,85.06L169.74,85.97L171.24,87.27L171.52,87.53L172.96,88.99L173.52,89.61"/><path d="M167.77,63.18L166.38,63.33"/><path d="M175.04,110.03L174.45,108.91L173.27,106.77L173.00,106.31L171.68,104.16L170.61,102.53L169.12,100.39L168.00,98.89L167.98,98.44L169.15,99.97L170.68,102.13L171.80,103.80L173.16,105.98L173.41,106.39L174.65,108.56L175.12,109.42L175.04,110.03L176.72,109.41L177.05,109.28L177.10,109.26L177.14,109.27L177.17,109.30L177.17,109.34L177.07,109.88L177.05,109.94L176.99,110.03L176.89,110.13L174.69,112.01L174.56,112.50L176.20,111.72L176.52,111.56L176.62,111.53L176.64,111.55L176.64,111.58L176.49,111.99L176.46,112.04L176.31,112.19L174.03,114.00L173.94,114.18L173.85,114.36L173.36,113.28L172.35,111.18L172.12,110.72L170.97,108.54L170.02,106.85L168.67,104.57L168.04,103.56L167.29,104.15L168.30,105.85L169.60,108.16L170.53,109.89L171.63,112.07L172.78,114.55L173.13,115.36L173.03,115.47L172.90,115.58"/><path d="M167.43,104.74L167.22,104.37L167.29,104.15"/><path d="M174.03,114.00L173.63,113.16L172.57,111.01L171.16,108.37L170.16,106.62L168.76,104.31L167.69,102.63L167.65,102.94L168.04,103.56"/><path d="M167.69,102.63L168.49,101.96L168.98,102.68L170.42,104.91L171.43,106.59L172.67,108.78L172.92,109.25L174.02,111.39L174.56,112.50"/><path d="M167.58,92.98L167.67,93.54L168.89,94.85"/><path d="M167.13,89.90L167.25,90.50L168.41,91.57L168.71,91.87"/><path d="M166.98,66.77L166.91,66.75L168.02,67.07L168.95,67.29L168.79,67.24"/><path d="M166.91,66.75L166.82,66.73"/><path d="M174.69,112.01L174.26,111.15L173.10,108.97L171.59,106.33L170.52,104.60L169.84,103.56L169.05,102.34L167.92,100.72L167.91,101.10L168.49,101.96"/><path d="M167.92,100.72L168.79,99.94"/><path d="M167.98,98.44L168.90,97.58"/><path d="M168.95,67.29L169.21,67.35L167.97,67.18"/><path d="M169.21,67.35L169.43,67.39"/><path d="M170.97,108.54L171.24,108.53"/><path d="M171.27,79.94L171.55,79.67L173.13,78.24L173.20,78.15L173.22,78.03L173.21,77.89L172.91,76.86L172.88,76.77L172.82,76.69L172.74,76.63L172.67,76.61L172.26,76.54L170.15,76.08"/><path d="M172.49,84.81L173.90,83.42L174.37,83.00L174.43,82.91L174.46,82.78L174.45,82.64L174.20,81.61L174.16,81.51L174.11,81.44L174.03,81.38L173.97,81.36L173.57,81.31L171.52,80.94"/><path d="M171.30,71.96L171.29,71.95"/><path d="M173.13,115.36L175.56,113.60L175.68,113.49L175.88,113.20L175.83,113.21L175.77,113.24L173.85,114.36"/><path d="M180.75,92.57L180.49,90.61L179.53,85.45L178.30,80.12L176.83,74.77L175.16,69.53L173.33,64.57L172.25,62.03"/><path d="M174.90,114.21L174.86,114.24"/><path d="M175.12,109.42L177.25,107.47L177.33,107.39L177.39,107.29L177.42,107.19L177.46,106.54L177.46,106.48L177.43,106.44L177.38,106.43L177.32,106.44L176.99,106.54L175.27,106.99"/><path d="M175.30,106.29L177.37,104.30L177.45,104.20L177.50,104.10L177.52,103.99L177.51,103.23L177.50,103.16L177.47,103.11L177.50,103.16"/><path d="M175.25,103.46L177.01,103.17L177.36,103.09L177.41,103.09L177.47,103.11"/><path d="M175.22,102.67L176.75,101.13L177.26,100.64L177.32,100.56L177.36,100.45L177.38,100.33L177.31,99.48L177.30,99.40L177.26,99.34L177.20,99.31L177.14,99.31L176.79,99.36L174.97,99.49"/><path d="M174.90,98.63L176.38,97.10L176.87,96.62L176.94,96.53L176.98,96.41L176.99,96.28L176.87,95.35L176.85,95.27L176.81,95.21L176.75,95.17L176.68,95.16L176.32,95.18L174.44,95.17"/><path d="M176.48,113.10L176.44,113.13"/><path d="M176.57,96.92L176.87,96.62L175.89,97.62"/><path d="M177.41,61.12L178.32,61.91"/><path d="M179.56,110.92L179.55,110.92"/><path d="M182.33,69.18L181.34,66.85L180.31,64.82"/><path d="M184.85,77.18L184.12,74.43"/><path d="M185.37,91.02L185.82,90.11"/><path d="M185.87,82.49L186.13,84.88L186.21,87.00"/></g><g style="stroke:#000000;stroke-width:0.529"><path d="M155.85,46.47L153.31,46.29L153.19,46.29L153.15,46.52L152.19,46.51L151.99,46.64L151.91,47.36L151.15,47.39L151.06,47.53L150.98,47.66L150.92,48.87L150.32,48.94L150.20,49.34L150.18,51.03L149.72,51.11L149.65,51.63L149.71,53.78L149.36,53.87L149.35,54.50L149.50,57.08L149.26,57.16L149.32,58.13L149.56,60.86L149.41,60.92L149.88,65.04L149.81,65.07L150.18,67.66L150.39,69.79L150.42,69.80L150.76,72.77L150.88,72.79L151.29,75.92L151.49,75.96L151.85,78.54L151.97,79.20L152.25,79.25L152.54,81.06L152.66,81.89L152.79,82.54L153.15,82.59L153.34,83.64L153.50,84.63L153.58,85.22L153.74,85.86L154.17,85.90L154.37,86.88L154.48,87.49L154.58,88.14L154.60,88.49L154.78,89.12L155.25,89.14"/><path d="M155.25,89.14L155.50,90.09L155.68,90.87L155.74,91.23L155.75,91.54L155.72,91.64L155.91,92.23L158.03,92.23"/><path d="M156.63,46.53L157.11,46.57L155.87,46.47"/><path d="M160.99,102.73L160.58,102.77L160.19,101.99L160.22,101.95L160.21,101.87L160.08,101.46L159.93,101.06L159.37,99.74L160.41,98.86L158.90,98.98L158.33,97.82L158.12,97.32L159.96,95.79L160.02,95.72L160.06,95.66L160.07,95.57L160.05,95.48L159.97,95.32L159.90,95.31L157.34,95.44L157.23,95.35L157.11,95.16L156.90,94.60L157.04,94.49L156.99,94.29L156.73,93.44L158.03,92.23"/><path d="M156.57,46.53L160.50,46.81L161.97,46.96L162.77,47.45"/><path d="M160.99,102.73L161.37,103.67L161.61,104.31L161.88,105.10L161.98,105.54L161.99,105.69L162.39,106.38L162.96,106.28L163.13,106.72L163.53,107.87L163.74,108.60L163.81,108.93L164.20,109.51L164.86,109.34L165.14,110.12L165.46,111.14L165.59,111.62L165.97,112.08L166.69,111.84L167.12,113.10L167.31,113.72L167.67,114.05L168.43,113.75L168.68,114.44L168.93,115.19L169.27,115.39L170.04,115.01L170.42,116.00L170.73,116.05L171.54,115.60L171.76,116.13L171.90,116.09L172.02,116.04L172.87,115.50L172.90,115.58L174.99,114.15L174.90,114.21"/><path d="M172.25,62.03L171.39,60.00L169.40,55.95L167.41,52.54L165.47,49.86L163.87,48.22"/><path d="M180.75,92.57L184.76,91.45L185.38,91.02L185.85,90.09L186.13,88.74L186.24,86.97L186.16,84.86L185.90,82.47L185.47,79.88L184.88,77.17L184.15,74.42L183.30,71.73L182.66,70.00L182.37,69.19L181.37,66.86L180.35,64.83L179.33,63.17L178.35,61.91L177.44,61.12L176.61,60.81L175.92,60.99L172.25,62.03"/><path d="M174.99,114.15L179.56,110.92L180.50,109.32L181.15,106.89L181.48,103.72L181.47,99.87L181.14,95.46L180.75,92.57"/></g></g><g id="Actor_.10"><g style="stroke:#000000;stroke-width:0.176"><path d="M123.58,85.86L123.30,85.42L123.20,85.15L123.20,85.16"/><path d="M123.58,85.85L123.75,86.07L123.75,86.07"/><path d="M139.87,79.33L140.48,79.75L124.21,84.29L123.89,84.39L123.49,84.60L123.23,84.85L123.16,85.12L123.26,85.41L123.54,85.85L123.72,86.07L124.11,86.35L124.60,86.53L124.83,86.56L124.65,86.54"/><path d="M123.75,86.07L123.75,86.07L123.75,86.07"/><path d="M124.83,86.56L125.13,86.60L125.66,86.53L125.90,86.46L125.65,86.53"/><path d="M123.75,86.07L124.13,86.34L124.61,86.52L125.13,86.58L125.65,86.51L141.44,82.11"/><path d="M125.90,86.46L141.93,81.99L142.62,83.60L143.26,85.41L143.80,87.32L144.20,89.21L144.45,90.96L144.52,92.46L144.41,93.62L144.13,94.36L143.72,94.62L144.13,94.36"/><path d="M139.39,79.38L139.39,79.38L139.76,79.34"/><path d="M139.38,79.39L139.39,79.38L139.38,79.39"/><path d="M143.72,94.62L143.70,94.63"/></g><g style="stroke:#000000;stroke-width:0.529"><path d="M120.17,84.73L139.39,79.38"/><path d="M139.39,79.38L139.89,79.33L139.90,79.33L140.52,79.76L140.52,79.77L140.53,79.79L140.60,80.77L140.61,80.81L140.62,80.85L141.44,82.11L141.92,81.98L141.94,81.98L141.96,82.00L142.66,83.60L143.29,85.41L143.83,87.31L144.23,89.19L144.47,90.94L144.55,92.43L144.44,93.58L144.15,94.34L143.70,94.63L124.88,99.85"/><path d="M139.87,79.33L139.76,79.34"/><path d="M139.38,79.39L139.38,79.39"/></g></g><g id="Actor_.11"><g style="stroke:#000000;stroke-width:0.176"><path d="M120.77,99.30L120.79,99.44"/></g><g style="stroke:#000000;stroke-width:0.529"><path d="M122.19,98.94L122.18,98.84L122.13,98.57"/></g></g><g id="Actor_.12"><g style="stroke:#000000;stroke-width:0.176"><path d="M199.34,56.34L200.28,56.35L201.41,57.26L202.68,59.01L203.98,61.49L205.24,64.53L206.36,67.91L207.27,71.42L207.91,74.80L208.23,77.83L208.22,80.31L207.86,82.06L207.19,82.96"/><path d="M205.58,75.22L205.51,75.65L205.09,76.16L204.47,75.96L203.72,75.08L202.92,73.62L202.33,72.15L202.16,71.72L201.52,69.60L201.06,67.49L200.85,65.61L200.90,64.17L201.21,63.32L201.73,63.16L202.36,63.65"/></g><g style="stroke:#000000;stroke-width:0.529"><path d="M202.36,77.36L202.55,77.82L203.85,80.30L205.12,82.05L206.26,82.96L207.19,82.96L208.61,82.57L209.27,81.67L209.63,79.92L209.65,77.44L209.32,74.41L208.69,71.02L207.78,67.52L206.65,64.13L205.40,61.10L204.09,58.62L202.83,56.86L201.69,55.95L200.75,55.95L199.34,56.34L198.67,57.25L198.32,59.00L198.30,61.47L198.54,63.74"/><path d="M205.58,75.22L205.13,74.69L204.33,73.23L203.57,71.33L202.93,69.21L202.48,67.10L202.26,65.22L202.31,63.78L202.36,63.65"/><path d="M205.58,75.22L205.69,74.49L205.61,72.80L205.27,70.78L204.72,68.63L204.01,66.60L203.62,65.69L203.22,64.89L202.43,63.70L202.36,63.65"/></g></g><g id="Actor_.13"><g style="stroke:#000000;stroke-width:0.176"><path d="M186.16,71.21L185.71,68.38L185.58,65.85L185.81,64.02L186.37,63.05L187.21,63.02L188.27,63.93L189.44,65.71L189.45,65.73L190.62,68.19L191.72,71.16L192.62,74.35L193.25,77.48L193.56,80.26L193.55,80.46L193.51,82.47L193.11,83.88L192.40,84.39L191.44,83.95L190.31,82.59L189.12,80.43L187.97,77.68L186.96,74.56L186.19,71.37L186.16,71.21"/><path d="M187.15,71.10L187.27,71.86L187.54,73.11L187.88,74.38L188.26,75.62L188.57,76.46L188.69,76.81L189.15,77.89L189.62,78.84L189.90,79.30L190.09,79.62L190.55,80.22L190.97,80.61L191.35,80.78L191.45,80.79L191.76,80.66L191.99,80.32L192.15,79.76L192.23,79.01L192.22,78.09L192.13,77.03L191.96,75.87L191.72,74.63L191.40,73.36L191.03,72.11L190.62,70.90L190.17,69.78L189.70,68.78L189.23,67.93L188.77,67.27L188.33,66.81L187.94,66.56L187.59,66.54L187.31,66.74L187.10,67.16L186.97,67.79L186.92,68.60L186.96,69.57L187.08,70.67L187.15,71.10"/><path d="M189.59,59.28L186.51,60.17"/><path d="M188.03,71.27L187.88,69.68L187.97,68.50"/><path d="M188.28,67.86L188.48,67.86L188.33,67.73"/><path d="M187.49,66.62L187.47,66.47L187.45,66.41L187.47,66.63"/><path d="M187.47,66.47L187.51,66.59"/><path d="M187.45,66.41L187.44,65.34L187.55,64.00L187.80,64.33L188.06,64.84L188.30,65.47L188.46,66.03L188.33,66.08L187.59,66.54"/><path d="M189.35,65.58L189.26,65.79L189.12,65.83L189.06,65.82L188.82,65.60L188.57,65.18L188.31,64.60L188.09,63.93L188.05,63.74"/><path d="M187.55,64.00L187.66,63.51L187.69,63.43"/><path d="M187.59,63.83L188.02,63.71"/><path d="M191.80,78.82L191.86,77.76L191.76,76.40L191.50,74.83L191.09,73.17L190.57,71.55L189.99,70.09L189.37,68.89L188.77,68.04"/><path d="M188.48,67.86L188.84,68.14"/><path d="M188.46,66.03L188.63,65.97L189.12,65.83"/><path d="M189.26,65.79L189.45,65.74"/><path d="M189.58,76.72L190.28,78.10L190.96,78.99"/><path d="M193.54,81.05L193.45,80.89L193.23,80.59L192.52,80.79L192.33,80.79L192.41,81.22L192.46,81.80L192.43,82.23L192.38,82.38L192.17,82.07L191.45,80.79"/><path d="M191.45,80.79L192.33,80.79"/><path d="M191.59,79.34L191.64,79.19L191.42,79.33"/><path d="M192.82,80.70L192.77,80.91L192.78,81.43L192.87,82.07L192.93,82.29L192.43,82.43L193.25,83.39"/><path d="M192.43,82.43L192.38,82.38"/><path d="M191.64,79.19L191.81,78.70"/><path d="M193.25,83.39L193.04,82.76L192.93,82.29"/><path d="M193.23,80.59L193.55,80.50"/><path d="M193.56,58.14L193.76,58.08L194.80,58.51"/><path d="M196.00,59.81L197.30,61.92"/><path d="M200.83,71.37L199.80,67.90"/><path d="M201.61,84.44L202.12,83.06"/><path d="M201.62,74.85L202.12,78.10L202.29,80.90"/></g><g style="stroke:#000000;stroke-width:0.529"><path d="M192.00,58.59L193.76,58.08L194.23,58.11L194.39,58.14L195.30,58.68L196.16,59.59L196.24,59.70L197.15,61.02L198.08,62.72L198.99,64.73L199.86,66.98L200.65,69.39L201.33,71.88L201.89,74.34L202.25,76.46L202.29,76.70L202.53,78.87L202.59,80.76L202.46,82.46L202.18,83.63L202.11,83.77L201.65,84.51L201.54,84.61L200.82,84.93L193.55,86.95L193.43,86.97L193.27,86.94L192.54,86.72L192.41,86.64L191.59,85.96L190.70,84.83L190.62,84.73L189.70,83.21L188.78,81.34L187.88,79.20L187.67,78.62L187.05,76.86L186.31,74.40L185.69,71.92L185.21,69.49L184.88,67.22L184.73,65.18L184.76,63.45L184.77,63.32L184.97,61.93L185.34,60.98L185.41,60.84L185.94,60.33L186.06,60.23L186.18,60.18L189.59,59.28L190.77,58.94"/></g></g><g id="PMI4.0"><g><path style="stroke:#000000;stroke-width:0.250;stroke-dasharray:2.6 2.6" d="M192.43,43.81L191.21,61.32"/></g><g><path style="fill:#000000" d="M192.21,61.32L192.20,61.23L192.19,61.13L192.16,61.03L192.13,60.94L192.09,60.85L192.04,60.77L191.98,60.69L191.91,60.62L191.84,60.55L191.76,60.49L191.68,60.44L191.59,60.40L191.50,60.37L191.40,60.34L191.30,60.33L191.21,60.32L191.11,60.33L191.01,60.34L190.92,60.37L190.82,60.40L190.73,60.44L190.65,60.49L190.57,60.55L190.50,60.62L190.43,60.69L190.37,60.77L190.32,60.85L190.28,60.94L190.25,61.03L190.23,61.13L190.21,61.23L190.21,61.32L190.21,61.42L190.23,61.52L190.25,61.61L190.28,61.71L190.32,61.79L190.37,61.88L190.43,61.96L190.50,62.03L190.57,62.10L190.65,62.15L190.73,62.21L190.82,62.25L190.92,62.28L191.01,62.30L191.11,62.32L191.21,62.32L191.30,62.32L191.40,62.30L191.50,62.28L191.59,62.25L191.68,62.21L191.76,62.15L191.84,62.10L191.91,62.03L191.98,61.96L192.04,61.88L192.09,61.79L192.13,61.71L192.16,61.61L192.19,61.52L192.20,61.42z"/></g><g><path style="fill:#ffffff" d="M190.22,43.81L195.19,43.81L195.19,35.91L190.22,35.91z"/><path style="stroke:#000000;stroke-width:0.250;stroke-opacity:0.98" d="M190.22,43.81L195.19,43.81L195.19,35.91L190.22,35.91z"/><text xml:space="preserve" fill="#000000" stroke-width="0" x="191.21" y="41.59" font-size="4.80" opacity="1.00" font-family="Eurostile" font-weight="bold">4</text></g></g><g id="PMI1.0"><g><path style="stroke:#000000;stroke-width:0.250;stroke-dasharray:2.6 2.6" d="M165.36,35.07L162.72,51.60"/></g><g><path style="fill:#000000" d="M163.72,51.60L163.72,51.50L163.70,51.40L163.68,51.31L163.64,51.21L163.60,51.12L163.55,51.04L163.49,50.96L163.43,50.89L163.35,50.82L163.28,50.76L163.19,50.71L163.10,50.67L163.01,50.64L162.92,50.61L162.82,50.60L162.72,50.60L162.62,50.60L162.53,50.61L162.43,50.64L162.34,50.67L162.25,50.71L162.16,50.76L162.09,50.82L162.01,50.89L161.95,50.96L161.89,51.04L161.84,51.12L161.80,51.21L161.76,51.31L161.74,51.40L161.73,51.50L161.72,51.60L161.73,51.69L161.74,51.79L161.76,51.89L161.80,51.98L161.84,52.07L161.89,52.15L161.95,52.23L162.01,52.30L162.09,52.37L162.16,52.43L162.25,52.48L162.34,52.52L162.43,52.55L162.53,52.58L162.62,52.59L162.72,52.60L162.82,52.59L162.92,52.58L163.01,52.55L163.10,52.52L163.19,52.48L163.28,52.43L163.35,52.37L163.43,52.30L163.49,52.23L163.55,52.15L163.60,52.07L163.64,51.98L163.68,51.89L163.70,51.79L163.72,51.69z"/></g><g><path style="fill:#ffffff" d="M163.69,35.07L168.29,35.07L168.29,27.17L163.69,27.17z"/><path style="stroke:#000000;stroke-width:0.250;stroke-opacity:0.98" d="M163.69,35.07L168.29,35.07L168.29,27.17L163.69,27.17z"/><text xml:space="preserve" fill="#000000" stroke-width="0" x="164.68" y="32.85" font-size="4.20" opacity="1.00" font-family="Eurostile" font-weight="bold">1</text></g></g><g id="PMI2.0"><g><path style="stroke:#000000;stroke-width:0.250;stroke-dasharray:2.6 2.6" d="M103.28,60.63L102.88,87.21"/></g><g><path style="fill:#000000" d="M103.88,87.21L103.88,87.11L103.86,87.01L103.84,86.92L103.81,86.82L103.76,86.73L103.71,86.65L103.66,86.57L103.59,86.50L103.52,86.43L103.44,86.37L103.35,86.32L103.27,86.28L103.17,86.25L103.08,86.23L102.98,86.21L102.88,86.21L102.78,86.21L102.69,86.23L102.59,86.25L102.50,86.28L102.41,86.32L102.33,86.37L102.25,86.43L102.18,86.50L102.11,86.57L102.05,86.65L102.00,86.73L101.96,86.82L101.93,86.92L101.90,87.01L101.89,87.11L101.88,87.21L101.89,87.30L101.90,87.40L101.93,87.50L101.96,87.59L102.00,87.68L102.05,87.76L102.11,87.84L102.18,87.91L102.25,87.98L102.33,88.04L102.41,88.09L102.50,88.13L102.59,88.16L102.69,88.19L102.78,88.20L102.88,88.21L102.98,88.20L103.08,88.19L103.17,88.16L103.27,88.13L103.35,88.09L103.44,88.04L103.52,87.98L103.59,87.91L103.66,87.84L103.71,87.76L103.76,87.68L103.81,87.59L103.84,87.50L103.86,87.40L103.88,87.30z"/></g><g><path style="fill:#ffffff" d="M100.92,60.63L105.76,60.63L105.76,52.73L100.92,52.73z"/><path style="stroke:#000000;stroke-width:0.250;stroke-opacity:0.98" d="M100.92,60.63L105.76,60.63L105.76,52.73L100.92,52.73z"/><text xml:space="preserve" fill="#000000" stroke-width="0" x="101.91" y="58.41" font-size="4.58" opacity="1.00" font-family="Eurostile" font-weight="bold">2</text></g></g><g id="PMI5.0"><g><path style="stroke:#000000;stroke-width:0.250;stroke-dasharray:2.6 2.6" d="M50.18,80.37L49.82,97.56"/></g><g><path style="fill:#000000" d="M50.82,97.56L50.82,97.46L50.80,97.36L50.78,97.27L50.75,97.18L50.71,97.09L50.65,97.00L50.60,96.92L50.53,96.85L50.46,96.79L50.38,96.73L50.29,96.68L50.21,96.63L50.11,96.60L50.02,96.58L49.92,96.56L49.82,96.56L49.73,96.56L49.63,96.58L49.53,96.60L49.44,96.63L49.35,96.68L49.27,96.73L49.19,96.79L49.12,96.85L49.05,96.92L48.99,97.00L48.94,97.09L48.90,97.18L48.87,97.27L48.84,97.36L48.83,97.46L48.82,97.56L48.83,97.66L48.84,97.75L48.87,97.85L48.90,97.94L48.94,98.03L48.99,98.11L49.05,98.19L49.12,98.27L49.19,98.33L49.27,98.39L49.35,98.44L49.44,98.48L49.53,98.52L49.63,98.54L49.73,98.55L49.82,98.56L49.92,98.55L50.02,98.54L50.11,98.52L50.21,98.48L50.29,98.44L50.38,98.39L50.46,98.33L50.53,98.27L50.60,98.19L50.65,98.11L50.71,98.03L50.75,97.94L50.78,97.85L50.80,97.75L50.82,97.66z"/></g><g><path style="fill:#ffffff" d="M47.87,80.37L52.65,80.37L52.65,72.47L47.87,72.47z"/><path style="stroke:#000000;stroke-width:0.250;stroke-opacity:0.98" d="M47.87,80.37L52.65,80.37L52.65,72.47L47.87,72.47z"/><text xml:space="preserve" fill="#000000" stroke-width="0" x="48.85" y="78.15" font-size="4.49" opacity="1.00" font-family="Eurostile" font-weight="bold">5</text></g></g><g id="PMI3.0"><g><path style="stroke:#000000;stroke-width:0.250;stroke-dasharray:2.6 2.6" d="M64.72,76.81L64.06,96.26"/></g><g><path style="fill:#000000" d="M65.06,96.26L65.05,96.17L65.04,96.07L65.02,95.97L64.98,95.88L64.94,95.79L64.89,95.71L64.83,95.63L64.77,95.56L64.69,95.49L64.61,95.43L64.53,95.38L64.44,95.34L64.35,95.31L64.25,95.28L64.16,95.27L64.06,95.26L63.96,95.27L63.86,95.28L63.77,95.31L63.68,95.34L63.59,95.38L63.50,95.43L63.42,95.49L63.35,95.56L63.29,95.63L63.23,95.71L63.18,95.79L63.13,95.88L63.10,95.97L63.08,96.07L63.06,96.17L63.06,96.26L63.06,96.36L63.08,96.46L63.10,96.55L63.13,96.65L63.18,96.74L63.23,96.82L63.29,96.90L63.35,96.97L63.42,97.04L63.50,97.10L63.59,97.15L63.68,97.19L63.77,97.22L63.86,97.25L63.96,97.26L64.06,97.26L64.16,97.26L64.25,97.25L64.35,97.22L64.44,97.19L64.53,97.15L64.61,97.10L64.69,97.04L64.77,96.97L64.83,96.90L64.89,96.82L64.94,96.74L64.98,96.65L65.02,96.55L65.04,96.46L65.05,96.36z"/></g><g><path style="fill:#ffffff" d="M62.42,76.81L67.27,76.81L67.27,68.91L62.42,68.91z"/><path style="stroke:#000000;stroke-width:0.250;stroke-opacity:0.98" d="M62.42,76.81L67.27,76.81L67.27,68.91L62.42,68.91z"/><text xml:space="preserve" fill="#000000" stroke-width="0" x="63.41" y="74.59" font-size="4.60" opacity="1.00" font-family="Eurostile" font-weight="bold">3</text></g></g><g id="PMI6.0"><g><path style="stroke:#000000;stroke-width:0.250;stroke-dasharray:2.6 2.6" d="M39.49,82.96L38.82,102.41"/></g><g><path style="fill:#000000" d="M39.82,102.41L39.82,102.31L39.80,102.22L39.78,102.12L39.75,102.03L39.71,101.94L39.65,101.86L39.60,101.78L39.53,101.70L39.46,101.64L39.38,101.58L39.29,101.53L39.21,101.49L39.11,101.45L39.02,101.43L38.92,101.42L38.82,101.41L38.73,101.42L38.63,101.43L38.53,101.45L38.44,101.49L38.35,101.53L38.27,101.58L38.19,101.64L38.12,101.70L38.05,101.78L37.99,101.86L37.94,101.94L37.90,102.03L37.87,102.12L37.84,102.22L37.83,102.31L37.82,102.41L37.83,102.51L37.84,102.61L37.87,102.70L37.90,102.79L37.94,102.88L37.99,102.97L38.05,103.05L38.12,103.12L38.19,103.18L38.27,103.24L38.35,103.29L38.44,103.34L38.53,103.37L38.63,103.39L38.73,103.41L38.82,103.41L38.92,103.41L39.02,103.39L39.11,103.37L39.21,103.34L39.29,103.29L39.38,103.24L39.46,103.18L39.53,103.12L39.60,103.05L39.65,102.97L39.71,102.88L39.75,102.79L39.78,102.70L39.80,102.61L39.82,102.51z"/></g><g><path style="fill:#ffffff" d="M37.19,82.96L42.05,82.96L42.05,75.06L37.19,75.06z"/><path style="stroke:#000000;stroke-width:0.250;stroke-opacity:0.98" d="M37.19,82.96L42.05,82.96L42.05,75.06L37.19,75.06z"/><text xml:space="preserve" fill="#000000" stroke-width="0" x="38.18" y="80.74" font-size="4.62" opacity="1.00" font-family="Eurostile" font-weight="bold">6</text></g></g><g><g/><g><image x="126.411797" y="184.612411" height="21.652370" width="23.743921" xlink:href="BEVEL_files/b82be3a47ebf1bf2_image_0.jpg" mask="url(#mask0)"/></g></g><g><g/><g><path style="stroke:#0000ff;stroke-width:0.125;fill:#0000ff" d="M98.83,3.42L186.86,3.42L186.86,13.57L98.83,13.57z"/><text xml:space="preserve" fill="#ffffff" stroke-width="0" x="100.10" y="10.40" font-size="6.20" opacity="1.00" font-family="Microsoft Sans Serif">BEVEL RING GEAR SECTION</text></g></g><g><g/><g><image x="11.323530" y="145.706696" height="52.389973" width="73.990761" xlink:href="BEVEL_files/b82be3a47ebf1bf2_image_1.jpg"/><path style="stroke:#000000;stroke-width:0.125;stroke-opacity:0.98" d="M11.32,145.71L85.31,145.71L85.31,198.10L11.32,198.10z"/></g></g><g/><g id="paperID" visibility="hidden" opacity="0.00" transform="scale(0.000100)"><path style="stroke:#000000;stroke-width:0.500;fill:#e6e6e6;fill-rule:evenodd" d="M-2000.00,-2000.00L2297.00,-2000.00L2297.00,2210.00L-2000.00,2210.00zM0.00,0.00L297.00,0.00L297.00,210.00L0.00,210.00z"/><path style="fill:#000000;fill-opacity:0.118" d="M3.00,210.00L297.00,210.00L297.00,3.00L300.00,3.00L300.00,213.00L3.00,213.00z"/></g><g><g><path style="stroke:#000000;stroke-width:0.353;fill:#0000ff" d="M195.70,130.66L289.30,130.66L289.30,137.08L195.70,137.08z"/><text xml:space="preserve" fill="#ffffff" stroke-width="0" x="198.17" y="135.60" font-size="4.88" opacity="1.00" font-family="Eurostile" font-weight="bold">BOM ID</text><text xml:space="preserve" fill="#ffffff" stroke-width="0" x="219.11" y="135.60" font-size="4.92" opacity="1.00" font-family="Eurostile" font-weight="bold">DESCRIPTION</text><text xml:space="preserve" fill="#ffffff" stroke-width="0" x="279.88" y="135.60" font-size="4.91" opacity="1.00" font-family="Eurostile" font-weight="bold">Qty</text><path style="stroke:#000000;stroke-width:0.353" d="M216.64,130.66L216.64,137.08"/><path style="stroke:#000000;stroke-width:0.353" d="M277.41,130.66L277.41,137.08"/></g><g id="Line1"><path style="stroke:#000000;stroke-width:0.353;fill:#ffffff" d="M195.70,137.08L289.30,137.08L289.30,143.50L195.70,143.50z"/><text xml:space="preserve" fill="#000000" stroke-width="0" x="198.17" y="142.02" font-size="4.27" opacity="1.00" font-family="Eurostile">1</text><text xml:space="preserve" fill="#000000" stroke-width="0" x="219.11" y="142.02" font-size="5.05" opacity="1.00" font-family="Eurostile">BEVEL RING GEAR</text><text xml:space="preserve" fill="#000000" stroke-width="0" x="279.88" y="142.02" font-size="4.27" opacity="1.00" font-family="Eurostile">1</text><path style="stroke:#000000;stroke-width:0.353" d="M216.64,137.08L216.64,143.50"/><path style="stroke:#000000;stroke-width:0.353" d="M277.41,137.08L277.41,143.50"/></g><g id="Line2"><path style="stroke:#000000;stroke-width:0.353;fill:#f0f0ff" d="M195.70,143.50L289.30,143.50L289.30,149.92L195.70,149.92z"/><text xml:space="preserve" fill="#000000" stroke-width="0" x="198.17" y="148.44" font-size="4.67" opacity="1.00" font-family="Eurostile">2</text><text xml:space="preserve" fill="#000000" stroke-width="0" x="219.11" y="148.44" font-size="5.06" opacity="1.00" font-family="Eurostile">HELICAL TRANSFER GEAR</text><text xml:space="preserve" fill="#000000" stroke-width="0" x="279.88" y="148.44" font-size="4.27" opacity="1.00" font-family="Eurostile">1</text><path style="stroke:#000000;stroke-width:0.353" d="M216.64,143.50L216.64,149.92"/><path style="stroke:#000000;stroke-width:0.353" d="M277.41,143.50L277.41,149.92"/></g><g id="Line3"><path style="stroke:#000000;stroke-width:0.353;fill:#ffffff" d="M195.70,149.92L289.30,149.92L289.30,156.34L195.70,156.34z"/><text xml:space="preserve" fill="#000000" stroke-width="0" x="198.17" y="154.86" font-size="4.69" opacity="1.00" font-family="Eurostile">3</text><text xml:space="preserve" fill="#000000" stroke-width="0" x="219.11" y="154.86" font-size="5.06" opacity="1.00" font-family="Eurostile">ROLLER BEARING 1</text><text xml:space="preserve" fill="#000000" stroke-width="0" x="279.88" y="154.86" font-size="4.27" opacity="1.00" font-family="Eurostile">1</text><path style="stroke:#000000;stroke-width:0.353" d="M216.64,149.92L216.64,156.34"/><path style="stroke:#000000;stroke-width:0.353" d="M277.41,149.92L277.41,156.34"/></g><g id="Line4"><path style="stroke:#000000;stroke-width:0.353;fill:#f0f0ff" d="M195.70,156.34L289.30,156.34L289.30,162.76L195.70,162.76z"/><text xml:space="preserve" fill="#000000" stroke-width="0" x="198.17" y="161.27" font-size="4.90" opacity="1.00" font-family="Eurostile">4</text><text xml:space="preserve" fill="#000000" stroke-width="0" x="219.11" y="161.27" font-size="5.06" opacity="1.00" font-family="Eurostile">ROLLER BEARING 2</text><text xml:space="preserve" fill="#000000" stroke-width="0" x="279.88" y="161.27" font-size="4.27" opacity="1.00" font-family="Eurostile">1</text><path style="stroke:#000000;stroke-width:0.353" d="M216.64,156.34L216.64,162.76"/><path style="stroke:#000000;stroke-width:0.353" d="M277.41,156.34L277.41,162.76"/></g><g id="Line5"><path style="stroke:#000000;stroke-width:0.353;fill:#ffffff" d="M195.70,162.76L289.30,162.76L289.30,169.18L195.70,169.18z"/><text xml:space="preserve" fill="#000000" stroke-width="0" x="198.17" y="167.69" font-size="4.58" opacity="1.00" font-family="Eurostile">5</text><text xml:space="preserve" fill="#000000" stroke-width="0" x="219.11" y="167.69" font-size="5.04" opacity="1.00" font-family="Eurostile">RETAINING RING</text><text xml:space="preserve" fill="#000000" stroke-width="0" x="279.88" y="167.69" font-size="4.27" opacity="1.00" font-family="Eurostile">1</text><path style="stroke:#000000;stroke-width:0.353" d="M216.64,162.76L216.64,169.18"/><path style="stroke:#000000;stroke-width:0.353" d="M277.41,162.76L277.41,169.18"/></g><g id="Line6"><path style="stroke:#000000;stroke-width:0.353;fill:#f0f0ff" d="M195.70,169.18L289.30,169.18L289.30,175.59L195.70,175.59z"/><text xml:space="preserve" fill="#000000" stroke-width="0" x="198.17" y="174.11" font-size="4.71" opacity="1.00" font-family="Eurostile">6</text><text xml:space="preserve" fill="#000000" stroke-width="0" x="219.11" y="174.11" font-size="5.02" opacity="1.00" font-family="Eurostile">CUP</text><text xml:space="preserve" fill="#000000" stroke-width="0" x="279.88" y="174.11" font-size="4.27" opacity="1.00" font-family="Eurostile">1</text><path style="stroke:#000000;stroke-width:0.353" d="M216.64,169.18L216.64,175.59"/><path style="stroke:#000000;stroke-width:0.353" d="M277.41,169.18L277.41,175.59"/></g></g><g id="hotspot.0" ident="" onmouseover="ShowHotSpot(evt,&apos;0&apos;)" onmouseout="HideHotSpot(evt,&apos;0&apos;)" onmousemove="ShowToolTip(evt,&apos;0&apos;,&quot;ICON&quot;)" opacity="0"><a xlink:href="HOME.SVG"><path style="fill:#00ff00;fill-rule:evenodd" d="M150.02,205.99L126.60,205.99L126.60,184.51L150.02,184.51z"/></a></g><g id="hotspot.1" ident="" onmouseover="ShowHotSpot(evt,&apos;1&apos;)" onmouseout="HideHotSpot(evt,&apos;1&apos;)" onmousemove="ShowToolTip(evt,&apos;1&apos;,&quot;BACK TO SECTIONS PAGE&quot;)" opacity="0"><a xlink:href="GEARBOXSECTIONS.SVG"><path style="fill:#00ff00;fill-rule:evenodd" d="M85.54,198.13L11.10,197.90L11.10,145.36L85.61,145.33z"/></a></g><g id="hotspot.2" ident="" onmouseover="ShowHotSpot(evt,&apos;2&apos;)" onmouseout="HideHotSpot(evt,&apos;2&apos;)" onmousemove="ShowToolTip(evt,&apos;2&apos;,&quot;&quot;)" opacity="0"><path style="fill:#00ff00;fill-rule:evenodd" d="M195.70,137.08L195.70,143.50L289.30,143.50L289.30,137.08zM168.49,26.92L168.36,35.07L165.77,35.38L165.48,36.16L165.17,36.16L164.87,35.39L163.58,35.07L163.58,26.73L168.17,26.60zM165.01,39.13L164.53,41.35L164.16,41.35L164.24,40.00L164.50,38.88zM163.80,46.41L163.17,46.41L163.61,44.18L164.21,44.05zM161.67,46.68L163.32,47.62L165.57,49.90L168.12,53.49L172.25,61.70L173.21,61.61L176.57,60.63L177.51,60.93L178.52,61.86L180.74,65.46L183.32,71.62L185.27,78.73L186.24,85.52L185.94,89.85L184.96,91.13L180.96,92.31L181.39,98.14L181.39,104.71L180.42,109.24L179.42,110.83L172.56,115.66L170.42,115.62L170.04,114.95L169.00,115.09L168.42,113.66L167.49,113.68L166.56,111.73L165.89,111.73L164.90,109.18L164.16,109.25L162.92,106.25L162.23,105.98L160.98,102.70L160.33,102.05L159.69,100.41L159.58,99.43L160.04,98.77L158.74,98.46L158.28,97.16L160.04,95.21L157.11,94.92L157.18,92.74L157.46,92.29L156.05,92.10L155.79,91.71L155.54,89.70L154.78,88.84L154.18,85.87L153.82,85.59L153.22,82.64L152.84,82.36L152.29,79.03L151.98,78.70L150.98,73.23L149.68,62.88L149.24,57.07L150.23,48.97L151.01,48.45L151.22,47.37L151.91,47.09L152.18,46.39L157.45,46.38z"/></g><g id="hotspot.3" ident="" onmouseover="ShowHotSpot(evt,&apos;3&apos;)" onmouseout="HideHotSpot(evt,&apos;3&apos;)" onmousemove="ShowToolTip(evt,&apos;3&apos;,&quot;&quot;)" opacity="0"><path style="fill:#00ff00;fill-rule:evenodd" d="M195.70,143.50L195.70,149.92L289.30,149.92L289.30,143.50zM106.05,52.48L105.92,60.62L103.63,60.92L103.38,62.06L103.03,62.06L102.78,60.92L100.82,60.63L100.82,52.29L105.73,52.16zM103.39,67.24L103.02,67.24L103.02,64.76L103.39,64.76zM103.39,72.42L103.02,72.42L103.02,69.94L103.39,69.94zM116.04,77.76L118.33,80.00L118.53,81.41L119.25,81.67L119.61,82.27L120.15,84.37L124.43,83.34L138.57,79.37L140.30,79.38L140.86,80.79L147.32,79.04L148.40,79.02L149.08,79.66L150.34,81.96L151.62,86.17L151.65,89.53L150.87,90.37L144.83,92.09L144.08,94.25L124.99,99.76L124.69,102.00L125.11,102.97L124.79,107.00L123.05,110.11L99.78,116.60L93.07,118.23L90.84,116.87L89.51,115.93L88.91,114.59L87.89,113.35L87.55,112.72L87.23,111.09L86.63,110.73L85.66,108.77L84.55,108.80L81.34,109.81L79.81,109.78L78.51,107.84L77.19,104.31L76.89,102.67L76.89,98.89L77.42,98.45L82.31,97.17L82.31,94.93L82.77,94.28L82.05,92.98L82.11,90.81L82.40,90.35L81.94,89.09L83.70,84.99L90.38,82.94L112.37,76.78L114.45,76.81zM103.54,75.36L103.06,77.59L102.69,77.59L102.77,76.24L103.03,75.12z"/></g><g id="hotspot.4" ident="" onmouseover="ShowHotSpot(evt,&apos;4&apos;)" onmouseout="HideHotSpot(evt,&apos;4&apos;)" onmousemove="ShowToolTip(evt,&apos;4&apos;,&quot;&quot;)" opacity="0"><path style="fill:#00ff00;fill-rule:evenodd" d="M195.70,149.92L195.70,156.34L289.30,156.34L289.30,149.92zM67.55,68.66L67.42,76.80L65.12,77.09L64.90,78.89L64.52,78.89L64.29,77.09L62.32,76.80L62.32,68.46L67.23,68.33zM64.57,84.06L64.20,84.06L64.29,81.71L64.89,81.58zM64.57,89.24L64.20,89.24L64.20,86.76L64.57,86.76zM64.47,93.73L65.91,93.91L67.51,95.23L69.77,99.11L72.04,105.26L73.65,112.70L73.66,118.63L73.33,119.60L72.57,120.45L65.48,122.42L63.93,122.43L62.36,121.08L59.74,116.26L57.79,110.44L56.83,106.55L56.18,102.35L56.18,98.23L56.85,96.32L58.35,95.55L63.63,94.04L63.87,91.94L64.25,91.93z"/></g><g id="hotspot.5" ident="" onmouseover="ShowHotSpot(evt,&apos;5&apos;)" onmouseout="HideHotSpot(evt,&apos;5&apos;)" onmousemove="ShowToolTip(evt,&apos;5&apos;,&quot;23820-001503511.sldprt&quot;)" opacity="0"><path style="fill:#00ff00;fill-rule:evenodd" d="M195.70,156.34L195.70,162.76L289.30,162.76L289.30,156.34zM195.34,35.66L195.21,43.80L190.11,43.80L190.11,35.46L195.02,35.33zM192.36,48.47L191.99,48.47L191.99,46.00L192.36,46.00zM192.04,53.65L191.67,53.65L191.67,51.17L192.04,51.17zM196.31,59.60L198.54,63.52L200.80,69.67L202.42,77.43L202.43,82.72L202.10,83.69L201.33,84.53L194.57,86.51L192.40,86.48L190.16,83.87L187.86,79.06L185.91,72.59L184.95,67.40L184.93,61.99L185.92,60.07L191.00,58.67L191.34,56.35L191.72,56.35L192.06,58.47L193.26,58.00L194.34,57.99z"/></g><g id="hotspot.6" ident="" onmouseover="ShowHotSpot(evt,&apos;6&apos;)" onmouseout="HideHotSpot(evt,&apos;6&apos;)" onmousemove="ShowToolTip(evt,&apos;6&apos;,&quot;&quot;)" opacity="0"><path style="fill:#00ff00;fill-rule:evenodd" d="M195.70,162.76L195.70,169.18L289.30,169.18L289.30,162.76zM52.99,72.22L52.86,80.36L47.76,80.36L47.76,72.02L52.67,71.89zM50.33,84.39L49.96,84.39L49.96,81.91L50.33,81.91zM50.33,89.56L49.96,89.56L49.96,87.08L50.33,87.08zM50.01,94.74L49.64,94.74L49.64,92.26L50.01,92.26zM51.01,96.84L52.95,98.79L55.87,104.60L57.79,110.44L59.42,118.52L59.42,123.15L59.02,124.69L58.05,125.66L56.16,125.66L54.59,124.32L54.22,123.72L54.14,120.79L55.23,120.42L56.86,123.72L57.37,123.74L57.48,117.23L55.86,110.11L53.59,103.97L51.06,100.03L50.68,99.71L49.95,99.74L49.67,100.14L49.71,106.23L50.34,109.81L52.31,114.31L52.32,116.06L51.87,116.59L50.92,116.70L49.38,112.06L48.10,106.23L47.77,103.32L47.77,99.86L48.07,98.22L49.26,96.48L50.37,96.50z"/></g><g id="hotspot.7" ident="" onmouseover="ShowHotSpot(evt,&apos;7&apos;)" onmouseout="HideHotSpot(evt,&apos;7&apos;)" onmousemove="ShowToolTip(evt,&apos;7&apos;,&quot;&quot;)" opacity="0"><path style="fill:#00ff00;fill-rule:evenodd" d="M195.70,169.18L195.70,175.59L289.30,175.59L289.30,169.18zM42.31,74.80L42.18,82.95L37.08,82.95L37.08,74.61L41.99,74.48zM39.66,86.65L39.28,86.65L39.28,84.17L39.66,84.17zM39.33,91.83L38.96,91.83L38.96,89.35L39.33,89.35zM39.33,97.00L38.96,97.00L38.96,94.53L39.33,94.53zM43.60,102.96L46.15,108.17L48.42,115.61L49.39,122.08L49.09,126.09L48.44,127.05L44.42,128.21L42.84,129.54L40.63,129.54L39.39,128.52L37.09,124.68L34.49,117.57L33.20,112.39L32.89,110.43L32.46,105.26L32.87,102.75L33.75,101.69L34.38,101.36L37.67,101.40L38.39,101.15L38.64,99.70L39.00,99.70L39.27,100.86L41.65,100.71z"/></g><g id="ToolTip" visibility="hidden" opacity="0" transform="translate(0,0)"><rect id="ToolTipShadow" opacity="0.20" fill="black" stroke="none" x="0" y="0" width="30" height="8"/><rect id="ToolTipBG" fill="#ffffe1" stroke="black" x="0" y="0" width="30" height="8"/><text xml:space="preserve" id="ToolTipText" fill="black" x="0" y="0" width="30" height="8">tooltip</text></g></g></svg>