<?xml version="1.0" encoding="UTF-8" standalone="yes"?><svg xmlns="http://www.w3.org/2000/svg" xmlns:xlink="http://www.w3.org/1999/xlink" width="297.000mm" height="210.000mm" viewBox="0.000000 0.000000 297.000000 210.000000" stroke-linejoin="round" stroke-linecap="round" fill="none" fill-rule="evenodd"><desc>Composer Export</desc><script type="text/ecmascript"><![CDATA[
if(typeof(top) != "undefined")
{
	top.ShowPaper = ShowPaper;
}
function ShowHotSpot(evt,hotspotid)
{
	var svgDocument = evt.target.ownerDocument;
	var strId = "hotspot."+hotspotid;
	var hotspot = svgDocument.getElementById(strId);
	if(hotspot)
		hotspot.setAttribute("opacity",".5");
}
function HideHotSpot(evt,hotspotid)
{
	var svgDocument = evt.target.ownerDocument;
	var strId = "hotspot."+hotspotid;
	var hotspot = svgDocument.getElementById(strId);
	if(hotspot)
		hotspot.setAttribute("opacity","0");

	var toolTip = svgDocument.getElementById('ToolTip');
	if(toolTip)
		toolTip.setAttribute("visibility","hidden");
}
function ShowToolTip(evt,hotspotid,strTooltip)
{
	if(strTooltip=="")
	return;

	// change text
	var svgDocument = evt.target.ownerDocument;
	var tiptext = svgDocument.getElementById('ToolTipText');
	if( !tiptext )
	return;
	tiptext.firstChild.nodeValue = " " + strTooltip + "  " ;

	// show tooltip before, else some refresh issue

	var toolTip = svgDocument.getElementById('ToolTip');
	if(!toolTip)
	return;

	toolTip.setAttribute("visibility","visible");
	toolTip.setAttribute("opacity",".95");

	// move tooltip
	// get viewbox

	var root = svgDocument.documentElement;
	var vbox = (root.getAttribute("viewBox")).split(' ');
	var x0 = parseFloat(vbox[0]);
	var y0 = parseFloat(vbox[1]);
	var vboxW = parseFloat(vbox[2]);
	var vboxH = parseFloat(vbox[3]);

	// get default width of svg

	var strW = root.getAttribute("width");
	var svgW = parseFloat(strW);
	if(strW.indexOf('mm') != -1)
	svgW *= 3.779;

	var strH = root.getAttribute("height");
	var svgH = parseFloat(strH);
	if(strH.indexOf('mm') != -1)
	svgH *= 3.779;  	// 96 dpi  -> 96/25.4 = 3.779

	// update the viewbox / width / height if svg is embedded in html with zoom fit all
	var realx0 = x0;
	var realy0 = y0;
	var realvboxW = vboxW;
	var realvboxH = vboxH;
	var realsvgW = svgW;
	var realsvgH = svgH;

	if ((typeof(top) == "undefined") || (typeof(top.svgctl1) != "undefined")) // embedded in html
	{
		// get window size in pxl

		svgW = window.innerWidth;
		svgH = window.innerHeight;

		// calculate real viewbox

		realsvgW = svgW;
		realsvgH = svgH;
		if((svgW / svgH) > (vboxW / vboxH))
		{
			realvboxW = (vboxH * svgW) / svgH;
			realvboxH = vboxH;
			realx0 = x0 - (realvboxW - vboxW)/2 ;
		}
		else
		{
			realvboxH = (vboxW * svgH) / svgW;
			realvboxW = vboxW;
			realy0 = y0 - (realvboxH - vboxH)/2 ;
		}
	}

	// get user zoom/pan

	var newScale = root.currentScale;
	var translation = root.currentTranslate;

	// transform pxl to user unit

	var xPos = (((evt.clientX+10- translation.x)/newScale) * realvboxW)/realsvgW  + realx0 ;
	var yPos = (((evt.clientY+5- translation.y)/newScale) * realvboxH)/ realsvgH  + realy0 ;
	var scaleForWidth = ( (1 / newScale) * realvboxH) / realsvgH;

	// move tooltip

	toolTip.setAttribute("transform", "translate(" + xPos + "," + yPos + ")" );

	// resize tooltip

	var fontsize = 12;
	tiptext.setAttribute("font-size",fontsize*scaleForWidth);
	tiptext.setAttribute("y", fontsize*scaleForWidth);
	var tipBG = svgDocument.getElementById('ToolTipBG');
	var outline = tiptext.getBBox();
	if(tipBG)
	{
		tipBG.setAttribute("stroke-width", 1*scaleForWidth);
		tipBG.setAttribute("width", Number(outline.width) );
		tipBG.setAttribute("height", Number(outline.height) + fontsize*.5*scaleForWidth );
	}
	var ToolTipShadow = svgDocument.getElementById('ToolTipShadow');
	if(ToolTipShadow)
	{
		ToolTipShadow.setAttribute("width", Number(outline.width) );
		ToolTipShadow.setAttribute("height", Number(outline.height) + fontsize*.5*scaleForWidth );
		ToolTipShadow.setAttribute("x", 3*scaleForWidth);
		ToolTipShadow.setAttribute("y", 3*scaleForWidth);
	}
}
function ShowPaper()
{
  var svgDocument = getDocument();
  var paper = svgDocument.getElementById("paperID");
  if(paper)
  {
    paper.setAttribute("transform","scale(1)");
    paper.setAttribute("opacity","1");
    paper.setAttribute("visibility","visible");
  }
  var svg = svgDocument.getRootElement();
  if(svg)
  {
    svg.setAttribute("width","307.000mm");
    svg.setAttribute("height","220.000mm");
    svg.setAttribute("viewBox","-5.000000 -5.000000 307.000000 220.000000");
  }
}
]]></script><defs/><g><path style="fill:#000000;fill-opacity:0.098;fill-rule:evenodd" d="M235.35,51.29L235.05,51.77L233.94,52.08L233.94,50.92L235.36,50.41zM253.60,53.51L256.21,56.90L257.25,58.72L259.57,63.44L260.87,67.88L261.66,72.30L261.66,77.60L261.14,80.73L260.09,84.12L258.01,87.77L255.67,90.12L255.15,102.64L254.60,103.39L254.36,107.84L225.94,118.55L226.64,82.47L254.90,71.84L254.91,71.55L253.60,71.02L250.11,72.31L245.95,73.70L245.34,71.92L244.69,69.71L244.61,68.93L257.48,64.05L257.48,62.66L256.19,58.74L254.36,55.10L253.04,53.50L253.04,53.00zM220.68,53.25L219.85,53.29L220.73,52.99zM167.32,55.32L168.59,57.96L168.59,61.44L168.32,62.21L167.17,64.71L165.71,66.41L165.72,67.98L165.21,67.88L160.69,68.92L159.35,69.00L159.46,68.09L157.88,67.89L156.06,66.29L156.08,65.64L156.35,65.36L157.03,61.35L158.15,59.08L159.61,57.16L161.98,55.62L163.02,55.09L166.24,54.54zM235.09,55.87L233.59,56.58L232.54,56.83L230.01,57.27L230.09,56.77L233.68,55.35L234.55,55.33zM235.71,56.54L236.12,58.50L235.96,59.19L234.89,59.44L232.88,59.77L232.29,60.22L230.80,60.57L230.20,61.00L228.72,61.35L228.11,61.79L226.63,62.13L226.03,62.57L224.55,62.91L223.94,63.35L222.46,63.69L221.86,64.13L220.38,64.48L219.77,64.91L219.07,65.00L214.92,66.58L208.14,69.70L207.97,70.58L207.71,70.85L205.88,71.27L205.62,71.01L205.61,69.52L205.87,67.44L212.05,64.49L214.44,63.50L214.56,63.35L216.23,62.94L216.64,62.57L218.32,62.16L218.73,61.79L220.40,61.37L220.82,61.00L222.49,60.59L222.90,60.22L224.57,59.81L224.99,59.44L226.66,59.03L227.07,58.66L229.07,58.04L232.42,56.97L232.54,56.83L233.59,56.58L235.58,56.39zM238.48,59.24L238.98,62.14L236.46,63.09L234.71,63.43L234.11,63.87L232.63,64.22L232.03,64.65L230.54,65.00L229.94,65.44L228.46,65.78L227.85,66.22L227.15,66.30L218.81,69.43L218.21,69.87L216.73,70.22L211.26,72.84L210.31,72.83L208.70,71.54L208.39,71.32L208.74,69.78L215.18,66.84L219.66,65.06L219.77,64.91L221.45,64.50L221.86,64.13L223.53,63.72L223.94,63.35L225.62,62.94L226.03,62.57L227.70,62.16L228.11,61.79L229.79,61.37L230.20,61.00L231.87,60.59L232.29,60.22L234.77,59.57L234.89,59.44L235.96,59.19L238.23,58.97zM203.69,61.17L203.59,60.76L207.35,59.53L215.23,56.46L215.34,56.31L217.01,55.90L217.43,55.53L219.10,55.12L219.51,54.75L221.19,54.34L221.59,53.96L222.37,53.69L222.54,53.79L222.58,54.95L221.08,55.79L220.37,55.87L212.03,59.00L211.43,59.44L209.95,59.78L209.34,60.22L207.86,60.57L207.26,61.00L205.80,61.37L204.56,61.36zM206.05,61.62L207.15,61.15L207.26,61.00L208.93,60.59L209.34,60.22L211.02,59.81L211.43,59.44L213.42,58.83L220.96,55.94L221.08,55.79L225.18,54.57L224.98,56.57L223.50,56.92L222.90,57.35L221.42,57.70L220.82,58.14L220.11,58.22L211.77,61.35L211.17,61.79L209.69,62.13L209.08,62.57L207.69,62.69L206.10,61.84zM241.34,63.16L241.60,65.59L223.78,72.32L222.20,72.56L218.03,74.12L217.63,74.50L212.56,76.48L212.63,77.76L212.39,79.69L211.77,81.14L212.39,81.94L213.68,86.64L213.48,87.01L212.04,87.95L211.77,97.40L212.91,97.94L211.85,100.01L211.50,103.66L215.52,105.23L212.03,106.45L211.32,107.03L211.36,108.78L211.61,109.05L211.61,112.80L211.34,113.58L210.46,114.78L207.69,116.45L207.08,133.30L194.85,138.02L194.56,138.77L187.80,141.41L187.04,141.46L186.78,141.12L186.31,141.42L185.71,141.37L151.80,154.14L151.37,155.02L143.82,157.91L143.57,157.32L142.97,157.56L141.65,157.57L142.24,157.37L142.97,128.83L143.60,129.21L143.48,128.13L143.79,127.90L144.34,110.45L145.05,107.77L146.86,103.59L149.29,99.23L151.93,95.61L154.40,92.87L156.07,91.42L159.64,88.73L164.07,86.64L167.46,85.86L171.04,85.77L171.71,85.97L171.04,85.77L169.11,85.34L166.94,85.34L165.12,85.60L163.80,85.61L168.05,84.02L183.71,85.34L185.46,85.35L208.15,76.68L208.46,76.74L208.73,77.35L210.81,76.47L210.79,75.78L211.62,75.50L211.59,74.10L211.37,73.85L211.33,73.19L218.09,70.01L218.21,69.87L220.20,69.25L227.74,66.37L227.85,66.22L229.53,65.81L229.94,65.44L231.61,65.02L232.03,64.65L233.70,64.24L234.11,63.87L236.33,63.22L236.46,63.09L240.58,62.14zM208.67,62.93L209.08,62.57L210.76,62.16L211.17,61.79L213.16,61.17L220.70,58.28L220.82,58.14L222.49,57.72L222.90,57.35L224.58,56.95L224.98,56.57L226.64,56.15L227.17,55.84L227.76,55.85L227.79,58.07L227.07,58.66L225.59,59.00L224.99,59.44L223.50,59.78L222.90,60.22L221.42,60.57L220.82,61.00L219.33,61.35L218.73,61.79L217.25,62.13L216.64,62.57L215.16,62.91L214.56,63.35L213.86,63.43L211.79,64.23L205.54,67.11L204.81,70.33L204.23,70.33L204.30,66.39L210.06,64.21L208.71,63.15zM192.49,64.48L194.08,63.66L194.41,63.69L194.16,65.34L192.54,64.72zM224.64,52.82L222.37,53.69L221.59,53.96L220.12,54.31L219.51,54.75L218.03,55.09L217.43,55.53L215.94,55.87L215.34,56.31L214.64,56.39L204.21,60.30L203.59,60.76L202.90,60.81L195.34,64.20L194.90,65.10L194.92,63.78L201.09,60.83L220.90,53.53L224.63,52.72zM203.82,70.02L200.84,68.47L200.92,66.65L203.29,65.80zM197.96,67.09L199.64,66.58L199.63,67.95zM175.13,75.43L175.12,76.03L174.75,76.98L172.96,78.32L171.45,78.30L156.24,77.01L169.93,71.64L171.20,70.57L171.70,68.90zM234.72,71.00L241.24,68.39L243.08,67.59L243.66,67.58L243.45,67.96L235.50,71.29L234.77,71.25zM245.34,71.92L244.17,72.66L244.15,73.49L243.66,73.11L242.53,72.84L245.02,71.80zM166.24,70.05L165.96,70.80L164.87,71.54L162.23,71.87L162.32,70.81L164.85,69.96L165.72,69.26L166.14,68.61L166.25,68.64zM225.37,74.89L224.54,74.93L225.43,74.62zM131.32,81.00L129.37,80.99L129.46,80.20L131.32,80.12zM133.94,82.06L133.14,82.56L131.20,82.81L131.20,82.23L133.34,81.73L133.92,80.89zM111.23,87.23L111.76,87.14L111.43,88.31L111.18,88.23zM113.59,87.47L113.84,87.42L113.86,89.61L113.53,90.13L113.24,90.06L113.59,89.08zM217.07,89.51L217.08,95.33L216.84,97.17L216.31,97.70L216.02,97.07L215.71,97.02L213.86,97.70L213.94,90.63L216.33,89.63L216.58,88.24L216.83,88.20zM153.39,89.36L154.77,89.07L159.65,87.13L160.28,87.25L158.15,88.55L155.03,90.90L153.23,92.48L151.67,94.32L149.33,97.19L146.95,101.06L143.80,107.06L144.00,93.42L144.26,91.86L146.34,90.81L152.61,88.43L153.20,88.44zM138.35,96.02L138.34,104.19L137.30,144.34L137.06,147.48L136.42,148.41L133.05,149.75L132.07,149.76L131.47,149.46L132.78,149.21L133.93,147.74L134.17,144.34L135.39,98.11L135.65,96.29L136.83,95.75L137.30,96.92L137.48,95.50L138.10,95.27zM134.19,97.01L134.19,98.73L133.64,99.25L133.62,98.73L133.95,98.19L133.93,96.77zM131.27,96.60L131.51,96.26L131.81,96.25L131.80,97.72L131.52,97.70zM224.38,110.11L224.38,110.99L223.86,110.92L220.75,109.30L218.88,107.71L218.83,107.47L219.13,107.47zM113.33,112.66L113.33,114.12L112.69,115.07L112.18,115.07L113.08,113.84L113.08,112.41zM110.96,112.84L110.64,112.84L110.64,111.89L110.96,111.89zM133.09,121.51L133.34,121.56L133.67,122.37L133.67,122.95L133.02,124.20L132.52,124.20L133.14,122.97zM130.78,121.12L131.31,121.03L131.35,121.39L131.04,121.92L130.78,121.86zM112.28,137.01L112.54,136.95L112.80,138.28L112.43,139.58L111.92,139.58L112.28,138.61zM110.52,136.82L110.15,137.60L109.84,137.59L109.93,136.75L110.45,136.68zM132.88,146.55L132.89,148.27L132.57,148.80L132.27,148.80L132.31,148.26L132.64,147.73L132.62,146.31zM130.28,146.73L130.19,145.80L130.76,145.77zM137.30,155.82L136.65,156.05L136.69,155.46L137.06,155.42zM221.19,54.34L219.51,54.75L220.12,54.31L221.59,53.96zM219.10,55.12L217.43,55.53L218.03,55.09L219.51,54.75zM217.01,55.90L215.34,56.31L215.94,55.87L217.43,55.53zM164.95,57.17L165.47,57.95L166.24,58.49L167.30,59.77L167.29,62.23L167.02,63.00L165.75,65.12L163.56,66.58L161.55,66.86L160.49,66.33L158.70,64.72L158.15,63.71L158.14,61.42L158.93,59.60L160.27,57.81L161.72,56.92L162.50,56.66L163.91,56.65zM224.58,56.95L222.90,57.35L223.50,56.92L224.98,56.57zM222.49,57.72L220.82,58.14L221.42,57.70L222.90,57.35zM226.66,59.03L224.99,59.44L225.59,59.00L227.07,58.66zM220.96,55.94L213.42,58.83L211.43,59.44L212.03,59.00L220.37,55.87L221.08,55.79zM234.77,59.57L232.29,60.22L232.88,59.77L234.89,59.44zM224.57,59.81L222.90,60.22L223.50,59.78L224.99,59.44zM211.02,59.81L209.34,60.22L209.95,59.78L211.43,59.44zM215.23,56.46L207.35,59.53L203.59,60.76L204.21,60.30L214.64,56.39L215.34,56.31zM231.87,60.59L230.20,61.00L230.80,60.57L232.29,60.22zM222.49,60.59L220.82,61.00L221.42,60.57L222.90,60.22zM208.93,60.59L207.26,61.00L207.86,60.57L209.34,60.22zM229.79,61.37L228.11,61.79L228.72,61.35L230.20,61.00zM220.40,61.37L218.73,61.79L219.33,61.35L220.82,61.00zM220.70,58.28L213.16,61.17L211.17,61.79L211.77,61.35L220.11,58.22L220.82,58.14zM227.70,62.16L226.03,62.57L226.63,62.13L228.11,61.79zM218.32,62.16L216.64,62.57L217.25,62.13L218.73,61.79zM210.76,62.16L209.08,62.57L209.69,62.13L211.17,61.79zM225.62,62.94L223.94,63.35L224.55,62.91L226.03,62.57zM216.23,62.94L214.56,63.35L215.16,62.91L216.64,62.57zM236.33,63.22L234.11,63.87L234.71,63.43L236.46,63.09zM223.53,63.72L221.86,64.13L222.46,63.69L223.94,63.35zM233.70,64.24L232.03,64.65L232.63,64.22L234.11,63.87zM221.45,64.50L219.77,64.91L220.38,64.48L221.86,64.13zM231.61,65.02L229.94,65.44L230.54,65.00L232.03,64.65zM229.53,65.81L227.85,66.22L228.46,65.78L229.94,65.44zM227.74,66.37L220.20,69.25L218.21,69.87L218.81,69.43L227.15,66.30L227.85,66.22zM251.52,76.45L234.22,83.01L230.01,89.75L229.33,111.78L228.54,111.69L227.51,111.15L227.68,96.29L228.04,88.57L232.10,82.20L249.04,75.68L250.20,75.68zM208.99,86.91L209.01,98.72L208.72,98.43L208.73,85.58zM167.57,89.21L167.56,90.39L166.94,91.33L165.59,91.32L166.43,90.56L166.95,88.97L167.28,88.92zM170.97,89.48L170.95,90.38L170.10,91.62L168.99,91.67L168.99,91.37L169.89,90.64L170.35,89.24L170.67,89.18zM158.41,93.42L158.43,94.56L158.16,95.07L157.30,95.80L156.58,95.77L156.58,95.35L157.31,94.74L157.91,93.13zM169.38,94.47L165.90,94.72L163.89,95.32L160.95,96.81L159.12,98.11L156.62,100.57L154.28,103.70L152.16,107.58L150.79,111.69L150.08,115.14L150.08,121.32L150.63,124.00L150.09,123.66L149.54,122.12L149.29,120.79L149.29,114.10L150.33,109.66L152.19,105.27L154.53,101.60L157.40,98.48L159.63,96.54L163.10,94.80L165.38,94.20L168.32,94.20zM179.01,97.85L179.03,99.26L178.13,100.21L177.41,100.23L177.11,99.94L177.98,99.24L178.50,97.56zM164.33,99.68L161.37,100.89L162.06,100.28L164.07,99.42L165.11,99.16L166.26,99.16zM208.45,102.87L208.74,102.27L208.74,104.47L208.45,103.87zM161.29,101.06L160.13,101.99L157.90,104.45L156.94,105.32L157.26,104.60L160.00,101.61L161.37,100.89zM156.79,105.95L156.16,106.63L156.61,105.52L156.94,105.32zM167.27,108.55L167.56,109.04L167.55,112.28L167.21,113.24L166.16,115.32L165.10,116.60L163.30,117.68L161.01,117.68L160.00,116.86L159.45,115.59L159.45,112.26L160.53,109.70L162.35,107.60L163.55,106.95L163.90,106.95zM208.11,106.73L208.48,105.92L208.47,108.39zM148.76,107.51L149.03,107.98L148.53,109.42L147.92,109.87L147.11,109.94L147.19,109.43L148.01,108.65L148.26,107.20zM156.13,106.86L154.86,109.24L155.21,108.02L155.98,106.71L156.16,106.63zM207.93,109.93L208.21,109.04L208.22,110.99zM173.09,110.76L172.85,111.85L173.02,110.60zM178.28,114.01L177.97,115.40L177.36,116.09L176.30,116.18L176.39,115.69L177.21,114.90L177.45,113.47zM203.25,115.06L202.13,115.58L200.82,116.88L199.87,119.83L199.63,119.80L199.60,117.48L200.80,115.55L202.36,114.81zM171.97,115.16L171.90,114.58L172.06,114.45zM202.65,116.60L203.24,116.60L203.54,118.54L203.26,119.06L202.40,119.78L201.32,119.53L201.33,119.27L202.16,118.73L202.77,117.75zM171.22,116.99L170.94,117.26L170.90,116.68L171.23,116.36zM153.90,112.71L153.46,117.25L153.46,113.58L154.49,109.65L154.86,109.24zM168.66,120.67L166.91,122.63L166.40,122.63L168.51,120.52zM148.02,123.63L148.01,124.54L147.16,125.77L146.05,125.74L146.95,124.79L147.41,123.39L147.73,123.33zM165.13,123.91L164.56,123.91L164.85,123.63L165.20,123.63zM163.08,124.99L162.24,124.99L162.77,124.67L163.37,124.67zM203.28,130.43L203.28,131.31L202.38,132.52L201.41,132.53L201.42,132.11L202.23,131.32L202.40,129.63L202.73,129.60zM156.07,132.00L156.09,133.15L155.20,134.35L154.21,134.34L154.17,134.09L155.04,133.40L155.56,131.71zM159.49,132.23L159.48,133.41L158.86,134.35L157.52,134.34L158.69,132.88L158.87,131.98L159.20,131.94zM199.34,130.25L200.28,128.85L201.60,127.81L202.51,127.84L202.51,128.15L201.60,128.61L200.41,130.02L199.61,132.86L199.37,132.83zM167.80,129.47L168.59,127.14L170.04,124.94L171.97,123.22L173.18,122.60L175.65,122.62L173.70,122.87L172.49,123.48L170.70,125.07L169.28,127.05L168.32,129.73L168.35,134.17L168.11,134.11L167.78,133.58zM194.91,134.69L184.67,138.54L183.89,138.63L183.97,136.00L191.52,133.13L191.77,129.47L195.19,122.09zM167.82,143.19L168.08,144.07L167.19,145.83L166.22,145.84L165.64,145.57L167.04,144.36L167.21,142.92L167.53,142.89zM163.89,144.33L164.41,142.77L165.63,141.39L166.41,141.12L167.31,141.14L167.32,141.44L166.26,142.01L165.11,143.47L164.43,146.18L163.87,145.58zM154.78,146.07L154.79,149.31L154.50,149.80L144.52,153.66L143.74,153.75L143.82,151.12L148.28,149.33L148.42,145.81z"/><g id="Actor_.0"><g style="stroke:#000000;stroke-width:0.176"><path d="M111.12,89.68L111.59,90.14L112.09,90.41L112.59,90.45L113.01,90.26L113.33,89.86L113.50,89.29L113.50,88.62L113.34,87.91L113.03,87.25L112.83,86.96L112.61,86.71L112.11,86.33L111.61,86.18L111.14,86.26L110.76,86.56L110.52,87.05L110.43,87.68"/><path d="M111.16,88.52L111.13,88.54L111.24,88.17L111.29,87.87L111.27,87.59L111.19,87.30L111.35,87.12L111.55,87.02L111.79,87.01L112.03,87.09L111.91,87.11L111.75,87.14L111.70,88.32L111.16,88.52"/><path d="M111.70,88.32L112.49,89.34L112.79,89.26L112.88,88.97L112.92,88.73L112.92,88.78L112.87,89.09L112.77,89.34L112.64,89.36L112.47,89.39L112.24,89.46L111.92,89.55L111.68,89.39L111.45,89.16L111.26,88.86L111.13,88.54L111.05,88.20L111.03,87.86L111.08,87.55L111.19,87.30L111.51,87.21L111.75,87.14"/><path d="M111.13,88.54L111.44,88.77L111.66,88.99L111.81,89.24L111.92,89.55L112.16,89.63L112.40,89.62L112.61,89.52L112.77,89.34L112.79,89.26"/><path d="M111.92,89.55L112.49,89.34"/><path d="M112.73,90.55L113.18,90.34L113.52,89.92L113.70,89.31L113.70,88.60L113.53,87.85L113.20,87.14L112.99,86.83L112.75,86.56L112.22,86.17L111.69,86.00L111.19,86.09"/><path d="M112.92,88.73L112.90,88.44L112.82,88.10L112.69,87.78L112.50,87.48L112.27,87.25L112.03,87.09L112.34,87.31"/><path d="M113.11,86.43L113.17,86.49L113.40,86.74L113.60,87.04L113.91,87.70L114.07,88.40L114.07,89.08L114.06,89.18L114.06,88.46L113.89,87.71L113.56,87.01L113.35,86.70L113.11,86.43L112.94,86.30"/><path d="M114.06,89.18L114.05,89.20"/></g><g style="stroke:#000000;stroke-width:0.529"><path d="M112.94,86.30L112.59,86.03L112.05,85.87L111.55,85.95L111.19,86.09L110.79,86.41L110.53,86.93L110.44,87.60L110.43,87.68L110.51,88.38L110.75,89.07L111.12,89.68L111.67,90.22L112.20,90.51L112.73,90.55L113.09,90.41L113.55,90.21L113.88,89.78L114.05,89.20"/></g></g><g id="Actor_.1"><g style="stroke:#000000;stroke-width:0.176"><path d="M129.38,146.52L129.45,145.87L129.67,145.36L130.03,145.03L130.49,144.92L130.99,145.05L131.49,145.39L131.92,145.91L132.10,146.23L132.25,146.56L132.43,147.27L132.45,147.95L132.31,148.53L132.01,148.96L131.60,149.18L131.11,149.18L130.60,148.94L130.13,148.50"/><path d="M131.17,147.90L131.70,147.99L131.53,148.28L131.33,148.37L131.09,148.37L130.84,148.29L130.60,148.12L130.38,147.88L130.20,147.58L130.06,147.25L129.99,146.91L130.56,146.69L131.17,147.90L130.60,148.12L130.54,147.76L130.43,147.46L130.25,147.19L129.99,146.91L130.18,146.59L130.28,146.33L130.33,146.10L130.31,145.86L130.52,145.76L130.76,145.76L131.01,145.85L131.25,146.01L131.45,146.23L131.46,146.25L131.65,146.55L131.78,146.89L131.86,147.23L131.87,147.55L131.81,147.86L131.70,148.11L131.53,148.28L131.39,148.20L131.20,148.15L130.95,148.12L130.60,148.12"/><path d="M130.56,146.69L130.81,145.87L130.66,145.86L130.31,145.86L130.15,146.03L130.03,146.28L129.98,146.58L129.99,146.91"/><path d="M131.74,149.28L132.18,149.04L132.50,148.59L132.65,147.97L132.63,147.24L132.44,146.49L132.28,146.13L132.09,145.80L131.63,145.24L131.10,144.88L130.56,144.75L130.08,144.86"/><path d="M131.25,146.01L131.10,145.93L130.91,145.88L130.81,145.87"/><path d="M131.87,147.50L131.83,147.70L131.72,147.96L131.70,147.99"/><path d="M132.22,145.38L131.99,145.11L132.06,145.17L132.49,145.70L132.67,146.01L132.82,146.35L133.00,147.05L133.02,147.73L133.02,147.83L133.00,147.10L132.80,146.35L132.65,146.00L132.45,145.66L132.22,145.38"/><path d="M131.99,145.11L131.89,145.04"/><path d="M133.02,147.83L132.99,147.96"/></g><g style="stroke:#000000;stroke-width:0.529"><path d="M132.99,147.96L132.86,148.45L132.55,148.91L132.11,149.14L131.74,149.28L131.23,149.27L130.69,149.02L130.18,148.55L130.13,148.50L129.74,147.91L129.48,147.22L129.38,146.52L129.39,146.44L129.45,145.76L129.69,145.21L130.08,144.86L130.44,144.73L130.93,144.61L131.46,144.74L131.89,145.04"/></g></g><g id="Actor_.2"><g style="stroke:#000000;stroke-width:0.176"><path d="M130.68,122.32L130.65,122.20L131.22,121.99L131.87,123.16L131.30,123.38L131.55,123.52L131.79,123.59L132.03,123.56L132.22,123.45L132.08,123.39L131.90,123.36L131.65,123.36L131.30,123.38L131.08,123.15L130.88,122.87L130.74,122.54L130.68,122.32"/><path d="M131.22,121.99L131.43,121.08L131.26,121.08L130.91,121.10L130.94,121.35L130.91,121.60L130.82,121.87L130.65,122.20L130.62,121.87L130.66,121.55L130.76,121.29L130.91,121.10L131.11,120.99L131.34,120.96L131.59,121.03L131.83,121.17L132.06,121.39L132.25,121.68L132.40,122.01L132.49,122.35L132.52,122.68L132.48,123.00L132.38,123.26L132.22,123.45L132.35,123.20L131.87,123.16"/><path d="M130.65,122.20L130.92,122.47L131.11,122.74L131.23,123.03L131.30,123.38"/><path d="M130.86,123.81L131.35,124.21L131.85,124.40L132.33,124.37L132.72,124.10L132.99,123.64L133.11,123.03L133.06,122.34L132.84,121.64L132.68,121.31L132.49,121.01L132.04,120.51L131.54,120.21L131.04,120.13L130.60,120.29L130.26,120.66L130.06,121.20"/><path d="M130.64,120.12L131.11,119.96L131.64,120.04L132.17,120.36L132.65,120.89L132.86,121.21L133.03,121.56L133.25,122.30L133.31,123.04L133.19,123.69L132.90,124.18L132.48,124.46"/><path d="M132.06,121.40L131.83,121.17L131.69,121.12L131.50,121.09L131.43,121.08"/><path d="M132.51,122.65L132.49,122.85L132.40,123.12L132.35,123.20"/><path d="M132.54,120.23L133.02,120.75L133.22,121.07L133.39,121.42L133.62,122.17L133.67,122.90L133.62,123.18"/><path d="M133.67,122.90L133.68,122.81L133.63,122.12L133.41,121.42L133.25,121.10L133.06,120.79L132.61,120.30L132.54,120.23"/></g><g style="stroke:#000000;stroke-width:0.529"><path d="M133.62,123.18L133.55,123.55L133.27,124.04L132.85,124.32L132.48,124.46L131.97,124.50L131.43,124.30L130.92,123.87L130.86,123.81L130.45,123.24L130.17,122.57L130.03,121.86L130.06,121.20L130.07,121.09L130.28,120.51L130.64,120.12L131.00,119.98L131.47,119.82L132.00,119.91L132.54,120.23L132.54,120.23"/></g></g><g id="Actor_.3"><g style="stroke:#000000;stroke-width:0.176"><path d="M134.15,80.75L134.08,81.18L133.69,81.57L133.00,81.88L132.09,82.07L131.07,82.13L130.04,82.05L129.12,81.83L128.73,81.68L128.40,81.51L127.96,81.11L127.85,80.67"/><path d="M133.70,80.19L133.96,80.59L133.90,80.99L133.53,81.36L132.88,81.65L132.03,81.83L131.07,81.88L130.11,81.80L129.24,81.60L128.87,81.46L128.56,81.29L128.15,80.92L128.05,80.51L128.27,80.12"/><path d="M133.67,82.31L132.98,82.61L132.38,82.74L132.08,82.81L131.05,82.87L130.03,82.78L129.83,82.74L129.10,82.56L128.71,82.41L128.38,82.24"/><path d="M129.01,82.60L129.21,82.68L130.08,82.88L131.05,82.96L132.01,82.90L132.86,82.72L132.90,82.70"/><path d="M129.46,81.01L129.24,80.79L129.41,80.98L129.70,81.15L130.07,81.28L130.50,81.37L130.97,81.40L131.45,81.39L131.90,81.33L132.27,81.22L132.57,81.08L132.76,80.90L132.83,80.70L132.78,80.51L132.61,80.32L132.33,80.16L131.95,80.02L131.52,79.94L131.05,79.90L130.57,79.91L130.13,79.97L129.75,80.08L129.45,80.22L129.26,80.40L129.19,80.60L129.24,80.79L129.37,80.77L129.49,80.66L129.61,80.44L129.75,80.08L129.72,81.15"/><path d="M129.73,81.16L131.49,81.01L131.52,79.94L131.85,80.26L132.14,80.44L132.44,80.53L132.78,80.51L132.64,80.87L132.52,81.09L132.50,81.11"/><path d="M129.75,80.08L130.21,80.21L130.63,80.23L131.04,80.14L131.52,79.94"/><path d="M131.49,81.01L132.07,81.28"/></g><g style="stroke:#000000;stroke-width:0.529"><path d="M129.01,82.60L128.84,82.53L128.53,82.37L128.38,82.24L127.94,81.84L127.83,81.41L127.85,80.67L128.09,80.26L128.27,80.12L128.78,79.79L129.54,79.55L130.46,79.43L131.44,79.44L132.37,79.59L133.15,79.84L133.70,80.19L133.87,80.33L134.15,80.75L134.13,81.49L134.06,81.92L133.67,82.31L133.50,82.43L132.90,82.70"/></g></g><g id="Actor_.4"><g style="stroke:#000000;stroke-width:0.176"><path d="M199.12,131.69L199.12,131.58L199.26,130.66L199.62,129.75L200.15,128.96L200.21,128.90L199.65,129.75L199.27,130.71L199.12,131.69L199.15,131.98"/><path d="M200.65,133.96L200.11,133.53L199.78,132.83L199.68,131.95L199.82,130.97L200.20,130.00L200.77,129.15L201.47,128.51L202.22,128.15L202.94,128.11"/><path d="M202.88,133.30L202.19,133.77L201.49,133.97L200.86,133.85L200.35,133.44L200.04,132.79L199.94,131.95L200.08,131.03L200.44,130.12L200.97,129.33L201.63,128.73L202.33,128.39L203.01,128.35L203.59,128.61L204.00,129.15L204.21,129.91L204.23,130.34"/><path d="M200.21,128.90L200.77,128.39"/><path d="M200.78,131.78L200.81,132.06L200.93,132.41L201.12,132.67L201.39,132.83L201.71,132.88L202.04,132.81L201.22,132.44L200.91,132.32L200.81,131.91L200.78,131.56L200.77,131.64L200.78,131.78"/><path d="M200.91,132.32L200.93,132.41L201.09,132.45L201.31,132.53L201.62,132.64L202.04,132.81L202.38,132.63L202.71,132.34L202.99,131.97L203.20,131.55L203.34,131.11L203.37,130.93L203.40,130.65L203.37,130.24L203.25,129.89L203.05,129.63L202.78,129.46L202.46,129.42L202.13,129.49L201.79,129.67L201.47,129.96L201.18,130.33L200.97,130.75L200.83,131.19L200.78,131.56"/><path d="M201.22,132.44L202.38,131.18L202.42,129.58L202.30,129.54L202.13,129.49L201.69,129.76L201.45,129.98"/><path d="M202.04,132.81L202.22,132.42L202.45,132.10L202.77,131.82L203.20,131.55L203.08,131.05L203.06,130.64L203.10,130.27L203.25,129.89L202.82,129.73L202.52,129.61L202.42,129.58"/><path d="M202.38,131.18L203.20,131.55"/></g><g style="stroke:#000000;stroke-width:0.529"><path d="M200.77,128.39L200.91,128.26L201.66,127.90L202.38,127.86L202.94,128.11L203.55,128.39L203.99,128.97L204.21,129.77L204.23,130.23L204.23,130.34L204.19,130.80L203.94,131.73L203.48,132.59L202.88,133.30L202.80,133.38L202.07,133.88L201.32,134.09L200.65,133.96L200.09,133.71L199.55,133.28L199.22,132.58L199.15,131.98"/></g></g><g id="Actor_.5"><g style="stroke:#000000;stroke-width:0.176"><path d="M131.35,96.61L131.28,96.89L131.27,97.22L131.33,97.57L131.44,97.90L131.77,98.09L132.01,98.29L132.18,98.50L132.30,98.77L132.06,98.66L131.82,98.47L131.61,98.21L131.44,97.90L131.52,97.52L131.53,97.21L131.47,96.91L131.35,96.61L131.48,96.39L131.66,96.23L131.88,96.17L132.12,96.19L132.36,96.30L132.60,96.50L132.64,96.55L132.45,96.39L132.20,96.24L131.92,96.40L131.35,96.61L131.65,96.46L131.87,96.35L132.02,96.27L132.12,96.19L132.20,96.24"/><path d="M131.44,97.90L132.01,97.69L132.83,98.51L132.61,98.62L132.30,98.77L132.54,98.80L132.76,98.73L132.95,98.58L133.08,98.35L133.15,98.07L133.16,97.74L133.10,97.40L132.98,97.06L132.82,96.76L132.64,96.55"/><path d="M130.69,96.50L130.86,95.94L131.18,95.54L131.61,95.35L132.10,95.39L132.61,95.66L132.85,95.88L133.07,96.13L133.44,96.75L133.68,97.44L133.76,98.14L133.67,98.76L133.42,99.25L133.04,99.55L132.57,99.62L132.07,99.46L131.57,99.09"/><path d="M132.01,97.69L131.92,96.40"/><path d="M133.20,99.64L133.60,99.33L133.86,98.81L133.96,98.14L133.87,97.40L133.62,96.66L133.23,96.01L132.99,95.74L132.74,95.51L132.20,95.22L131.67,95.18"/><path d="M132.83,98.51L132.97,98.43L133.08,98.35L133.15,97.99"/><path d="M134.26,98.39L134.32,98.00L134.24,97.26L133.99,96.52L133.59,95.87L133.36,95.60L133.18,95.44"/><path d="M134.32,98.00L134.32,97.92L134.25,97.22L134.01,96.53L133.64,95.92L133.42,95.66L133.36,95.60"/></g><g style="stroke:#000000;stroke-width:0.529"><path d="M134.26,98.39L134.22,98.67L133.96,99.19L133.56,99.51L133.20,99.64L132.70,99.72L132.16,99.55L131.64,99.15L131.57,99.09L131.15,98.54L130.85,97.88L130.69,97.17L130.69,96.50L130.70,96.40L130.88,95.80L131.22,95.37L131.67,95.18L132.04,95.04L132.56,95.09L133.10,95.37L133.18,95.44"/></g></g><g id="Actor_.6"><g style="stroke:#000000;stroke-width:0.176"><path d="M200.93,121.01L200.41,120.55L200.09,119.83L200.02,118.93L200.18,117.95L200.44,117.33L200.58,116.99L201.16,116.16L201.86,115.54L202.61,115.20L202.98,115.16L203.33,115.19"/><path d="M199.46,118.57L199.62,117.65L199.99,116.75L200.54,115.96L200.60,115.90L200.02,116.74L199.63,117.70L199.46,118.68L199.46,118.57"/><path d="M199.46,118.68L199.49,119.03"/><path d="M203.16,120.41L202.47,120.87L201.77,121.03L201.15,120.89L201.11,120.86L200.66,120.46L200.36,119.79L200.28,118.95L200.44,118.02L200.81,117.12L201.36,116.33L202.02,115.75L202.73,115.44L203.07,115.39L203.40,115.43L203.96,115.71L204.36,116.27L204.55,117.04"/><path d="M201.11,118.68L201.17,118.24L201.31,117.80L201.54,117.37L201.82,117.00L202.14,116.73L202.48,116.55L202.82,116.48L203.13,116.54L203.39,116.70L203.59,116.97L203.71,117.33L203.74,117.75L203.68,118.19L203.53,118.63L203.31,119.06L203.02,119.42L202.70,119.70L202.37,119.88L202.02,119.95L201.71,119.89L201.69,119.88L201.45,119.73L201.26,119.46L201.14,119.10L201.11,118.68"/><path d="M200.60,115.90L201.10,115.46"/><path d="M202.70,119.70L202.83,119.24L203.02,118.87L203.29,118.53L203.68,118.19L202.86,117.82L201.88,119.33L202.70,119.70L202.24,119.65L201.91,119.64L201.65,119.66L201.45,119.73L201.28,119.34L201.88,119.33"/><path d="M201.12,118.62L201.14,118.91L201.25,119.27L201.28,119.34"/><path d="M202.86,117.82L202.63,116.64L202.60,116.64L202.34,116.66L202.14,116.73L201.81,117.02"/><path d="M202.63,116.64L202.93,116.65L203.39,116.70L203.34,117.04L203.37,117.37L203.47,117.74L203.68,118.19"/></g><g style="stroke:#000000;stroke-width:0.529"><path d="M201.10,115.46L201.31,115.28L202.06,114.95L202.42,114.90L202.77,114.94L203.33,115.19L203.93,115.50L204.36,116.09L204.56,116.91L204.55,117.04L204.51,117.94L204.24,118.87L203.78,119.72L203.16,120.41L203.08,120.49L202.34,120.98L201.60,121.15L200.93,121.01L200.37,120.75L199.85,120.30L199.54,119.58L199.49,119.03"/></g></g><g id="Actor_.7"><g style="stroke:#000000;stroke-width:0.176"><path d="M211.39,74.41L211.77,74.27"/><path d="M212.49,78.07L212.67,78.00"/></g><g style="stroke:#000000;stroke-width:0.529"><path d="M212.51,78.25L212.67,78.00L212.60,76.93L212.44,76.05L212.18,75.20L211.77,74.27L211.22,73.74L210.76,73.41"/></g></g><g id="Actor_.8"><g style="stroke:#000000;stroke-width:0.176"><path d="M165.35,147.25L164.81,146.82L164.48,146.12L164.38,145.23L164.52,144.25L164.62,144.00L164.90,143.29L165.47,142.44L166.17,141.80L166.92,141.44L167.64,141.40"/><path d="M163.82,144.98L163.97,144.00L164.34,143.03L164.91,142.19L164.85,142.24L164.32,143.04L163.96,143.95L163.82,144.87L163.82,144.98L163.85,145.27"/><path d="M167.58,146.59L166.89,147.06L166.19,147.25L165.56,147.14L165.05,146.73L164.74,146.07L164.64,145.24L164.78,144.32L165.14,143.41L165.67,142.61L166.33,142.01L167.03,141.68L167.71,141.64L168.29,141.90L168.70,142.44L168.91,143.20L168.93,143.63"/><path d="M165.47,144.93L165.50,145.35L165.62,145.69L165.82,145.96L166.09,146.12L166.41,146.17L166.74,146.10L167.08,145.91L167.41,145.63L167.69,145.25L167.90,144.84L168.04,144.39L168.10,143.94L168.07,143.52L167.95,143.18L167.75,142.91L167.48,142.75L167.16,142.70L166.83,142.78L166.49,142.96L166.16,143.25L165.88,143.62L165.67,144.03L165.53,144.48L165.47,144.93"/><path d="M164.91,142.19L165.47,141.68"/><path d="M167.08,144.47L165.92,145.72L165.60,145.61L165.62,145.69L165.79,145.74L166.01,145.82L166.32,145.93L166.74,146.10L166.92,145.70L167.15,145.39L167.46,145.11L167.90,144.84L167.78,144.34L167.75,143.93L167.80,143.56L167.95,143.18L167.52,143.01L167.22,142.90L167.12,142.87L167.08,144.47L167.90,144.84"/><path d="M165.60,145.61L165.51,145.20L165.48,144.84"/><path d="M165.92,145.72L166.74,146.10"/><path d="M166.15,143.26L166.39,143.05L166.83,142.78L166.99,142.82L167.12,142.87"/></g><g style="stroke:#000000;stroke-width:0.529"><path d="M165.47,141.68L165.61,141.55L166.36,141.19L167.08,141.15L167.64,141.40L168.25,141.68L168.69,142.25L168.91,143.06L168.93,143.52L168.93,143.63L168.89,144.09L168.63,145.01L168.18,145.88L167.58,146.59L167.50,146.66L166.77,147.17L166.02,147.37L165.35,147.25L164.79,147.00L164.25,146.57L163.92,145.87L163.85,145.27"/></g></g><g id="Actor_.9"><g style="stroke:#000000;stroke-width:0.176"><path d="M110.76,114.78L111.25,115.13L111.76,115.25L112.22,115.15L112.58,114.83L112.81,114.32L112.87,113.68L112.78,112.97L112.52,112.29L112.34,111.97L112.14,111.69L111.66,111.25L111.16,111.00L110.67,110.99L110.25,111.21L109.95,111.63L109.80,112.21"/><path d="M111.72,114.06L112.13,114.04L112.05,114.23L111.87,114.37L111.64,114.43L111.40,114.39L111.15,114.28L110.92,114.08L110.71,113.81L110.55,113.49L110.44,113.16L111.01,112.95L111.72,114.06L111.15,114.28L111.49,114.22L111.73,114.20L111.91,114.20L112.05,114.23L112.18,114.01L112.26,113.73L112.28,113.40L112.23,113.06L112.12,112.73L111.95,112.41L111.74,112.14L111.51,111.95L111.27,111.83L111.02,111.80L110.80,111.85L110.61,112.00L110.67,112.27L110.66,112.53L110.59,112.81L110.44,113.16L110.39,112.82L110.40,112.50L110.48,112.21L110.61,112.00L110.95,111.95L111.16,111.93L111.01,112.95"/><path d="M111.15,114.28L111.06,113.94L110.93,113.67L110.73,113.42L110.44,113.16"/><path d="M111.16,111.93L111.19,111.92L111.37,111.92L111.51,111.95L111.77,112.17"/><path d="M110.73,110.82L111.25,110.83L111.79,111.09L112.29,111.56L112.51,111.86L112.70,112.20L112.86,112.63L112.97,112.93L113.08,113.67L113.00,114.36L112.76,114.90L112.37,115.24"/><path d="M112.13,114.04L112.20,113.88L112.27,113.60"/><path d="M113.44,113.54L113.33,112.79L113.06,112.06L112.87,111.72L112.65,111.42L112.70,111.48L112.91,111.76L113.09,112.07L113.34,112.76L113.44,113.46L113.44,113.54L113.39,114.02"/><path d="M112.65,111.42L112.29,111.09"/></g><g style="stroke:#000000;stroke-width:0.529"><path d="M112.29,111.09L112.15,110.95L111.61,110.69L111.09,110.68L110.73,110.82L110.29,111.05L109.97,111.50L109.81,112.12L109.80,112.21L109.82,112.90L110.00,113.60L110.32,114.25L110.76,114.78L110.82,114.85L111.35,115.22L111.89,115.35L112.37,115.24L112.74,115.11L113.13,114.76L113.37,114.22L113.39,114.02"/></g></g><g id="Actor_.10"><g style="stroke:#000000;stroke-width:0.176"><path d="M211.53,108.68L211.33,108.75"/></g><g style="stroke:#000000;stroke-width:0.529"><path d="M211.25,108.16L211.53,108.68L211.67,109.57L211.70,110.29"/></g></g><g id="Actor_.11"><g style="stroke:#000000;stroke-width:0.176"><path d="M186.16,62.16L186.05,62.20"/></g><g style="stroke:#000000;stroke-width:0.529"><path d="M186.23,62.26L186.16,62.16L185.60,61.91L185.48,61.87"/></g></g><g id="Actor_.12"><g style="stroke:#000000;stroke-width:0.176"><path d="M109.15,137.38L109.21,136.73L109.43,136.21L109.78,135.88L110.24,135.76L110.74,135.88L111.24,136.21L111.68,136.73L111.86,137.04L112.01,137.38L112.20,138.08L112.22,138.77L112.08,139.36L111.79,139.79L111.38,140.02L110.89,140.02L110.38,139.79L109.91,139.35"/><path d="M110.16,138.73L109.97,138.43L109.83,138.10L109.76,137.76L109.94,137.44L110.05,137.18L110.09,136.94L110.07,136.70L110.27,136.60L110.51,136.60L110.76,136.68L111.00,136.84L111.22,137.08L111.41,137.38L111.54,137.71L111.62,138.05L111.63,138.38L111.58,138.68L111.47,138.93L111.31,139.11L111.16,139.03L110.97,138.99L110.72,138.96L110.37,138.96L110.61,139.13L110.86,139.21L111.10,139.20L111.31,139.11L111.47,138.83L110.94,138.75L110.37,138.96L110.16,138.73"/><path d="M110.37,138.96L110.31,138.61L110.20,138.31L110.02,138.04L109.76,137.76L110.33,137.54L110.94,138.75"/><path d="M109.76,137.76L109.74,137.43L109.79,137.12L109.91,136.87L110.07,136.70L110.42,136.70L110.57,136.71L110.33,137.54"/><path d="M109.83,135.71L110.31,135.58L110.31,135.59L110.85,135.71L111.38,136.07L111.84,136.62L112.03,136.95L112.19,137.31L112.39,138.06L112.42,138.78L112.27,139.41L111.96,139.87L111.52,140.11"/><path d="M110.57,136.71L110.67,136.72L110.86,136.77L111.00,136.84"/><path d="M111.47,138.83L111.49,138.79L111.59,138.53L111.63,138.33"/><path d="M111.84,136.04L112.25,136.52L112.43,136.83L112.58,137.17L112.77,137.87L112.79,138.55L112.79,138.65L112.76,137.92L112.56,137.17L112.40,136.81L112.21,136.48L111.74,135.93L111.81,136.00L111.84,136.04"/><path d="M111.74,135.93L111.65,135.87"/><path d="M112.75,138.80L112.79,138.65"/></g><g style="stroke:#000000;stroke-width:0.529"><path d="M112.75,138.80L112.63,139.27L112.32,139.73L111.89,139.98L111.52,140.11L111.01,140.11L110.47,139.87L109.96,139.41L109.91,139.35L109.52,138.76L109.25,138.08L109.15,137.38L109.15,137.30L109.21,136.62L109.45,136.06L109.83,135.71L110.19,135.57L110.67,135.45L111.21,135.57L111.65,135.87"/></g></g><g id="Actor_.13"><g style="stroke:#000000;stroke-width:0.176"><path d="M224.45,110.22L218.70,107.36L219.22,83.42L224.98,86.05"/><path d="M218.41,107.71L219.09,108.06"/><path d="M218.70,107.36L219.22,108.11"/><path d="M219.22,83.42L219.82,81.08L219.04,80.71"/><path d="M219.69,81.02L219.00,80.76"/><path d="M219.82,81.08L221.13,79.92"/><path d="M226.47,81.26L221.78,79.34"/><path d="M224.42,111.24L223.88,110.97"/></g><g style="stroke:#000000;stroke-width:0.529"><path d="M224.40,112.26L224.05,111.88L223.88,111.24L223.88,110.97L221.12,109.57L219.22,108.11L218.44,107.74L218.41,107.71L219.00,80.76L219.04,80.71L221.13,79.92L221.78,79.34L240.72,72.21L245.55,74.08"/></g></g><g id="Actor_.14"><g style="stroke:#000000;stroke-width:0.176"><path d="M158.25,125.12L156.70,124.40L156.02,123.87L155.40,123.23L154.37,121.67L153.66,119.77L153.30,117.60L153.30,115.23L153.66,112.77"/><path d="M167.45,121.77L165.69,123.27L165.47,123.40L163.84,124.38L161.97,125.05L160.16,125.26L158.46,125.00L156.93,124.29L156.26,123.76L155.64,123.14L154.63,121.60L153.94,119.73L153.58,117.58L153.58,115.25L153.65,114.78L153.93,112.82L154.62,110.36L155.63,107.98L156.92,105.75L158.44,103.76L160.14,102.08L161.95,100.77L163.82,99.88L165.67,99.44L167.44,99.46L167.48,99.47L169.05,99.95L170.47,100.88L171.62,102.23L172.48,103.95L173.01,105.96L173.19,108.21"/><path d="M153.66,112.76L154.36,110.27L155.34,107.96"/><path d="M155.44,107.75L156.69,105.59L158.23,103.57L159.96,101.87L161.80,100.54L163.69,99.64L165.57,99.19L167.36,99.21L169.00,99.71"/><path d="M159.86,118.19L159.76,118.13L159.73,118.09"/><path d="M160.69,118.69L160.65,118.68L160.49,118.58"/><path d="M165.59,105.83L165.57,105.82L165.47,105.82"/></g><g style="stroke:#000000;stroke-width:0.529"><path d="M168.92,99.67L169.00,99.71L170.43,100.66L171.61,102.02L172.48,103.76L173.01,105.81L173.19,108.09L173.19,108.21L173.01,110.61L172.49,113.06L171.63,115.49L170.48,117.81L169.07,119.93L167.45,121.77L167.38,121.85L165.59,123.37L163.71,124.49L161.82,125.17L159.97,125.38L158.25,125.12L158.21,125.11"/><path d="M158.69,116.37L158.60,116.14L158.58,116.03"/><path d="M158.39,114.78L158.39,114.80"/><path d="M158.52,113.01L158.45,113.33L158.44,113.45"/><path d="M158.99,117.09L159.06,117.26L159.19,117.42"/><path d="M158.88,111.54L158.77,111.81L158.72,112.04"/><path d="M159.44,110.15L159.35,110.32L159.23,110.62"/><path d="M159.62,117.95L159.73,118.09"/><path d="M159.99,109.19L160.13,108.93L160.17,108.88"/><path d="M161.29,107.56L161.10,107.73L161.06,107.77"/><path d="M162.06,106.88L162.18,106.77L162.42,106.64"/><path d="M163.51,106.06L163.33,106.11L163.12,106.23"/><path d="M164.57,105.80L164.48,105.79L164.24,105.86"/></g></g><g id="Actor_.15"><g style="stroke:#000000;stroke-width:0.176"><path d="M177.89,61.66L178.02,61.64L178.05,61.65"/><path d="M180.12,60.67L180.08,60.67L180.19,60.64L180.56,60.58L180.75,60.58L180.56,60.58"/><path d="M180.96,60.57L180.75,60.58L180.87,60.57L181.14,60.58L181.41,60.62L181.97,60.76L185.60,62.04"/><path d="M206.80,75.41L206.51,74.97L205.51,73.90L204.42,73.11L198.11,69.71L191.79,66.70L185.45,64.07L184.14,63.60"/><path d="M203.85,70.19L200.96,68.64L194.64,65.63L194.12,65.41"/><path d="M195.08,65.11L196.02,64.82L199.85,66.53L199.82,68.10"/><path d="M195.20,64.35L197.03,64.90L198.31,65.47L198.86,65.71L200.67,66.79L203.38,65.77"/><path d="M197.84,67.15L199.85,66.53"/><path d="M200.87,68.60L200.67,66.79"/><path d="M206.14,71.43L207.27,72.04L207.82,72.39L208.09,72.60L208.48,72.94L208.66,73.12L209.35,73.90L209.81,74.52L210.22,75.19L210.90,76.65L211.36,78.19L211.58,79.74L211.65,81.48"/><path d="M208.61,79.95L208.73,80.81L209.04,87.90L209.10,94.91L208.91,101.80L208.47,108.57L207.78,115.21L207.69,115.29"/><path d="M207.78,115.21L210.62,114.14L209.07,115.59"/><path d="M208.70,73.17L208.75,73.22"/><path d="M208.66,73.12L208.35,72.83"/><path d="M210.62,114.14L211.21,108.48"/><path d="M211.79,99.62L211.85,97.53L212.60,97.69"/><path d="M211.85,97.53L211.95,93.83L211.90,88.03L213.25,87.44"/><path d="M211.91,89.39L213.87,90.72L216.57,89.71"/><path d="M211.90,88.03L211.89,86.83L211.66,81.65"/><path d="M213.71,97.92L213.96,95.62L213.99,94.37L214.02,93.21L213.87,90.72"/></g><g style="stroke:#000000;stroke-width:0.529"><path d="M207.65,116.60L208.68,115.95L209.07,115.59L210.06,115.21L210.91,114.49L211.50,113.39L211.78,112.00L211.73,110.43L211.36,108.81L211.21,108.48L211.32,107.50L211.76,100.73L211.79,99.62L211.86,99.51L212.60,97.69L213.71,97.92L216.41,96.91L216.67,94.60L216.72,92.19L216.57,89.71L213.25,87.44L213.01,86.12L212.22,83.14L211.66,81.65L211.65,81.48L211.97,81.08L212.41,79.82L212.52,78.33L212.31,76.71L211.78,75.12L210.98,73.66L209.97,72.47L208.84,71.63L207.67,71.22L206.56,71.27L206.14,71.43L203.85,70.19L203.38,65.77L201.57,64.69L199.73,63.88L197.91,63.33L195.20,64.35L195.08,65.11L194.12,65.41L188.30,63.00L185.60,62.04L185.49,61.87L184.41,60.85L183.25,60.22L182.10,60.04L181.06,60.32L180.08,60.67L179.84,60.74L177.47,61.63"/></g></g><g id="Actor_.16"><g style="stroke:#000000;stroke-width:0.176"><path d="M225.07,81.79L226.71,82.52L225.92,118.66"/><path d="M226.71,82.52L255.30,71.76"/><path d="M254.60,103.54L251.07,109.16L233.52,115.77L231.47,114.86L227.44,111.17L227.93,88.98L229.98,89.90L229.49,112.09L227.44,111.17"/><path d="M227.93,88.98L232.19,82.17L234.24,83.09L229.98,89.90"/><path d="M229.49,112.09L233.52,115.77"/><path d="M232.19,82.17L249.74,75.57L251.79,76.48L234.24,83.09"/><path d="M255.13,79.52L251.79,76.48"/></g><g style="stroke:#000000;stroke-width:0.529"><path d="M224.87,118.19L224.28,117.93L225.07,81.79L253.66,71.03L255.30,71.76L255.13,79.52L255.83,80.17L255.72,85.02L255.34,102.36L254.60,103.54L254.50,107.90L225.92,118.66L224.87,118.19"/></g></g><g id="Actor_.17"><g style="stroke:#000000;stroke-width:0.176"><path d="M192.33,64.67L197.39,62.20L198.02,61.96L194.47,63.68L194.91,63.87L194.74,65.22"/><path d="M194.16,65.40L194.47,63.68"/><path d="M194.91,63.87L200.17,61.30L207.05,58.71L219.53,54.02L224.80,52.62"/><path d="M197.62,63.44L197.17,63.33L203.16,61.07L205.52,61.68L205.79,61.80L225.04,54.55L225.18,54.51L225.13,56.43"/><path d="M197.17,63.33L197.16,63.62"/><path d="M198.02,61.96L199.76,61.12L217.74,54.35"/><path d="M200.07,62.24L202.53,61.05L211.29,57.75L221.88,53.76L224.32,53.11L222.77,53.69L225.16,54.28L227.36,55.26L227.54,55.35L229.88,56.86L229.85,57.51L227.86,58.26L227.91,55.73L227.78,55.77L208.41,63.06L210.27,64.24L204.28,66.50L204.19,70.38"/><path d="M204.28,66.50L203.40,65.93"/><path d="M203.28,61.10L222.29,53.94L222.77,53.82L222.70,55.09"/><path d="M204.41,70.50L204.89,70.31L204.83,70.62L205.08,70.86"/><path d="M204.89,70.31L205.44,67.26L205.88,67.46L205.43,71.05"/><path d="M205.34,61.63L224.63,54.37L224.77,54.33L225.18,54.51"/><path d="M206.14,71.43L205.75,71.05L205.56,71.12"/><path d="M205.88,67.46L211.14,64.89L230.50,57.60L235.61,56.25"/><path d="M205.44,67.26L210.27,64.93L210.27,64.24"/><path d="M205.79,61.80L207.90,62.74L208.41,63.06"/><path d="M207.03,71.25L207.94,70.91L207.87,71.29"/><path d="M236.19,59.02L232.80,59.93L213.44,67.22L208.14,69.78L208.58,69.97L208.39,71.48"/><path d="M207.94,70.91L208.14,69.78"/><path d="M208.58,69.97L213.85,67.40L233.21,60.11L238.14,58.81"/><path d="M208.07,62.85L227.37,55.59L227.50,55.55L227.91,55.73"/><path d="M210.27,64.93L210.73,64.71L227.86,58.26"/><path d="M240.70,62.18L235.89,63.45L216.54,70.73L211.27,73.31L211.22,73.74"/><path d="M211.27,73.31L210.83,73.11L210.78,73.42"/><path d="M210.83,73.11L216.13,70.55L235.48,63.27L239.01,62.32L238.95,61.93"/><path d="M211.38,106.55L214.37,105.75"/><path d="M215.80,105.36L211.56,103.78"/><path d="M211.77,100.36L211.80,100.31L212.82,98.42L213.04,97.78"/><path d="M211.79,99.68L212.36,98.59L212.65,97.70"/><path d="M211.70,81.42L211.79,81.62L212.67,84.33L213.28,87.08L213.77,86.90L213.13,84.16L212.22,81.46L212.00,80.98"/><path d="M212.62,78.08L218.99,81.02"/><path d="M217.85,74.59L219.14,75.19L219.51,75.05L217.85,74.28L217.85,74.59L212.53,76.59"/><path d="M213.28,87.08L216.39,88.46L216.48,89.65"/><path d="M216.39,88.46L216.98,88.24L213.77,86.90"/><path d="M215.17,97.37L216.17,97.82L216.77,97.59L217.20,94.64L217.27,91.49L216.98,88.24"/><path d="M216.17,97.82L216.30,96.95"/><path d="M222.39,79.11L221.95,79.13L220.48,79.00L219.13,78.68L218.03,78.21L217.32,77.66L217.00,77.05L217.09,76.45L217.59,75.90L218.44,75.45L219.14,75.19"/><path d="M221.70,79.41L220.46,79.30L219.11,78.98L218.02,78.51L217.31,77.96L216.99,77.35L217.00,77.05"/><path d="M217.85,74.28L222.67,72.47L223.01,72.65L241.70,65.62"/><path d="M223.01,72.65L224.21,73.28L226.98,72.24L228.20,71.92L229.62,71.79L231.10,71.86L232.50,72.13L233.68,72.57L234.52,73.13L234.95,73.76L234.92,74.39"/><path d="M222.77,53.82L222.77,53.69"/><path d="M230.16,76.18L229.65,76.17L228.31,75.95L227.13,75.58L226.01,75.11L225.81,75.04L225.59,75.01L225.35,75.00L225.13,75.02L224.94,75.07L224.53,75.23L224.38,75.31L224.36,75.29L224.30,75.19L224.32,75.09L224.40,75.00L224.54,74.93L224.96,74.77L225.15,74.72L225.37,74.70L225.60,74.70L225.83,74.74L226.02,74.80L227.14,75.27L228.32,75.65L229.67,75.87L230.90,75.90"/><path d="M224.38,75.31L224.48,75.39L225.41,75.93L226.15,76.52L226.45,77.15L226.33,77.63"/><path d="M224.32,53.11L224.84,52.91"/><path d="M226.40,77.60L226.43,77.46L226.45,77.15"/><path d="M229.85,57.51L230.09,57.42L235.33,56.01L235.38,56.04"/><path d="M229.88,56.86L234.28,55.20"/><path d="M231.42,69.49L232.02,69.81L231.80,69.69"/><path d="M232.02,69.81L233.36,70.52L232.54,70.08"/><path d="M233.36,70.52L234.21,70.96L233.36,70.52"/><path d="M234.21,70.96L234.56,71.15L239.18,69.41L243.56,67.41"/><path d="M234.56,71.15L236.11,71.96L241.60,69.90L241.22,69.03L239.17,69.95L235.16,71.46"/><path d="M235.83,56.63L235.80,56.43"/><path d="M238.31,73.11L236.11,71.96"/><path d="M239.01,62.32L239.23,62.26"/><path d="M241.60,69.90L242.68,70.00L242.09,68.64L241.22,69.03"/><path d="M242.50,72.90L245.16,71.69"/><path d="M242.68,70.00L243.08,69.84L243.53,70.15"/><path d="M242.09,68.64L242.79,68.33"/><path d="M243.16,73.16L243.62,72.95L243.72,73.38"/><path d="M243.62,72.95L244.32,72.64"/></g><g style="stroke:#000000;stroke-width:0.529"><path d="M191.88,64.48L196.98,62.01L216.34,54.73L217.74,54.35L219.12,53.83L224.36,52.43L224.80,52.62L224.84,52.91L227.30,51.99"/><path d="M218.44,106.34L215.80,105.36L214.37,105.75L212.99,106.27L211.37,106.70"/><path d="M237.92,58.55L236.19,59.02L235.83,56.63"/><path d="M239.23,62.26L240.52,61.91"/><path d="M238.95,61.93L238.56,59.31"/><path d="M241.32,63.08L241.70,65.62L243.24,66.68"/><path d="M243.53,70.15L244.98,71.14"/><path d="M243.76,67.89L242.79,68.33"/><path d="M244.32,72.64L245.33,72.19"/></g></g><g id="Actor_.18"><g style="stroke:#000000;stroke-width:0.176"><path d="M235.36,50.15L235.35,50.36L235.19,50.55L235.05,50.62L234.89,50.70L234.48,50.81L234.01,50.86L233.52,50.85L233.05,50.77L232.66,50.64L232.37,50.47L232.23,50.27"/></g><g style="stroke:#000000;stroke-width:0.529"><path d="M232.21,51.01L232.20,51.53L232.35,51.73L232.63,51.90L233.02,52.03L233.49,52.11L233.98,52.12L234.45,52.07L234.86,51.96L235.16,51.81L235.32,51.62L235.33,51.41L235.36,50.15L235.22,49.96L234.93,49.79L234.54,49.66L234.07,49.58L233.58,49.57L233.11,49.62L232.70,49.73L232.40,49.88L232.24,50.07L232.23,50.27L232.21,51.01"/></g></g><g id="Actor_.19"><g style="stroke:#000000;stroke-width:0.176"><path d="M219.28,53.79L219.67,53.46L221.61,52.44L222.44,52.21L221.10,52.92L220.44,53.48"/><path d="M221.48,52.11L223.62,51.54L225.89,51.44L228.24,51.81L230.63,52.65L233.02,53.94L235.34,55.66L237.56,57.76L239.63,60.21L241.51,62.95L243.15,65.94L244.53,69.10L245.62,72.38L245.98,73.92"/><path d="M245.77,74.00L245.40,72.41L244.33,69.18L242.97,66.06L241.35,63.12L239.50,60.42L237.60,58.17L237.46,58.00L235.27,55.93L232.98,54.24L230.63,52.97L228.27,52.14L225.95,51.77L223.71,51.87L222.44,52.21"/></g><g style="stroke:#000000;stroke-width:0.529"><path d="M218.38,54.11L219.52,53.15L221.48,52.11L234.27,47.33L235.74,46.79L236.51,46.61L238.05,46.30L239.66,46.24L240.43,46.27L242.06,46.44L243.72,46.84L244.40,47.07L246.03,47.69L247.66,48.53L249.27,49.58L251.26,51.14L252.73,52.53L254.13,54.08L255.46,55.79L256.69,57.63L257.77,59.51L258.80,61.63L259.67,63.75L260.40,65.92L260.99,68.12L261.42,70.33L261.69,72.52L261.81,74.67L261.76,76.76L261.56,78.77L261.08,81.24L260.54,83.08L259.86,84.77L259.02,86.30L258.66,86.92L257.67,88.30L256.54,89.48L255.98,90.01L255.60,90.31"/></g></g><g id="Actor_.20"><g style="stroke:#000000;stroke-width:0.176"><path d="M113.27,84.20L114.05,84.04L114.90,84.25L134.59,93.16L135.43,93.72L136.17,94.57L136.76,95.64L137.12,96.82L137.23,97.99L135.96,146.86L135.79,147.91L135.38,148.73L134.75,149.25"/><path d="M113.41,84.15L113.40,84.16"/><path d="M134.90,149.20L134.89,149.20"/></g><g style="stroke:#000000;stroke-width:0.529"><path d="M134.75,149.25L134.90,149.20L135.52,148.68L135.94,147.85L136.10,146.80L137.37,97.94L137.26,96.77L136.90,95.59L136.32,94.52L135.57,93.67L134.73,93.11L115.04,84.19L114.19,83.99L113.41,84.15L113.27,84.20"/></g></g><g id="Actor_.21"><g style="stroke:#000000;stroke-width:0.176"><path d="M158.99,116.94L158.66,115.96L158.51,114.86"/><path d="M159.44,115.63L159.63,116.31L160.31,117.29L161.24,117.88L162.36,118.02L163.57,117.71L164.78,116.96L165.88,115.85L166.79,114.45L167.43,112.89L167.75,111.28L167.73,109.77L167.71,109.68L167.37,108.47L166.69,107.48L165.76,106.89L164.64,106.75L163.43,107.07L162.22,107.81L161.12,108.93L160.21,110.32L159.57,111.89L159.25,113.49L159.27,115.00L159.44,115.63"/><path d="M158.75,112.42L159.13,111.18L159.66,109.98"/><path d="M160.11,118.37L160.86,118.77"/><path d="M161.13,107.88L162.00,107.06"/><path d="M163.88,106.01L164.81,105.83L165.69,105.88"/><path d="M167.55,107.13L167.76,107.39"/><path d="M167.20,106.68L167.20,106.68"/></g><g style="stroke:#000000;stroke-width:0.529"><path d="M160.73,118.71L160.87,118.77L161.72,118.94L162.63,118.87L163.58,118.57L164.52,118.04L165.42,117.31L166.26,116.40L166.99,115.35L167.60,114.19L168.06,112.97L168.35,111.72L168.47,110.50L168.41,109.34L168.17,108.30L167.76,107.40L167.20,106.68L166.50,106.17L166.38,106.11"/><path d="M160.61,118.65L160.68,118.68"/></g></g><g id="Actor_.22"><g style="stroke:#000000;stroke-width:0.176"><path d="M187.25,64.95L185.44,64.18L179.14,61.88L178.44,61.75"/><path d="M193.95,67.94L191.74,66.86L187.91,65.23"/><path d="M196.77,69.31L198.04,69.93L199.02,70.47"/><path d="M204.25,73.34L204.30,73.37L204.49,73.51"/><path d="M205.13,73.98L205.38,74.17L205.76,74.58"/><path d="M205.86,74.68L206.17,75.02"/><path d="M208.57,81.37L208.83,88.12L208.85,95.07L208.61,101.91L208.13,108.63L207.78,111.78"/></g><g style="stroke:#000000;stroke-width:0.529"><path d="M206.57,75.26L206.52,75.19L205.53,74.12L204.45,73.32L198.18,69.88L191.88,66.81L185.58,64.12L179.28,61.83L178.18,61.63L177.95,61.66"/><path d="M208.60,80.27L208.70,81.02L208.97,88.06L208.99,95.01L208.76,101.86L208.27,108.58L207.74,113.38"/></g></g><g id="Actor_.23"><g style="stroke:#000000;stroke-width:0.176"><path d="M107.84,111.94L107.75,112.18L107.72,113.41"/><path d="M108.95,93.31L108.87,93.12L108.77,92.45L108.86,88.88"/><path d="M112.32,144.28L112.28,144.36"/><path d="M113.56,84.12L114.56,83.72L115.33,83.56L116.18,83.76L135.87,92.68L136.71,93.24L137.46,94.09L138.04,95.16L138.40,96.34L138.51,97.51L137.24,146.37L137.07,147.42L136.66,148.25L136.03,148.77L134.94,149.17"/><path d="M126.44,76.17L127.29,76.54L123.34,74.82L119.32,73.01"/><path d="M123.67,71.37L128.63,69.51"/><path d="M130.07,77.70L127.29,76.54L129.23,77.37"/><path d="M132.38,68.10L128.17,69.68"/><path d="M129.83,77.60L135.54,80.01L138.32,81.36L137.47,80.94"/><path d="M136.71,156.15L136.73,155.23L136.74,155.34L136.78,155.42L136.84,155.48L137.58,155.82"/><path d="M137.11,80.77L136.62,80.53"/><path d="M138.88,81.62L138.32,81.36L140.86,82.59L140.01,82.18"/><path d="M138.89,69.97L139.65,70.20L145.32,72.09L145.07,72.20"/><path d="M141.49,82.89L140.91,82.60L144.79,84.50L147.24,85.65L152.74,88.15L152.54,88.07"/><path d="M141.46,82.87L140.86,82.59L140.91,82.60"/><path d="M163.12,136.35L162.48,136.54L160.59,137.23L158.56,137.73L156.71,137.96L154.91,137.96L153.18,137.71L151.34,137.19L150.34,136.77L149.80,136.48L148.41,135.67L146.69,134.21L145.20,132.41L143.95,130.28L143.31,128.88L143.09,128.45L142.74,127.93L142.53,127.70"/><path d="M142.34,108.62L142.59,108.54L142.90,108.32L143.19,108.04L143.83,107.20L144.45,106.16L146.26,102.31L148.10,99.09L150.19,96.09L152.48,93.38L154.95,91.00L157.54,88.99L160.21,87.39L161.20,86.91L162.90,86.24L163.55,86.03L165.57,85.55L168.17,85.34L170.66,85.60L172.44,86.14L172.98,86.34L174.02,86.83L175.48,87.74L176.98,89.00L178.19,90.34L179.24,91.88L179.33,92.03L180.23,93.75L180.80,95.22L180.96,95.63L181.52,97.67L181.91,99.84L182.11,102.11L182.13,104.48L181.97,107.00L181.63,109.46L181.11,111.95L180.43,114.44L179.57,116.90L179.31,117.78L179.18,118.66"/><path d="M143.60,158.09L143.62,157.29L143.50,157.41L142.75,157.70"/><path d="M143.62,157.29L143.62,157.17"/><path d="M152.04,138.10L151.96,138.22L148.49,145.86L148.40,149.45L143.69,151.23L143.62,153.96L143.60,154.10"/><path d="M143.93,141.15L143.95,141.18L143.95,141.32L143.69,151.23"/><path d="M147.12,123.12L146.98,123.14L146.61,123.36L146.28,123.71L146.01,124.15L145.85,124.64L145.81,125.12L145.89,125.55L145.96,125.67L146.28,125.55L146.64,125.27L146.94,124.87L147.15,124.39L147.26,123.90L147.24,123.44L147.12,123.12L147.35,123.08L147.68,123.18L147.92,123.43L148.06,123.81L148.08,124.27L147.97,124.76L147.76,125.24L147.46,125.64L147.10,125.93L146.72,126.07L146.37,126.05L146.08,125.87L145.96,125.67"/><path d="M157.37,67.55L145.32,72.09"/><path d="M148.08,107.13L147.94,107.14L147.57,107.36L147.23,107.70L146.97,108.15L146.81,108.64L146.77,109.12L146.85,109.55L147.04,109.86L147.33,110.04L147.68,110.06L148.05,109.92L148.41,109.64L148.72,109.23L148.93,108.76L149.04,108.27L149.02,107.81L148.88,107.43L148.63,107.18L148.31,107.08L148.08,107.13L148.20,107.44L148.22,107.90L148.11,108.39L147.90,108.86L147.59,109.26L147.23,109.55L146.93,109.68"/><path d="M148.40,149.45L154.54,149.75L154.70,149.79L154.82,149.88"/><path d="M166.15,127.48L166.32,127.36L166.09,127.53L164.56,128.47L162.99,129.20L161.43,129.70L159.81,129.98L158.31,130.01L156.88,129.80L155.45,129.33L154.75,129.01L153.52,128.30L152.41,127.37L151.44,126.23L150.61,124.90L149.95,123.39L149.47,121.73L149.15,119.93L149.02,118.03L149.07,116.04L149.31,114.00L149.72,111.94L150.31,109.87L151.06,107.83L151.97,105.85L153.02,103.95L154.20,102.15L155.49,100.49L156.87,98.99L158.34,97.66L159.86,96.52L161.42,95.59L162.99,94.89L164.56,94.41L165.28,94.30L166.10,94.17L167.59,94.18L169.01,94.42L170.35,94.90L170.69,95.06L171.93,95.73L173.14,96.68L174.13,97.79L174.97,99.08L175.70,100.63L176.21,102.26L176.55,104.02L176.68,105.57L176.71,105.91L176.69,107.86L176.49,109.92L176.11,111.97L175.58,113.93L174.84,116.04L173.97,118.02L172.90,119.98L172.91,119.97"/><path d="M149.56,69.49L149.49,69.49L156.56,66.82"/><path d="M151.59,154.17L151.59,154.37"/><path d="M152.74,88.15L152.85,88.19L153.09,88.35L153.24,88.56L153.28,88.67L153.26,89.90"/><path d="M154.31,121.66L153.78,120.34L153.43,118.87L153.25,117.29L153.25,115.64L153.25,115.67"/><path d="M153.25,115.64L153.42,113.93L153.78,112.15L154.30,110.39L154.99,108.65L155.83,106.98L156.78,105.43L157.88,103.96L159.05,102.67L160.27,101.57L161.58,100.63L162.91,99.91L164.25,99.41L165.48,99.15L166.76,99.11L167.23,99.19"/><path d="M155.29,131.59L155.51,131.55L155.84,131.65L156.08,131.91L156.22,132.28L156.24,132.74L156.14,133.24L155.92,133.71L155.62,134.11L155.26,134.40L154.88,134.54L154.53,134.52L154.24,134.34L154.13,134.14L154.44,134.03L154.80,133.74L155.10,133.34L155.32,132.87L155.42,132.37L155.40,131.91L155.29,131.59L155.15,131.61L154.77,131.83L154.44,132.18L154.17,132.63L154.01,133.11L153.97,133.60L154.05,134.02L154.13,134.14"/><path d="M154.30,121.64L154.95,122.74L155.30,123.14"/><path d="M156.73,124.45L155.77,123.69L155.37,123.22"/><path d="M172.83,78.52L172.42,78.46L156.53,77.13L156.04,77.07L155.64,76.98"/><path d="M157.73,124.93L156.67,124.40"/><path d="M157.59,92.96L157.71,93.28L157.73,93.74L157.63,94.23L157.41,94.70L157.11,95.10L156.75,95.39L156.44,95.51L156.56,95.70L156.84,95.88L157.19,95.90L157.57,95.76L157.93,95.48L158.23,95.07L158.45,94.60L158.55,94.11L158.53,93.65L158.39,93.27L158.15,93.02L157.83,92.92L157.46,92.98L157.08,93.20L156.75,93.55L156.49,93.99L156.32,94.48L156.28,94.96L156.36,95.39L156.44,95.51"/><path d="M157.47,134.33L157.39,134.20L157.31,133.77L157.35,133.29L157.51,132.80L157.78,132.36L158.11,132.01L158.48,131.79L158.85,131.73L159.18,131.83L159.42,132.08L159.56,132.46L159.58,132.92L159.47,133.41L159.26,133.88L158.96,134.29L158.60,134.57L158.22,134.72L157.87,134.69L157.58,134.52L157.47,134.33L157.78,134.20L158.14,133.92L158.44,133.51L158.65,133.04L158.76,132.55L158.74,132.09L158.62,131.77"/><path d="M164.00,64.02L159.88,65.57"/><path d="M179.19,118.62L179.20,119.36L179.36,120.07L179.65,120.67L180.24,121.77L180.67,123.04L180.92,124.45L181.00,125.96L180.89,127.62L180.61,129.22L180.16,130.82L179.54,132.39L178.79,133.89L177.90,135.30L176.89,136.58L175.73,137.78L174.55,138.75L173.33,139.51L172.10,140.05L170.87,140.37L170.70,140.40L169.50,140.48L168.18,140.28L167.12,139.88L166.60,139.61L165.38,138.62L164.42,137.23L163.97,136.64L163.60,136.42L163.49,136.39L162.99,136.39"/><path d="M163.49,136.39L163.55,136.39"/><path d="M163.60,136.42L163.90,136.52L163.82,136.49"/><path d="M165.60,91.31L165.52,91.19L165.44,90.76L165.48,90.28L165.64,89.80L165.91,89.35L166.24,89.00L166.62,88.78L166.75,88.76L166.87,89.08L166.89,89.54L166.79,90.03L166.57,90.51L166.27,90.91L165.91,91.19L165.60,91.31L165.72,91.51L166.00,91.69L166.35,91.71L166.73,91.57L167.09,91.28L167.39,90.88L167.61,90.40L167.71,89.91L167.69,89.45L167.55,89.07L167.31,88.82L166.98,88.72L166.75,88.76"/><path d="M166.32,127.36L166.99,126.87L167.11,126.72L167.21,126.54L167.61,125.76"/><path d="M171.67,68.89L172.07,69.72L171.65,68.85L171.38,68.42L171.25,68.26L170.89,67.92L170.40,67.57L169.88,67.29L169.57,67.14L168.89,66.89L168.21,66.69L167.12,66.47L166.32,66.36L165.88,66.32"/><path d="M166.91,126.93L166.70,127.08L166.88,126.95"/><path d="M167.48,126.02L168.61,125.00L169.98,123.55L171.25,121.94L172.35,120.30"/><path d="M167.97,99.30L167.35,99.21"/><path d="M167.94,99.31L168.67,99.59"/><path d="M167.71,83.98L167.69,83.96"/><path d="M168.82,90.46L168.78,90.94L168.87,91.37L169.05,91.68L169.34,91.86L169.69,91.88L170.07,91.74L170.43,91.45L170.73,91.05L170.95,90.58L171.05,90.09L171.03,89.63L170.89,89.25L170.65,89.00L170.32,88.90L169.95,88.96L169.58,89.17L169.25,89.52L168.98,89.97L168.82,90.46"/><path d="M173.14,60.58L168.35,62.38"/><path d="M170.09,88.93L170.21,89.26L170.23,89.72L170.13,90.21L169.91,90.68L169.61,91.08L169.25,91.37L168.94,91.49"/><path d="M172.87,119.95L172.35,120.24L171.20,121.84"/><path d="M172.14,120.54L172.03,120.69"/><path d="M174.79,74.88L174.81,74.93L171.70,68.95"/><path d="M172.07,69.72L173.11,71.88L172.89,71.42"/><path d="M171.63,68.81L171.64,68.82"/><path d="M172.42,120.28L172.33,120.33L172.85,120.02"/><path d="M172.75,120.08L172.35,120.32"/><path d="M172.90,119.98L172.79,120.07L172.47,120.25"/><path d="M172.48,70.57L172.26,70.12"/><path d="M175.08,75.97L173.30,72.27L173.71,73.12"/><path d="M173.30,72.27L173.11,71.88"/><path d="M175.96,61.32L173.40,60.56"/><path d="M174.90,75.10L174.81,74.93L174.83,74.96"/><path d="M177.30,113.41L177.41,113.73L177.43,114.19L177.33,114.68L177.11,115.16L176.81,115.56L176.45,115.85L176.14,115.96"/><path d="M176.26,116.16L176.06,115.84L175.98,115.42L176.03,114.93L176.19,114.44L176.45,114.00L176.79,113.65L177.16,113.43L177.53,113.37L177.85,113.47L178.09,113.73L178.23,114.10L178.25,114.56L178.15,115.06L177.93,115.53L177.63,115.93L177.27,116.22L176.90,116.36L176.55,116.34L176.26,116.16"/><path d="M178.25,97.41L178.48,97.37L178.81,97.47L179.05,97.72L179.19,98.10L179.21,98.56L179.11,99.05L178.89,99.53L178.59,99.93L178.23,100.21L177.85,100.36L177.50,100.34L177.22,100.16L177.02,99.84L176.94,99.41L176.98,98.93L177.14,98.44L177.41,98.00L177.74,97.65L178.12,97.43L178.25,97.41L178.37,97.73L178.39,98.19L178.29,98.68L178.07,99.15L177.77,99.56L177.41,99.84L177.10,99.96"/><path d="M176.61,89.49L177.06,89.57"/><path d="M176.84,61.53L176.89,61.53"/><path d="M178.25,61.76L177.69,61.67"/><path d="M177.95,61.68L178.75,61.85"/><path d="M177.82,61.69L177.86,61.69"/><path d="M177.90,61.71L178.16,61.75L178.12,61.74"/><path d="M178.18,61.75L178.16,61.75"/><path d="M183.85,138.62L183.95,135.18L187.28,124.87L187.27,124.84"/><path d="M186.87,141.80L186.89,140.89L186.88,140.99L186.84,141.08L186.77,141.13L186.01,141.41"/><path d="M191.67,133.17L191.76,129.57L195.14,122.14L195.25,121.94L195.37,121.79"/><path d="M194.87,137.89L194.86,138.08"/><path d="M203.92,73.72L204.16,73.83L205.98,74.93"/><path d="M206.10,74.98L204.54,74.06"/><path d="M205.79,74.82L205.35,74.55"/><path d="M208.14,102.18L208.14,102.09L208.00,104.74L207.89,107.73L207.79,111.41"/><path d="M208.08,103.05L208.09,102.90"/><path d="M208.28,98.62L208.31,97.78L208.14,102.09"/><path d="M208.31,97.78L208.35,95.68"/><path d="M208.36,94.95L208.36,94.15"/><path d="M208.36,94.37L208.38,90.41L208.41,87.41L208.53,82.88"/><path d="M208.35,93.06L208.35,93.24"/></g><g style="stroke:#000000;stroke-width:0.529"><path d="M168.35,62.38L173.13,60.59L173.24,60.55L173.33,60.55L175.94,61.31L176.48,61.45L177.69,61.67L178.01,61.66L178.92,61.86L183.14,63.34L187.36,64.99L191.58,66.82L195.80,68.81L200.01,70.98L204.20,73.31L205.01,73.87L205.82,74.63L206.10,74.98L208.50,76.45L208.64,76.59L208.69,76.78L208.53,82.88L208.70,86.85L208.78,92.72L208.68,98.52L208.41,104.30L207.96,109.93L207.79,111.41L207.22,133.14L207.20,133.30L207.11,133.44L206.99,133.52L194.86,138.08L194.84,138.66L194.74,138.81L194.61,138.89L186.87,141.80L186.01,141.41L177.35,144.67L151.59,154.37L151.57,154.95L151.51,155.05L151.34,155.18L143.60,158.09L142.74,157.70L142.49,157.78L142.28,157.80L141.97,157.77L141.76,157.71L137.58,155.82L136.71,156.15L112.48,145.18L112.33,145.04L112.27,144.91L112.28,144.36L107.31,142.11L107.12,141.97L107.00,141.78L106.98,141.67L107.72,113.41L107.03,111.72L106.97,111.44L106.95,111.12L107.41,93.16L107.45,92.75L107.53,92.44L108.38,90.01L108.86,88.88L109.20,76.12L109.24,75.90L109.36,75.71L109.54,75.49L109.70,75.37L110.01,75.21L117.62,72.34L117.72,72.33L117.87,72.35L119.32,73.01L123.66,71.38L125.52,70.49L127.40,69.80L128.63,69.51L132.47,68.07L149.48,69.48L156.56,66.82"/><path d="M159.88,65.57L164.00,64.02"/><path d="M173.38,60.56L173.40,60.56"/><path d="M173.13,60.59L173.19,60.56L173.14,60.58"/></g></g><g id="Actor_.24"><g style="stroke:#000000;stroke-width:0.176"><path d="M158.33,68.11L158.68,68.16L159.11,68.17L159.30,68.17L159.88,68.12L160.38,68.05L161.22,67.88L162.93,67.47L160.04,68.17L159.61,68.24L159.15,68.25L158.70,68.20L158.13,68.06L157.99,67.99L157.79,67.86L157.72,68.92L157.71,69.03L157.72,68.92"/><path d="M157.72,68.92L157.72,68.98"/><path d="M157.73,68.77L157.75,67.83L157.79,67.86"/><path d="M158.08,63.31L158.09,63.42"/><path d="M163.98,71.81L163.17,71.97L161.69,72.04L160.22,71.90L159.33,71.68"/><path d="M158.97,65.13L158.83,64.95"/><path d="M159.89,65.61L159.75,65.54"/><path d="M161.77,65.51L161.59,65.55"/><path d="M162.60,56.73L162.77,56.68"/><path d="M165.86,66.45L165.76,66.64L165.53,66.80L165.18,66.92L162.93,67.47L163.53,67.32L164.32,67.11L164.85,66.94L165.26,66.78L165.56,66.62L165.76,66.44L165.84,66.36"/><path d="M164.35,56.87L164.64,56.97"/><path d="M165.22,57.54L165.39,57.71"/><path d="M165.82,67.71L165.82,67.72L165.83,67.53"/><path d="M165.79,58.77L165.80,58.79"/></g><g style="stroke:#000000;stroke-width:0.529"><path d="M159.33,71.68L158.91,71.57L157.91,71.09L157.32,70.51L157.21,69.89L157.24,68.74L157.28,68.53L157.51,68.13L157.61,67.95L157.75,67.83L157.55,67.70L156.72,67.02L156.05,66.15L155.91,65.88L155.44,64.87L155.16,63.74L155.09,62.51L155.22,61.23L155.59,59.84L156.11,58.63L156.79,57.49L157.62,56.45L158.57,55.56L158.66,55.49L159.75,54.73L160.89,54.17L162.05,53.83L163.20,53.72L163.49,53.74L164.61,53.86L165.64,54.21L166.54,54.79L166.81,54.96L167.56,55.74L168.14,56.69L168.27,56.95L168.65,58.03L168.83,59.22L168.79,60.48L168.55,61.77L168.52,61.89L168.10,63.12L167.50,64.30L166.74,65.39L165.84,66.36L165.86,66.45L165.83,67.53L165.83,67.76L165.83,67.85L165.85,67.93L165.87,68.02L165.91,68.10L165.98,68.22L166.22,68.67L166.26,68.88L166.28,69.30L166.26,70.11L166.12,70.73L165.51,71.28L164.49,71.71L163.98,71.81"/><path d="M158.68,64.76L158.54,64.57L158.23,63.92L158.08,63.31L158.04,62.58L158.13,61.71L158.36,60.83L158.73,59.98L159.21,59.17L159.80,58.44L160.47,57.81L161.21,57.29L161.98,56.91L162.60,56.73L163.28,56.67L163.99,56.74L164.35,56.87L164.92,57.23L165.22,57.54L165.55,58.09L165.79,58.77L165.88,59.34L165.86,60.20L165.69,61.08L165.39,61.95L164.97,62.78L164.43,63.55L163.80,64.24L163.09,64.81L162.33,65.26L161.59,65.55L161.02,65.66L160.29,65.66L159.75,65.54L159.28,65.32L158.83,64.95L158.68,64.76"/></g></g><g id="Actor_.25"><g style="stroke:#000000;stroke-width:0.176"/><g style="stroke:#000000;stroke-width:0.529"><path d="M109.91,113.24L109.31,136.39"/><path d="M110.55,88.48L109.95,111.57"/><path d="M110.66,86.68L110.67,86.56L110.88,85.94L111.35,85.21L111.79,84.84L112.03,84.69L113.27,84.20L114.05,84.04L114.90,84.25L134.59,93.16L135.43,93.72L136.17,94.57L136.76,95.64L137.12,96.82L137.23,97.99L135.96,146.86L135.79,147.91L135.38,148.73L134.75,149.25L133.19,149.82L132.91,149.87L132.33,149.87L131.49,149.62L111.80,140.71L111.23,140.36L110.92,140.08"/></g></g><g id="Actor_.26"><g style="stroke:#000000;stroke-width:0.176"><path d="M168.01,134.15L168.02,134.16L168.01,134.14L167.69,133.13L167.55,131.98L167.59,130.75L167.81,129.48L168.20,128.21L168.74,126.98L169.42,125.83L170.22,124.81L170.56,124.47L170.45,124.58"/><path d="M168.02,134.16L168.49,135.00L168.56,135.08"/><path d="M168.10,134.30L168.08,134.28L168.12,134.33"/><path d="M170.56,124.47L170.91,124.13L170.56,124.47"/><path d="M170.92,124.12L171.08,123.96L170.91,124.13L170.92,124.12"/><path d="M171.08,123.96L171.11,123.94L172.05,123.26L173.02,122.79L173.99,122.55L174.30,122.54"/><path d="M170.91,124.13L171.10,123.94"/><path d="M178.13,124.98L178.13,124.98"/><path d="M177.66,124.13L177.67,124.15"/><path d="M178.55,128.33L178.55,128.37L178.55,128.36"/></g><g style="stroke:#000000;stroke-width:0.529"><path d="M168.56,135.08L169.12,135.67L169.88,136.13L170.37,136.36L171.23,136.59L172.15,136.58L173.11,136.34L173.13,136.34L174.10,135.87L175.04,135.19L175.93,134.32L176.73,133.29L177.41,132.15L177.95,130.92L178.34,129.64L178.55,128.37L178.56,128.30"/><path d="M174.30,122.54L174.92,122.54L175.78,122.77L176.27,122.99L177.03,123.45L177.65,124.12L177.66,124.13"/><path d="M178.55,128.33L178.59,127.14L178.45,126.00L178.13,124.98"/><path d="M178.13,124.98L177.67,124.15"/></g></g><g><g/><g><path style="fill:#ffffff" d="M26.17,26.79L49.64,26.79L49.64,34.69L26.17,34.69z"/><text xml:space="preserve" fill="#0000ff" stroke-width="0" x="27.16" y="32.22" font-size="5.07" opacity="1.00" font-family="Eurostile">SECTIONS</text></g></g><g><g/><g><path style="fill:#ffffff" d="M31.14,91.48L46.67,91.48L46.67,99.38L31.14,99.38z"/><text xml:space="preserve" fill="#0000ff" stroke-width="0" x="32.13" y="96.91" font-size="5.00" opacity="1.00" font-family="Eurostile">BOM's</text></g></g><g/><g><g/><g><path style="stroke:#000000;stroke-width:0.125;fill:#0000ff" d="M79.50,2.67L209.90,2.67L209.90,12.83L79.50,12.83z"/><text xml:space="preserve" fill="#ffffff" stroke-width="0" x="80.77" y="9.66" font-size="6.56" opacity="1.00" font-family="Eurostile"> HELICAL BEVEL GEARBOX/MOTOR PRODUCT</text></g></g><g><g/><g><image x="8.088235" y="35.441181" height="42.545364" width="60.087139" xlink:href="HOME_files/960671cd68ed46e6_image_0.jpg"/><path style="stroke:#000000;stroke-width:0.125;stroke-opacity:0.98" d="M8.09,35.44L68.18,35.44L68.18,77.99L8.09,77.99z"/></g></g><g><g/><g><image x="9.382354" y="99.142197" height="44.279739" width="62.536640" xlink:href="HOME_files/960671cd68ed46e6_image_1.jpg"/><path style="stroke:#000000;stroke-width:0.125;stroke-opacity:0.98" d="M9.38,99.14L71.92,99.14L71.92,143.42L9.38,143.42z"/></g></g><g><g/><g><image x="10.352940" y="164.600693" height="44.324780" width="62.600220" xlink:href="HOME_files/960671cd68ed46e6_image_2.jpg"/><path style="stroke:#000000;stroke-width:0.125;stroke-opacity:0.98" d="M10.35,164.60L72.95,164.60L72.95,208.93L10.35,208.93z"/></g></g><g><g/><g><path style="fill:#ffffff" d="M28.79,156.38L56.27,156.38L56.27,164.28L28.79,164.28z"/><text xml:space="preserve" fill="#0000ff" stroke-width="0" x="29.78" y="161.81" font-size="5.09" opacity="1.00" font-family="Eurostile">ANIMATION</text></g></g><g id="paperID" visibility="hidden" opacity="0.00" transform="scale(0.000100)"><path style="stroke:#000000;stroke-width:0.500;fill:#e6e6e6;fill-rule:evenodd" d="M-2000.00,-2000.00L2297.00,-2000.00L2297.00,2210.00L-2000.00,2210.00zM0.00,0.00L297.00,0.00L297.00,210.00L0.00,210.00z"/><path style="fill:#000000;fill-opacity:0.118" d="M3.00,210.00L297.00,210.00L297.00,3.00L300.00,3.00L300.00,213.00L3.00,213.00z"/></g><g id="hotspot.0" ident="" onmouseover="ShowHotSpot(evt,&apos;0&apos;)" onmouseout="HideHotSpot(evt,&apos;0&apos;)" onmousemove="ShowToolTip(evt,&apos;0&apos;,&quot;REDIRECT TO SECTIONS PAGE&quot;)" opacity="0"><a xlink:href="GEARBOXSECTIONS.SVG"><path style="fill:#00ff00;fill-rule:evenodd" d="M49.40,34.52L26.30,34.52L26.30,26.63L49.40,26.63z"/></a></g><g id="hotspot.1" ident="" onmouseover="ShowHotSpot(evt,&apos;1&apos;)" onmouseout="HideHotSpot(evt,&apos;1&apos;)" onmousemove="ShowToolTip(evt,&apos;1&apos;,&quot;REDIRECT TO GENERAL BOM&apos;S PAGE&quot;)" opacity="0"><a xlink:href="BOM.SVG"><path style="fill:#00ff00;fill-rule:evenodd" d="M46.49,99.23L31.15,99.23L31.15,91.33L46.49,91.33z"/></a></g><g id="hotspot.2" ident="" onmouseover="ShowHotSpot(evt,&apos;2&apos;)" onmouseout="HideHotSpot(evt,&apos;2&apos;)" onmousemove="ShowToolTip(evt,&apos;2&apos;,&quot;REDIRECT TO SECTIONS PAGE&quot;)" opacity="0"><a xlink:href="GEARBOXSECTIONS.SVG"><path style="fill:#00ff00;fill-rule:evenodd" d="M68.20,35.06L68.49,77.77L7.86,77.87L7.88,35.02z"/></a></g><g id="hotspot.3" ident="" onmouseover="ShowHotSpot(evt,&apos;3&apos;)" onmouseout="HideHotSpot(evt,&apos;3&apos;)" onmousemove="ShowToolTip(evt,&apos;3&apos;,&quot;REDIRECT TO GENERAL BOM&apos;S PAGE&quot;)" opacity="0"><a xlink:href="BOM.SVG"><path style="fill:#00ff00;fill-rule:evenodd" d="M9.15,143.23L9.15,98.77L72.05,98.77L72.08,143.52z"/></a></g><g id="hotspot.4" ident="" onmouseover="ShowHotSpot(evt,&apos;4&apos;)" onmouseout="HideHotSpot(evt,&apos;4&apos;)" onmousemove="ShowToolTip(evt,&apos;4&apos;,&quot;PLAY ANIMATION VIDEO&quot;)" opacity="0"><a xlink:href="ANIMATION.SVG"><path style="fill:#00ff00;fill-rule:evenodd" d="M56.20,163.93L28.89,163.93L28.89,156.36L56.20,156.36z"/></a></g><g id="hotspot.5" ident="" onmouseover="ShowHotSpot(evt,&apos;5&apos;)" onmouseout="HideHotSpot(evt,&apos;5&apos;)" onmousemove="ShowToolTip(evt,&apos;5&apos;,&quot;PLAY ANIMATION VIDEO&quot;)" opacity="0"><a xlink:href="ANIMATION.svg"><path style="fill:#00ff00;fill-rule:evenodd" d="M73.02,208.90L10.13,208.90L10.13,164.45L73.05,164.15z"/></a></g><g id="ToolTip" visibility="hidden" opacity="0" transform="translate(0,0)"><rect id="ToolTipShadow" opacity="0.20" fill="black" stroke="none" x="0" y="0" width="30" height="8"/><rect id="ToolTipBG" fill="#ffffe1" stroke="black" x="0" y="0" width="30" height="8"/><text xml:space="preserve" id="ToolTipText" fill="black" x="0" y="0" width="30" height="8">tooltip</text></g></g></svg>