<?xml version="1.0" encoding="UTF-8" standalone="yes"?><svg xmlns="http://www.w3.org/2000/svg" xmlns:xlink="http://www.w3.org/1999/xlink" width="297.000mm" height="210.000mm" viewBox="0.000000 0.000000 297.000000 210.000000" stroke-linejoin="round" stroke-linecap="round" fill="none" fill-rule="evenodd"><desc>Composer Export</desc><script type="text/ecmascript"><![CDATA[
if(typeof(top) != "undefined")
{
	top.ShowPaper = ShowPaper;
}
function ShowHotSpot(evt,hotspotid)
{
	var svgDocument = evt.target.ownerDocument;
	var strId = "hotspot."+hotspotid;
	var hotspot = svgDocument.getElementById(strId);
	if(hotspot)
		hotspot.setAttribute("opacity",".5");
}
function HideHotSpot(evt,hotspotid)
{
	var svgDocument = evt.target.ownerDocument;
	var strId = "hotspot."+hotspotid;
	var hotspot = svgDocument.getElementById(strId);
	if(hotspot)
		hotspot.setAttribute("opacity","0");

	var toolTip = svgDocument.getElementById('ToolTip');
	if(toolTip)
		toolTip.setAttribute("visibility","hidden");
}
function ShowToolTip(evt,hotspotid,strTooltip)
{
	if(strTooltip=="")
	return;

	// change text
	var svgDocument = evt.target.ownerDocument;
	var tiptext = svgDocument.getElementById('ToolTipText');
	if( !tiptext )
	return;
	tiptext.firstChild.nodeValue = " " + strTooltip + "  " ;

	// show tooltip before, else some refresh issue

	var toolTip = svgDocument.getElementById('ToolTip');
	if(!toolTip)
	return;

	toolTip.setAttribute("visibility","visible");
	toolTip.setAttribute("opacity",".95");

	// move tooltip
	// get viewbox

	var root = svgDocument.documentElement;
	var vbox = (root.getAttribute("viewBox")).split(' ');
	var x0 = parseFloat(vbox[0]);
	var y0 = parseFloat(vbox[1]);
	var vboxW = parseFloat(vbox[2]);
	var vboxH = parseFloat(vbox[3]);

	// get default width of svg

	var strW = root.getAttribute("width");
	var svgW = parseFloat(strW);
	if(strW.indexOf('mm') != -1)
	svgW *= 3.779;

	var strH = root.getAttribute("height");
	var svgH = parseFloat(strH);
	if(strH.indexOf('mm') != -1)
	svgH *= 3.779;  	// 96 dpi  -> 96/25.4 = 3.779

	// update the viewbox / width / height if svg is embedded in html with zoom fit all
	var realx0 = x0;
	var realy0 = y0;
	var realvboxW = vboxW;
	var realvboxH = vboxH;
	var realsvgW = svgW;
	var realsvgH = svgH;

	if ((typeof(top) == "undefined") || (typeof(top.svgctl1) != "undefined")) // embedded in html
	{
		// get window size in pxl

		svgW = window.innerWidth;
		svgH = window.innerHeight;

		// calculate real viewbox

		realsvgW = svgW;
		realsvgH = svgH;
		if((svgW / svgH) > (vboxW / vboxH))
		{
			realvboxW = (vboxH * svgW) / svgH;
			realvboxH = vboxH;
			realx0 = x0 - (realvboxW - vboxW)/2 ;
		}
		else
		{
			realvboxH = (vboxW * svgH) / svgW;
			realvboxW = vboxW;
			realy0 = y0 - (realvboxH - vboxH)/2 ;
		}
	}

	// get user zoom/pan

	var newScale = root.currentScale;
	var translation = root.currentTranslate;

	// transform pxl to user unit

	var xPos = (((evt.clientX+10- translation.x)/newScale) * realvboxW)/realsvgW  + realx0 ;
	var yPos = (((evt.clientY+5- translation.y)/newScale) * realvboxH)/ realsvgH  + realy0 ;
	var scaleForWidth = ( (1 / newScale) * realvboxH) / realsvgH;

	// move tooltip

	toolTip.setAttribute("transform", "translate(" + xPos + "," + yPos + ")" );

	// resize tooltip

	var fontsize = 12;
	tiptext.setAttribute("font-size",fontsize*scaleForWidth);
	tiptext.setAttribute("y", fontsize*scaleForWidth);
	var tipBG = svgDocument.getElementById('ToolTipBG');
	var outline = tiptext.getBBox();
	if(tipBG)
	{
		tipBG.setAttribute("stroke-width", 1*scaleForWidth);
		tipBG.setAttribute("width", Number(outline.width) );
		tipBG.setAttribute("height", Number(outline.height) + fontsize*.5*scaleForWidth );
	}
	var ToolTipShadow = svgDocument.getElementById('ToolTipShadow');
	if(ToolTipShadow)
	{
		ToolTipShadow.setAttribute("width", Number(outline.width) );
		ToolTipShadow.setAttribute("height", Number(outline.height) + fontsize*.5*scaleForWidth );
		ToolTipShadow.setAttribute("x", 3*scaleForWidth);
		ToolTipShadow.setAttribute("y", 3*scaleForWidth);
	}
}
function ShowPaper()
{
  var svgDocument = getDocument();
  var paper = svgDocument.getElementById("paperID");
  if(paper)
  {
    paper.setAttribute("transform","scale(1)");
    paper.setAttribute("opacity","1");
    paper.setAttribute("visibility","visible");
  }
  var svg = svgDocument.getRootElement();
  if(svg)
  {
    svg.setAttribute("width","307.000mm");
    svg.setAttribute("height","220.000mm");
    svg.setAttribute("viewBox","-5.000000 -5.000000 307.000000 220.000000");
  }
}
]]></script><defs><mask id="mask0" x="0" y="0" height="100%" width="100%"><image x="126.776001" y="182.680679" height="22.812309" width="26.691179" xlink:href="input_files/b2086e493b88e831_mask_0.jpg"/></mask></defs><g><path style="fill:#000000;fill-opacity:0.098;fill-rule:evenodd" d="M273.19,31.60L273.40,34.41L272.80,35.11L229.02,44.49L228.95,41.06L229.47,40.76L273.12,31.43zM194.31,34.32L194.59,34.81L195.07,36.41L195.58,36.93L196.14,38.44L196.13,39.57L187.49,43.41L186.97,43.48L187.08,42.43L188.34,40.85L194.62,37.77L194.61,37.12L194.36,36.88L193.02,37.50L186.02,40.37L186.01,38.78L186.73,37.43L193.26,34.62L193.48,34.04L193.78,33.99zM237.39,34.37L235.71,34.56L230.87,35.68L227.64,36.19L227.63,35.88L236.23,34.05L237.39,34.07zM184.69,36.44L185.40,35.84L189.83,34.82L190.70,34.81L186.80,36.46L185.39,37.69L184.92,37.77L184.69,37.45zM196.92,40.76L197.19,42.97L188.54,47.02L187.73,47.01L189.91,45.01L195.88,41.90L195.86,40.62L196.67,40.28zM185.80,44.72L186.02,44.72L186.55,46.56L186.24,46.77L184.71,47.10L184.65,43.60L184.98,43.58zM197.96,44.62L198.24,46.32L197.93,46.82L190.36,50.39L189.57,50.40L196.91,46.57L197.17,44.75L197.73,44.39zM198.99,50.13L198.70,51.22L191.22,54.35L190.92,54.05L190.85,53.24L194.23,51.66L197.97,50.98L197.96,49.44L198.63,48.52L198.74,48.55zM189.91,54.78L189.61,55.07L189.03,55.12L189.12,54.51zM185.77,56.06L185.44,56.14L185.52,55.81zM199.26,54.36L198.76,54.89L192.17,57.91L191.37,57.99L191.46,57.20L198.25,54.13L199.15,52.67L199.25,52.70zM190.70,60.21L191.92,60.24L198.62,57.61L199.51,56.07L199.51,57.21L198.77,58.28L191.39,61.03L189.88,60.78L189.56,60.56L189.56,59.69L189.90,59.65zM198.25,60.57L196.63,61.07L193.89,61.69L198.16,60.20L198.47,60.20zM190.69,62.33L192.07,62.23L191.99,62.63L190.86,62.81L189.61,62.80L189.90,62.29L189.03,61.73L189.40,61.51zM193.25,62.05L193.26,62.27L192.22,62.29L192.07,62.23L192.93,61.77L193.89,61.69zM195.88,68.52L196.33,69.88L197.20,71.11L197.10,71.88L197.40,72.14L197.96,72.91L197.95,74.05L196.06,74.49L191.12,75.26L188.00,75.35L188.10,74.30L188.51,73.95L193.03,73.54L196.96,72.39L196.71,72.14L195.27,72.15L188.53,73.18L187.02,73.17L186.96,72.68L187.48,72.39L191.73,71.97L195.10,70.94L196.15,70.31L195.86,69.81L193.98,70.07L192.93,70.09L195.55,69.02L195.63,68.76L195.02,67.97L195.32,67.96zM187.01,71.61L186.19,71.65L187.07,71.34zM198.74,74.98L198.72,76.38L198.22,76.65L192.42,77.59L188.76,77.67L188.88,76.91L189.57,76.29L190.34,76.03L197.46,75.11L197.89,74.47L198.19,74.44zM199.78,78.38L199.57,79.02L198.20,79.49L193.72,80.18L189.54,80.26L189.64,79.77L190.59,78.87L198.43,77.87L198.69,77.55L198.69,77.31L199.25,77.28zM166.61,77.15L165.78,77.68L165.70,77.38L166.27,77.03zM199.44,80.15L200.27,80.18L200.55,80.96L200.55,81.81L200.03,82.09L194.24,83.04L190.57,83.11L190.59,82.55L191.37,81.99L198.92,80.98L199.51,80.76zM147.47,81.63L147.65,81.03L148.43,80.93zM147.40,82.63L147.32,81.75L147.47,81.63zM201.32,84.09L201.05,84.92L200.20,85.12L195.79,85.89L191.34,85.95L191.36,85.67L192.15,85.10L200.20,84.08L200.47,83.30L201.08,83.05zM168.45,84.54L169.18,85.88L171.00,90.81L169.36,91.33L168.05,91.42L167.36,88.22L167.35,84.40L168.14,84.30zM150.26,85.48L149.08,86.35L148.69,87.52L148.70,91.85L148.95,94.21L148.65,94.29L148.18,90.81L148.16,85.69L148.87,84.29L149.21,84.29zM182.48,85.53L182.29,84.85L182.39,84.83zM186.29,86.40L187.34,89.00L185.69,89.37L185.42,86.66L185.78,85.86zM182.74,86.58L182.48,85.53L182.64,85.65zM202.09,87.44L201.87,87.79L199.16,88.48L195.53,89.00L191.86,88.98L192.67,88.46L200.48,87.46L201.04,87.24L201.61,86.19L201.85,86.14zM183.00,87.61L182.74,86.58L182.89,86.69zM150.29,88.17L151.29,89.77L152.86,93.93L152.78,94.70L150.24,95.31L149.47,92.11L149.48,88.01L149.99,87.93zM183.26,88.65L183.00,87.61L183.15,87.72zM164.60,89.42L164.40,88.74L164.50,88.72zM202.63,89.73L202.53,90.82L199.42,91.59L195.27,92.11L192.67,92.12L193.97,91.58L200.71,90.81L201.85,90.63L201.82,89.86L202.39,89.49zM184.99,96.25L186.02,104.55L186.02,109.81L185.77,111.38L184.90,113.10L175.32,115.18L174.25,115.17L175.14,114.22L175.65,112.15L175.64,100.47L184.43,98.62L184.74,98.40L183.26,88.65L183.40,88.77zM164.86,90.46L164.60,89.42L164.75,89.54zM165.12,91.50L164.86,90.46L165.01,90.57zM165.38,92.53L165.12,91.50L165.26,91.61zM165.63,93.83L165.38,92.53L165.52,92.65zM203.13,93.75L202.79,93.97L202.27,93.94L202.90,92.67L203.15,92.62zM190.52,93.84L190.95,97.29L190.72,100.25L190.11,100.68L189.03,100.66L189.39,100.23L189.65,99.19L189.55,93.66L190.42,93.66zM167.10,100.40L168.14,108.96L168.14,112.93L167.62,115.78L167.29,116.23L166.25,117.00L157.95,118.81L156.13,118.82L157.26,117.86L157.77,115.52L157.69,104.29L159.24,103.77L166.51,102.23L166.58,100.14L165.63,93.83L165.77,93.95zM201.59,94.26L197.34,94.96L193.95,94.96L201.60,94.18zM203.67,95.95L203.66,96.86L203.39,97.63L193.73,98.94L193.41,98.09L194.83,98.14L195.03,97.57L201.84,96.60L203.04,96.24L203.42,95.70zM100.53,100.12L100.52,100.49L99.45,101.78L94.81,106.47L93.13,108.46L92.73,108.45L92.37,107.63L93.89,105.04L97.39,100.76L100.25,99.85zM195.07,100.99L196.04,100.39L201.83,99.71L203.31,99.37L203.92,98.58L203.93,99.73L203.65,100.22L196.91,101.26L193.95,101.50L194.04,100.91zM101.81,102.74L101.81,103.34L96.00,108.44L93.47,111.10L93.22,111.05L93.22,110.62L95.33,107.78L100.78,101.24L101.01,101.19zM143.46,103.77L135.11,105.60L135.11,106.18L137.29,105.93L143.79,104.54L143.81,104.87L143.43,105.33L135.15,107.12L135.15,111.83L134.38,112.61L115.19,116.74L113.87,116.74L113.95,109.80L134.71,105.42L134.64,103.75L136.43,103.25L142.40,101.95L143.26,101.94zM195.53,103.51L203.56,102.22L204.07,101.40L204.19,102.31L203.67,102.83L197.09,103.77L195.56,103.75zM90.53,103.46L90.76,103.24L92.19,103.27L92.29,103.42L91.94,103.59L91.76,104.20L91.17,104.64zM194.58,104.12L194.23,104.12L194.23,103.77L194.58,103.77zM155.10,103.74L155.41,103.73L155.70,105.59L155.70,110.62L154.90,110.52L155.11,109.49zM204.44,104.49L203.82,105.32L198.72,106.19L195.74,106.42L195.74,106.12L203.41,104.91L204.22,104.28zM102.56,104.81L103.08,106.95L102.48,107.14L96.47,111.55L95.98,111.56L102.07,105.41L102.03,104.28zM91.47,105.50L91.29,105.08L91.68,104.64L91.76,104.20L92.29,103.66L92.29,103.42L94.44,101.96L95.81,101.66L92.21,106.74L91.63,105.61zM195.59,108.20L196.83,108.18L203.33,107.16L204.20,106.37L204.09,107.14L203.06,107.68L196.30,108.70L195.35,108.72L194.21,108.25L194.30,107.73L194.83,107.63zM91.77,107.78L92.45,109.81L92.13,110.04L91.67,110.02L91.41,108.70L91.34,107.63zM103.87,110.58L101.87,111.46L103.09,110.09L103.33,107.64zM204.25,108.32L203.92,108.81L203.92,108.24L204.20,108.18zM195.61,110.28L202.27,109.22L203.41,109.21L202.82,109.49L196.83,110.51L195.08,110.53L194.58,110.24L194.58,109.45zM190.46,110.34L190.19,110.29L190.15,109.46zM113.45,110.25L113.46,114.50L113.10,114.91L106.18,116.55L104.29,116.83L104.11,114.92L104.03,111.28L112.33,109.47L113.17,109.47zM194.86,111.53L195.95,111.99L195.83,112.15L195.09,112.08L194.22,111.60L194.32,111.01zM191.05,110.87L191.20,111.67L190.89,111.66L190.94,110.75zM101.67,111.82L101.15,111.80L101.39,111.54L101.87,111.46zM191.82,111.91L191.98,112.71L191.66,112.70L191.71,111.79zM194.41,112.76L193.95,112.63L194.05,112.31zM196.06,112.85L199.16,112.07L202.62,111.79L202.65,111.90L202.03,112.35L195.02,113.89L193.53,113.89L192.60,113.27L193.80,113.08L194.09,113.35L194.50,113.38L194.41,112.76L194.83,112.85zM192.60,113.27L192.40,113.17L192.49,112.57zM91.62,114.10L91.92,114.15L91.97,114.45L91.67,114.40zM150.27,116.04L140.39,118.10L137.20,118.65L136.94,116.20L149.14,113.62L150.00,113.60zM156.20,115.50L155.87,115.42L156.25,115.21zM95.84,115.52L93.99,116.82L93.99,116.33L95.51,115.40zM92.25,116.94L92.06,116.48L92.73,115.95L92.74,117.07zM103.09,115.25L98.59,117.25L95.91,117.95L96.50,117.50L101.68,115.16zM95.78,118.11L95.20,118.03L95.91,117.95zM104.13,118.34L103.61,118.65L98.33,119.32L95.71,119.32L101.00,118.63L104.17,117.80zM92.29,103.66L91.76,104.20L91.94,103.59L92.29,103.42z"/><g id="Actor_.0"><g style="stroke:#000000;stroke-width:0.176"/><g style="stroke:#000000;stroke-width:0.529"><path d="M136.26,116.55L136.30,117.28L136.30,117.29L137.02,118.96L137.03,118.97L137.04,118.97L137.05,118.97L137.06,118.97L150.21,116.15L150.23,116.14L150.23,116.14L150.24,116.12L150.10,113.56L149.37,111.89L149.36,111.88L149.34,111.87L136.18,114.70L136.17,114.71L136.16,114.72L136.16,114.73L136.26,116.55"/></g></g><g id="Actor_.1"><g style="stroke:#000000;stroke-width:0.176"><path d="M182.57,81.57L182.61,81.96L182.60,82.02L182.59,82.05L182.57,82.04L182.33,81.75"/><path d="M182.28,78.70L182.32,79.24L182.32,79.37L182.30,79.38L182.28,79.36L182.02,78.94"/><path d="M182.12,76.05L182.13,76.18L182.16,76.84L182.16,76.91L182.15,76.94L182.13,76.94L182.10,76.91L181.83,76.36"/><path d="M182.04,73.71L182.09,73.92L182.12,74.10L182.11,74.71L182.10,74.76L182.09,74.78L182.07,74.77L182.04,74.72L181.76,74.06"/><path d="M182.07,71.72L182.18,72.12L182.22,72.31L182.22,72.42L182.17,72.93L182.15,72.94L182.12,72.91L182.09,72.85L181.81,72.09"/><path d="M181.99,70.48L182.27,71.32L182.30,71.39L182.32,71.43L182.35,71.44L182.44,71.06L182.44,70.97L182.41,70.77L182.24,70.09"/><path d="M182.53,68.86L182.73,69.73L182.77,69.92L182.77,70.06L182.65,70.32L182.64,70.33L182.61,70.31L182.55,70.17L182.28,69.26"/><path d="M182.51,68.74L182.69,68.46L182.95,69.43L183.01,69.58L183.03,69.62L183.05,69.62L183.20,69.49L183.21,69.45L183.21,69.37L183.18,69.18L182.98,68.20L183.21,68.10L183.95,66.89"/><path d="M183.28,87.84L183.47,87.85L183.49,87.83L183.49,87.76"/><path d="M182.75,84.74L182.97,84.89L182.99,84.88L183.00,84.84L183.00,84.77L182.98,84.61"/><path d="M182.99,84.88L182.99,84.88"/><path d="M183.21,68.10L183.44,69.09L183.50,69.27L183.53,69.32L183.55,69.34L183.73,69.34L183.74,69.30L183.73,69.16L183.55,68.09L184.19,67.21L184.43,66.89L184.58,66.94L184.06,67.79L183.81,68.18L183.55,68.09"/><path d="M182.69,68.46L183.42,67.29"/><path d="M182.98,68.19L183.61,67.24"/><path d="M184.71,89.79L184.39,87.85L184.17,86.04L184.06,84.43L184.06,83.10L184.17,82.09L184.19,81.99L184.41,81.34L184.47,81.25L184.88,80.93L184.97,80.89L186.24,80.74L186.91,81.47L187.68,82.95L188.48,85.07L189.25,87.64L189.93,90.47L190.46,93.32L190.80,95.97L190.92,98.19L190.82,99.81L190.49,100.70L189.43,100.98L189.05,101.03L188.95,101.03L188.85,101.01L188.76,100.95L188.31,100.59L187.75,99.77L187.21,98.67L186.66,97.26L186.10,95.59L185.58,93.74L185.11,91.78L184.71,89.79"/><path d="M186.09,68.43L189.29,67.89L190.16,67.74L193.10,67.21L194.20,66.99L194.02,66.72L190.90,67.33L190.00,67.50L185.91,68.18L186.09,68.43L185.54,69.27L185.27,69.64L184.94,69.19L185.05,70.16L185.05,70.23L185.04,70.27L185.03,70.27L185.01,70.26L184.80,70.01L184.75,69.89L184.69,69.70L184.51,68.69L184.21,68.42L184.88,67.60L185.14,67.31L185.30,67.46L184.76,68.32L184.51,68.69"/><path d="M184.21,68.42L184.36,69.45L184.36,69.53L184.35,69.58L184.34,69.60L184.14,69.47L184.12,69.44L184.08,69.37L184.03,69.18L183.81,68.18"/><path d="M184.58,66.94L188.62,66.14L192.66,65.31"/><path d="M192.23,65.30L188.49,66.07L184.43,66.89"/><path d="M185.71,98.50L185.85,98.30L185.87,98.29L185.89,98.31L185.94,98.42"/><path d="M184.92,95.46L185.09,95.39L185.11,95.39L185.11,95.40"/><path d="M188.17,95.35L188.01,95.97L187.71,96.05L187.32,95.60L186.87,94.66L186.41,93.32L185.99,91.74L185.70,90.30L185.66,90.09L185.44,88.54L185.37,87.26L185.45,86.38L185.68,86.01L186.02,86.18L186.45,86.88L186.91,88.02L187.36,89.49L187.74,91.12L188.03,92.75L188.48,93.79L188.56,95.27L188.17,95.35L188.62,96.39L188.56,95.27"/><path d="M185.27,69.64L185.43,70.62L185.47,70.82L185.50,70.90L185.53,70.96L185.76,71.33L185.79,71.35L185.81,71.33L185.81,71.28L185.74,70.38L186.09,70.99L186.21,71.93L186.25,72.13L186.31,72.30L186.55,72.77L186.59,72.82L186.60,72.81L186.61,72.77L186.61,72.70L186.58,71.96L186.94,72.74L187.03,73.61L187.07,73.81L187.12,73.99L187.38,74.59L187.41,74.63L187.43,74.64L187.44,74.61L187.44,74.55L187.45,73.91L187.82,74.83L188.13,74.53L188.76,73.79L188.55,73.29L189.40,73.19L192.65,72.78L193.56,72.64L196.68,72.08L196.88,72.60L197.23,72.85L197.97,73.31"/><path d="M185.74,70.38L186.47,69.71L186.75,69.48L187.60,69.36L190.85,68.86L191.75,68.71L194.87,68.11L195.06,68.47L193.96,68.69L191.01,69.19L190.15,69.33L186.95,69.82L186.75,69.48"/><path d="M184.94,69.19L185.64,68.44L185.91,68.18"/><path d="M194.62,66.77L193.39,65.93L192.29,66.15L189.35,66.72L185.30,67.46"/><path d="M193.39,65.93L193.23,65.75L190.11,66.38L189.21,66.56L185.14,67.31"/><path d="M186.55,101.40L186.66,101.06L186.67,101.03L186.69,101.04L186.72,101.08L186.81,101.35"/><path d="M186.58,71.96L187.35,71.38L187.64,71.19L187.84,71.62L191.05,71.18L191.91,71.04L194.86,70.56L195.96,70.36L196.32,70.62L197.09,71.13"/><path d="M186.09,70.99L186.37,70.65L186.95,69.82"/><path d="M187.43,104.08L187.49,103.62L187.50,103.58L187.52,103.57L187.54,103.60L187.57,103.65L187.72,104.09"/><path d="M187.82,74.83L187.87,75.62L187.89,75.75L187.93,75.92L188.20,76.67L188.25,76.76L188.27,76.78L188.28,76.76L188.29,76.72L188.34,76.19L188.71,77.23L188.72,77.93L188.73,78.05L188.76,78.22L189.05,79.10L189.08,79.16L189.10,79.19L189.12,79.19L189.13,79.16L189.22,78.76L189.58,79.90L189.55,80.49L189.56,80.60L189.59,80.77L189.87,81.71L189.92,81.83L189.94,81.84L190.08,81.55L190.43,82.78L190.36,83.24L190.36,83.40L190.41,83.61L190.63,84.46L190.67,84.58L190.70,84.64L190.73,84.67L190.90,84.53L191.23,85.81L191.12,86.15L191.12,86.28L191.15,86.49L191.38,87.42L191.43,87.57L191.46,87.62L191.48,87.62L191.66,87.62L192.58,87.69L192.93,87.76L193.77,87.70L197.00,87.40L197.90,87.28L201.02,86.76L201.55,86.42L201.77,86.33"/><path d="M187.45,73.91L188.25,73.43L188.55,73.29"/><path d="M186.94,72.74L187.23,72.41L187.84,71.62"/><path d="M187.64,71.19L188.49,71.09L191.74,70.64L192.64,70.49L195.76,69.91L195.96,70.36"/><path d="M188.31,106.51L188.34,105.93L188.34,105.88L188.36,105.85L188.38,105.87L188.41,105.91L188.67,106.58"/><path d="M198.86,75.79L198.14,75.38L197.81,75.16L196.70,75.36L193.76,75.79L192.89,75.91L189.68,76.29L189.02,76.97L188.71,77.23"/><path d="M188.34,76.19L189.16,75.81L189.48,75.71L189.68,76.29"/><path d="M188.76,73.79L191.96,73.38L192.83,73.26L195.78,72.80L196.88,72.60"/><path d="M189.58,108.76L189.58,108.70L191.77,111.87L191.80,111.94L191.85,112.13L192.03,113.01"/><path d="M189.19,108.63L189.18,107.89L189.19,107.84L189.21,107.84L189.25,107.90L189.49,108.42L189.52,108.50L189.58,108.70"/><path d="M189.22,78.76L190.07,78.49L190.40,78.43L190.59,79.06L189.91,79.67L189.58,79.90"/><path d="M189.48,75.71L190.33,75.63L193.58,75.25L194.49,75.12L197.61,74.57L197.81,75.16"/><path d="M190.87,111.79L190.78,110.86L190.78,110.79L190.80,110.76L190.82,110.77L190.83,110.78L191.05,111.09L191.10,111.22L191.15,111.42L191.25,112.00"/><path d="M190.05,110.40L190.00,109.55L190.01,109.50L190.03,109.48L190.06,109.52L190.32,110.01L190.38,110.20L190.43,110.57"/><path d="M190.90,84.53L191.79,84.48L192.14,84.51L192.32,85.22L191.58,85.66L191.23,85.81"/><path d="M190.43,82.78L190.77,82.59L191.48,82.05L194.68,81.73L195.55,81.62L198.49,81.21L199.59,81.02L199.90,81.19L200.56,81.44"/><path d="M191.48,82.05L191.29,81.38L190.95,81.39L190.08,81.55"/><path d="M190.59,79.06L193.80,78.71L194.67,78.60L197.61,78.18L198.72,77.98L199.03,78.18L199.72,78.52"/><path d="M190.40,78.43L191.25,78.35L194.49,78.01L195.40,77.88L198.52,77.34L198.72,77.98"/><path d="M192.01,65.16L190.90,65.39"/><path d="M191.74,111.84L191.54,111.65L191.54,111.64L191.52,111.65L191.51,111.69L191.51,111.77L191.64,112.77"/><path d="M192.93,87.76L193.09,88.48L192.32,88.83L191.96,88.94L191.82,89.14L191.81,89.18L191.81,89.26L191.84,89.46L192.03,90.34L192.07,90.49L192.13,90.62L192.36,90.78L192.63,92.10L193.00,92.04L193.79,91.79L196.97,91.48L197.83,91.38L200.75,90.98L201.86,90.79L202.12,90.84L202.70,90.82"/><path d="M191.96,88.94L191.66,87.62"/><path d="M191.00,84.52L191.30,84.50L191.18,84.51"/><path d="M191.30,84.50L195.97,83.93L198.51,83.58L200.80,83.25"/><path d="M191.00,81.39L192.63,81.23L195.15,80.92L197.70,80.56L199.96,80.21"/><path d="M191.29,81.38L192.14,81.31L195.38,80.99L196.28,80.87L199.40,80.33L199.59,81.02"/><path d="M191.42,65.28L191.88,65.18"/><path d="M192.06,113.14L192.34,113.32L193.41,114.06"/><path d="M197.68,112.77L195.09,113.24L195.00,113.44L194.12,112.95L193.73,112.71L193.47,111.78L193.41,111.63L193.39,111.60L193.37,111.60L193.24,111.80L193.23,111.93L193.27,112.12L193.48,113.11L193.27,113.30L193.02,112.32L192.97,112.15L192.94,112.11L192.92,112.10L192.76,112.16L192.74,112.20L192.75,112.36L192.95,113.44L192.71,113.44L193.59,114.01"/><path d="M192.95,113.44L194.07,114.24"/><path d="M192.71,113.44L192.48,112.44L192.43,112.26L192.40,112.20L192.37,112.18L192.18,112.11L192.17,112.13L192.17,112.27L192.34,113.32"/><path d="M193.10,94.67L192.97,93.94L193.91,94.21L194.27,94.35L195.11,94.29L198.31,93.99L199.21,93.87L202.32,93.35L202.44,94.06L201.34,94.25L198.42,94.65L197.56,94.75L194.39,95.07L193.58,95.22L193.20,95.24L193.10,94.67"/><path d="M193.49,97.03L194.44,97.39L194.79,97.57L194.90,98.26L194.06,98.32L193.68,98.29L193.49,97.03L193.24,96.63L193.19,96.51L193.14,96.31L192.99,95.40L192.97,95.23L192.98,95.18L193.00,95.16L193.20,95.24"/><path d="M193.01,95.17L192.99,95.17"/><path d="M192.97,93.94L192.72,93.63L192.66,93.48L192.62,93.33L192.46,92.45L192.44,92.26L192.44,92.19L192.45,92.17L192.63,92.10"/><path d="M192.36,90.78L193.29,90.95L193.64,91.06L193.79,91.79"/><path d="M193.09,88.48L196.28,88.17L197.14,88.07L200.07,87.68L201.18,87.49L201.45,87.58L202.06,87.65"/><path d="M192.32,85.22L195.51,84.90L196.37,84.80L199.31,84.40L200.42,84.21L200.24,83.50L200.80,83.26L201.02,83.21"/><path d="M192.14,84.51L192.98,84.45L196.22,84.14L197.12,84.02L200.24,83.50"/><path d="M193.27,113.30L193.65,113.54L194.52,114.07L194.63,113.97L194.33,113.73L193.48,113.11"/><path d="M195.09,113.24L194.77,112.99L193.89,112.34L193.73,112.71"/><path d="M195.42,112.06L195.36,112.36L194.48,111.92L194.09,111.71L194.20,111.16L195.10,111.81L195.42,112.06L197.76,111.68"/><path d="M194.09,111.71L193.81,110.83L193.78,110.75L193.75,110.70L193.73,110.69L193.72,110.70L193.62,111.01L193.61,111.09L193.62,111.17L193.66,111.37L193.89,112.34"/><path d="M194.20,111.16L193.95,110.22L193.90,110.02L193.89,109.93L193.89,109.83L193.96,109.39L193.99,109.38L194.01,109.42L194.04,109.49L194.32,110.29L194.38,109.58L195.30,110.22L195.63,110.47L196.45,110.36L197.88,110.15"/><path d="M194.38,109.58L194.09,108.60L194.06,108.40L194.05,108.29L194.08,107.77L194.09,107.72L194.10,107.71L194.13,107.73L193.76,100.99L193.84,101.80L193.88,102.00L193.93,102.17L194.21,102.80L195.15,103.31L195.51,103.54L196.33,103.46L199.50,103.10L200.39,102.97L203.48,102.42L203.53,103.01L201.47,103.36L198.43,103.80L195.55,104.14L194.69,104.01L194.30,103.90L194.03,103.42L194.01,103.39L193.99,103.40L193.98,103.44L193.98,103.51L194.02,104.21L194.04,104.35L194.08,104.55L194.39,105.36L195.33,105.92L195.68,106.17L195.70,106.71L198.81,106.30L199.66,106.18L202.55,105.72L203.64,105.52L203.63,104.99L200.72,105.52L197.70,105.95L195.68,106.17"/><path d="M194.13,107.73L194.44,108.49L194.45,107.63L194.15,106.73L194.11,106.53L194.10,106.40L194.09,105.79L194.09,105.73L194.10,105.70L194.13,105.71L194.15,105.75L194.43,106.35L194.39,105.36"/><path d="M194.01,103.40L194.00,103.39"/><path d="M193.68,98.29L193.45,98.08L193.43,98.08L193.42,98.11L193.43,98.27L193.53,99.09L193.56,99.24L193.61,99.42L193.91,100.01L194.05,101.20L193.80,100.85L193.77,100.83L193.76,100.85L193.75,100.91L193.76,100.99"/><path d="M194.05,101.20L194.44,101.26L195.28,101.30L195.21,100.65L196.04,100.58L199.22,100.25L200.12,100.12L203.21,99.58L203.28,100.23L202.18,100.42L199.28,100.85L198.43,100.96L195.28,101.30"/><path d="M193.91,100.01L194.86,100.45L195.21,100.65"/><path d="M193.51,95.23L195.76,95.15L198.27,94.90L200.78,94.50L203.02,93.99"/><path d="M193.64,91.06L194.48,91.00L197.70,90.71L198.60,90.59L201.71,90.06L201.86,90.79"/><path d="M194.02,66.72L194.68,67.10"/><path d="M193.92,66.20L193.23,65.75"/><path d="M195.00,113.44L197.67,112.93"/><path d="M194.63,113.97L197.63,113.36"/><path d="M194.52,114.07L197.63,113.43"/><path d="M194.32,110.29L194.72,110.48L195.60,110.86L195.63,110.47"/><path d="M194.44,108.49L194.84,108.66L195.71,108.96L195.72,108.49L196.54,108.40L198.02,108.19"/><path d="M195.72,108.49L195.38,108.24L194.45,107.63"/><path d="M194.43,106.35L194.83,106.49L195.70,106.71"/><path d="M194.30,103.90L194.21,102.80"/><path d="M194.90,98.26L198.05,97.94L198.91,97.83L201.82,97.42L202.55,97.29L201.24,97.53L198.72,97.93L196.22,98.19L194.15,98.31"/><path d="M194.79,97.57L195.63,97.51L198.82,97.19L199.72,97.07L202.82,96.54L202.92,97.23L203.16,97.18L203.46,97.06"/><path d="M194.39,95.07L194.27,94.35"/><path d="M195.06,68.47L195.43,68.74L196.22,69.29"/><path d="M194.20,66.99L194.57,67.26L195.39,67.83"/><path d="M195.49,68.43L194.87,68.11"/><path d="M195.36,112.36L197.74,111.95"/><path d="M195.60,110.86L197.85,110.51"/><path d="M195.71,108.96L197.99,108.64"/><path d="M195.55,104.14L195.51,103.54"/><path d="M195.76,69.91L196.33,70.14"/><path d="M196.68,72.08L197.21,72.22"/><path d="M197.61,74.57L198.15,74.64"/><path d="M198.90,112.54L199.86,112.35L202.93,111.73L202.83,111.91"/><path d="M202.45,112.36L198.86,113.12"/><path d="M198.89,112.70L201.74,112.13L202.73,111.93"/><path d="M198.86,113.17L201.75,112.56"/><path d="M198.97,111.73L202.13,111.14L203.22,110.92L203.29,110.65L200.22,111.26L198.98,111.48"/><path d="M199.07,110.31L202.40,109.72L203.49,109.51L203.53,109.15L200.45,109.73L199.57,109.89L199.10,109.96"/><path d="M199.21,108.46L202.54,107.90L203.63,107.70L203.64,107.25L204.16,106.37L204.36,106.06"/><path d="M203.64,107.25L200.56,107.82L199.68,107.97L199.24,108.03"/><path d="M198.52,77.34L199.08,77.32"/><path d="M201.34,84.51L200.71,84.34L200.42,84.21"/><path d="M199.40,80.33L199.98,80.21"/><path d="M200.56,91.34L200.53,91.35L202.50,90.88"/><path d="M201.18,87.49L201.02,86.76"/><path d="M202.44,94.06L202.69,94.06L203.05,93.98"/><path d="M202.32,93.35L202.83,92.81L203.03,92.64"/><path d="M201.71,90.06L202.24,89.62L202.44,89.50"/><path d="M202.93,111.73L203.71,110.46"/><path d="M203.29,110.65L204.04,109.39"/><path d="M203.22,110.92L203.66,110.27"/><path d="M203.49,109.51L203.70,109.25L203.93,108.93"/><path d="M203.53,109.15L204.06,108.24L204.26,107.91"/><path d="M203.53,103.01L203.75,102.87L203.96,102.69"/><path d="M203.48,102.42L203.98,101.64L204.18,101.38"/><path d="M203.28,100.23L203.52,100.14L203.78,99.97"/><path d="M203.21,99.58L203.71,98.87L203.91,98.64"/><path d="M202.92,97.23L202.55,97.29L202.92,97.23"/><path d="M203.52,95.71L203.33,95.91L202.82,96.54"/><path d="M203.63,107.70L203.84,107.47L204.06,107.21"/><path d="M204.06,105.13L203.86,105.33L203.64,105.52"/><path d="M204.33,103.87L204.13,104.15L203.63,104.99"/></g><g style="stroke:#000000;stroke-width:0.529"><path d="M197.63,113.46L194.07,114.24L193.94,114.24L193.59,114.01L193.41,114.06L192.06,113.14L192.03,113.01L191.64,112.77L191.33,112.41L191.25,112.00L190.87,111.79L190.53,111.26L190.43,110.57L190.05,110.40L189.69,109.70L189.58,108.76L189.19,108.63L188.82,107.78L188.76,106.95L188.74,106.81L188.70,106.65L188.67,106.58L188.31,106.51L187.94,105.53L187.91,104.78L187.89,104.59L187.83,104.39L187.72,104.09L187.43,104.08L187.06,102.99L187.07,102.34L187.05,102.16L187.00,101.96L186.81,101.35L186.55,101.40L186.20,100.21L186.25,99.68L186.24,99.57L186.22,99.41L185.94,98.42L185.71,98.50L185.37,97.25L185.46,96.84L185.46,96.70L185.44,96.59L185.20,95.62L185.16,95.49L185.13,95.43L185.11,95.40L184.92,95.46L184.60,94.16L184.73,93.89L184.73,93.76L184.70,93.56L184.50,92.67L184.46,92.53L184.41,92.41L184.38,92.40L184.18,92.33L183.90,91.00L184.06,90.87L184.07,90.84L184.07,90.77L184.05,90.57L183.86,89.63L183.82,89.51L183.78,89.39L183.53,89.16L183.35,88.20L183.28,87.84L183.49,87.76L183.47,87.59L183.31,86.67L183.26,86.48L183.20,86.36L182.96,86.03L182.75,84.74L182.98,84.61L182.86,83.83L182.83,83.68L182.78,83.50L182.49,82.99L182.33,81.75L182.57,81.57L182.50,81.03L182.49,80.93L182.43,80.74L182.14,80.09L182.02,78.94L182.28,78.70L182.26,78.47L182.25,78.37L182.20,78.17L181.89,77.41L181.83,76.36L182.05,76.11L182.12,76.05L182.08,75.85L181.77,74.99L181.76,74.06L182.04,73.71L181.77,72.87L181.81,72.09L182.07,71.72L181.90,71.11L181.99,70.48L182.24,70.09L182.15,69.72L182.28,69.26L182.53,68.86L182.51,68.74L183.32,67.44L183.42,67.29L183.61,67.24L183.82,66.94L183.95,66.89L192.01,65.16L192.23,65.30L192.51,65.24L192.66,65.31L193.90,66.14L193.92,66.20L194.31,66.46L194.62,66.77L194.68,67.10L195.06,67.34L195.39,67.83L195.49,68.43L195.87,68.64L196.22,69.29L196.33,70.14L196.45,70.19L196.72,70.32L197.09,71.13L197.17,72.04L197.21,72.22L197.34,72.26L197.60,72.36L197.97,73.31L198.01,74.13L198.05,74.33L198.15,74.64L198.23,74.65L198.49,74.72L198.86,75.79L198.86,76.13L198.85,76.43L198.87,76.60L198.91,76.80L199.08,77.32L199.12,77.32L199.36,77.35L199.72,78.52L199.71,78.80L199.68,79.05L199.69,79.20L199.73,79.40L199.96,80.21L200.21,80.20L200.56,81.44L200.52,81.67L200.48,81.86L200.48,81.99L200.51,82.18L200.75,83.09L200.80,83.25L201.02,83.21L201.34,84.51L201.29,84.67L201.23,84.80L201.22,84.84L201.22,84.96L201.24,85.09L201.46,86.03L201.52,86.21L201.54,86.27L201.57,86.29L201.67,86.29L201.77,86.33L202.06,87.65L201.99,87.75L201.91,87.81L201.90,87.83L201.90,87.89L201.92,88.07L202.11,89.01L202.16,89.20L202.22,89.31L202.33,89.39L202.44,89.50L202.70,90.82L202.62,90.85L202.50,90.88L202.50,90.89L202.51,91.06L202.68,91.99L202.73,92.19L202.78,92.32L202.91,92.47L203.03,92.64L203.25,93.94L203.02,93.99L203.16,94.90L203.20,95.10L203.26,95.26L203.39,95.47L203.52,95.71L203.70,96.96L203.46,97.06L203.54,97.69L203.57,97.89L203.63,98.06L203.77,98.35L203.91,98.64L204.04,99.81L203.78,99.97L203.82,100.40L203.86,100.60L204.18,101.38L204.26,102.45L203.96,102.69L203.99,102.88L204.04,103.07L204.19,103.47L204.33,103.87L204.35,104.82L204.06,105.13L204.36,106.06L204.33,106.88L204.06,107.21L204.26,107.91L204.18,108.58L203.93,108.93L204.04,109.39L203.91,109.89L203.66,110.27L203.71,110.46L203.53,110.78L202.83,111.91L202.73,111.93L202.45,112.36L202.33,112.44L198.86,113.19"/></g></g><g id="Actor_.2"><g style="stroke:#000000;stroke-width:0.176"><path d="M166.83,92.90L167.52,96.30L168.35,99.61L169.27,102.64L170.01,104.65L170.22,105.21L171.15,107.18L172.00,108.43L172.72,108.88L173.28,108.52L173.64,107.36L173.78,105.47L173.68,102.95L173.66,102.75L173.37,99.97L172.85,96.68L172.15,93.29L171.32,89.98L170.40,86.95L169.45,84.38L168.52,82.41L167.67,81.16L166.95,80.70L166.39,81.07L166.03,82.23L165.90,84.12L165.99,86.63L166.30,89.62L166.83,92.90"/><path d="M173.21,112.05L173.89,111.87L174.38,110.83L174.63,108.99L174.65,107.10L174.65,106.44L174.42,103.30L173.97,99.73L173.31,95.92L172.47,92.06L171.50,88.32L170.45,84.92L169.36,82.01L168.30,79.74L167.32,78.22L166.47,77.54"/></g><g style="stroke:#000000;stroke-width:0.529"><path d="M166.77,77.47L166.47,77.54L165.78,77.72L165.29,78.76L165.04,80.60L165.02,83.15L165.25,86.29L165.70,89.85L166.37,93.66L167.20,97.53L168.17,101.26L169.22,104.67L170.31,107.58L171.37,109.85L172.35,111.36L173.21,112.05L174.21,111.83"/></g></g><g id="Actor_.3"><g style="stroke:#000000;stroke-width:0.176"><path d="M150.37,88.35L150.47,88.48L150.27,88.32L150.27,88.32L150.27,88.32L150.04,88.14"/><path d="M154.53,110.67L155.00,110.11L155.26,108.76L155.29,106.71L155.09,104.10L154.78,101.85L154.67,101.11L154.07,97.93L153.31,94.80L152.46,91.91L151.57,89.48L150.70,87.65L149.91,86.57L149.26,86.30"/><path d="M154.61,108.53L154.80,107.72L154.88,106.55L154.84,105.07L154.69,103.33L154.63,102.90L154.44,101.41L154.08,99.38L153.65,97.31L153.15,95.29L152.60,93.39L152.03,91.68L151.45,90.24L150.89,89.11L150.47,88.48"/><path d="M154.49,108.57L154.66,108.31"/></g><g style="stroke:#000000;stroke-width:0.529"><path d="M155.71,110.74L154.53,110.67L153.88,110.40L153.09,109.31L152.22,107.49L151.33,105.06L150.48,102.17L149.72,99.04L149.12,95.86L148.70,92.87L148.50,90.26L148.53,88.20L148.79,86.85L149.26,86.30L150.33,85.74"/></g></g><g id="Actor_.4"><g style="stroke:#000000;stroke-width:0.176"><path d="M173.04,108.47L173.48,107.56L173.68,105.84L173.65,103.43L173.38,100.48L172.88,97.17L172.19,93.71L171.36,90.32L170.43,87.21L169.46,84.58L168.51,82.59L167.65,81.36L166.93,80.98"/><path d="M168.48,84.86L169.01,85.75L169.58,86.99L170.16,88.52L170.73,90.30L170.91,90.97L171.26,92.25L171.74,94.29L172.15,96.36L172.47,98.36L172.69,100.23L172.80,101.89L172.80,101.94L172.80,103.27L172.69,104.33"/><path d="M168.12,84.52L168.22,84.62L168.11,84.59L168.11,84.59"/><path d="M168.22,84.62L168.53,84.95"/><path d="M172.32,104.93L172.55,104.72L172.52,104.82"/><path d="M172.70,104.25L172.55,104.72"/></g><g style="stroke:#000000;stroke-width:0.529"><path d="M173.32,108.41L173.04,108.47L172.40,108.52L171.60,107.71L170.69,106.09L169.73,103.76L168.77,100.87L167.88,97.59L167.11,94.14L166.52,90.73L166.13,87.57L165.97,84.87L166.06,82.79L166.39,81.47L166.93,80.98L167.27,80.91"/></g></g><g id="Actor_.5"><g style="stroke:#000000;stroke-width:0.176"><path d="M165.82,90.88L165.45,88.59L165.07,85.18L164.91,82.22L164.97,79.86L165.27,78.19L165.78,77.29L166.48,77.22L167.34,77.96L168.31,79.50L169.35,81.75L170.42,84.61L171.46,87.94L172.43,91.60L173.27,95.40L173.95,99.18L174.44,102.75L174.71,105.95L174.75,108.15L174.76,108.63L174.58,110.66L174.17,111.95L173.56,112.43L172.78,112.10L171.86,110.95L170.85,109.05L169.78,106.48L168.72,103.36L167.72,99.85L166.81,96.10L166.04,92.28L165.82,90.88"/></g><g style="stroke:#000000;stroke-width:0.529"><path d="M175.70,115.27L174.72,115.48L174.51,115.49L174.31,115.44L173.70,115.15L173.53,115.04L172.85,114.35L172.73,114.19L172.00,113.10L171.23,111.65L170.42,109.85L169.61,107.75L168.80,105.38L168.02,102.79L167.27,100.04L166.94,98.70L166.57,97.19L165.95,94.28L165.40,91.39L164.94,88.57L164.61,86.10L164.58,85.87L164.33,83.35L164.20,81.07L164.18,79.07L164.27,77.38L164.48,76.05L164.52,75.86L164.84,74.90L164.95,74.73L165.38,74.17L165.54,74.04L165.74,73.96L166.27,73.82L175.52,71.83L175.73,71.82L175.93,71.88L176.54,72.16L176.72,72.28L177.39,72.97L177.51,73.13L178.25,74.21L179.02,75.67L179.82,77.46L180.63,79.57L181.44,81.94L182.23,84.52L182.97,87.27L183.67,90.13L184.30,93.03L184.85,95.92L185.30,98.75L185.66,101.45L185.91,103.96L186.05,106.25L186.07,108.25L185.97,109.93L185.77,111.26L185.72,111.46L185.40,112.41L185.29,112.59L184.86,113.15L184.70,113.28L184.50,113.36L183.98,113.50L176.95,115.00"/></g></g><g id="Actor_.6"><g style="stroke:#000000;stroke-width:0.176"><path d="M90.63,107.50L90.64,107.88L90.63,107.92L90.62,107.93L90.59,107.90L90.44,107.64L90.01,107.29L89.59,107.04"/><path d="M90.29,104.79L90.51,105.26L90.64,105.77L90.67,105.90L90.70,106.10L90.70,106.16L90.66,106.35L90.64,106.35L90.63,106.33L90.58,106.24L90.42,105.79L89.99,105.23L89.55,104.73"/><path d="M99.48,98.55L99.00,99.08L97.51,100.76L96.00,102.51L95.38,103.25L94.01,105.02L93.21,106.22L92.31,107.81L92.24,107.58L92.21,107.55L92.18,107.49L92.09,107.25L92.03,107.06L91.99,106.85L91.95,106.37L91.56,105.58L91.59,106.07L91.58,106.14L91.57,106.15L91.54,106.13L91.46,106.01L91.40,105.87L91.37,105.77L91.25,105.10L90.53,103.75L90.40,103.62L90.62,104.16L90.92,104.85L91.03,105.49L91.03,105.63L91.01,105.67L90.96,105.68L90.94,105.67L90.89,105.57L90.85,105.45L90.71,104.90L90.30,104.22L89.88,103.56"/><path d="M92.04,114.72L92.02,114.60L91.96,114.39L91.87,114.10L91.84,114.02L91.80,113.97L91.79,113.96L91.77,113.98L91.71,114.17L91.66,114.18L91.28,114.15L90.86,113.93"/><path d="M91.07,111.59L91.06,111.58"/><path d="M91.05,111.58L91.16,111.62L91.19,111.65"/><path d="M91.20,109.20L91.22,109.47L91.38,110.59L91.62,111.78L91.93,112.92L92.26,113.88L92.35,114.08L92.58,114.56L92.87,114.88L93.07,114.81L93.14,114.53L93.08,114.55L92.82,114.26L92.52,113.63L92.21,112.74L91.93,111.69L91.70,110.58L91.56,109.54L91.52,109.09L91.51,108.69L91.57,108.10L91.71,107.88L91.65,107.77L91.40,107.65L91.23,107.91L91.17,108.54L91.19,108.97L91.20,109.20"/><path d="M90.64,106.35L90.66,106.35"/><path d="M98.41,97.71L97.92,98.09L96.43,99.35L94.94,100.75L94.34,101.35L93.00,102.84L92.24,103.86L91.39,105.25L91.24,104.91L91.73,104.16L92.64,102.90L93.66,101.69L93.74,101.60L94.45,100.87L95.63,99.81"/><path d="M91.03,105.64L90.96,105.68L91.03,105.63"/><path d="M90.53,103.75L91.39,102.76L92.17,102.05L93.53,101.04"/><path d="M90.95,103.05L90.40,103.62"/><path d="M92.71,117.30L92.79,116.93L92.72,116.40L92.69,116.25L92.64,116.08L92.50,115.79L92.47,115.78L92.46,115.82L92.46,116.25L92.42,116.31L92.11,116.61L91.76,116.75"/><path d="M93.14,114.53L93.19,114.36L93.19,113.57L93.09,112.53L92.89,111.36L92.61,110.17L92.29,109.11L91.95,108.28L91.71,107.88"/><path d="M92.24,107.58L92.15,107.31L92.68,106.46L93.59,105.00L92.19,107.18L92.15,107.31"/><path d="M92.31,107.81L92.52,108.20L92.70,108.49L92.67,108.80L92.69,108.97L92.73,109.19L92.85,109.60L92.88,109.67L92.91,109.71L92.93,109.70L93.02,109.63L93.01,109.66L92.98,109.94L93.00,110.42L94.62,108.03L95.74,106.44L96.59,105.31L97.70,103.95L96.96,104.84L94.65,107.06"/><path d="M91.39,105.25L91.56,105.58"/><path d="M104.17,118.60L104.18,117.90L102.25,118.49L100.86,118.81L98.72,119.17L97.49,119.31L95.83,119.41L94.26,119.37L93.39,119.27L93.55,118.51L93.69,117.62L93.58,117.09L93.54,116.87L93.55,116.74L93.59,116.66L93.61,116.65L93.64,116.67L93.70,116.81L93.85,117.33L93.79,118.75L93.84,118.53L93.91,117.64L93.95,116.96L93.93,116.97L93.92,116.53L93.79,116.08L93.75,115.87L93.75,115.78L93.76,115.52L93.78,115.50L93.83,115.56L93.92,115.78L93.93,114.80L93.75,114.38L93.71,114.21L94.86,112.92L95.84,111.87L97.47,110.26L98.18,109.56L99.92,107.81L101.60,105.99L102.14,105.39L102.43,106.00L102.63,106.36L102.91,106.79L102.99,107.00L103.03,107.13L103.22,107.90L103.26,108.14L103.27,108.23L103.26,108.27L103.14,108.41L103.07,108.71L103.05,109.12L103.26,110.20L103.45,110.48L103.57,110.57L103.71,110.53L103.73,110.54L103.79,110.68L103.81,110.79L103.94,111.56L103.97,111.82L103.97,111.95L103.97,112.04L103.91,112.57L103.88,113.20L103.87,113.90L102.09,115.03L100.80,115.73L98.80,116.69L97.66,117.21L96.12,117.85L94.65,118.34L93.84,118.53"/><path d="M93.39,119.27L93.28,119.26"/><path d="M92.65,118.64L92.92,118.15L93.16,117.47L93.08,116.87L93.09,116.78L93.10,116.76L93.12,116.76L93.19,116.82L93.22,116.85L93.28,117.01L93.43,117.68L93.34,118.46L93.31,118.89"/><path d="M100.91,105.43L101.80,104.46L100.38,106.13L99.30,107.31L97.64,109.11L96.70,110.16L95.46,111.62L94.28,112.98L93.62,113.69L93.60,112.94L93.59,112.31L93.44,112.11L93.37,111.93L93.34,111.80L93.27,111.38L93.26,111.21L93.27,111.17L93.36,111.09L93.25,111.09L93.13,110.98L94.14,109.42L95.01,108.21L96.49,106.40L98.74,103.75L100.80,101.27L101.48,102.66L101.89,103.46L102.05,103.82L102.27,104.47L102.31,104.64L102.31,104.68L102.08,104.40L101.94,104.32L101.85,104.39L102.14,105.39"/><path d="M94.45,109.96L94.52,109.89L93.36,111.09L93.35,111.08"/><path d="M93.13,110.98L93.00,110.42"/><path d="M93.01,109.63L93.02,109.63L94.55,107.76L94.79,107.47L94.67,107.63"/><path d="M93.13,109.49L93.12,109.51"/><path d="M92.76,101.58L92.98,101.43"/><path d="M103.87,113.90L103.98,114.87L103.34,115.24L101.32,116.27L99.25,117.13L98.40,117.44L96.44,118.07L95.24,118.42L93.79,118.75"/><path d="M93.95,116.96L96.35,115.35L98.65,113.82L98.40,113.99L99.47,113.56L101.16,112.81"/><path d="M93.92,116.56L94.66,116.08L95.99,115.09L100.25,111.66L101.43,110.65L103.05,109.12"/><path d="M93.92,116.53L93.92,115.78"/><path d="M93.62,113.69L93.70,114.22L94.72,113.12L95.72,112.17L96.84,111.15"/><path d="M93.59,105.00L94.67,103.44L95.46,102.40L96.92,100.69L97.88,99.63L98.94,98.49"/><path d="M95.08,119.48L96.12,119.54L98.19,119.51L99.10,119.46L101.31,119.21L103.48,118.78L104.10,118.62"/><path d="M95.36,109.49L98.23,106.95"/><path d="M95.29,110.01L98.27,107.50L99.79,106.35"/><path d="M94.88,109.52L94.52,109.89"/><path d="M94.61,107.54L95.14,107.04L94.79,107.47"/><path d="M95.14,107.04L95.64,106.41L96.96,104.84"/><path d="M100.60,109.56L99.00,110.57L95.80,112.63"/><path d="M98.99,109.99L95.91,112.15"/><path d="M97.87,110.36L96.04,111.88"/><path d="M96.90,119.92L97.60,120.04L97.56,120.03"/><path d="M97.56,108.48L98.09,108.03L97.46,108.59"/><path d="M97.74,120.06L97.60,120.04L98.18,120.13L100.42,120.37L101.88,120.45L103.93,120.43"/><path d="M98.29,114.06L98.40,113.99"/><path d="M101.09,112.09L98.65,113.82L98.92,113.63L100.83,112.24L102.68,110.71L103.26,110.20"/><path d="M98.09,108.03L99.76,106.51L100.91,105.40L101.67,104.59"/><path d="M98.12,103.43L97.70,103.95L99.12,102.23L100.50,100.53L100.80,101.27"/><path d="M98.90,113.65L98.74,113.77L101.06,112.21L103.57,110.57L103.54,110.59"/><path d="M101.27,101.93L100.77,101.00L100.67,100.80L100.50,100.53"/><path d="M101.07,120.56L103.07,120.71L103.23,120.72"/><path d="M101.80,104.46L101.85,104.39"/><path d="M104.26,117.10L104.34,115.74L104.33,114.24L104.16,112.37L103.83,110.26L103.38,108.06L102.83,105.94L102.22,104.06L101.61,102.56L101.27,101.90L101.28,101.92"/><path d="M101.26,101.89L101.27,101.90L101.25,101.85L101.26,101.89"/><path d="M101.25,101.85L100.81,101.03"/><path d="M102.45,111.30L103.67,110.54"/><path d="M103.64,110.56L103.67,110.54"/><path d="M104.18,117.90L104.30,115.05L104.29,114.81L104.26,114.22L104.23,114.06L104.22,114.06L104.21,114.11L104.14,114.56L104.08,114.76L103.98,114.87"/><path d="M104.23,117.63L104.24,117.41"/><path d="M108.56,99.36L109.77,99.10L110.34,99.64L111.01,100.91L111.72,102.79L112.39,105.10L112.96,107.61L113.37,110.08L113.58,112.26L113.58,113.94L113.36,114.95L112.94,115.21L112.00,115.41"/><path d="M113.50,117.23L113.93,116.74L113.96,116.55L114.15,115.47L114.14,113.53L113.91,111.07L113.78,110.25L113.47,108.30L112.86,105.43L112.12,102.70L111.33,100.33L110.53,98.52L109.81,97.40L109.21,97.07"/><path d="M130.24,92.56L130.63,92.62L131.10,93.08"/><path d="M132.18,95.14L132.75,96.66"/><path d="M132.98,97.29L133.34,98.42L133.86,100.35L134.33,102.37L134.72,104.39L135.02,106.35L135.12,107.26"/><path d="M133.83,100.35L134.30,102.37L134.70,104.41"/><path d="M135.11,111.99L134.86,112.54L134.51,112.70"/><path d="M135.28,109.76L135.20,108.18"/><path d="M134.94,105.79L143.47,103.95L143.76,104.62L135.04,106.50"/><path d="M134.93,105.74L143.46,103.91L143.35,101.96L134.61,103.83"/><path d="M143.35,101.96L143.38,101.95"/><path d="M143.78,104.63L143.80,104.65"/></g><g style="stroke:#000000;stroke-width:0.529"><path d="M132.98,97.29L132.78,96.67L132.21,95.15L131.66,93.95L131.13,93.09L130.66,92.63L130.25,92.56L109.21,97.07L108.78,97.56L108.56,98.83L108.56,99.36L100.81,101.03L99.97,99.45L99.48,98.55L99.21,98.20L98.94,98.49L98.41,97.71L98.22,97.80L96.86,98.79L95.90,99.57L95.63,99.81L94.15,100.64L93.53,101.04L91.84,102.24L90.95,103.05L90.81,103.10L89.88,103.56L89.80,103.67L90.11,104.42L90.29,104.79L89.55,104.73L89.53,105.05L89.92,105.88L90.39,106.71L90.57,107.21L90.60,107.34L90.63,107.50L89.59,107.04L89.64,107.53L90.08,108.28L90.52,108.87L90.58,108.94L90.72,109.19L90.76,109.26L90.81,109.46L90.89,109.90L90.90,110.08L90.89,110.13L90.88,110.15L90.76,110.11L90.37,110.05L90.00,110.11L90.11,110.67L90.56,111.20L90.99,111.54L91.19,111.65L91.14,111.63"/><path d="M109.59,115.94L104.26,117.10L104.17,118.60L104.10,118.62L104.02,119.54L103.93,120.43L103.80,120.74L103.23,120.72L103.15,121.05L101.07,120.56L100.79,120.54L98.50,120.21L96.90,119.92L95.17,119.51L95.08,119.48L94.83,119.47L93.28,119.26L93.31,118.89L92.65,118.64L92.51,118.40L92.63,117.63L92.71,117.30L91.76,116.75L91.60,116.32L91.81,115.71L92.05,115.19L92.04,114.72L91.69,114.50L90.86,113.93L90.71,113.39L91.01,113.02L91.33,112.78L91.39,112.58L91.39,112.44L91.35,112.23L91.24,111.79L91.19,111.65"/><path d="M91.06,111.59L91.08,111.60"/><path d="M135.12,107.26L135.22,108.16L135.31,109.73L135.28,111.02L135.13,111.97L134.88,112.53L134.87,112.54L134.51,112.70L113.50,117.23L112.90,116.91L112.17,115.79L112.00,115.41L110.86,115.66"/><path d="M135.12,107.26L143.35,105.49L143.65,105.38L143.80,104.66L143.50,103.96L143.48,103.90L143.38,101.95L143.59,101.91L143.61,101.89L143.28,100.14L142.85,98.44L142.36,96.99L141.89,95.95L141.47,95.47L132.98,97.29"/></g></g><g id="Actor_.7"><g style="stroke:#000000;stroke-width:0.176"><path d="M147.98,87.30L147.96,87.44L148.01,89.85L148.29,92.77L148.78,96.01L149.45,99.40L150.26,102.74L151.17,105.83L152.11,108.50L153.05,110.58L153.92,111.96L154.67,112.55L155.26,112.33L155.65,111.30L155.83,109.53L155.77,107.12L155.50,104.20L155.01,100.96L154.34,97.56L153.53,94.23L152.62,91.14L151.67,88.47L150.74,86.39L149.87,85.01L149.12,84.42L148.53,84.64L148.14,85.66L147.98,87.30"/><path d="M155.74,115.72L156.30,114.97L156.63,113.39L156.73,111.07L156.59,108.11L156.21,104.68L155.61,100.93L154.83,97.06L153.90,93.26L152.87,89.72L151.79,86.62L150.72,84.12L149.70,82.34L148.80,81.37L148.05,81.25"/></g><g style="stroke:#000000;stroke-width:0.529"><path d="M156.22,115.61L155.74,115.72L154.99,115.60L154.09,114.63L153.07,112.85L152.00,110.34L150.92,107.25L149.89,103.71L148.96,99.91L148.18,96.04L147.58,92.29L147.20,88.85L147.06,85.90L147.16,83.58L147.49,82.00L148.05,81.25L148.75,81.10"/></g></g><g id="Actor_.8"><g style="stroke:#000000;stroke-width:0.176"><path d="M147.98,95.18L147.55,92.55L147.15,89.12L146.97,86.12L147.02,83.70L147.30,81.98L147.79,81.02L148.48,80.88L149.33,81.57L150.29,83.05L151.33,85.24L152.40,88.06L153.44,91.36L154.41,95.00L155.27,98.80L155.96,102.59L156.47,106.18L156.76,109.41L156.82,112.14L156.66,114.22L156.27,115.57L155.67,116.12L154.90,115.84L153.99,114.76L152.98,112.91L151.92,110.39L150.86,107.31L149.85,103.82L148.93,100.08L148.15,96.26L147.98,95.18"/></g><g style="stroke:#000000;stroke-width:0.529"><path d="M146.88,91.35L146.75,90.41L146.46,87.83L146.29,85.47L146.23,83.37L146.29,81.58L146.46,80.13L146.50,79.94L146.79,78.86L147.18,78.17L147.29,77.99L147.45,77.86L147.95,77.59L148.15,77.51L157.40,75.52L157.61,75.51L158.20,75.66L158.40,75.71L158.57,75.83L159.23,76.39L160.06,77.51L160.82,78.85L161.27,79.80L161.62,80.54L162.43,82.55L163.24,84.84L164.04,87.36L164.80,90.06L165.12,91.35L165.51,92.89L166.16,95.78L166.74,98.69L167.23,101.54L167.27,101.85L167.62,104.28L167.90,106.87L168.07,109.23L168.13,111.33L168.08,113.12L167.90,114.57L167.86,114.76L167.57,115.84L167.18,116.52L167.07,116.70L166.91,116.84L166.41,117.11L166.21,117.19L156.96,119.18L156.75,119.19L155.96,118.98L155.79,118.87L155.13,118.30L154.30,117.19L153.54,115.85L152.74,114.16L151.93,112.15L151.12,109.86L150.33,107.34L149.56,104.63L148.86,101.85L148.20,98.91L147.62,96.01L147.14,93.16L146.88,91.35"/></g></g><g id="Actor_.9"><g style="stroke:#000000;stroke-width:0.176"><path d="M228.82,44.67L229.02,44.19L229.07,43.22L228.97,41.86L228.72,40.27L228.48,39.06L228.40,39.53L227.49,36.52L227.57,36.05L227.47,35.81L227.02,34.97L226.65,34.64"/><path d="M227.57,36.05L236.82,34.07L237.03,34.05L237.25,34.08L237.44,34.16L237.58,34.29L237.68,34.44L237.84,34.94L238.22,36.25L238.24,36.46L238.19,36.67L238.08,36.86L237.92,37.00L237.73,37.08L228.48,39.06"/><path d="M227.49,36.52L236.74,34.54L236.95,34.52L237.16,34.57L237.35,34.67L237.49,34.82L237.58,35.00L238.12,36.79"/></g><g style="stroke:#000000;stroke-width:0.529"><path d="M245.86,30.51L226.65,34.64L226.39,34.85L226.26,35.59L226.29,36.77L226.46,38.27L226.77,39.92L227.17,41.54L227.32,42.00L227.63,42.96L228.09,44.02L228.50,44.62L228.82,44.67L273.10,35.16L273.29,34.68L273.34,33.71L273.24,32.35L273.00,30.76L272.64,29.10L272.20,27.56L271.74,26.30L271.30,25.46L270.92,25.13L247.10,30.24"/></g></g><g id="Actor_.10"><g style="stroke:#000000;stroke-width:0.176"><path d="M182.63,42.23L182.67,42.62L182.67,42.72L182.66,42.79L182.64,42.81L182.61,42.79L182.34,42.39L182.27,42.31"/><path d="M182.05,38.96L182.14,39.13L182.43,39.81L182.47,39.87L182.50,39.90L182.52,39.87L182.53,39.80L182.53,39.31L182.52,39.20L182.50,39.07L182.47,38.94L182.40,38.70"/><path d="M182.50,36.18L182.64,36.81L182.72,37.11L182.75,37.24L182.77,37.37L182.78,37.48L182.78,37.57L182.70,37.85L182.68,37.88L182.65,37.86L182.62,37.80L182.58,37.70L182.29,36.80L182.20,36.56"/><path d="M182.41,35.80L182.71,35.35L183.05,34.77"/><path d="M182.61,35.48L182.52,35.62"/><path d="M183.13,46.27L183.13,46.32L183.11,46.34L182.89,46.27"/><path d="M182.66,42.80L182.63,42.80"/><path d="M192.00,32.37L192.27,32.67L185.50,34.94L184.92,36.11L184.54,36.82L184.00,35.97L184.10,36.86L184.14,37.26L184.14,37.34L184.13,37.39L184.11,37.40L184.09,37.39L183.93,37.21L183.89,37.15L183.85,37.06L183.82,36.93L183.78,36.80L183.58,35.74L183.51,35.43L183.07,35.22L183.24,36.22L183.30,36.53L183.33,36.66L183.34,36.77L183.33,36.86L183.32,36.91L183.31,36.92L183.19,36.96L183.16,36.94L183.12,36.88L183.08,36.78L183.05,36.66L182.79,35.63L182.71,35.35"/><path d="M183.51,35.43L183.87,34.77L184.41,33.69L190.26,32.28"/><path d="M183.07,35.22L183.83,34.08L184.02,33.82"/><path d="M184.21,52.56L184.37,52.44L184.41,52.36L184.44,52.35L184.47,52.38L184.49,52.43L184.37,52.44"/><path d="M184.49,52.43L184.54,52.56"/><path d="M186.04,44.98L186.75,47.33L186.62,48.05L186.95,49.71L187.16,51.25L187.22,52.51L187.22,52.55L187.13,53.36L186.90,53.70L186.55,53.50L186.12,52.78L185.66,51.62L185.21,50.14L184.83,48.50L184.56,46.88L184.42,45.45L184.43,44.36L184.59,43.74L184.88,43.65L185.27,44.10L185.72,45.04L185.84,44.32L186.04,44.98L185.72,45.04"/><path d="M186.75,37.50L186.42,36.73L193.15,34.06L193.47,34.70L186.75,37.50L186.12,38.68L185.70,39.36L185.11,37.95L185.11,38.64L185.13,38.88L185.13,38.97L185.11,39.02L185.09,39.03L185.06,38.99L184.85,38.58L184.81,38.49L184.78,38.37L184.74,38.23L184.72,38.10L184.59,37.11L184.54,36.82"/><path d="M184.00,35.97L184.83,34.91L185.20,34.49L185.50,34.94"/><path d="M184.41,33.69L184.16,33.60"/><path d="M185.34,56.34L185.42,55.92L185.44,55.75L185.45,55.70L185.47,55.69L185.50,55.72L185.54,55.80L185.78,56.47"/><path d="M194.27,38.14L188.04,41.13L187.34,42.21L186.87,42.81L186.29,40.99L186.20,41.41L186.19,41.58L186.18,41.63L186.15,41.64L186.12,41.61L186.08,41.53L185.87,40.95L185.83,40.83L185.80,40.69L185.78,40.55L185.76,40.43L185.72,39.62L185.70,39.36"/><path d="M186.42,36.73L186.02,37.07L185.11,37.95"/><path d="M191.87,32.41L185.20,34.49"/><path d="M186.95,59.60L186.90,59.23L186.88,59.10L186.85,58.96L186.81,58.84L186.77,58.75L186.58,58.37L186.57,58.34L186.54,58.30L186.51,58.31L186.50,58.36L186.51,58.69L186.51,59.38"/><path d="M186.29,40.99L187.28,40.35L187.72,40.12L188.04,41.13"/><path d="M187.53,60.47L187.81,60.42L187.77,60.27L187.73,60.18L187.70,60.12L187.52,59.93L187.49,59.94L187.48,59.99L187.48,60.07L187.53,60.47L187.62,61.36"/><path d="M187.81,60.42L187.84,60.53L188.06,61.64"/><path d="M198.64,48.57L198.30,49.05L197.77,49.98L190.79,53.45L190.29,53.30L189.11,53.08L188.84,52.58L188.76,52.47L188.73,52.40L188.69,52.30L188.65,52.18L188.62,52.04L188.51,51.30L188.49,51.17L188.49,51.07L188.50,51.01L188.52,50.99L188.73,51.06L188.79,51.04L188.39,48.94L188.16,48.74L188.10,48.72L188.07,48.69L188.03,48.62L188.00,48.52L187.94,48.33L187.77,47.49L187.75,47.37L187.75,47.27L187.76,47.21L187.90,46.95L187.93,46.84L187.42,44.77L188.49,44.41L188.95,44.31L189.25,45.47L196.02,41.99L195.71,40.88L196.29,40.51L196.36,40.49"/><path d="M186.87,42.81L186.86,43.01L186.81,43.57L186.81,43.66L186.83,43.79L186.85,43.93L186.89,44.06L187.08,44.77L187.12,44.88L187.16,44.95L187.19,44.98L187.21,44.97L187.25,44.89L187.42,44.77L192.08,42.57L196.29,40.51"/><path d="M187.72,40.12L194.32,37.04"/><path d="M190.10,63.16L188.55,62.11L188.38,61.11L188.30,60.67L188.29,60.56L188.29,60.47L188.30,60.42L188.31,60.41L188.44,60.37L188.47,60.39L188.50,60.45L188.54,60.55L188.58,60.67L188.84,61.70L188.92,61.98L189.21,61.53L190.37,62.27L190.85,62.60L198.33,60.36L198.21,60.80L190.69,62.88L190.85,62.60"/><path d="M188.55,62.11L188.11,61.90"/><path d="M189.42,60.77L189.54,59.70L190.73,60.34L191.23,60.65L198.54,57.87L198.52,58.62L191.17,61.27L190.09,60.99L189.42,60.77L189.34,60.53L189.04,59.63L189.01,59.53L188.97,59.47L188.94,59.45L188.92,59.48L188.85,59.76L188.84,59.85L188.85,59.96L188.87,60.09L188.90,60.22L188.98,60.52L189.21,61.53"/><path d="M188.79,51.04L189.36,50.73L190.24,50.09L197.12,46.54L197.46,46.56L198.23,46.47"/><path d="M188.39,48.94L189.52,48.88L190.01,48.91L196.86,45.36L197.12,46.54"/><path d="M188.16,48.74L192.83,46.56"/><path d="M187.93,46.84L188.45,46.37L189.25,45.47"/><path d="M190.69,62.88L189.59,62.34L188.92,61.98"/><path d="M189.54,59.70L189.27,58.78L189.19,58.52L189.15,58.39L189.12,58.26L189.10,58.13L189.09,58.02L189.10,57.53L189.11,57.46L189.13,57.43L189.16,57.46L189.19,57.52L189.49,58.20L189.57,58.37L190.22,58.42L191.25,58.40L191.21,57.49L190.70,57.25L189.51,56.79L189.57,58.37"/><path d="M189.51,56.79L189.22,56.04L189.10,55.74L189.06,55.62L189.03,55.49L189.01,55.35L188.96,54.71L188.95,54.61L188.96,54.54L188.98,54.52L189.01,54.54L189.28,54.94L189.35,55.02L189.11,53.08"/><path d="M189.22,56.04L194.02,53.86"/><path d="M197.30,51.44L198.26,51.01L197.95,51.13L190.93,54.55L189.97,54.89L189.35,55.02"/><path d="M188.96,50.95L193.57,48.76L198.14,46.60L198.13,46.61"/><path d="M188.95,44.31L195.71,40.88"/><path d="M190.93,54.55L190.79,53.45"/><path d="M190.24,50.09L190.01,48.91"/><path d="M191.17,61.27L191.23,60.65"/><path d="M191.25,58.40L198.43,55.29L198.35,54.29L191.21,57.49"/><path d="M192.27,32.67L192.75,33.00L193.83,33.73"/><path d="M193.47,34.70L193.92,34.99L194.40,35.29"/><path d="M193.15,34.06L193.88,34.31L193.95,34.34"/><path d="M197.51,44.39L195.63,45.26"/><path d="M197.24,42.32L196.39,42.12L196.02,41.99"/><path d="M195.47,38.28L196.10,38.58"/><path d="M197.73,61.54L196.35,61.83"/><path d="M196.86,45.36L197.40,44.69L197.76,44.36"/><path d="M198.33,60.36L199.36,58.48"/><path d="M198.21,60.80L198.88,59.75"/><path d="M198.35,54.29L198.89,53.18L199.23,52.57"/><path d="M197.95,51.13L197.77,49.98"/><path d="M198.26,51.01L198.66,50.80"/><path d="M199.16,59.30L199.16,59.30"/><path d="M198.54,57.87L199.12,56.68L199.48,55.99"/><path d="M199.17,57.77L198.80,58.27L198.52,58.62"/><path d="M198.43,55.29L198.73,55.05L199.05,54.73"/></g><g style="stroke:#000000;stroke-width:0.529"><path d="M193.96,62.34L190.10,63.16L189.86,63.07L188.77,62.35L188.11,61.90L188.06,61.64L187.62,61.36L187.08,60.51L187.03,60.22L186.95,59.60L186.51,59.38L185.93,57.97L185.90,57.71L185.86,56.90L185.85,56.78L185.82,56.64L185.78,56.47L185.34,56.34L184.76,54.52L184.76,54.32L184.81,53.76L184.81,53.67L184.80,53.54L184.77,53.40L184.56,52.62L184.54,52.56L184.21,52.56L183.69,50.49L183.73,50.38L183.86,50.12L183.88,50.06L183.87,49.96L183.86,49.84L183.83,49.70L183.67,48.94L183.63,48.81L183.59,48.71L183.56,48.64L183.53,48.61L183.46,48.59L183.24,48.39L182.84,46.29L182.89,46.27L183.13,46.27L183.13,46.16L183.12,46.03L183.00,45.29L182.97,45.15L182.93,45.03L182.90,44.93L182.86,44.86L182.79,44.75L182.52,44.25L182.27,42.31L182.63,42.23L182.62,42.03L182.59,41.84L182.56,41.71L182.53,41.59L182.40,41.29L182.12,40.54L182.05,38.96L182.40,38.70L182.35,38.55L182.08,37.63L182.20,36.56L182.50,36.18L182.41,35.80L183.05,34.77L183.58,33.88L184.02,33.82L184.16,33.60L190.26,32.28L191.28,32.03L191.87,32.41L192.00,32.37L192.81,32.89L193.35,33.25L193.83,33.73L193.95,34.34L194.36,34.52L194.43,34.65"/><path d="M193.94,62.34L196.35,61.83L197.52,61.61L197.73,61.54L198.45,60.47L198.89,59.80L198.88,59.75L199.16,59.30L199.36,58.48L199.17,57.77L199.47,57.37L199.48,55.99L199.30,55.44L199.10,54.90L199.05,54.73L199.40,54.38L199.23,52.57L199.05,52.16L198.86,51.79L198.82,51.69L198.78,51.57L198.75,51.43L198.73,51.29L198.66,50.80L198.97,50.63L198.64,48.57L198.47,48.33L198.31,48.17L198.27,48.11L198.23,48.01L198.20,47.88L198.17,47.74L198.02,46.98L198.00,46.85L198.00,46.75L198.01,46.68L198.03,46.66L198.14,46.60L198.23,46.47L197.76,44.36L197.63,44.33L197.51,44.39L197.48,44.37L197.44,44.30L197.40,44.20L197.37,44.07L197.18,43.33L197.15,43.19L197.14,43.06L197.13,42.97L197.14,42.90L197.20,42.65L197.24,42.32L196.68,40.37L196.36,40.49L196.21,40.05L196.16,39.85L196.14,39.72L196.12,39.60L196.12,39.07L196.10,38.58L195.53,37.02"/></g></g><g><g/><g><path style="fill:#ffffff" d="M26.82,41.03L50.28,41.03L50.28,48.93L26.82,48.93z"/><text xml:space="preserve" fill="#0000ff" stroke-width="0" x="27.80" y="46.46" font-size="5.07" opacity="1.00" font-family="Eurostile">SECTIONS</text></g></g><g id="PMI1.0"><g><path style="stroke:#000000;stroke-width:0.250;stroke-dasharray:2.6 2.6" d="M197.42,124.26L198.65,107.91"/></g><g><path style="fill:#000000" d="M199.65,107.91L199.64,107.81L199.63,107.72L199.60,107.62L199.57,107.53L199.53,107.44L199.48,107.36L199.42,107.28L199.35,107.20L199.28,107.14L199.20,107.08L199.12,107.03L199.03,106.99L198.94,106.95L198.84,106.93L198.74,106.92L198.65,106.91L198.55,106.92L198.45,106.93L198.36,106.95L198.26,106.99L198.18,107.03L198.09,107.08L198.01,107.14L197.94,107.20L197.87,107.28L197.82,107.36L197.77,107.44L197.72,107.53L197.69,107.62L197.67,107.72L197.65,107.81L197.65,107.91L197.65,108.01L197.67,108.11L197.69,108.20L197.72,108.29L197.77,108.38L197.82,108.47L197.87,108.55L197.94,108.62L198.01,108.68L198.09,108.74L198.18,108.79L198.26,108.84L198.36,108.87L198.45,108.89L198.55,108.91L198.65,108.91L198.74,108.91L198.84,108.89L198.94,108.87L199.03,108.84L199.12,108.79L199.20,108.74L199.28,108.68L199.35,108.62L199.42,108.55L199.48,108.47L199.53,108.38L199.57,108.29L199.60,108.20L199.63,108.11L199.64,108.01z"/></g><g><path style="fill:#ffffff" d="M194.83,132.16L199.43,132.16L199.43,124.26L194.83,124.26z"/><path style="stroke:#000000;stroke-width:0.250;stroke-opacity:0.98" d="M194.83,132.16L199.43,132.16L199.43,124.26L194.83,124.26z"/><text xml:space="preserve" fill="#000000" stroke-width="0" x="195.82" y="129.94" font-size="4.20" opacity="1.00" font-family="Eurostile" font-weight="bold">1</text></g></g><g id="PMI4.0"><g><path style="stroke:#000000;stroke-width:0.250;stroke-dasharray:2.6 2.6" d="M174.56,127.14L177.29,108.56"/></g><g><path style="fill:#000000" d="M178.29,108.56L178.29,108.46L178.27,108.36L178.25,108.27L178.22,108.18L178.18,108.09L178.13,108.00L178.07,107.92L178.00,107.85L177.93,107.79L177.85,107.73L177.77,107.68L177.68,107.64L177.58,107.60L177.49,107.58L177.39,107.56L177.29,107.56L177.20,107.56L177.10,107.58L177.00,107.60L176.91,107.64L176.82,107.68L176.74,107.73L176.66,107.79L176.59,107.85L176.52,107.92L176.46,108.00L176.41,108.09L176.37,108.18L176.34,108.27L176.31,108.36L176.30,108.46L176.29,108.56L176.30,108.66L176.31,108.75L176.34,108.85L176.37,108.94L176.41,109.03L176.46,109.11L176.52,109.19L176.59,109.27L176.66,109.33L176.74,109.39L176.82,109.44L176.91,109.48L177.00,109.52L177.10,109.54L177.20,109.55L177.29,109.56L177.39,109.55L177.49,109.54L177.58,109.52L177.68,109.48L177.77,109.44L177.85,109.39L177.93,109.33L178.00,109.27L178.07,109.19L178.13,109.11L178.18,109.03L178.22,108.94L178.25,108.85L178.27,108.75L178.29,108.66z"/></g><g><path style="fill:#ffffff" d="M171.49,135.04L176.47,135.04L176.47,127.14L171.49,127.14z"/><path style="stroke:#000000;stroke-width:0.250;stroke-opacity:0.98" d="M171.49,135.04L176.47,135.04L176.47,127.14L171.49,127.14z"/><text xml:space="preserve" fill="#000000" stroke-width="0" x="172.48" y="132.81" font-size="4.80" opacity="1.00" font-family="Eurostile" font-weight="bold">4</text></g></g><g id="PMI3.0"><g><path style="stroke:#000000;stroke-width:0.250;stroke-dasharray:2.6 2.6" d="M107.78,130.01L110.97,111.47"/></g><g><path style="fill:#000000" d="M111.97,111.47L111.97,111.37L111.95,111.28L111.93,111.18L111.89,111.09L111.85,111.00L111.80,110.91L111.74,110.84L111.68,110.76L111.60,110.70L111.53,110.64L111.44,110.59L111.35,110.55L111.26,110.51L111.17,110.49L111.07,110.48L110.97,110.47L110.87,110.48L110.78,110.49L110.68,110.51L110.59,110.55L110.50,110.59L110.42,110.64L110.34,110.70L110.26,110.76L110.20,110.84L110.14,110.91L110.09,111.00L110.05,111.09L110.01,111.18L109.99,111.28L109.98,111.37L109.97,111.47L109.98,111.57L109.99,111.67L110.01,111.76L110.05,111.85L110.09,111.94L110.14,112.03L110.20,112.10L110.26,112.18L110.34,112.24L110.42,112.30L110.50,112.35L110.59,112.39L110.68,112.43L110.78,112.45L110.87,112.47L110.97,112.47L111.07,112.47L111.17,112.45L111.26,112.43L111.35,112.39L111.44,112.35L111.53,112.30L111.60,112.24L111.68,112.18L111.74,112.10L111.80,112.03L111.85,111.94L111.89,111.85L111.93,111.76L111.95,111.67L111.97,111.57z"/></g><g><path style="fill:#ffffff" d="M104.67,137.91L109.52,137.91L109.52,130.01L104.67,130.01z"/><path style="stroke:#000000;stroke-width:0.250;stroke-opacity:0.98" d="M104.67,137.91L109.52,137.91L109.52,130.01L104.67,130.01z"/><text xml:space="preserve" fill="#000000" stroke-width="0" x="105.66" y="135.69" font-size="4.60" opacity="1.00" font-family="Eurostile" font-weight="bold">3</text></g></g><g id="PMI5.0"><g><path style="stroke:#000000;stroke-width:0.250;stroke-dasharray:2.6 2.6" d="M247.61,20.26L245.88,35.76"/></g><g><path style="fill:#000000" d="M246.88,35.76L246.88,35.67L246.86,35.57L246.84,35.47L246.81,35.38L246.76,35.29L246.71,35.21L246.66,35.13L246.59,35.06L246.52,34.99L246.44,34.93L246.35,34.88L246.26,34.84L246.17,34.81L246.08,34.78L245.98,34.77L245.88,34.76L245.78,34.77L245.69,34.78L245.59,34.81L245.50,34.84L245.41,34.88L245.33,34.93L245.25,34.99L245.18,35.06L245.11,35.13L245.05,35.21L245.00,35.29L244.96,35.38L244.93,35.47L244.90,35.57L244.89,35.67L244.88,35.76L244.89,35.86L244.90,35.96L244.93,36.06L244.96,36.15L245.00,36.24L245.05,36.32L245.11,36.40L245.18,36.47L245.25,36.54L245.33,36.60L245.41,36.65L245.50,36.69L245.59,36.72L245.69,36.75L245.78,36.76L245.88,36.76L245.98,36.76L246.08,36.75L246.17,36.72L246.26,36.69L246.35,36.65L246.44,36.60L246.52,36.54L246.59,36.47L246.66,36.40L246.71,36.32L246.76,36.24L246.81,36.15L246.84,36.06L246.86,35.96L246.88,35.86z"/></g><g><path style="fill:#ffffff" d="M245.66,20.26L250.44,20.26L250.44,12.36L245.66,12.36z"/><path style="stroke:#000000;stroke-width:0.250;stroke-opacity:0.98" d="M245.66,20.26L250.44,20.26L250.44,12.36L245.66,12.36z"/><text xml:space="preserve" fill="#000000" stroke-width="0" x="246.65" y="18.04" font-size="4.49" opacity="1.00" font-family="Eurostile" font-weight="bold">5</text></g></g><g id="PMI2.0"><g><path style="stroke:#000000;stroke-width:0.250;stroke-dasharray:2.6 2.6" d="M195.47,24.74L194.76,40.62"/></g><g><path style="fill:#000000" d="M195.76,40.62L195.76,40.52L195.75,40.42L195.72,40.33L195.69,40.24L195.65,40.15L195.60,40.06L195.54,39.98L195.47,39.91L195.40,39.84L195.32,39.79L195.24,39.74L195.15,39.69L195.05,39.66L194.96,39.64L194.86,39.62L194.76,39.62L194.67,39.62L194.57,39.64L194.47,39.66L194.38,39.69L194.29,39.74L194.21,39.79L194.13,39.84L194.06,39.91L193.99,39.98L193.93,40.06L193.88,40.15L193.84,40.24L193.81,40.33L193.78,40.42L193.77,40.52L193.76,40.62L193.77,40.72L193.78,40.81L193.81,40.91L193.84,41.00L193.88,41.09L193.93,41.17L193.99,41.25L194.06,41.32L194.13,41.39L194.21,41.45L194.29,41.50L194.38,41.54L194.47,41.57L194.57,41.60L194.67,41.61L194.76,41.62L194.86,41.61L194.96,41.60L195.05,41.57L195.15,41.54L195.24,41.50L195.32,41.45L195.40,41.39L195.47,41.32L195.54,41.25L195.60,41.17L195.65,41.09L195.69,41.00L195.72,40.91L195.75,40.81L195.76,40.72z"/></g><g><path style="fill:#ffffff" d="M193.23,24.74L198.07,24.74L198.07,16.84L193.23,16.84z"/><path style="stroke:#000000;stroke-width:0.250;stroke-opacity:0.98" d="M193.23,24.74L198.07,24.74L198.07,16.84L193.23,16.84z"/><text xml:space="preserve" fill="#000000" stroke-width="0" x="194.22" y="22.52" font-size="4.58" opacity="1.00" font-family="Eurostile" font-weight="bold">2</text></g></g><g><g/><g><image x="126.776001" y="182.680679" height="22.812309" width="26.691179" xlink:href="input_files/b2086e493b88e831_image_0.jpg" mask="url(#mask0)"/></g></g><g><g/><g><image x="8.735293" y="51.941189" height="42.545361" width="60.087143" xlink:href="input_files/b2086e493b88e831_image_1.jpg"/><path style="stroke:#000000;stroke-width:0.125;stroke-opacity:0.98" d="M8.74,51.94L68.82,51.94L68.82,94.49L8.74,94.49z"/></g></g><g><g/><g><path style="stroke:#0000ff;stroke-width:0.125;fill:#0000ff" d="M104.51,2.61L200.01,2.61L200.01,12.76L104.51,12.76z"/><text xml:space="preserve" fill="#ffffff" stroke-width="0" x="105.78" y="9.59" font-size="6.53" opacity="1.00" font-family="Eurostile">INPUT SHAFT WITH PINION GEAR</text></g></g><g/><g id="paperID" visibility="hidden" opacity="0.00" transform="scale(0.000100)"><path style="stroke:#000000;stroke-width:0.500;fill:#e6e6e6;fill-rule:evenodd" d="M-2000.00,-2000.00L2297.00,-2000.00L2297.00,2210.00L-2000.00,2210.00zM0.00,0.00L297.00,0.00L297.00,210.00L0.00,210.00z"/><path style="fill:#000000;fill-opacity:0.118" d="M3.00,210.00L297.00,210.00L297.00,3.00L300.00,3.00L300.00,213.00L3.00,213.00z"/></g><g><g><path style="stroke:#000000;stroke-width:0.353;fill:#0000ff" d="M199.23,149.40L281.86,149.40L281.86,155.82L199.23,155.82z"/><text xml:space="preserve" fill="#ffffff" stroke-width="0" x="201.70" y="154.34" font-size="4.88" opacity="1.00" font-family="Eurostile" font-weight="bold">BOM ID</text><text xml:space="preserve" fill="#ffffff" stroke-width="0" x="222.64" y="154.34" font-size="4.92" opacity="1.00" font-family="Eurostile" font-weight="bold">DESCRIPTION</text><text xml:space="preserve" fill="#ffffff" stroke-width="0" x="272.44" y="154.34" font-size="4.91" opacity="1.00" font-family="Eurostile" font-weight="bold">Qty</text><path style="stroke:#000000;stroke-width:0.353" d="M220.17,149.40L220.17,155.82"/><path style="stroke:#000000;stroke-width:0.353" d="M269.97,149.40L269.97,155.82"/></g><g id="Line1"><path style="stroke:#000000;stroke-width:0.353;fill:#ffffff" d="M199.23,155.82L281.86,155.82L281.86,162.24L199.23,162.24z"/><text xml:space="preserve" fill="#000000" stroke-width="0" x="201.70" y="160.75" font-size="4.27" opacity="1.00" font-family="Eurostile">1</text><text xml:space="preserve" fill="#000000" stroke-width="0" x="222.64" y="160.75" font-size="5.03" opacity="1.00" font-family="Eurostile">HELICAL GEAR</text><text xml:space="preserve" fill="#000000" stroke-width="0" x="272.44" y="160.75" font-size="4.27" opacity="1.00" font-family="Eurostile">1</text><path style="stroke:#000000;stroke-width:0.353" d="M220.17,155.82L220.17,162.24"/><path style="stroke:#000000;stroke-width:0.353" d="M269.97,155.82L269.97,162.24"/></g><g id="Line2"><path style="stroke:#000000;stroke-width:0.353;fill:#f0f0ff" d="M199.23,162.24L281.86,162.24L281.86,168.65L199.23,168.65z"/><text xml:space="preserve" fill="#000000" stroke-width="0" x="201.70" y="167.17" font-size="4.67" opacity="1.00" font-family="Eurostile">2</text><text xml:space="preserve" fill="#000000" stroke-width="0" x="222.64" y="167.17" font-size="5.06" opacity="1.00" font-family="Eurostile">PINION INPUT GEAR</text><text xml:space="preserve" fill="#000000" stroke-width="0" x="272.44" y="167.17" font-size="4.27" opacity="1.00" font-family="Eurostile">1</text><path style="stroke:#000000;stroke-width:0.353" d="M220.17,162.24L220.17,168.65"/><path style="stroke:#000000;stroke-width:0.353" d="M269.97,162.24L269.97,168.65"/></g><g id="Line3"><path style="stroke:#000000;stroke-width:0.353;fill:#ffffff" d="M199.23,168.65L281.86,168.65L281.86,175.07L199.23,175.07z"/><text xml:space="preserve" fill="#000000" stroke-width="0" x="201.70" y="173.59" font-size="4.69" opacity="1.00" font-family="Eurostile">3</text><text xml:space="preserve" fill="#000000" stroke-width="0" x="222.64" y="173.59" font-size="5.06" opacity="1.00" font-family="Eurostile">PINION BEVEL GEAR
</text><text xml:space="preserve" fill="#000000" stroke-width="0" x="272.44" y="173.59" font-size="4.27" opacity="1.00" font-family="Eurostile">1</text><path style="stroke:#000000;stroke-width:0.353" d="M220.17,168.65L220.17,175.07"/><path style="stroke:#000000;stroke-width:0.353" d="M269.97,168.65L269.97,175.07"/></g><g id="Line4"><path style="stroke:#000000;stroke-width:0.353;fill:#f0f0ff" d="M199.23,175.07L281.86,175.07L281.86,181.49L199.23,181.49z"/><text xml:space="preserve" fill="#000000" stroke-width="0" x="201.70" y="180.01" font-size="4.90" opacity="1.00" font-family="Eurostile">4</text><text xml:space="preserve" fill="#000000" stroke-width="0" x="222.64" y="180.01" font-size="5.05" opacity="1.00" font-family="Eurostile">ROLLER BEARING</text><text xml:space="preserve" fill="#000000" stroke-width="0" x="272.44" y="180.01" font-size="4.27" opacity="1.00" font-family="Eurostile">1</text><path style="stroke:#000000;stroke-width:0.353" d="M220.17,175.07L220.17,181.49"/><path style="stroke:#000000;stroke-width:0.353" d="M269.97,175.07L269.97,181.49"/></g><g id="Line5"><path style="stroke:#000000;stroke-width:0.353;fill:#ffffff" d="M199.23,181.49L281.86,181.49L281.86,187.91L199.23,187.91z"/><text xml:space="preserve" fill="#000000" stroke-width="0" x="201.70" y="186.43" font-size="4.58" opacity="1.00" font-family="Eurostile">5</text><text xml:space="preserve" fill="#000000" stroke-width="0" x="222.64" y="186.43" font-size="5.06" opacity="1.00" font-family="Eurostile">INPUT SHAFT</text><text xml:space="preserve" fill="#000000" stroke-width="0" x="272.44" y="186.43" font-size="4.27" opacity="1.00" font-family="Eurostile">1</text><path style="stroke:#000000;stroke-width:0.353" d="M220.17,181.49L220.17,187.91"/><path style="stroke:#000000;stroke-width:0.353" d="M269.97,181.49L269.97,187.91"/></g></g><g id="hotspot.0" ident="" onmouseover="ShowHotSpot(evt,&apos;0&apos;)" onmouseout="HideHotSpot(evt,&apos;0&apos;)" onmousemove="ShowToolTip(evt,&apos;0&apos;,&quot;REDIRECT TO SECTIONS PAGE&quot;)" opacity="0"><a xlink:href="section.svg"><path style="fill:#00ff00;fill-rule:evenodd" d="M50.10,49.14L26.95,49.14L26.95,41.34L50.10,41.34z"/></a></g><g id="hotspot.1" ident="" onmouseover="ShowHotSpot(evt,&apos;1&apos;)" onmouseout="HideHotSpot(evt,&apos;1&apos;)" onmousemove="ShowToolTip(evt,&apos;1&apos;,&quot;ICON&quot;)" opacity="0"><a xlink:href="home.svg"><path style="fill:#00ff00;fill-rule:evenodd" d="M153.36,205.47L127.01,205.47L127.01,182.96L153.36,182.96z"/></a></g><g id="hotspot.2" ident="" onmouseover="ShowHotSpot(evt,&apos;2&apos;)" onmouseout="HideHotSpot(evt,&apos;2&apos;)" onmousemove="ShowToolTip(evt,&apos;2&apos;,&quot;REDIRECT TO SECTIONS PAGE&quot;)" opacity="0"><a xlink:href="section.svg"><path style="fill:#00ff00;fill-rule:evenodd" d="M68.99,51.91L68.96,94.86L8.73,94.86L8.83,51.89z"/></a></g><g id="hotspot.3" ident="" onmouseover="ShowHotSpot(evt,&apos;3&apos;)" onmouseout="HideHotSpot(evt,&apos;3&apos;)" onmousemove="ShowToolTip(evt,&apos;3&apos;,&quot;&quot;)" opacity="0"><path style="fill:#00ff00;fill-rule:evenodd" d="M199.23,155.82L199.23,162.24L281.86,162.24L281.86,155.82zM192.98,65.65L194.59,66.93L196.82,70.76L197.49,72.65L197.80,72.98L198.12,74.58L198.76,75.54L199.08,77.46L199.72,78.41L200.05,80.33L200.36,80.66L200.65,82.92L201.32,84.53L201.24,85.10L201.96,87.05L202.24,89.64L202.62,90.26L202.58,91.00L203.20,93.74L203.20,95.40L203.57,96.01L203.53,97.08L203.87,98.57L203.85,99.97L204.20,101.46L204.18,107.85L203.88,110.20L202.60,112.44L198.64,113.60L198.40,115.68L198.03,115.68L197.83,113.61L194.81,114.26L193.62,114.26L191.73,112.94L189.76,110.11L188.18,106.27L187.89,104.64L187.21,103.72L186.89,101.80L186.53,101.52L185.96,98.57L185.66,98.23L185.33,96.00L185.02,95.67L184.04,91.01L183.40,87.80L183.44,87.07L183.06,86.44L182.77,83.54L182.33,81.96L182.46,81.01L182.01,79.08L182.11,70.54L182.77,68.63L183.31,67.58L184.57,66.92L192.06,65.35zM198.13,120.12L197.73,120.77L197.37,120.77L197.71,118.34L198.08,118.34zM197.86,123.70L199.43,124.11L199.74,124.43L199.62,132.48L194.57,132.48L194.57,124.24L197.13,123.90L197.42,123.50z"/></g><g id="hotspot.4" ident="" onmouseover="ShowHotSpot(evt,&apos;4&apos;)" onmouseout="HideHotSpot(evt,&apos;4&apos;)" onmousemove="ShowToolTip(evt,&apos;4&apos;,&quot;&quot;)" opacity="0"><path style="fill:#00ff00;fill-rule:evenodd" d="M199.23,162.24L199.23,168.65L281.86,168.65L281.86,162.24zM198.46,17.01L198.34,25.06L195.78,25.37L195.49,26.14L195.18,26.14L194.89,25.37L192.97,25.06L192.97,16.82L198.14,16.69zM195.52,31.28L195.15,31.28L195.15,28.83L195.52,28.83zM193.32,33.35L194.60,35.06L194.84,33.95L195.20,33.94L195.09,36.59L195.88,38.14L196.16,40.10L197.15,41.98L197.39,44.30L197.75,44.58L198.12,45.85L198.00,46.79L198.75,49.33L198.73,50.74L199.40,53.84L199.31,58.94L198.11,61.28L197.39,61.84L191.30,63.10L189.49,63.07L187.58,61.46L185.94,57.99L185.35,56.34L184.98,55.44L184.69,53.16L184.02,51.92L183.74,49.32L183.06,47.42L183.10,45.83L182.42,43.59L182.46,41.69L182.05,39.13L182.43,38.78L182.42,36.32L183.41,34.43L184.57,33.67L190.34,32.39L191.39,32.38z"/></g><g id="hotspot.5" ident="" onmouseover="ShowHotSpot(evt,&apos;5&apos;)" onmouseout="HideHotSpot(evt,&apos;5&apos;)" opacity="0"><path style="fill:#00ff00;fill-rule:evenodd" d="M199.23,168.65L199.23,175.07L281.86,175.07L281.86,168.65zM131.03,93.08L133.12,97.41L141.53,95.65L141.86,95.98L142.79,98.59L143.44,101.87L143.77,104.66L143.43,105.71L135.96,107.18L135.34,107.53L135.15,112.13L134.78,112.72L114.89,117.13L113.07,117.11L112.10,115.85L110.72,115.84L106.25,116.80L104.33,117.44L103.79,120.73L103.40,121.01L102.20,120.96L93.48,119.44L92.51,118.39L92.62,117.46L91.97,117.11L92.02,114.87L91.00,114.23L91.03,113.09L91.38,112.32L90.30,111.05L90.28,110.44L90.67,110.15L90.73,109.45L89.66,107.52L90.36,107.29L90.43,106.91L89.68,105.60L89.65,105.00L90.03,104.72L89.93,103.70L91.67,102.54L98.40,97.91L99.02,98.65L99.35,98.60L100.92,101.23L108.50,99.55L108.89,97.38L129.59,92.82L130.66,92.79zM109.89,120.12L109.50,120.77L109.13,120.77L109.47,118.34L109.84,118.34zM108.79,125.78L108.17,125.78L108.55,123.88L108.86,123.48L109.23,123.48zM108.16,129.60L109.59,129.86L109.91,130.18L109.78,138.23L104.42,138.23L104.42,129.99L107.53,129.60L107.89,128.59L108.26,128.59z"/></g><g id="hotspot.6" ident="" onmouseover="ShowHotSpot(evt,&apos;6&apos;)" onmouseout="HideHotSpot(evt,&apos;6&apos;)" onmousemove="ShowToolTip(evt,&apos;6&apos;,&quot;Boss-Extrude11&quot;)" opacity="0"><path style="fill:#00ff00;fill-rule:evenodd" d="M199.23,175.07L199.23,181.49L281.86,181.49L281.86,175.07zM177.06,72.63L179.24,76.20L182.12,84.19L184.35,93.46L185.96,104.33L185.96,110.51L185.32,112.75L184.28,113.63L175.30,115.53L174.11,115.55L172.55,114.22L171.23,112.02L168.67,105.31L166.44,96.67L164.86,87.71L164.54,85.15L164.52,75.96L165.42,74.31L176.04,72.00zM175.92,120.03L175.31,120.03L175.65,117.70L176.02,117.70zM175.52,123.06L175.05,125.26L174.68,125.26L174.76,123.93L175.02,122.82zM176.73,127.31L176.60,135.36L171.23,135.36L171.23,127.12L176.41,126.99z"/></g><g id="hotspot.7" ident="" onmouseover="ShowHotSpot(evt,&apos;7&apos;)" onmouseout="HideHotSpot(evt,&apos;7&apos;)" onmousemove="ShowToolTip(evt,&apos;7&apos;,&quot;&quot;)" opacity="0"><path style="fill:#00ff00;fill-rule:evenodd" d="M199.23,181.49L199.23,187.91L281.86,187.91L281.86,181.49zM250.58,12.54L250.45,20.58L247.86,20.87L247.63,22.97L247.26,22.97L247.03,20.87L245.40,20.59L245.40,12.34L250.26,12.22zM271.95,26.97L273.23,32.40L273.15,35.29L231.35,44.33L228.37,44.65L227.18,41.69L226.56,38.79L226.46,34.96L271.01,25.32zM246.99,28.08L246.62,28.08L246.66,26.06L246.97,25.65L247.34,25.65z"/></g></g></svg>