<?xml version="1.0" encoding="UTF-8" standalone="yes"?><svg xmlns="http://www.w3.org/2000/svg" xmlns:xlink="http://www.w3.org/1999/xlink" width="297.000mm" height="210.000mm" viewBox="0.000000 0.000000 297.000000 210.000000" stroke-linejoin="round" stroke-linecap="round" fill="none" fill-rule="evenodd"><desc>Composer Export</desc><script type="text/ecmascript"><![CDATA[
if(typeof(top) != "undefined")
{
	top.ShowPaper = ShowPaper;
}
function ShowHotSpot(evt,hotspotid)
{
	var svgDocument = evt.target.ownerDocument;
	var strId = "hotspot."+hotspotid;
	var hotspot = svgDocument.getElementById(strId);
	if(hotspot)
		hotspot.setAttribute("opacity",".5");
}
function HideHotSpot(evt,hotspotid)
{
	var svgDocument = evt.target.ownerDocument;
	var strId = "hotspot."+hotspotid;
	var hotspot = svgDocument.getElementById(strId);
	if(hotspot)
		hotspot.setAttribute("opacity","0");

	var toolTip = svgDocument.getElementById('ToolTip');
	if(toolTip)
		toolTip.setAttribute("visibility","hidden");
}
function ShowToolTip(evt,hotspotid,strTooltip)
{
	if(strTooltip=="")
	return;

	// change text
	var svgDocument = evt.target.ownerDocument;
	var tiptext = svgDocument.getElementById('ToolTipText');
	if( !tiptext )
	return;
	tiptext.firstChild.nodeValue = " " + strTooltip + "  " ;

	// show tooltip before, else some refresh issue

	var toolTip = svgDocument.getElementById('ToolTip');
	if(!toolTip)
	return;

	toolTip.setAttribute("visibility","visible");
	toolTip.setAttribute("opacity",".95");

	// move tooltip
	// get viewbox

	var root = svgDocument.documentElement;
	var vbox = (root.getAttribute("viewBox")).split(' ');
	var x0 = parseFloat(vbox[0]);
	var y0 = parseFloat(vbox[1]);
	var vboxW = parseFloat(vbox[2]);
	var vboxH = parseFloat(vbox[3]);

	// get default width of svg

	var strW = root.getAttribute("width");
	var svgW = parseFloat(strW);
	if(strW.indexOf('mm') != -1)
	svgW *= 3.779;

	var strH = root.getAttribute("height");
	var svgH = parseFloat(strH);
	if(strH.indexOf('mm') != -1)
	svgH *= 3.779;  	// 96 dpi  -> 96/25.4 = 3.779

	// update the viewbox / width / height if svg is embedded in html with zoom fit all
	var realx0 = x0;
	var realy0 = y0;
	var realvboxW = vboxW;
	var realvboxH = vboxH;
	var realsvgW = svgW;
	var realsvgH = svgH;

	if ((typeof(top) == "undefined") || (typeof(top.svgctl1) != "undefined")) // embedded in html
	{
		// get window size in pxl

		svgW = window.innerWidth;
		svgH = window.innerHeight;

		// calculate real viewbox

		realsvgW = svgW;
		realsvgH = svgH;
		if((svgW / svgH) > (vboxW / vboxH))
		{
			realvboxW = (vboxH * svgW) / svgH;
			realvboxH = vboxH;
			realx0 = x0 - (realvboxW - vboxW)/2 ;
		}
		else
		{
			realvboxH = (vboxW * svgH) / svgW;
			realvboxW = vboxW;
			realy0 = y0 - (realvboxH - vboxH)/2 ;
		}
	}

	// get user zoom/pan

	var newScale = root.currentScale;
	var translation = root.currentTranslate;

	// transform pxl to user unit

	var xPos = (((evt.clientX+10- translation.x)/newScale) * realvboxW)/realsvgW  + realx0 ;
	var yPos = (((evt.clientY+5- translation.y)/newScale) * realvboxH)/ realsvgH  + realy0 ;
	var scaleForWidth = ( (1 / newScale) * realvboxH) / realsvgH;

	// move tooltip

	toolTip.setAttribute("transform", "translate(" + xPos + "," + yPos + ")" );

	// resize tooltip

	var fontsize = 12;
	tiptext.setAttribute("font-size",fontsize*scaleForWidth);
	tiptext.setAttribute("y", fontsize*scaleForWidth);
	var tipBG = svgDocument.getElementById('ToolTipBG');
	var outline = tiptext.getBBox();
	if(tipBG)
	{
		tipBG.setAttribute("stroke-width", 1*scaleForWidth);
		tipBG.setAttribute("width", Number(outline.width) );
		tipBG.setAttribute("height", Number(outline.height) + fontsize*.5*scaleForWidth );
	}
	var ToolTipShadow = svgDocument.getElementById('ToolTipShadow');
	if(ToolTipShadow)
	{
		ToolTipShadow.setAttribute("width", Number(outline.width) );
		ToolTipShadow.setAttribute("height", Number(outline.height) + fontsize*.5*scaleForWidth );
		ToolTipShadow.setAttribute("x", 3*scaleForWidth);
		ToolTipShadow.setAttribute("y", 3*scaleForWidth);
	}
}
function ShowPaper()
{
  var svgDocument = getDocument();
  var paper = svgDocument.getElementById("paperID");
  if(paper)
  {
    paper.setAttribute("transform","scale(1)");
    paper.setAttribute("opacity","1");
    paper.setAttribute("visibility","visible");
  }
  var svg = svgDocument.getRootElement();
  if(svg)
  {
    svg.setAttribute("width","307.000mm");
    svg.setAttribute("height","220.000mm");
    svg.setAttribute("viewBox","-5.000000 -5.000000 307.000000 220.000000");
  }
}
]]></script><defs><mask id="mask0" x="0" y="0" height="100%" width="100%"><image x="129.650894" y="181.805298" height="23.812441" width="24.324390" xlink:href="output_files/8400dbc500b1a354_mask_0.jpg"/></mask></defs><g><path style="fill:#000000;fill-opacity:0.098;fill-rule:evenodd" d="M262.00,40.27L261.70,41.90L261.71,44.93L262.24,50.21L260.92,50.47L260.16,45.97L259.91,43.88L259.63,43.39L259.64,40.61L259.89,39.31L260.33,38.94L260.94,38.94zM250.61,42.83L250.57,47.78L251.29,53.48L250.23,53.57L249.79,51.41L249.53,49.60L249.19,44.93L249.51,43.18L249.95,42.55L250.33,42.55zM264.85,46.71L265.59,51.94L267.40,58.94L268.74,62.30L268.63,63.10L268.21,63.09L267.41,62.04L265.84,58.17L264.56,52.97L264.04,49.86L264.05,46.54L264.58,46.44zM270.09,46.92L269.90,46.23L270.00,46.21zM270.29,47.61L270.09,46.92L270.26,47.06zM270.87,49.51L270.68,48.82L270.78,48.80zM271.06,50.20L270.87,49.51L271.04,49.65zM271.39,51.32L271.20,50.63L271.30,50.61zM243.87,51.91L243.83,52.53L244.08,56.08L244.35,57.38L243.57,57.72L243.29,57.14L243.05,55.30L243.05,51.73L243.58,51.62zM271.58,52.01L271.39,51.32L271.56,51.46zM228.80,55.04L230.36,58.93L230.36,59.79L229.49,59.97L228.26,59.98L227.50,56.60L227.50,54.32L228.01,54.23zM273.41,59.42L274.15,64.63L274.17,69.65L273.54,70.84L269.68,71.90L268.63,71.91L269.25,71.21L269.76,66.46L268.84,60.21L269.12,59.94L272.26,59.18L273.14,59.15zM240.80,60.92L240.65,60.80L240.72,59.94zM241.07,61.95L240.80,60.92L240.95,61.03zM241.30,62.23L242.79,70.85L242.79,76.38L242.53,77.16L242.02,77.68L235.46,79.41L233.89,79.42L234.77,78.73L235.01,77.41L235.01,72.93L234.64,67.71L234.90,67.46L241.18,65.96L241.50,65.74L241.07,61.95zM258.25,62.84L259.38,62.54L260.42,69.82L260.42,73.27L259.91,74.84L259.29,75.29L258.77,75.28L259.13,74.31L259.12,68.78zM250.60,65.38L251.34,70.59L251.35,75.61L250.88,76.70L250.22,76.91L250.56,75.34L250.57,72.41L249.70,65.13L250.32,65.09zM146.55,65.11L147.15,65.17L147.21,65.46L146.86,65.45zM148.17,67.23L148.98,68.77L148.89,69.83L133.82,70.68L133.82,69.81L147.94,68.60L147.97,68.27L147.66,67.74L139.28,68.00L135.63,68.00L147.34,66.71L147.93,66.46zM225.44,67.95L225.68,69.56L225.70,73.28L225.48,73.58L209.86,77.66L209.63,78.99L209.33,79.47L192.43,83.82L190.63,84.16L190.42,83.57L189.91,83.89L179.79,86.48L176.08,87.28L176.17,83.81L175.74,81.65L175.83,80.70L179.47,79.67L189.95,77.11L191.66,76.83L208.82,72.47L209.32,71.68L225.22,67.73zM133.84,68.52L132.79,68.54L133.58,68.25L134.99,68.26zM256.01,70.14L254.89,70.44L254.88,68.24L255.75,68.25zM149.59,70.46L149.98,72.26L134.60,72.76L134.69,71.70L141.10,71.11L148.67,70.66L148.92,70.33zM150.53,73.17L150.79,74.83L144.47,75.00L135.65,75.07L135.42,74.47L135.99,74.04L136.18,73.71L149.45,73.25L149.69,72.93L150.26,72.87zM153.40,75.46L154.14,76.81L155.22,79.77L154.95,80.03L153.02,80.29L152.85,79.14L152.85,75.31L153.12,75.24zM151.37,75.94L151.56,77.69L136.40,77.66L136.42,77.10L137.45,76.28L150.49,76.10L150.73,75.78L151.26,75.76zM133.12,78.12L134.18,79.92L135.51,83.31L135.49,83.88L132.89,84.67L132.61,84.38L132.37,82.77L132.37,77.91L132.65,77.83zM152.34,79.12L152.34,80.54L137.18,80.52L137.28,80.04L137.97,79.39L151.28,79.23L151.72,78.57L152.05,78.61zM175.74,81.65L175.93,84.60L175.67,85.99L175.42,86.25L157.22,90.89L157.25,87.70L156.96,84.94L174.54,80.44L175.40,80.42zM123.06,81.70L123.30,85.37L123.57,87.25L123.23,87.49L122.69,87.55L122.26,84.59L122.24,82.06L122.46,81.47L122.78,81.41zM153.12,81.97L153.30,83.29L137.96,83.29L139.25,82.26L152.32,82.25L152.32,81.81L152.86,81.69zM108.77,79.48L109.22,78.10L110.09,78.10L110.07,83.81L110.34,85.88L110.59,88.82L110.26,89.05L109.74,89.09L109.53,88.78L108.78,83.04zM153.91,85.07L153.89,86.24L138.73,86.13L139.53,85.61L153.10,85.36L153.10,84.92L153.64,84.80zM100.05,88.06L100.49,90.55L101.77,96.78L103.88,103.60L103.64,103.54L102.03,99.89L100.48,93.92L99.97,90.81L99.95,87.95zM154.68,89.08L144.21,89.26L139.50,89.24L140.31,88.72L153.61,88.82L154.17,87.75L154.41,87.70zM108.61,89.69L108.41,89.00L108.51,88.98zM108.80,90.38L108.61,89.69L108.77,89.83zM155.21,91.32L155.17,92.37L147.56,92.37L148.47,92.11L140.31,92.12L140.81,91.83L153.82,91.61L154.38,91.39L154.91,90.81zM155.72,94.17L155.63,94.96L152.50,95.22L140.79,95.28L140.79,94.98L142.11,94.68L142.39,94.43L143.43,94.18L154.83,94.18L155.44,93.67zM128.89,94.96L129.78,94.94L130.55,99.88L130.57,105.95L129.95,106.66L129.44,106.65L129.77,105.41L129.77,101.44zM137.04,96.07L136.25,96.35L136.17,95.48L136.70,95.16L137.04,95.20zM155.88,97.57L141.31,98.13L141.31,97.83L142.46,97.61L142.67,97.31L152.24,97.03L155.43,96.85L155.96,96.24zM117.73,98.30L118.00,98.03L118.90,98.05L119.67,103.25L119.92,108.26L119.61,110.02L118.53,110.80L118.02,110.78L118.37,110.34L118.63,109.30L118.63,105.07zM142.90,100.13L144.99,99.88L154.58,99.62L155.87,99.35L156.23,98.84L156.14,99.90L154.06,100.14L146.54,100.40L142.95,100.38zM111.37,100.66L112.15,107.14L111.91,110.61L111.29,111.55L106.95,112.67L106.95,111.88L107.24,111.39L107.48,105.84L106.64,100.63L110.77,99.58L111.13,99.36zM156.48,102.03L155.98,102.32L143.40,103.07L143.38,102.75L144.99,102.48L155.87,101.96L156.37,101.14L156.49,101.17zM114.13,103.79L115.26,103.49L115.27,105.68L114.39,105.69zM143.24,104.83L149.22,104.63L155.87,104.03L156.50,103.26L156.50,103.84L155.97,104.39L143.27,105.35L142.37,105.13L142.47,104.53zM156.53,105.40L156.02,105.74L156.38,105.03zM143.26,106.88L145.24,106.88L156.02,105.74L155.88,106.11L146.28,107.14L142.70,107.18L142.37,106.94L142.38,106.35L142.72,106.31zM152.41,107.83L155.70,107.12L155.71,108.01L155.18,108.78L154.59,109.23L142.39,112.34L141.16,112.05L141.16,111.65L141.93,110.98L141.92,110.75L142.90,110.80L143.79,110.52L142.21,109.96L142.21,109.46L143.01,109.98L144.21,109.99L153.90,107.92zM152.30,107.98L150.60,108.09L150.71,107.94L152.41,107.83zM150.49,108.24L148.78,108.35L148.90,108.20L150.60,108.09zM143.26,108.69L144.47,108.70L148.78,108.35L148.68,108.50L144.73,108.95L142.97,108.98L142.38,108.75L142.38,108.17L142.72,108.12z"/><g id="Actor_.0"><g style="stroke:#000000;stroke-width:0.176"><path d="M226.75,57.97L226.67,57.51L226.40,55.32L226.30,53.52L226.38,52.19L226.64,51.40L227.06,51.19L227.61,51.58L228.29,52.54L229.04,54.03L229.83,55.97L230.63,58.26L231.39,60.78L232.07,63.43L232.64,66.04L233.07,68.51L233.35,70.70L233.43,72.19L233.44,72.51L233.36,73.84L233.11,74.63L232.69,74.83L232.13,74.45L231.46,73.48L230.71,72.00L229.92,70.06L229.12,67.77L228.36,65.24L227.68,62.60L227.11,59.98L226.75,57.97"/><path d="M226.41,48.58L227.02,48.95L227.74,49.90L228.56,51.41L229.41,53.36L230.30,55.72L231.16,58.37L231.97,61.22L232.70,64.14L233.31,67.02L233.78,69.73L234.09,72.16L234.23,74.23L234.19,75.83L233.97,76.91L233.58,77.42"/></g><g style="stroke:#000000;stroke-width:0.529"><path d="M233.95,77.32L233.58,77.42L233.05,77.33L232.38,76.67L231.61,75.44L230.77,73.71L229.89,71.53L229.01,69.01L228.17,66.25L227.40,63.35L226.73,60.43L226.18,57.63L225.97,56.30L225.79,55.04L225.57,52.78L225.52,50.94L225.65,49.59L225.95,48.79L226.41,48.58L226.70,48.51"/></g></g><g id="Actor_.1"><g style="stroke:#000000;stroke-width:0.176"><path d="M153.32,82.03L153.14,81.25L152.78,79.30L152.59,77.62L152.57,76.36L152.73,75.60L153.05,75.42L153.51,75.83L153.93,76.56L154.07,76.79L154.68,78.23L155.30,80.03L155.88,82.04L156.06,82.84L156.36,84.11L156.72,86.06L156.91,87.74L156.93,89.00L156.78,89.76L156.46,89.94L156.00,89.53L155.44,88.57L154.82,87.13L154.20,85.33L153.62,83.32L153.32,82.03"/><path d="M152.52,74.30L152.79,74.23"/><path d="M154.45,76.89L153.98,75.82L153.53,75.01"/><path d="M155.42,79.59L155.87,81.14L156.29,82.74"/><path d="M157.13,90.91L157.27,90.39L157.33,89.60"/><path d="M157.16,87.30L156.94,85.88"/><path d="M174.86,86.60L175.44,86.45L175.73,86.07L175.86,85.15L175.82,83.74L175.60,81.93L175.23,79.86L174.73,77.66L174.13,75.49L173.47,73.49L172.81,71.79L172.18,70.52L171.63,69.75L171.19,69.55L170.42,69.75"/><path d="M171.60,68.78L171.21,68.41"/><path d="M172.52,70.37L173.03,71.53"/><path d="M174.06,74.43L174.54,76.07L174.99,77.77"/><path d="M176.25,85.34L176.24,86.33L176.15,87.06"/><path d="M175.98,82.70L175.72,81.13"/><path d="M185.14,64.75L184.67,64.87"/><path d="M185.05,64.27L184.81,64.48"/><path d="M186.75,66.37L186.25,65.41L185.80,64.73"/><path d="M187.81,68.98L188.34,70.55"/><path d="M189.53,84.17L189.94,84.07"/><path d="M190.08,77.48L189.73,75.76L189.31,73.99"/><path d="M190.17,84.53L190.42,84.31"/><path d="M190.67,82.97L190.66,81.90L190.56,80.60"/><path d="M205.74,61.58L205.24,60.63L204.79,59.95"/><path d="M209.68,77.82L209.67,77.10L209.56,75.80L209.37,74.32L209.09,72.69L209.03,72.40L208.74,70.96L208.32,69.20L207.85,67.45L207.35,65.76L206.82,64.19L206.29,62.79L205.77,61.59L205.42,60.93"/><path d="M206.80,64.19L207.33,65.76"/><path d="M209.16,79.75L209.42,79.52"/><path d="M209.07,72.70L208.72,70.97L208.30,69.21"/><path d="M209.66,78.19L209.65,77.12L209.55,75.82"/></g><g style="stroke:#000000;stroke-width:0.529"><path d="M204.40,59.56L204.07,59.47L204.41,59.56L204.81,59.96L205.27,60.64L205.42,60.93L221.16,56.96L221.60,57.16L222.15,57.92L222.78,59.19L223.45,60.89L223.57,61.27L224.10,62.89L224.70,65.07L225.20,67.27L225.58,69.34L225.79,71.14L225.84,72.55L225.71,73.48L225.41,73.85L209.68,77.82L209.68,78.17L209.60,78.98L209.43,79.52L209.16,79.75L208.78,79.84L190.17,84.53L189.82,84.45L189.53,84.17L175.70,87.66L175.34,87.50L174.94,87.05L174.86,86.60L156.90,91.12L156.58,91.03L156.20,90.64L155.77,89.96L155.31,89.01L154.83,87.85L154.35,86.49L153.88,85.00L153.44,83.42L153.05,81.81L152.72,80.24L152.47,78.76L152.30,77.41L152.21,76.26L152.22,75.34L152.32,74.68L152.51,74.31L152.52,74.30L170.42,69.75L170.47,69.13L170.63,68.59L170.89,68.34L182.60,65.39"/><path d="M204.07,59.47L185.06,64.26L184.79,64.50L184.67,64.87L183.82,65.09"/></g></g><g id="Actor_.2"><g style="stroke:#000000;stroke-width:0.176"><path d="M226.96,51.43L227.48,51.63L228.14,52.45L228.89,53.84L229.69,55.72L230.10,56.87L230.50,58.00L231.28,60.54L231.98,63.22L232.57,65.89L233.01,68.41L233.07,68.91L233.28,70.63L233.38,72.44L233.28,73.74L232.99,74.47"/><path d="M232.45,71.27L232.54,70.58L232.54,69.63L232.45,68.45L232.31,67.35L232.27,67.09L232.02,65.59L231.69,64.01L231.30,62.39L230.86,60.79L230.39,59.26L229.90,57.86L229.77,57.53L229.41,56.64L228.94,55.64L228.50,54.88L228.11,54.41"/><path d="M228.22,54.53L228.01,54.42"/><path d="M232.24,71.41L232.38,71.35L232.30,71.53"/><path d="M232.38,71.35L232.46,71.16"/></g><g style="stroke:#000000;stroke-width:0.529"><path d="M233.18,74.42L232.54,74.57L231.95,74.06L231.24,72.95L230.46,71.30L229.65,69.21L228.85,66.78L228.11,64.15L227.46,61.46L226.94,58.85L226.58,56.47L226.39,54.44L226.40,52.87L226.59,51.85L226.96,51.43L227.28,51.35"/></g></g><g id="Actor_.3"><g style="stroke:#000000;stroke-width:0.176"><path d="M225.69,54.69L225.71,54.88L226.11,57.52L226.66,60.38L227.35,63.35L228.14,66.31L229.00,69.14L229.89,71.71L230.15,72.34L230.79,73.93L231.65,75.70L232.43,76.95L233.11,77.63L233.66,77.71L234.05,77.19L234.28,76.09L234.32,74.45L234.18,72.35L233.86,69.87L233.38,67.10L232.76,64.17L232.02,61.18L231.19,58.28L230.30,55.57L229.40,53.16L228.63,51.41L228.52,51.16L227.70,49.64L226.96,48.67L226.34,48.28L225.87,48.50L225.56,49.32L225.43,50.69L225.48,52.57L225.69,54.69"/></g><g style="stroke:#000000;stroke-width:0.529"><path d="M231.01,44.78L233.11,44.24L233.66,44.19L233.81,44.23L234.39,44.56L234.91,45.12L235.00,45.23L235.57,46.06L236.18,47.15L236.82,48.49L237.48,50.06L238.15,51.82L238.81,53.74L239.46,55.79L240.08,57.93L240.38,59.06L240.67,60.13L241.20,62.35L241.68,64.54L242.09,66.66L242.28,67.81L242.43,68.69L242.68,70.57L242.85,72.29L242.94,73.81L242.93,75.09L242.84,76.12L242.81,76.26L242.63,77.03L242.28,77.65L242.17,77.75L241.82,77.94L241.68,78.00L234.54,79.80L234.38,79.81L234.24,79.78L233.81,79.67L233.68,79.59L233.19,79.18L232.56,78.38L231.97,77.42L231.34,76.20L230.69,74.74L230.03,73.07L229.36,71.23L228.70,69.24L228.06,67.14L227.46,64.96L226.90,62.75L226.39,60.54L225.95,58.38L225.57,56.30L225.27,54.34L225.06,52.53L224.97,51.41L224.93,50.91L224.89,49.51L224.94,48.35L225.08,47.45L225.11,47.30L225.33,46.68L225.41,46.55L225.72,46.21L225.83,46.10L225.98,46.04L229.78,45.09"/></g></g><g id="Actor_.4"><g style="stroke:#000000;stroke-width:0.176"><path d="M128.21,74.76L128.26,74.83L128.46,75.13L128.48,75.15L128.49,75.13L128.50,75.08L128.43,74.55"/><path d="M128.15,72.05L128.20,72.30L128.24,72.71L128.24,72.78L128.23,72.81L128.21,72.81L128.19,72.78L127.98,72.40L127.92,72.31"/><path d="M127.74,70.09L127.81,70.21L128.03,70.67L128.05,70.71L128.07,70.73L128.09,70.70L128.09,70.65L128.07,70.28L128.04,70.10L127.95,69.82"/><path d="M127.68,68.15L127.98,68.83L128.00,68.88L128.03,68.91L128.04,68.90L128.05,68.85L128.05,68.57L128.04,68.46L128.00,68.28L127.87,67.88"/><path d="M127.74,66.52L128.04,67.28L128.09,67.38L128.11,67.38L128.14,67.10L128.12,66.94L127.92,66.23"/><path d="M127.91,65.22L128.20,66.06L128.26,66.18L128.28,66.19L128.34,65.98L128.33,65.84L128.09,64.92"/><path d="M128.19,64.28L128.48,65.17L128.54,65.31L128.57,65.34L128.58,65.33L128.64,65.21L128.64,65.09L128.60,64.90L128.37,63.96"/><path d="M129.09,80.25L129.13,80.25L129.30,80.37L129.32,80.36L129.32,80.26L129.30,80.13"/><path d="M128.60,77.43L128.65,77.46L128.83,77.67L128.85,77.68L128.86,77.66L128.86,77.59L128.81,77.26"/><path d="M128.85,77.68L128.85,77.67"/><path d="M129.24,62.53L128.57,63.71L128.89,64.73L128.92,64.80L128.95,64.84L128.96,64.85L129.04,64.79L129.05,64.69L128.80,63.56L129.06,63.51L129.74,62.30L136.91,60.63L142.09,59.52"/><path d="M128.37,63.94L128.57,63.71"/><path d="M129.06,63.51L129.36,64.57L129.39,64.65L129.44,64.72L129.42,64.70"/><path d="M128.80,63.56L129.54,62.45"/><path d="M129.87,83.09L129.87,83.17L129.85,83.19L129.71,83.17"/><path d="M142.09,60.04L136.26,61.14L130.21,62.40L130.34,62.47L129.92,63.22L129.64,63.69L129.34,63.55L129.55,64.65L129.55,64.70L129.54,64.73L129.44,64.72L131.30,66.35L131.25,66.16L131.05,65.18L131.34,64.73L131.79,63.97L131.63,63.75L131.27,64.07L130.67,64.67L131.05,65.18"/><path d="M130.67,64.67L130.80,65.59L130.80,65.69L130.78,65.69L130.63,65.51L130.56,65.34L130.31,64.25L130.59,63.79L131.02,63.02L130.88,62.88L136.97,61.82L142.08,61.01"/><path d="M129.64,63.69L129.92,64.77L129.99,64.93L130.01,64.95L130.12,65.03L130.14,65.00L130.13,64.90L129.96,63.92L130.31,64.25"/><path d="M129.96,63.92L130.53,63.25L130.88,62.88"/><path d="M129.34,63.55L129.88,62.82L130.21,62.40"/><path d="M130.34,62.47L137.56,61.02L142.08,60.20"/><path d="M129.74,62.30L129.63,62.32"/><path d="M131.30,66.35L131.36,66.49L131.50,66.70L131.53,66.71L131.54,66.63L131.44,65.78L131.85,66.47L132.02,67.41L132.07,67.61L132.13,67.76L132.28,68.03L132.31,68.05L132.32,68.04L132.33,68.00L132.27,67.24L132.70,68.09L133.02,67.67L133.50,66.94L133.32,66.58L132.92,66.80L132.27,67.24"/><path d="M131.44,65.78L132.07,65.26L132.45,64.99L138.61,64.29L145.75,63.59L146.44,63.88"/><path d="M131.02,63.02L138.30,61.81L142.08,61.24"/><path d="M132.44,93.70L132.47,93.66L132.49,93.66L132.50,93.67"/><path d="M135.96,95.60L135.93,95.58L135.22,93.95L134.49,91.93L133.79,89.64L133.16,87.23L132.65,84.84L132.29,82.63L132.09,80.74L132.08,79.28L132.24,78.35L132.58,78.00L133.07,78.26L133.68,79.11L134.37,80.49L135.10,82.33L135.84,84.58L136.49,86.87L137.06,89.29L137.50,91.60L137.79,93.67L137.90,95.36L137.82,96.57L137.57,97.22L137.15,97.27L136.60,96.72L136.61,96.72"/><path d="M131.85,66.47L132.15,66.03L132.61,65.28L139.96,64.49L145.93,63.94L145.75,63.59"/><path d="M132.45,64.99L132.61,65.28"/><path d="M131.63,63.75L137.76,62.87L142.08,62.32"/><path d="M131.79,63.97L139.10,62.97L142.08,62.62"/><path d="M133.19,96.61L133.29,96.49L133.31,96.43L133.33,96.41L133.35,96.43L133.38,96.50"/><path d="M133.36,96.45L133.29,96.49"/><path d="M150.80,74.37L150.12,73.89L149.70,73.55L143.71,73.61L136.31,73.73L135.77,74.34L135.41,74.68L134.95,73.42L134.90,73.71L134.89,73.87L134.88,73.87L134.85,73.85L134.81,73.75L134.63,73.27L134.58,73.07L134.49,72.23L134.04,71.09L134.02,71.46L134.02,71.60L134.02,71.65L134.00,71.67L133.98,71.65L133.96,71.61L133.79,71.23L133.71,70.94L133.58,70.02L133.14,69.02L133.82,68.66L134.23,68.51L134.42,68.92L133.91,69.62L133.58,70.02"/><path d="M132.70,68.09L132.84,68.99L132.89,69.18L132.95,69.35L133.09,69.65L133.12,69.69L133.15,69.71L133.16,69.63L133.15,69.47L133.14,69.02"/><path d="M133.50,66.94L140.87,66.35L146.86,65.95L146.67,65.53L147.31,65.74"/><path d="M133.32,66.58L139.50,66.05L146.67,65.53"/><path d="M134.30,99.24L134.23,99.07L134.21,99.04L134.19,99.03L134.18,99.05L134.16,99.14L134.09,99.35"/><path d="M134.49,72.23L134.84,71.86L135.36,71.20L142.75,70.94L148.75,70.79L149.18,71.15L149.90,71.67"/><path d="M134.04,71.09L134.74,70.83L135.17,70.73L135.36,71.20"/><path d="M134.42,68.92L141.80,68.51L147.80,68.24L147.61,67.77L140.43,68.13L134.23,68.51"/><path d="M133.92,61.28L135.64,60.86L142.09,59.42"/><path d="M135.25,101.84L135.13,101.54L135.08,101.45L135.06,101.46L135.06,101.50L135.05,101.61L135.01,101.91"/><path d="M135.41,74.68L135.46,75.43L135.53,75.73L135.69,76.19L135.75,76.30L135.77,76.30L135.79,76.19L135.87,75.98L136.32,77.33L136.69,77.04L137.26,76.48L137.07,75.92L143.27,75.89L150.44,75.89L150.62,76.48L151.02,76.79L151.69,77.22"/><path d="M135.87,75.98L136.62,75.91L137.07,75.92"/><path d="M134.95,73.42L135.68,73.25L136.12,73.21L136.31,73.73"/><path d="M135.17,70.73L141.38,70.48L148.56,70.27L148.75,70.79"/><path d="M136.82,106.31L136.80,105.65L136.81,105.61L136.83,105.61L136.85,105.65L137.01,105.98L137.07,106.15L137.11,106.34"/><path d="M135.92,104.24L135.94,103.87L135.94,103.72L135.94,103.68L135.95,103.66L135.97,103.67L136.00,103.72L136.20,104.21"/><path d="M136.73,97.64L136.73,97.58L136.11,96.52L137.24,96.23"/><path d="M136.73,97.58L136.60,96.72L137.83,96.41"/><path d="M137.23,96.20L136.10,96.48L135.96,95.60L137.09,95.32"/><path d="M136.32,77.33L136.33,77.49L136.32,77.91L136.34,78.07L136.39,78.28L136.54,78.73L136.61,78.90L136.63,78.92L136.67,78.84L136.77,78.72L137.54,78.74L138.00,78.81L138.18,79.40L145.55,79.46L151.51,79.54L151.89,79.81L152.53,80.18"/><path d="M138.18,79.40L137.59,79.90L137.21,80.15L136.77,78.72"/><path d="M136.62,75.91L143.59,75.84L151.02,75.78"/><path d="M136.12,73.21L142.33,73.08L144.66,73.05L150.02,72.96L149.51,72.99L144.66,73.05"/><path d="M137.69,108.09L137.63,107.32L137.64,107.28L137.65,107.27L137.67,107.29L137.69,107.32L137.85,107.63L137.91,107.82L137.98,108.16"/><path d="M138.06,83.09L137.64,81.61L138.43,81.71L138.90,81.84L145.06,81.93L152.18,82.04L152.34,82.67L146.41,82.56L139.07,82.45L138.46,82.88L138.06,83.09L138.05,83.19L137.99,83.45L137.98,83.50L137.99,83.58L138.03,83.78L138.18,84.32L138.24,84.47L138.27,84.51L138.28,84.52L138.32,84.52L138.47,84.58L138.86,86.09L138.84,86.17L138.76,86.34L138.75,86.38L138.75,86.45L138.79,86.65L138.93,87.19L138.98,87.36L139.03,87.43L139.08,87.45L139.24,87.61L139.61,89.13L139.58,89.18L139.47,89.25L139.45,89.28L139.45,89.34L139.49,89.53L139.64,90.17L139.70,90.31L139.77,90.39L139.95,90.64L140.77,90.98L141.26,91.25L141.40,91.86L148.60,91.96L154.42,92.01L154.74,92.10L155.26,92.14"/><path d="M137.21,80.15L137.20,80.28L137.17,80.63L137.18,80.77L137.23,80.98L137.39,81.50L137.44,81.64L137.47,81.67L137.48,81.67L137.52,81.63L137.64,81.61L152.78,81.60"/><path d="M138.00,78.81L144.19,78.85L151.34,78.93L151.51,79.54"/><path d="M136.99,78.73L137.44,78.72L136.99,78.73"/><path d="M137.44,78.72L144.48,78.69L151.90,78.68"/><path d="M137.26,76.48L144.64,76.46L150.62,76.48"/><path d="M138.52,109.54L138.42,108.69L138.42,108.64L138.43,108.62L138.46,108.65L138.59,108.84L138.65,108.98L138.70,109.17L138.80,109.65"/><path d="M139.29,110.65L139.15,109.73L139.16,109.64L139.19,109.65L139.30,109.78L139.36,109.90L139.42,110.09L139.58,110.80"/><path d="M138.44,108.62L138.43,108.63"/><path d="M138.86,86.09L139.28,85.93L139.92,85.57L139.75,84.95L152.97,85.20L153.41,84.86L153.69,84.72"/><path d="M138.47,84.58L139.27,84.78L139.75,84.95"/><path d="M141.05,84.52L141.38,84.52L138.32,84.52L138.46,84.52"/><path d="M139.07,82.45L138.90,81.84"/><path d="M139.99,111.40L139.82,110.43L139.82,110.31L139.84,110.30L139.95,110.38L139.97,110.41L140.03,110.55L140.30,111.58"/><path d="M139.84,110.30L139.83,110.30"/><path d="M140.58,93.62L140.86,95.08L141.31,95.06L142.01,94.93L141.90,94.33L141.41,94.03L140.58,93.62L140.39,93.29L140.30,93.17L140.27,93.10L140.22,92.91L140.11,92.38L140.09,92.21L140.09,92.16L140.10,92.14L140.24,92.16L140.28,92.14L139.95,90.64"/><path d="M140.24,92.16L147.78,92.16L155.04,92.15"/><path d="M139.61,89.13L140.03,89.01L140.69,88.73L147.95,88.86L153.81,88.95L154.15,89.10L154.70,89.23"/><path d="M139.24,87.61L140.06,87.88L140.55,88.11L140.69,88.73"/><path d="M139.92,85.57L153.12,85.82L153.47,86.01L154.05,86.23"/><path d="M139.95,59.73L142.09,59.20"/><path d="M141.65,112.44L140.62,111.78L140.41,110.76L140.41,110.62L140.42,110.60L140.52,110.61L140.54,110.63L140.60,110.76L140.90,111.82L141.15,111.77L142.23,112.53"/><path d="M141.15,111.77L140.91,110.64L140.91,110.54L140.99,110.48L141.01,110.49L141.07,110.60L141.38,111.62L141.85,111.89L142.62,112.31L142.71,112.22L142.31,111.91L141.59,111.38L141.32,110.24L141.31,110.12L141.38,109.99L141.40,109.99L141.44,110.05L141.48,110.15L141.77,111.05L141.92,110.62L142.66,111.18L143.08,111.52L148.65,110.47L155.06,109.14"/><path d="M140.62,111.78L140.31,111.64"/><path d="M140.90,111.82L141.85,112.38"/><path d="M156.52,104.80L156.27,105.24L155.86,105.98L149.25,106.69L143.51,107.21L143.05,106.83L142.26,106.24L141.97,105.40L141.92,105.22L141.88,105.01L141.87,104.68L141.87,104.62L141.88,104.60L141.90,104.61L141.93,104.66L142.15,105.12L142.21,105.24L142.14,104.16L141.82,103.31L141.76,103.03L141.72,102.62L141.72,102.55L141.73,102.51L140.65,95.16L140.75,95.67L140.80,95.86L140.85,95.99L140.92,96.10L141.12,96.51L141.36,97.90L141.81,97.92L142.30,97.89L143.57,97.88L141.81,97.92"/><path d="M143.20,102.74L149.06,102.50L155.80,102.14L155.83,102.58L150.22,102.91L143.25,103.23L143.20,102.74L142.72,102.37L141.91,101.82L141.59,101.05L141.54,100.86L141.51,100.73L141.46,100.32L141.46,100.24L141.46,100.19L141.47,100.19L141.50,100.20L141.70,100.50L141.75,100.56L141.57,99.26L141.29,98.65L141.23,98.50L141.18,98.30L141.11,97.82L141.10,97.67L141.11,97.65L141.13,97.66L141.31,97.87L141.36,97.90"/><path d="M141.12,96.51L141.95,96.97L142.44,97.30L148.40,97.27L155.28,97.18L155.35,97.71L155.63,97.69L155.85,97.63"/><path d="M140.65,95.16L140.64,95.00L140.64,94.96L140.67,94.96L140.82,95.07L140.86,95.08L155.24,94.98L154.94,94.95L149.16,94.96L142.01,94.93"/><path d="M141.40,91.86L140.71,92.07L140.28,92.14"/><path d="M141.26,91.25L147.32,91.34L154.31,91.41L154.42,92.01"/><path d="M153.81,88.95L153.68,88.34L140.55,88.11"/><path d="M141.38,111.62L141.59,111.38"/><path d="M141.92,110.62L141.63,109.48L141.62,109.34L141.66,109.15L141.68,109.14L141.70,109.15L141.72,109.20L141.75,109.27L142.05,110.10L142.15,109.50L142.91,110.08L143.34,110.44L143.30,110.68L149.98,109.60L155.36,108.63"/><path d="M141.77,111.05L142.25,111.30L143.02,111.69L149.63,110.38L154.65,109.29"/><path d="M142.15,109.50L141.83,108.38L141.81,108.23L141.85,107.95L141.87,107.95L141.92,108.05L142.22,108.81L142.70,109.02L143.47,109.31L143.49,108.99L143.04,108.62L142.26,108.03L141.95,107.05L141.91,106.86L141.90,106.75L141.91,106.48L141.91,106.43L141.93,106.42L141.95,106.45L141.98,106.50L142.27,107.18L142.26,106.24"/><path d="M142.05,110.10L142.53,110.34L143.30,110.68"/><path d="M142.22,108.81L142.26,108.03"/><path d="M143.51,107.21L143.52,107.59L142.75,107.36L142.27,107.18"/><path d="M142.21,105.24L142.69,105.38L143.44,105.55L143.42,105.11L149.21,104.74L155.89,104.22L155.89,104.59L156.14,104.39L156.34,104.19"/><path d="M143.42,105.11L142.95,104.74L142.14,104.16"/><path d="M143.25,103.23L142.51,103.13L142.04,103.02L141.98,102.93L141.77,102.55L141.74,102.51L141.73,102.51"/><path d="M142.04,103.02L141.91,101.82"/><path d="M141.57,99.26L142.39,99.77L142.88,100.12L142.95,100.65L142.22,100.63L141.75,100.56"/><path d="M141.48,100.18L141.47,100.19"/><path d="M142.30,97.89L142.53,97.87L142.44,97.30"/><path d="M141.90,94.33L147.91,94.37L154.84,94.38L155.25,93.84L155.51,93.56"/><path d="M141.38,84.52L142.47,84.52L141.38,84.52"/><path d="M142.47,84.52L143.67,84.51"/><path d="M142.62,112.31L146.61,111.38"/><path d="M142.71,112.22L148.22,110.98L152.61,109.90"/><path d="M143.02,111.69L143.08,111.52"/><path d="M143.34,110.44L148.96,109.57L155.44,108.46L155.37,108.62"/><path d="M143.49,108.99L149.16,108.31L155.70,107.40L155.66,107.64L156.09,107.03"/><path d="M143.47,109.31L150.22,108.44L155.66,107.64"/><path d="M143.52,107.59L150.34,106.92L155.84,106.29L155.86,105.98"/><path d="M143.44,105.55L150.33,105.07L155.89,104.59"/><path d="M142.95,100.65L149.98,100.48L155.65,100.27L155.60,99.79L155.99,99.14L156.25,98.78"/><path d="M142.88,100.12L148.79,100.00L155.60,99.79"/><path d="M142.53,97.87L149.63,97.81L151.24,97.79L148.92,97.83L143.57,97.88"/><path d="M146.32,63.22L145.52,62.63L145.05,62.26L143.28,62.47"/><path d="M143.28,62.17L144.88,61.97L145.05,62.26"/><path d="M145.50,61.85L144.21,60.92L143.29,61.06"/><path d="M143.29,60.82L144.06,60.70L144.21,60.92"/><path d="M143.29,59.98L143.45,59.96L143.30,59.81L143.29,59.81"/><path d="M143.45,59.96L144.75,60.84"/><path d="M143.30,59.81L144.09,60.28"/><path d="M144.06,60.70L144.82,61.13"/><path d="M144.88,61.97L145.61,62.33"/><path d="M146.86,65.95L147.31,66.33L148.07,66.91"/><path d="M145.93,63.94L146.40,64.32L147.18,64.91"/><path d="M147.01,89.24L152.73,89.23L154.50,89.25"/><path d="M147.80,68.24L148.25,68.62L148.98,69.17"/><path d="M148.21,67.90L147.61,67.77"/><path d="M149.15,70.33L149.09,70.32L148.56,70.27"/><path d="M150.10,81.60L149.57,81.60"/><path d="M149.70,73.55L149.51,72.99"/><path d="M150.10,72.97L150.02,72.96"/><path d="M151.24,97.79L155.35,97.71"/><path d="M150.44,75.89L150.93,75.79L151.25,75.78"/><path d="M152.18,82.04L152.63,81.78L152.93,81.68"/><path d="M151.34,78.93L151.80,78.74L152.11,78.69"/><path d="M152.73,89.23L154.69,89.23"/><path d="M152.97,85.20L153.12,85.82"/><path d="M153.32,83.20L152.71,82.90L152.34,82.67"/><path d="M154.31,91.41L154.72,90.94L154.99,90.70"/><path d="M153.68,88.34L154.11,87.93L154.38,87.74"/><path d="M155.44,108.46L156.14,107.23"/><path d="M155.28,97.18L155.68,96.59L155.93,96.27"/><path d="M154.94,94.95L154.84,94.38"/><path d="M155.50,94.96L155.24,94.98"/><path d="M155.14,92.73L155.15,92.75"/><path d="M155.70,107.40L156.39,106.19"/><path d="M155.84,106.29L156.07,106.04L156.27,105.78"/><path d="M155.89,104.22L156.29,103.50L156.55,103.09"/><path d="M155.80,102.14L156.20,101.46L156.45,101.07"/><path d="M156.28,102.29L156.08,102.44L155.83,102.58"/><path d="M155.65,100.27L155.91,100.19L156.11,100.09"/></g><g style="stroke:#000000;stroke-width:0.529"><path d="M142.09,59.19L142.04,59.19L139.95,59.73L136.35,60.63L133.92,61.28L129.63,62.32L129.54,62.45L129.24,62.53L129.15,62.63L128.37,63.94L128.37,63.96L128.19,64.28L128.03,64.70L128.09,64.92L127.91,65.22L127.81,65.83L127.92,66.23L127.74,66.52L127.70,67.29L127.87,67.88L127.68,68.15L127.70,69.08L127.95,69.82L127.74,70.09L127.82,71.16L128.15,72.05L127.92,72.31L128.05,73.51L128.36,74.28L128.43,74.55L128.21,74.76L128.39,76.07L128.70,76.75L128.75,76.93L128.81,77.26L128.60,77.43L128.83,78.82L129.13,79.39L129.19,79.56L129.22,79.70L129.30,80.13L129.09,80.25L129.37,81.71L129.57,82.04L129.65,82.16L129.71,82.32L129.75,82.46L129.87,83.08L129.68,83.19L130.00,84.69L130.19,84.93L130.26,85.02L130.32,85.16L130.35,85.26L130.49,85.90L130.50,86.04L130.49,86.07L130.38,86.15L130.35,86.20L130.71,87.72L130.88,87.87L130.92,87.89L130.97,87.97L131.03,88.14L131.17,88.68L131.20,88.88L131.21,88.95L131.20,88.98L131.11,89.15L131.09,89.23L131.49,90.74L131.63,90.81L131.67,90.80L131.69,90.81L131.72,90.85L131.77,91.01L131.92,91.55L131.96,91.75L131.97,91.82L131.97,91.88L131.91,92.13L131.90,92.24L132.32,93.72L132.44,93.70L132.50,93.67L132.51,93.69L132.57,93.83L132.73,94.35L132.77,94.55L132.78,94.64L132.79,94.70L132.75,95.05L132.75,95.18L133.19,96.61L133.38,96.50L133.56,97.05L133.63,97.34L133.64,98.00L133.70,98.20L134.09,99.35L134.30,99.24L134.46,99.70L134.50,99.90L134.55,100.65L135.01,101.91L135.25,101.84L135.33,102.05L135.38,102.25L135.46,103.10L135.92,104.24L136.20,104.21L136.26,104.47L136.37,105.31L136.82,106.31L137.11,106.34L137.26,107.24L137.69,108.09L137.98,108.16L138.11,108.86L138.52,109.54L138.80,109.65L138.91,110.14L139.29,110.65L139.58,110.80L139.65,111.07L139.99,111.40L140.30,111.58L140.31,111.64L141.52,112.38L141.65,112.44L141.85,112.38L142.12,112.55L142.23,112.53L146.61,111.38L149.17,110.78L152.61,109.90L154.57,109.42L154.65,109.29L154.97,109.22L155.06,109.14L155.36,108.63L155.37,108.62L155.59,108.27L155.97,107.62L156.14,107.23L156.09,107.03L156.27,106.76L156.39,106.19L156.27,105.78L156.47,105.54L156.52,104.80L156.34,104.19L156.55,103.98L156.55,103.09L156.28,102.29L156.51,102.11L156.45,101.07L156.31,100.66L156.16,100.25L156.11,100.09L156.37,99.96L156.25,98.78L155.92,97.96L155.87,97.76L155.85,97.63L156.10,97.55L155.93,96.27L155.61,95.54L155.54,95.25L155.50,94.96L155.74,94.93L155.51,93.56L155.37,93.27L155.20,92.94L155.13,92.65L155.14,92.73"/><path d="M143.29,59.70L144.07,60.19L144.09,60.28L144.40,60.47L144.75,60.84L144.82,61.13L145.12,61.30L145.50,61.85L145.61,62.33L145.91,62.49L146.32,63.22L146.44,63.88L146.74,64.02L147.18,64.91L147.31,65.74L147.62,65.87L148.07,66.91L148.18,67.78L148.21,67.90L148.53,68.01L148.98,69.17L149.02,69.55L149.06,69.97L149.10,70.16L149.15,70.33L149.44,70.40L149.90,71.67L149.92,72.01L149.93,72.38L149.97,72.56L150.01,72.70L150.10,72.97L150.35,73.00L150.80,74.37L150.81,74.67L150.80,74.91L150.81,75.05L150.85,75.24L151.01,75.75L151.02,75.78L151.25,75.78L151.69,77.22L151.67,77.47L151.64,77.66L151.65,77.78L151.69,77.97L151.84,78.50L151.90,78.68L152.02,78.67L152.11,78.69L152.53,80.18L152.50,80.37L152.45,80.51L152.45,80.61L152.48,80.79L152.62,81.33L152.68,81.51L152.71,81.57L152.74,81.60L152.83,81.61L152.93,81.68L153.32,83.20L153.27,83.33L153.21,83.41L153.20,83.44L153.21,83.57L153.22,83.66L153.36,84.21L153.43,84.44L153.47,84.50L153.58,84.58L153.69,84.72L154.05,86.23L153.98,86.31L153.90,86.33L153.89,86.34L153.88,86.38L153.90,86.54L154.02,87.08L154.08,87.28L154.11,87.36L154.14,87.41L154.26,87.55L154.38,87.74L154.70,89.23L154.62,89.25L154.50,89.25L154.51,89.38L154.62,89.91L154.70,90.20L154.73,90.25L154.86,90.46L154.99,90.70L155.26,92.14L155.04,92.15L155.13,92.65"/></g></g><g id="Actor_.5"><g style="stroke:#000000;stroke-width:0.176"/><g style="stroke:#000000;stroke-width:0.529"><path d="M137.40,96.51L137.23,96.22L137.23,96.21L136.98,94.54L136.98,94.53L136.98,94.53L136.98,94.52L136.99,94.52L136.99,94.51L137.83,94.30"/></g></g><g id="Actor_.6"><g style="stroke:#000000;stroke-width:0.176"><path d="M120.42,73.37L121.02,73.46L121.74,74.16L122.54,75.39"/><path d="M127.28,98.33L127.26,98.47L126.97,98.92L126.54,98.77L125.98,98.04L125.33,96.78L124.65,95.08L123.98,93.04L123.35,90.82L122.83,88.55L122.43,86.40L122.19,84.51L122.13,83.01L122.24,82.01L122.53,81.56L122.96,81.71L123.13,81.93"/><path d="M123.84,78.09L124.45,79.54L124.94,80.84L125.42,82.21L126.37,85.18L127.26,88.32L128.05,91.54L128.73,94.70L129.26,97.71L129.63,100.45L129.83,102.81L129.84,104.73L129.66,106.12L129.31,106.93L128.80,107.14"/></g><g style="stroke:#000000;stroke-width:0.529"><path d="M122.49,73.77L121.92,73.23L121.33,73.14L120.42,73.37L119.99,73.88L119.73,74.99L119.64,76.65L119.75,78.80L120.03,81.37L120.48,84.25L121.09,87.35L121.63,89.69L121.83,90.56L122.68,93.75L123.60,96.82L124.56,99.65L125.53,102.14L126.47,104.20L127.35,105.75L128.13,106.75L128.80,107.14L129.70,106.92L130.22,106.70L130.57,105.89L130.74,104.50L130.73,102.58L130.54,100.22L130.17,97.48L129.64,94.47L128.96,91.31L128.16,88.09L127.27,84.95L126.33,81.99L125.84,80.61L125.36,79.31L124.40,77.03L123.76,75.76"/><path d="M127.28,98.33L126.88,97.82L126.24,96.56L125.56,94.85L124.88,92.81L124.26,90.59L123.73,88.32L123.33,86.17L123.10,84.28L123.03,82.79L123.13,81.93"/><path d="M127.28,98.33L127.37,97.47L127.31,95.97L127.07,94.08L126.67,91.93L126.15,89.67L125.52,87.44L124.85,85.40L124.16,83.70L123.52,82.44L123.13,81.93"/></g></g><g id="Actor_.7"><g style="stroke:#000000;stroke-width:0.176"><path d="M97.83,79.54L98.33,79.31L98.98,79.69L99.75,80.65L100.62,82.17L101.54,84.18L102.50,86.63L103.45,89.41L104.36,92.43L105.19,95.57L105.93,98.73L106.53,101.79L106.87,103.91L106.98,104.65L107.27,107.18L107.37,109.32L107.30,110.97L107.04,112.07L106.62,112.60L106.04,112.53"/><path d="M106.92,112.78L107.35,112.25L107.61,111.12L107.68,109.45L107.58,107.29L107.29,104.71L106.83,101.82L106.22,98.71L105.47,95.51L104.63,92.32L103.70,89.25L102.74,86.43L101.77,83.95L100.83,81.91L99.95,80.37L99.17,79.39L98.51,79.01"/><path d="M100.83,95.88L100.72,95.46L100.31,93.53L100.01,91.73L99.83,90.16L99.79,88.90L99.89,88.02L100.12,87.57L100.46,87.58L100.91,88.04L101.44,88.92L102.02,90.19L102.61,91.76L102.90,92.64L103.19,93.57L103.72,95.50L104.18,97.46L104.54,99.34L104.78,101.04L104.89,102.46L104.86,103.54L104.70,104.21L104.41,104.43L104.00,104.20L103.73,103.82L103.51,103.52L102.96,102.44L102.37,101.01L101.78,99.30L101.22,97.42L100.83,95.88"/><path d="M104.27,104.35L103.50,102.47L102.70,100.18L101.95,97.64L101.28,95.00L100.72,92.40L100.32,89.97L100.08,87.85L100.07,87.66"/><path d="M111.63,111.17L111.89,110.04L111.97,108.37L111.86,106.21L111.57,103.63L111.11,100.74L110.50,97.63L109.76,94.43L108.91,91.24L107.99,88.17L107.02,85.35L106.05,82.87L105.11,80.83L104.24,79.29L103.64,78.53"/></g><g style="stroke:#000000;stroke-width:0.529"><path d="M102.39,78.03L98.51,79.01L98.00,79.24L97.83,79.54L97.49,80.36L97.32,81.74L97.34,83.64L97.53,85.99L97.90,88.70L98.44,91.67L99.11,94.79L99.89,97.96L100.77,101.05L101.23,102.54L101.71,103.97L102.66,106.59L103.61,108.83L104.51,110.61L105.33,111.85L106.04,112.53L106.33,112.71L106.92,112.78L111.20,111.70L111.63,111.17L111.80,110.87L112.06,109.77L112.13,108.12L112.03,105.98L111.74,103.45L111.29,100.60L110.69,97.53L109.95,94.37L109.12,91.23L108.21,88.21L107.26,85.43L106.36,83.12L106.30,82.98L105.38,80.97L104.51,79.45L103.74,78.49L103.63,78.41"/></g></g><g id="Actor_.8"><g style="stroke:#000000;stroke-width:0.176"><path d="M259.65,44.84L259.68,45.15L259.83,46.45L260.03,47.85L260.27,49.31L260.55,50.84L260.87,52.40L261.22,54.00L261.60,55.61L262.01,57.22L262.45,58.81L262.90,60.37L263.37,61.88L263.85,63.33L264.34,64.70L264.82,65.99L265.31,67.17L265.78,68.24L266.24,69.18L266.69,69.99L267.11,70.66L267.51,71.19L267.88,71.56L268.21,71.78L268.51,71.84L268.78,71.74L269.00,71.48L269.08,71.29L268.95,71.44L268.69,71.54L268.40,71.48L268.07,71.26L267.70,70.90L267.31,70.38L266.89,69.72L266.45,68.92L266.00,67.99L265.53,66.93L265.05,65.77L264.58,64.51L264.10,63.15L263.62,61.73L263.16,60.24L262.71,58.70L262.29,57.13L261.88,55.55L261.50,53.96L261.16,52.39L260.83,50.79L260.57,49.34L260.33,47.90L260.14,46.52L259.99,45.24L259.88,44.05L259.83,42.97L259.81,42.00L259.85,41.17L259.93,40.48L260.06,39.92L260.23,39.52L260.45,39.26L260.71,39.17L260.98,39.22L260.71,39.05L260.41,38.99L260.15,39.08L259.93,39.34L259.75,39.75L259.62,40.31L259.54,41.02L259.50,41.87L259.51,42.84L259.57,43.94L259.65,44.84"/><path d="M267.82,71.70L268.47,72.08L268.97,71.85L269.19,71.32L269.31,71.03L269.48,69.64L269.46,67.74L269.27,65.40L268.90,62.69L268.37,59.72L267.70,56.60L266.95,53.59L266.91,53.43L266.03,50.33L265.10,47.42L264.14,44.80L263.20,42.56L262.30,40.78L261.48,39.53L260.83,38.93L260.76,38.86L260.18,38.79L259.76,39.31"/><path d="M268.76,72.26L269.28,72.03L269.62,71.19L269.79,69.79L269.77,67.86L269.58,65.48L269.20,62.74L268.66,59.72L267.98,56.55L267.18,53.34L266.29,50.20L265.34,47.24L264.37,44.58L263.42,42.31L262.50,40.51L261.67,39.24L260.95,38.56L260.36,38.49"/><path d="M261.61,42.34L261.61,42.33L261.59,42.44L261.56,43.18L261.57,44.04L261.62,45.00L261.72,46.12L261.85,47.20L262.02,48.42L262.25,49.81L262.48,51.04L262.76,52.41L263.06,53.81L263.40,55.22L263.76,56.63L264.14,58.03L264.54,59.39L264.95,60.72L265.37,61.98L265.80,63.19L266.22,64.31L266.64,65.35L267.06,66.28L267.47,67.11L267.86,67.82L268.23,68.41L268.29,68.50L268.65,68.97L268.97,69.30L269.27,69.49L269.40,69.51"/><path d="M261.61,42.33L261.68,41.70L261.80,41.21L261.95,40.84L262.12,40.65"/><path d="M269.08,71.29L269.17,71.07L269.30,70.51L269.38,69.80L269.42,68.96L269.41,67.98L269.35,66.88L269.24,65.68L269.09,64.37L268.96,63.44L268.89,62.98L268.66,61.51L268.38,59.99L268.06,58.42L267.71,56.82L267.32,55.21L266.91,53.60L266.48,52.01L266.02,50.45L265.55,48.94L265.07,47.49L264.59,46.12L264.10,44.84L263.62,43.66L263.14,42.59L262.68,41.64L262.24,40.83L261.81,40.16L261.41,39.64L261.04,39.26L260.98,39.22"/><path d="M264.87,46.93L264.49,46.54L264.14,46.53L263.91,46.98L263.82,47.86L263.86,49.12L264.03,50.69L264.33,52.49L264.75,54.42L265.24,56.38L265.80,58.26L266.39,59.96L266.98,61.40L267.54,62.48L268.03,63.15L268.43,63.39L268.72,63.16L268.84,62.66"/><path d="M268.80,62.86L268.54,62.29L267.74,60.17L267.34,58.98L266.96,57.74L266.24,55.13L265.62,52.49L265.14,49.96L264.82,47.67L264.75,46.80"/><path d="M273.56,70.95L273.91,70.11L274.07,68.71L274.06,66.78L273.86,64.40L273.48,61.66L272.95,58.64L272.26,55.47L271.52,52.50L271.47,52.26L270.58,49.12L270.11,47.61L269.63,46.16L268.66,43.50L267.70,41.23L266.79,39.43L265.95,38.16L265.23,37.48"/><path d="M269.27,69.49L269.40,69.52"/></g><g style="stroke:#000000;stroke-width:0.529"><path d="M259.73,45.94L259.54,44.20L259.43,42.07L259.50,40.42L259.76,39.31L259.93,39.02L260.36,38.49L264.64,37.41L265.23,37.48L265.52,37.66L266.24,38.33L267.06,39.58L267.96,41.36L268.90,43.60L269.86,46.22L270.33,47.65L270.79,49.13L271.67,52.23L272.46,55.40L273.13,58.52L273.66,61.49L274.03,64.20L274.22,66.54L274.24,68.44L274.07,69.83L273.73,70.65L273.56,70.95L273.05,71.18L268.76,72.26L268.11,71.88L267.82,71.70L267.05,70.74L266.18,69.22L265.26,67.20L264.30,64.76L263.35,61.98L262.45,58.96L261.61,55.81L260.88,52.65L260.27,49.59L259.82,46.74L259.73,45.94"/></g></g><g id="Actor_.9"><g style="stroke:#000000;stroke-width:0.176"><path d="M114.27,106.07L114.28,106.03L114.28,105.96L114.16,104.43L114.11,104.05L114.02,103.61L113.90,103.16L113.77,102.75L113.64,102.43L113.51,102.23L113.42,102.17L113.21,102.06L112.94,101.65L112.64,100.97L112.33,100.09L111.44,97.11L110.62,94.02L109.92,90.91L109.89,90.78L109.34,87.93L108.93,85.17L108.69,82.76L108.63,80.77L108.75,79.29L109.05,78.38L109.53,78.07L110.15,78.36"/><path d="M111.44,78.30L111.31,78.02L110.42,76.49L109.62,75.52L108.95,75.14"/><path d="M117.67,111.13L118.18,110.84L118.52,109.96L118.69,108.51L118.68,106.54L118.49,104.12L118.12,101.33L117.59,98.27L116.91,95.03L116.17,91.97L116.11,91.73L115.22,88.47L114.26,85.38L113.26,82.54L112.27,80.06L111.76,78.98"/><path d="M113.75,103.91L113.79,104.01L113.86,104.15L113.92,104.23L113.96,104.22L113.98,104.14L113.97,103.99L113.95,103.79L113.90,103.55L113.84,103.32L113.76,103.10L113.70,102.93L113.63,102.82L113.58,102.79L113.55,102.83L113.54,102.95L113.56,103.13L113.59,103.35L113.65,103.59L113.72,103.82L113.75,103.91"/><path d="M117.20,108.98L117.14,108.75L117.08,108.51L117.04,108.29L117.03,108.11L117.03,107.99L117.06,107.95L117.11,107.98L117.18,108.09L117.25,108.26L117.33,108.50L117.38,108.72L117.43,108.95L117.45,109.13L117.46,109.30L117.44,109.39L117.40,109.39L117.34,109.32L117.27,109.18L117.20,108.98"/><path d="M118.20,107.12L118.07,108.60L117.96,108.85L117.76,108.78L117.50,108.41L117.07,107.49L116.96,107.35L116.88,107.36"/></g><g style="stroke:#000000;stroke-width:0.529"><path d="M110.15,78.36L109.94,78.99L109.82,80.47L109.88,82.46L110.12,84.87L110.53,87.63L111.11,90.61L111.81,93.72L112.63,96.81L113.52,99.79L113.83,100.67L114.13,101.35L114.40,101.76L114.61,101.87L114.70,101.93L114.82,102.13L114.96,102.45L115.09,102.86L115.21,103.31L115.30,103.75L115.35,104.13L115.47,105.66L115.47,105.73L115.46,105.77L114.27,106.07L114.25,106.07L114.22,106.04L114.18,105.97L113.19,103.45L112.20,100.58L111.24,97.46L110.36,94.20L109.57,90.90L108.90,87.67L108.39,84.63L108.04,81.88L107.86,79.50L107.87,77.59L108.06,76.19L108.42,75.37L108.95,75.14L110.14,74.84L110.81,75.22L111.30,75.82"/><path d="M110.15,78.36L110.90,79.26L111.74,80.72L112.65,82.70L113.59,85.10L114.40,87.50L114.52,87.85L115.41,90.83L116.22,93.93L116.93,97.03L117.50,100.01L117.91,102.76L118.15,105.16L118.20,107.12"/><path d="M112.63,78.00L113.46,79.76L114.45,82.24L115.45,85.08L116.41,88.17L117.30,91.43L118.10,94.73L118.78,97.97L119.31,101.03L119.68,103.82L119.87,106.24L119.88,108.21L119.71,109.66L119.37,110.54L118.86,110.83L117.67,111.13L117.64,111.11L117.61,111.05L117.57,110.97L117.53,110.86L117.50,110.74L117.00,108.64L116.91,108.20L116.85,107.81L116.84,107.52L116.88,107.36L118.07,107.06L118.14,107.05L118.20,107.12"/></g></g><g id="Actor_.10"><g style="stroke:#000000;stroke-width:0.176"><path d="M249.78,77.27L250.21,76.75L250.47,75.64L250.56,73.98L250.45,71.83L250.17,69.27L249.72,66.38L249.11,63.28L248.37,60.08L247.52,56.88L246.60,53.82L245.64,50.99L244.67,48.50L243.73,46.44L242.85,44.88L242.07,43.89L241.40,43.49"/><path d="M247.98,68.48L247.96,68.63L247.67,69.07L247.24,68.92L246.68,68.20L246.04,66.94L245.35,65.23L244.68,63.19L244.05,60.97L243.53,58.70L243.13,56.55L242.89,54.66L242.83,53.17L242.94,52.16L243.23,51.72L243.66,51.86L243.83,52.08"/></g><g style="stroke:#000000;stroke-width:0.529"><path d="M241.06,53.59L240.94,52.93L240.57,50.19L240.37,47.82L240.36,45.91L240.54,44.52L240.89,43.70L241.40,43.49L242.31,43.26L242.97,43.66L243.76,44.65L244.64,46.21L245.58,48.27L246.55,50.76L247.51,53.59L248.43,56.66L249.27,59.85L250.02,63.06L250.62,66.16L251.08,69.04L251.36,71.60L251.46,73.75L251.38,75.41L251.12,76.52L250.68,77.04L249.78,77.27L249.18,77.17L248.46,76.47L247.62,75.19L246.71,73.38L245.75,71.09L245.26,69.80L244.78,68.42L243.83,65.46L242.94,62.31L242.15,59.10L241.47,55.93L241.06,53.59"/><path d="M247.98,68.48L247.59,67.97L246.94,66.71L246.26,65.00L245.58,62.97L244.96,60.74L244.43,58.47L244.04,56.32L243.80,54.44L243.73,52.94L243.83,52.08"/><path d="M247.98,68.48L248.07,67.62L248.01,66.12L247.77,64.23L247.37,62.08L246.85,59.82L246.22,57.59L245.55,55.56L244.87,53.85L244.22,52.59L243.83,52.08"/></g></g><g id="Actor_.11"><g style="stroke:#000000;stroke-width:0.176"><path d="M254.79,70.65L254.80,70.61L254.80,70.54L254.68,69.01L254.63,68.64L254.58,68.38L254.55,68.20L254.43,67.75L254.30,67.34L254.16,67.01L254.04,66.81L253.95,66.75L253.74,66.64L253.47,66.23L253.17,65.55L252.86,64.67L251.96,61.70L251.15,58.60L250.44,55.50L249.87,52.51L249.45,49.76L249.21,47.34L249.17,45.94L249.15,45.36L249.28,43.88L249.58,42.96L250.05,42.65L250.67,42.95"/><path d="M249.48,39.72L250.15,40.10L250.95,41.07L251.84,42.61L252.80,44.64L253.79,47.12L254.78,49.96L255.74,53.06L256.64,56.31L257.44,59.61L258.11,62.85L258.65,65.91L259.01,68.70L259.03,68.91L259.21,71.12L259.22,73.09L259.05,74.54L258.70,75.42L258.19,75.71"/><path d="M254.12,67.93L254.18,68.17L254.24,68.40L254.32,68.60L254.38,68.74L254.44,68.81L254.48,68.80L254.50,68.72L254.50,68.57L254.47,68.37L254.42,68.14L254.36,67.90L254.29,67.68L254.22,67.52L254.15,67.40L254.10,67.37L254.07,67.41L254.07,67.53L254.08,67.71L254.12,67.93"/><path d="M258.73,71.71L258.60,73.19L258.48,73.43L258.28,73.36L258.02,72.99L257.59,72.07L257.48,71.93L257.40,71.94"/><path d="M257.93,73.97L257.87,73.90L257.80,73.76L257.73,73.56L257.66,73.33L257.60,73.10L257.57,72.87L257.55,72.70L257.56,72.58L257.59,72.53L257.64,72.57L257.70,72.67L257.78,72.85L257.85,73.06L257.91,73.30L257.96,73.53L257.98,73.74L257.99,73.89L257.97,73.97L257.93,73.97"/></g><g style="stroke:#000000;stroke-width:0.529"><path d="M250.67,42.95L250.46,43.58L250.34,45.06L250.40,47.04L250.64,49.46L251.06,52.21L251.63,55.20L252.34,58.30L253.15,61.40L254.04,64.37L254.36,65.25L254.66,65.93L254.93,66.34L255.14,66.45L255.23,66.51L255.35,66.71L255.49,67.04L255.62,67.45L255.74,67.90L255.82,68.34L255.87,68.71L255.99,70.24L255.99,70.31L255.98,70.35L254.79,70.65L254.77,70.66L254.74,70.62L254.71,70.55L253.71,68.03L252.72,65.16L251.77,62.04L250.88,58.78L250.09,55.48L249.43,52.26L248.91,49.22L248.77,48.12L248.56,46.46L248.39,44.09L248.39,42.17L248.58,40.77L248.95,39.95L249.48,39.72L250.67,39.42L251.34,39.80L252.14,40.77L253.03,42.31L253.71,43.75L253.99,44.34L254.98,46.82L255.97,49.66L256.93,52.76L257.76,55.78L257.83,56.01L258.63,59.31L259.30,62.55L259.83,65.61L260.20,68.40L260.40,70.82L260.41,72.79L260.24,74.24L259.89,75.12L259.38,75.41L258.19,75.71L258.16,75.69L258.13,75.64L258.10,75.55L258.06,75.44L258.03,75.32L257.52,73.22L257.43,72.78L257.38,72.39L257.37,72.10L257.40,71.94L258.59,71.64L258.67,71.63L258.73,71.71"/><path d="M250.67,42.95L251.42,43.84L252.27,45.31L253.18,47.28L254.11,49.68L255.05,52.43L255.94,55.41L256.75,58.51L257.45,61.61L258.02,64.59L258.43,67.34L258.67,69.75L258.73,71.71"/></g></g><g id="PMI3.0"><g><path style="stroke:#000000;stroke-width:0.250;stroke-dasharray:2.6 2.6" d="M231.51,28.90L230.35,45.47"/></g><g><path style="fill:#000000" d="M231.35,45.47L231.35,45.37L231.33,45.28L231.31,45.18L231.28,45.09L231.23,45.00L231.18,44.92L231.13,44.84L231.06,44.76L230.99,44.70L230.91,44.64L230.82,44.59L230.74,44.55L230.64,44.51L230.55,44.49L230.45,44.48L230.35,44.47L230.26,44.48L230.16,44.49L230.06,44.51L229.97,44.55L229.88,44.59L229.80,44.64L229.72,44.70L229.65,44.76L229.58,44.84L229.52,44.92L229.47,45.00L229.43,45.09L229.40,45.18L229.37,45.28L229.36,45.37L229.35,45.47L229.36,45.57L229.37,45.67L229.40,45.76L229.43,45.85L229.47,45.94L229.52,46.03L229.58,46.10L229.65,46.18L229.72,46.24L229.80,46.30L229.88,46.35L229.97,46.39L230.06,46.43L230.16,46.45L230.26,46.47L230.35,46.47L230.45,46.47L230.55,46.45L230.64,46.43L230.74,46.39L230.82,46.35L230.91,46.30L230.99,46.24L231.06,46.18L231.13,46.10L231.18,46.03L231.23,45.94L231.28,45.85L231.31,45.76L231.33,45.67L231.35,45.57z"/></g><g><path style="fill:#ffffff" d="M229.36,28.90L234.20,28.90L234.20,21.00L229.36,21.00z"/><path style="stroke:#000000;stroke-width:0.250;stroke-opacity:0.98" d="M229.36,28.90L234.20,28.90L234.20,21.00L229.36,21.00z"/><text xml:space="preserve" fill="#000000" stroke-width="0" x="230.34" y="26.67" font-size="4.60" opacity="1.00" font-family="Eurostile" font-weight="bold">3</text></g></g><g id="PMI2.0"><g><path style="stroke:#000000;stroke-width:0.250;stroke-dasharray:2.6 2.6" d="M183.72,43.60L183.12,69.09"/></g><g><path style="fill:#000000" d="M184.12,69.09L184.11,68.99L184.10,68.89L184.07,68.80L184.04,68.71L184.00,68.62L183.95,68.53L183.89,68.45L183.82,68.38L183.75,68.32L183.67,68.26L183.59,68.21L183.50,68.16L183.41,68.13L183.31,68.11L183.22,68.09L183.12,68.09L183.02,68.09L182.92,68.11L182.83,68.13L182.73,68.16L182.65,68.21L182.56,68.26L182.48,68.32L182.41,68.38L182.34,68.45L182.29,68.53L182.24,68.62L182.19,68.71L182.16,68.80L182.14,68.89L182.12,68.99L182.12,69.09L182.12,69.19L182.14,69.28L182.16,69.38L182.19,69.47L182.24,69.56L182.29,69.64L182.34,69.72L182.41,69.80L182.48,69.86L182.56,69.92L182.65,69.97L182.73,70.01L182.83,70.05L182.92,70.07L183.02,70.08L183.12,70.09L183.22,70.08L183.31,70.07L183.41,70.05L183.50,70.01L183.59,69.97L183.67,69.92L183.75,69.86L183.82,69.80L183.89,69.72L183.95,69.64L184.00,69.56L184.04,69.47L184.07,69.38L184.10,69.28L184.11,69.19z"/></g><g><path style="fill:#ffffff" d="M181.40,43.60L186.24,43.60L186.24,35.70L181.40,35.70z"/><path style="stroke:#000000;stroke-width:0.250;stroke-opacity:0.98" d="M181.40,43.60L186.24,43.60L186.24,35.70L181.40,35.70z"/><text xml:space="preserve" fill="#000000" stroke-width="0" x="182.39" y="41.38" font-size="4.58" opacity="1.00" font-family="Eurostile" font-weight="bold">2</text></g></g><g id="PMI6.0"><g><path style="stroke:#000000;stroke-width:0.250;stroke-dasharray:2.6 2.6" d="M122.27,50.32L123.26,78.79"/></g><g><path style="fill:#000000" d="M124.26,78.79L124.26,78.70L124.25,78.60L124.22,78.50L124.19,78.41L124.15,78.32L124.10,78.24L124.04,78.16L123.97,78.09L123.90,78.02L123.82,77.96L123.74,77.91L123.65,77.87L123.55,77.84L123.46,77.81L123.36,77.80L123.26,77.79L123.17,77.80L123.07,77.81L122.97,77.84L122.88,77.87L122.79,77.91L122.71,77.96L122.63,78.02L122.56,78.09L122.49,78.16L122.43,78.24L122.38,78.32L122.34,78.41L122.31,78.50L122.28,78.60L122.27,78.70L122.26,78.79L122.27,78.89L122.28,78.99L122.31,79.08L122.34,79.18L122.38,79.27L122.43,79.35L122.49,79.43L122.56,79.50L122.63,79.57L122.71,79.63L122.79,79.68L122.88,79.72L122.97,79.75L123.07,79.77L123.17,79.79L123.26,79.79L123.36,79.79L123.46,79.77L123.55,79.75L123.65,79.72L123.74,79.68L123.82,79.63L123.90,79.57L123.97,79.50L124.04,79.43L124.10,79.35L124.15,79.27L124.19,79.18L124.22,79.08L124.25,78.99L124.26,78.89z"/></g><g><path style="fill:#ffffff" d="M119.70,50.32L124.56,50.32L124.56,42.42L119.70,42.42z"/><path style="stroke:#000000;stroke-width:0.250;stroke-opacity:0.98" d="M119.70,50.32L124.56,50.32L124.56,42.42L119.70,42.42z"/><text xml:space="preserve" fill="#000000" stroke-width="0" x="120.69" y="48.09" font-size="4.62" opacity="1.00" font-family="Eurostile" font-weight="bold">6</text></g></g><g id="PMI5.0"><g><path style="stroke:#000000;stroke-width:0.250;stroke-dasharray:2.6 2.6" d="M110.80,56.39L112.09,78.96"/></g><g><path style="fill:#000000" d="M113.09,78.96L113.08,78.86L113.07,78.77L113.04,78.67L113.01,78.58L112.97,78.49L112.92,78.41L112.86,78.33L112.79,78.25L112.72,78.19L112.64,78.13L112.56,78.08L112.47,78.04L112.38,78.00L112.28,77.98L112.18,77.97L112.09,77.96L111.99,77.97L111.89,77.98L111.80,78.00L111.70,78.04L111.61,78.08L111.53,78.13L111.45,78.19L111.38,78.25L111.31,78.33L111.25,78.41L111.20,78.49L111.16,78.58L111.13,78.67L111.10,78.77L111.09,78.86L111.09,78.96L111.09,79.06L111.10,79.16L111.13,79.25L111.16,79.34L111.20,79.43L111.25,79.52L111.31,79.60L111.38,79.67L111.45,79.73L111.53,79.79L111.61,79.84L111.70,79.88L111.80,79.92L111.89,79.94L111.99,79.96L112.09,79.96L112.18,79.96L112.28,79.94L112.38,79.92L112.47,79.88L112.56,79.84L112.64,79.79L112.72,79.73L112.79,79.67L112.86,79.60L112.92,79.52L112.97,79.43L113.01,79.34L113.04,79.25L113.07,79.16L113.08,79.06z"/></g><g><path style="fill:#ffffff" d="M108.19,56.39L112.97,56.39L112.97,48.49L108.19,48.49z"/><path style="stroke:#000000;stroke-width:0.250;stroke-opacity:0.98" d="M108.19,56.39L112.97,56.39L112.97,48.49L108.19,48.49z"/><text xml:space="preserve" fill="#000000" stroke-width="0" x="109.18" y="54.17" font-size="4.49" opacity="1.00" font-family="Eurostile" font-weight="bold">5</text></g></g><g id="PMI1.0"><g><path style="stroke:#000000;stroke-width:0.250;stroke-dasharray:2.6 2.6" d="M142.76,43.92L142.68,62.62"/></g><g><path style="fill:#000000" d="M143.68,62.62L143.67,62.52L143.66,62.42L143.63,62.33L143.60,62.23L143.56,62.15L143.51,62.06L143.45,61.98L143.38,61.91L143.31,61.84L143.23,61.79L143.15,61.74L143.06,61.69L142.97,61.66L142.87,61.64L142.77,61.62L142.68,61.62L142.58,61.62L142.48,61.64L142.39,61.66L142.29,61.69L142.21,61.74L142.12,61.79L142.04,61.84L141.97,61.91L141.90,61.98L141.84,62.06L141.79,62.15L141.75,62.23L141.72,62.33L141.70,62.42L141.68,62.52L141.68,62.62L141.68,62.72L141.70,62.81L141.72,62.91L141.75,63.00L141.79,63.09L141.84,63.17L141.90,63.25L141.97,63.32L142.04,63.39L142.12,63.45L142.21,63.50L142.29,63.54L142.39,63.57L142.48,63.60L142.58,63.61L142.68,63.62L142.77,63.61L142.87,63.60L142.97,63.57L143.06,63.54L143.15,63.50L143.23,63.45L143.31,63.39L143.38,63.32L143.45,63.25L143.51,63.17L143.56,63.09L143.60,63.00L143.63,62.91L143.66,62.81L143.67,62.72z"/></g><g><path style="fill:#ffffff" d="M140.48,43.92L145.08,43.92L145.08,36.02L140.48,36.02z"/><path style="stroke:#000000;stroke-width:0.250;stroke-opacity:0.98" d="M140.48,43.92L145.08,43.92L145.08,36.02L140.48,36.02z"/><text xml:space="preserve" fill="#000000" stroke-width="0" x="141.47" y="41.70" font-size="4.20" opacity="1.00" font-family="Eurostile" font-weight="bold">1</text></g></g><g id="PMI4.0"><g><path style="stroke:#000000;stroke-width:0.250;stroke-dasharray:2.6 2.6" d="M101.68,58.95L103.21,81.06"/></g><g><path style="fill:#000000" d="M104.21,81.06L104.20,80.96L104.19,80.86L104.16,80.77L104.13,80.68L104.09,80.59L104.04,80.50L103.98,80.42L103.91,80.35L103.84,80.29L103.76,80.23L103.68,80.18L103.59,80.13L103.50,80.10L103.40,80.08L103.30,80.06L103.21,80.06L103.11,80.06L103.01,80.08L102.92,80.10L102.82,80.13L102.73,80.18L102.65,80.23L102.57,80.29L102.50,80.35L102.43,80.42L102.37,80.50L102.32,80.59L102.28,80.68L102.25,80.77L102.22,80.86L102.21,80.96L102.21,81.06L102.21,81.16L102.22,81.25L102.25,81.35L102.28,81.44L102.32,81.53L102.37,81.61L102.43,81.69L102.50,81.77L102.57,81.83L102.65,81.89L102.73,81.94L102.82,81.98L102.92,82.02L103.01,82.04L103.11,82.05L103.21,82.06L103.30,82.05L103.40,82.04L103.50,82.02L103.59,81.98L103.68,81.94L103.76,81.89L103.84,81.83L103.91,81.77L103.98,81.69L104.04,81.61L104.09,81.53L104.13,81.44L104.16,81.35L104.19,81.25L104.20,81.16z"/></g><g><path style="fill:#ffffff" d="M98.92,58.95L103.89,58.95L103.89,51.05L98.92,51.05z"/><path style="stroke:#000000;stroke-width:0.250;stroke-opacity:0.98" d="M98.92,58.95L103.89,58.95L103.89,51.05L98.92,51.05z"/><text xml:space="preserve" fill="#000000" stroke-width="0" x="99.91" y="56.73" font-size="4.80" opacity="1.00" font-family="Eurostile" font-weight="bold">4</text></g></g><g><g/><g><path style="stroke:#000000;stroke-width:0.125;fill:#0000ff" d="M107.65,3.65L187.86,3.65L187.86,13.80L107.65,13.80z"/><text xml:space="preserve" fill="#ffffff" stroke-width="0" x="108.92" y="10.63" font-size="6.55" opacity="1.00" font-family="Eurostile">OUTPUT GEAR WITH SHAFT</text></g></g><g><g/><g><image x="129.650894" y="181.805298" height="23.812441" width="24.324390" xlink:href="output_files/8400dbc500b1a354_image_0.jpg" mask="url(#mask0)"/></g></g><g><g/><g><image x="8.088235" y="111.470596" height="53.338783" width="75.330750" xlink:href="output_files/8400dbc500b1a354_image_1.jpg"/><path style="stroke:#000000;stroke-width:0.125;stroke-opacity:0.98" d="M8.09,111.47L83.42,111.47L83.42,164.81L8.09,164.81z"/></g></g><g><g/><g><path style="fill:#ffffff" d="M22.97,99.76L67.37,99.76L67.37,109.36L22.97,109.36z"/><text xml:space="preserve" fill="#0000ff" stroke-width="0" x="24.17" y="106.36" font-size="6.17" opacity="1.00" font-family="Eurostile">SECTIONS PAGE</text></g></g><g/><g id="paperID" visibility="hidden" opacity="0.00" transform="scale(0.000100)"><path style="stroke:#000000;stroke-width:0.500;fill:#e6e6e6;fill-rule:evenodd" d="M-2000.00,-2000.00L2297.00,-2000.00L2297.00,2210.00L-2000.00,2210.00zM0.00,0.00L297.00,0.00L297.00,210.00L0.00,210.00z"/><path style="fill:#000000;fill-opacity:0.118" d="M3.00,210.00L297.00,210.00L297.00,3.00L300.00,3.00L300.00,213.00L3.00,213.00z"/></g><g><g><path style="stroke:#000000;stroke-width:0.353;fill:#0000ff" d="M213.53,122.25L286.97,122.25L286.97,128.67L213.53,128.67z"/><text xml:space="preserve" fill="#ffffff" stroke-width="0" x="216.00" y="127.19" font-size="4.88" opacity="1.00" font-family="Eurostile" font-weight="bold">BOM ID</text><text xml:space="preserve" fill="#ffffff" stroke-width="0" x="236.94" y="127.19" font-size="4.92" opacity="1.00" font-family="Eurostile" font-weight="bold">DESCRIPTION</text><text xml:space="preserve" fill="#ffffff" stroke-width="0" x="277.55" y="127.19" font-size="4.91" opacity="1.00" font-family="Eurostile" font-weight="bold">Qty</text><path style="stroke:#000000;stroke-width:0.353" d="M234.47,122.25L234.47,128.67"/><path style="stroke:#000000;stroke-width:0.353" d="M275.08,122.25L275.08,128.67"/></g><g id="Line1"><path style="stroke:#000000;stroke-width:0.353;fill:#ffffff" d="M213.53,128.67L286.97,128.67L286.97,135.09L213.53,135.09z"/><text xml:space="preserve" fill="#000000" stroke-width="0" x="216.00" y="133.61" font-size="4.27" opacity="1.00" font-family="Eurostile">1</text><text xml:space="preserve" fill="#000000" stroke-width="0" x="236.94" y="133.61" font-size="5.08" opacity="1.00" font-family="Eurostile">OUTPUT GEAR</text><text xml:space="preserve" fill="#000000" stroke-width="0" x="277.55" y="133.61" font-size="4.27" opacity="1.00" font-family="Eurostile">1</text><path style="stroke:#000000;stroke-width:0.353" d="M234.47,128.67L234.47,135.09"/><path style="stroke:#000000;stroke-width:0.353" d="M275.08,128.67L275.08,135.09"/></g><g id="Line2"><path style="stroke:#000000;stroke-width:0.353;fill:#f0f0ff" d="M213.53,135.09L286.97,135.09L286.97,141.51L213.53,141.51z"/><text xml:space="preserve" fill="#000000" stroke-width="0" x="216.00" y="140.02" font-size="4.67" opacity="1.00" font-family="Eurostile">2</text><text xml:space="preserve" fill="#000000" stroke-width="0" x="236.94" y="140.02" font-size="5.10" opacity="1.00" font-family="Eurostile">OUTPUT SHAFT</text><text xml:space="preserve" fill="#000000" stroke-width="0" x="277.55" y="140.02" font-size="4.27" opacity="1.00" font-family="Eurostile">1</text><path style="stroke:#000000;stroke-width:0.353" d="M234.47,135.09L234.47,141.51"/><path style="stroke:#000000;stroke-width:0.353" d="M275.08,135.09L275.08,141.51"/></g><g id="Line3"><path style="stroke:#000000;stroke-width:0.353;fill:#ffffff" d="M213.53,141.51L286.97,141.51L286.97,147.93L213.53,147.93z"/><text xml:space="preserve" fill="#000000" stroke-width="0" x="216.00" y="146.44" font-size="4.69" opacity="1.00" font-family="Eurostile">3</text><text xml:space="preserve" fill="#000000" stroke-width="0" x="236.94" y="146.44" font-size="5.05" opacity="1.00" font-family="Eurostile">ROLLER BEARIN</text><text xml:space="preserve" fill="#000000" stroke-width="0" x="277.55" y="146.44" font-size="4.27" opacity="1.00" font-family="Eurostile">1</text><path style="stroke:#000000;stroke-width:0.353" d="M234.47,141.51L234.47,147.93"/><path style="stroke:#000000;stroke-width:0.353" d="M275.08,141.51L275.08,147.93"/></g><g id="Line4"><path style="stroke:#000000;stroke-width:0.353;fill:#f0f0ff" d="M213.53,147.93L286.97,147.93L286.97,154.34L213.53,154.34z"/><text xml:space="preserve" fill="#000000" stroke-width="0" x="216.00" y="152.86" font-size="4.90" opacity="1.00" font-family="Eurostile">4</text><text xml:space="preserve" fill="#000000" stroke-width="0" x="236.94" y="152.86" font-size="5.01" opacity="1.00" font-family="Eurostile">LIP SEAL</text><text xml:space="preserve" fill="#000000" stroke-width="0" x="277.55" y="152.86" font-size="4.27" opacity="1.00" font-family="Eurostile">1</text><path style="stroke:#000000;stroke-width:0.353" d="M234.47,147.93L234.47,154.34"/><path style="stroke:#000000;stroke-width:0.353" d="M275.08,147.93L275.08,154.34"/></g><g id="Line5"><path style="stroke:#000000;stroke-width:0.353;fill:#ffffff" d="M213.53,154.34L286.97,154.34L286.97,160.76L213.53,160.76z"/><text xml:space="preserve" fill="#000000" stroke-width="0" x="216.00" y="159.28" font-size="4.58" opacity="1.00" font-family="Eurostile">5</text><text xml:space="preserve" fill="#000000" stroke-width="0" x="236.94" y="159.28" font-size="5.04" opacity="1.00" font-family="Eurostile">RETAINING RING</text><text xml:space="preserve" fill="#000000" stroke-width="0" x="277.55" y="159.28" font-size="4.27" opacity="1.00" font-family="Eurostile">1</text><path style="stroke:#000000;stroke-width:0.353" d="M234.47,154.34L234.47,160.76"/><path style="stroke:#000000;stroke-width:0.353" d="M275.08,154.34L275.08,160.76"/></g><g id="Line6"><path style="stroke:#000000;stroke-width:0.353;fill:#f0f0ff" d="M213.53,160.76L286.97,160.76L286.97,167.18L213.53,167.18z"/><text xml:space="preserve" fill="#000000" stroke-width="0" x="216.00" y="165.70" font-size="4.71" opacity="1.00" font-family="Eurostile">6</text><text xml:space="preserve" fill="#000000" stroke-width="0" x="236.94" y="165.70" font-size="5.02" opacity="1.00" font-family="Eurostile">RING SHIM
</text><text xml:space="preserve" fill="#000000" stroke-width="0" x="277.55" y="165.70" font-size="4.27" opacity="1.00" font-family="Eurostile">1</text><path style="stroke:#000000;stroke-width:0.353" d="M234.47,160.76L234.47,167.18"/><path style="stroke:#000000;stroke-width:0.353" d="M275.08,160.76L275.08,167.18"/></g></g><g id="hotspot.0" ident="" onmouseover="ShowHotSpot(evt,&apos;0&apos;)" onmouseout="HideHotSpot(evt,&apos;0&apos;)" onmousemove="ShowToolTip(evt,&apos;0&apos;,&quot;ICON&quot;)" opacity="0"><a xlink:href="home.svg"><path style="fill:#00ff00;fill-rule:evenodd" d="M154.00,205.79L129.89,205.79L129.89,182.00L154.00,182.00z"/></a></g><g id="hotspot.1" ident="" onmouseover="ShowHotSpot(evt,&apos;1&apos;)" onmouseout="HideHotSpot(evt,&apos;1&apos;)" onmousemove="ShowToolTip(evt,&apos;1&apos;,&quot;REDIRECT TO SECTIONS PAGE&quot;)" opacity="0"><a xlink:href="section.svg"><path style="fill:#00ff00;fill-rule:evenodd" d="M67.36,109.56L23.11,109.56L23.11,100.16L67.36,100.16z"/></a></g><g id="hotspot.2" ident="" onmouseover="ShowHotSpot(evt,&apos;2&apos;)" onmouseout="HideHotSpot(evt,&apos;2&apos;)" onmousemove="ShowToolTip(evt,&apos;2&apos;,&quot;REDIRECT TO SECTIONS PAGE&quot;)" opacity="0"><a xlink:href="section.svg"><path style="fill:#00ff00;fill-rule:evenodd" d="M83.65,111.60L83.68,165.17L8.09,165.19L7.87,111.45L83.42,111.37z"/></a></g><g id="hotspot.3" ident="" onmouseover="ShowHotSpot(evt,&apos;3&apos;)" onmouseout="HideHotSpot(evt,&apos;3&apos;)" onmousemove="ShowToolTip(evt,&apos;3&apos;,&quot;&quot;)" opacity="0"><path style="fill:#00ff00;fill-rule:evenodd" d="M213.53,128.67L213.53,135.09L286.97,135.09L286.97,128.67zM145.39,36.19L145.27,44.24L143.32,44.53L143.09,46.62L142.72,46.62L142.49,44.53L140.22,44.24L140.22,36.00L145.08,35.87zM142.77,51.74L142.40,51.74L142.40,49.29L142.77,49.29zM142.77,56.85L142.40,56.85L142.40,54.40L142.77,54.40zM143.44,59.89L145.35,61.82L147.93,66.59L148.15,67.96L148.50,68.25L149.22,70.42L149.50,70.77L150.17,73.30L150.46,73.64L151.13,76.17L151.45,76.50L151.73,78.45L152.41,79.69L152.69,81.65L153.03,82.27L153.24,83.55L153.68,84.82L153.92,86.71L154.32,87.69L155.16,92.50L155.60,94.09L156.22,98.90L156.54,104.97L156.14,107.23L154.83,109.44L141.84,112.67L139.59,111.06L138.35,109.42L135.75,104.02L135.13,102.09L134.79,101.47L134.50,99.84L133.82,98.92L133.54,96.96L132.86,95.72L132.59,94.08L132.23,93.48L131.94,91.53L131.63,91.20L130.99,88.00L130.63,87.40L130.35,85.45L129.99,84.84L129.71,82.25L129.35,81.65L128.73,77.57L128.77,76.84L128.39,76.21L128.39,74.56L128.07,73.66L127.66,68.54L128.07,65.09L129.37,62.55L141.09,59.58L142.82,59.56zM136.98,94.67L137.66,94.71L137.65,96.50L137.29,96.50z"/></g><g id="hotspot.4" ident="" onmouseover="ShowHotSpot(evt,&apos;4&apos;)" onmouseout="HideHotSpot(evt,&apos;4&apos;)" onmousemove="ShowToolTip(evt,&apos;4&apos;,&quot;&quot;)" opacity="0"><path style="fill:#00ff00;fill-rule:evenodd" d="M213.53,135.09L213.53,141.51L286.97,141.51L286.97,135.09zM186.64,35.87L186.64,43.73L186.32,44.05L183.42,44.25L181.15,43.92L181.15,35.68L186.32,35.55zM183.69,49.50L183.32,49.50L183.32,47.05L183.69,47.05zM183.69,54.61L183.32,54.61L183.32,52.16L183.69,52.16zM222.40,58.61L223.99,62.78L225.60,69.48L225.51,73.97L213.04,77.17L209.84,78.12L209.27,79.80L190.97,84.53L188.74,84.50L176.25,87.73L175.43,87.72L174.78,87.03L173.71,87.06L156.56,91.24L154.62,87.40L153.32,83.25L152.39,78.11L152.39,74.71L154.53,73.97L170.27,69.88L170.83,68.53L184.66,65.09L185.19,64.34L203.12,59.89L204.52,59.87L205.38,60.97L209.92,59.98L220.39,57.33L221.46,57.30zM183.69,59.73L183.32,59.73L183.32,57.28L183.69,57.28zM183.37,64.84L183.00,64.84L183.00,62.40L183.37,62.40z"/></g><g id="hotspot.5" ident="" onmouseover="ShowHotSpot(evt,&apos;5&apos;)" onmouseout="HideHotSpot(evt,&apos;5&apos;)" onmousemove="ShowToolTip(evt,&apos;5&apos;,&quot;CirPattern2[13]&quot;)" opacity="0"><path style="fill:#00ff00;fill-rule:evenodd" d="M213.53,141.51L213.53,147.93L286.97,147.93L286.97,141.51zM234.59,21.17L234.46,29.22L231.87,29.50L231.65,30.96L231.28,30.96L231.05,29.50L229.10,29.22L229.10,20.98L234.27,20.85zM231.33,36.07L230.96,36.07L230.96,33.62L231.33,33.62zM231.01,41.19L230.64,41.19L230.64,38.74L231.01,38.74zM234.57,44.85L236.15,47.42L238.39,52.54L241.25,62.78L242.86,72.04L242.87,76.31L242.55,77.26L241.83,78.15L235.42,79.72L233.60,79.70L231.67,77.16L228.78,69.82L226.24,59.89L225.28,54.14L224.84,49.36L225.29,46.90L226.12,46.13L229.39,45.25L230.35,43.88L230.66,43.88L230.95,44.64L233.93,44.53z"/></g><g id="hotspot.6" ident="" onmouseover="ShowHotSpot(evt,&apos;6&apos;)" onmouseout="HideHotSpot(evt,&apos;6&apos;)" onmousemove="ShowToolTip(evt,&apos;6&apos;,&quot;&quot;)" opacity="0"><path style="fill:#00ff00;fill-rule:evenodd" d="M213.53,147.93L213.53,154.34L286.97,154.34L286.97,147.93zM104.15,51.22L104.03,59.27L102.07,59.55L101.85,61.01L101.48,61.01L101.25,59.56L98.66,59.27L98.66,51.03L103.83,50.90zM102.51,66.00L101.89,66.00L101.80,63.67L102.17,63.67zM102.83,71.21L102.46,71.21L102.16,70.81L102.12,68.79L102.49,68.79zM102.91,74.15L103.13,76.35L102.77,76.35L102.51,75.24L102.43,73.91L102.80,73.91zM103.85,78.71L106.35,83.23L109.55,92.82L111.78,103.69L112.10,109.87L111.80,111.16L111.15,111.79L108.18,112.65L106.04,112.63L104.11,110.09L101.23,102.74L98.99,94.43L97.72,87.38L97.30,81.95L97.92,79.70L98.89,79.07L102.88,78.13z"/></g><g id="hotspot.7" ident="" onmouseover="ShowHotSpot(evt,&apos;7&apos;)" onmouseout="HideHotSpot(evt,&apos;7&apos;)" onmousemove="ShowToolTip(evt,&apos;7&apos;,&quot;&quot;)" opacity="0"><path style="fill:#00ff00;fill-rule:evenodd" d="M213.53,154.34L213.53,160.76L286.97,160.76L286.97,154.34zM113.11,48.66L112.98,56.71L111.36,57.00L111.11,58.13L110.76,58.13L110.51,57.00L107.93,56.71L107.93,48.47L112.79,48.34zM111.47,61.80L111.44,63.25L111.07,63.25L110.73,60.82L111.10,60.82zM111.78,68.34L111.41,68.34L111.12,67.59L111.07,65.91L111.44,65.91zM112.10,73.45L111.73,73.45L111.43,73.05L111.39,71.02L111.76,71.02zM111.16,75.87L112.10,76.20L112.40,77.82L112.79,78.39L115.29,84.84L118.18,95.06L119.78,104.65L119.78,109.55L119.47,110.52L118.73,111.07L117.53,111.07L116.88,107.64L118.22,107.03L117.54,100.18L115.30,90.58L113.07,83.87L110.83,79.40L110.20,78.72L110.19,85.15L111.13,90.91L113.37,99.55L115.31,103.68L115.31,106.05L114.25,106.04L112.09,100.51L109.54,90.91L108.27,83.55L107.95,80.35L107.95,77.58L108.23,75.94L109.10,75.21L110.53,75.21z"/></g><g id="hotspot.8" ident="" onmouseover="ShowHotSpot(evt,&apos;8&apos;)" onmouseout="HideHotSpot(evt,&apos;8&apos;)" onmousemove="ShowToolTip(evt,&apos;8&apos;,&quot;&quot;)" opacity="0"><path style="fill:#00ff00;fill-rule:evenodd" d="M213.53,160.76L213.53,167.18L286.97,167.18L286.97,160.76zM124.93,42.59L124.81,50.64L122.85,50.96L119.44,50.64L119.44,42.40L124.61,42.27zM122.63,56.21L122.26,56.21L122.26,53.76L122.63,53.76zM122.73,59.12L122.96,61.32L122.59,61.32L122.33,60.22L122.25,58.88L122.62,58.88zM122.95,66.44L122.58,66.44L122.58,63.99L122.95,63.99zM123.33,69.44L123.27,71.56L122.90,71.56L122.59,69.10zM122.35,73.95L123.28,74.29L123.94,76.19L126.48,82.60L129.04,91.87L130.65,101.13L130.65,105.72L130.23,106.88L128.72,107.24L127.48,106.22L124.89,100.82L122.33,92.51L120.42,83.87L119.78,78.76L119.77,75.01L120.09,73.74L121.71,73.28zM123.94,83.55L125.52,87.72L127.13,94.42L127.15,98.05L126.86,97.97L125.20,94.12L123.61,87.71L123.30,85.79L123.28,82.26z"/></g><g id="ToolTip" visibility="hidden" opacity="0" transform="translate(0,0)"><rect id="ToolTipShadow" opacity="0.20" fill="black" stroke="none" x="0" y="0" width="30" height="8"/><rect id="ToolTipBG" fill="#ffffe1" stroke="black" x="0" y="0" width="30" height="8"/><text xml:space="preserve" id="ToolTipText" fill="black" x="0" y="0" width="30" height="8">tooltip</text></g></g></svg>